<?xml version="1.0" encoding="utf-8"?>
<!-- Generator: Adobe Illustrator 16.0.0, SVG Export Plug-In . SVG Version: 6.00 Build 0)  -->
<!DOCTYPE svg PUBLIC "-//W3C//DTD SVG 1.1//EN" "http://www.w3.org/Graphics/SVG/1.1/DTD/svg11.dtd">
<svg version="1.1" id="图层_1" xmlns="http://www.w3.org/2000/svg" xmlns:xlink="http://www.w3.org/1999/xlink" x="0px" y="0px"
	 width="60px" height="60px" viewBox="0 0 60 60" enable-background="new 0 0 60 60" xml:space="preserve">
<g>
	
		<linearGradient id="SVGID_1_" gradientUnits="userSpaceOnUse" x1="297.6602" y1="-389.9595" x2="297.6602" y2="-329.96" gradientTransform="matrix(1 0 0 -1 -267.6602 -329.96)">
		<stop  offset="0" style="stop-color:#5D5D5D"/>
		<stop  offset="1" style="stop-color:#999999"/>
	</linearGradient>
	<path fill="url(#SVGID_1_)" d="M60,51c0,4.971-4.029,9-9,9H9c-4.971,0-9-4.029-9-9V9c0-4.971,4.029-9,9-9h42c4.971,0,9,4.029,9,9
		V51z"/>
	<path fill="#FFFFFF" d="M32.891,31.751c-0.358,0.956-0.89,1.015-1.764,0.692c-4.478-1.652-9.074-2.756-13.886-2.683
		c-1.584,0.025-3.153,0.205-4.622,0.878c-3.34,1.143-5.512,4.178-5.616,7.851c-0.098,3.454,1.95,6.407,5.417,7.808l0.09,0.023
		c0.176,0.226,0.406,0.315,0.688,0.283c0.107,0.029,0.214,0.062,0.322,0.09c0.234,0.203,0.5,0.31,0.814,0.258
		c5.364,1.273,10.249,0.186,14.682-3.024c1.595-1.157,3.015-2.524,4.261-4.048c0.582-0.711,1.037-0.84,1.92-0.439
		c5.8,2.636,11.619,5.228,17.469,7.746c0.123,0.054,0.232,0.106,0.334,0.162v-7.854c-0.146-0.022-0.314-0.067-0.516-0.134
		c-4.59-1.52-9.207-2.959-13.832-4.364c-1.109-0.337-1.482-0.599-0.784-1.798c1.401-2.407,2.289-5.05,3.093-7.714
		c0.301-1.002,0.301-1.574-1.074-1.516c-2.537,0.109-5.082-0.008-7.623,0.045c-0.922,0.021-1.234-0.229-1.224-1.195
		c0.03-2.306-0.021-2.306,2.243-2.306c3.068,0.001,6.139-0.016,9.207,0.011c0.771,0.007,1.229-0.06,1.229-1.053
		c-0.002-1.01-0.5-1.06-1.25-1.056c-3.402,0.017-6.809-0.017-10.211,0.025c-0.92,0.011-1.287-0.233-1.21-1.215
		c0.091-1.143-0.028-2.301,0.035-3.449c0.046-0.843-0.183-1.177-1.092-1.205c-4.672-0.141-4.71-0.164-4.706,4.536
		c0,1.142-0.418,1.348-1.431,1.332c-3.068-0.056-6.137-0.008-9.206-0.022c-0.757-0.002-1.232,0.07-1.223,1.069
		c0.009,1.009,0.483,1.047,1.247,1.041c2.925-0.028,5.85-0.024,8.774-0.008c1.956,0.008,1.712-0.335,1.834,1.865
		c0.074,1.342-0.34,1.717-1.675,1.647c-2.247-0.121-4.505-0.018-6.758-0.031c-0.727-0.006-1.291-0.012-1.291,1.014
		c0,1.07,0.632,0.969,1.321,0.969c5.609-0.008,11.219,0.025,16.828-0.035c1.256-0.014,1.488,0.34,1.002,1.434
		C34.066,28.822,33.445,30.273,32.891,31.751z M29.031,37.784c-3.71,4.319-8.091,7.134-14.11,6.241
		c-0.134-0.021-0.278,0.025-0.417,0.041c-0.571-0.23-1.141-0.457-1.709-0.692c-3.502-1.462-4.685-5.212-2.465-7.896
		c0.419-0.506,0.966-0.905,1.455-1.354c0.274-0.149,0.55-0.298,0.825-0.444c0.145-0.056,0.29-0.109,0.436-0.164l0.082,0.03
		l0.065-0.06c0.095-0.023,0.189-0.051,0.283-0.078c5.527-0.85,10.576,0.76,15.514,2.986C30.021,36.861,29.41,37.344,29.031,37.784z"
		/>
</g>
</svg>
