<?xml version="1.0" encoding="utf-8"?>
<!-- Generator: Adobe Illustrator 16.0.0, SVG Export Plug-In . SVG Version: 6.00 Build 0)  -->
<!DOCTYPE svg PUBLIC "-//W3C//DTD SVG 1.1//EN" "http://www.w3.org/Graphics/SVG/1.1/DTD/svg11.dtd">
<svg version="1.1" id="图层_1" xmlns="http://www.w3.org/2000/svg" xmlns:xlink="http://www.w3.org/1999/xlink" x="0px" y="0px"
	 width="60px" height="60px" viewBox="0 0 60 60" enable-background="new 0 0 60 60" xml:space="preserve">
<linearGradient id="SVGID_1_" gradientUnits="userSpaceOnUse" x1="297.6602" y1="-329.96" x2="297.6602" y2="-389.9604" gradientTransform="matrix(1 0 0 -1 -267.6602 -329.96)">
	<stop  offset="0" style="stop-color:#5D5D5D"/>
	<stop  offset="1" style="stop-color:#999999"/>
</linearGradient>
<path fill="url(#SVGID_1_)" d="M60,51c0,4.971-4.029,9-9,9H9c-4.971,0-9-4.029-9-9V9c0-4.971,4.029-9,9-9h42c4.971,0,9,4.029,9,9V51
	z"/>
<g>
	<path fill="#FFFFFF" d="M10.5,46.875c0,0,0.289-10.544,9.389-14.589c9.101-4.044,16.177-8.089,17.044-12.855
		c0.866-4.767,0-12.278,6.789-13c5.488-0.434,3.899,0,5.777,1.011c-1.589,0.722-6.355,1.877-5.057,7.222
		c1.156,3.322,4.189,7.655,1.59,11.844c-2.6,4.189-7.078,7.367-17.767,8.811c-10.689,1.445-12.855,2.168-16.611,11.412
		C11.655,46.73,10.681,48.428,10.5,46.875z"/>
	<path fill="#FFFFFF" d="M46.105,29.108c-3.25,6.066-11.34,7.294-17.694,7.944c-13.506,1.011-16.11,8.912-16.105,9.173
		c0.012,0.723,0.938-0.217,0.938-0.217c2.299-3.029,5.422-4.609,8.763-5.445c-1.226,1.398-1.974,3.225-1.974,5.229
		c0,4.388,3.557,7.944,7.944,7.944c4.386,0,7.944-3.557,7.944-7.944c0-2.515-1.17-4.75-2.991-6.206
		c2.385-0.029,4.512-0.068,6.098-0.438C45.648,37.391,46.828,29.325,46.105,29.108z M34.839,44.997c0,1.901-1.541,3.442-3.442,3.442
		c-1.9,0-3.442-1.541-3.442-3.442s1.542-3.442,3.442-3.442C33.298,41.555,34.839,43.096,34.839,44.997z"/>
</g>
</svg>
