<?xml version="1.0" encoding="utf-8"?>
<!-- Generator: Adobe Illustrator 16.0.0, SVG Export Plug-In . SVG Version: 6.00 Build 0)  -->
<!DOCTYPE svg PUBLIC "-//W3C//DTD SVG 1.1//EN" "http://www.w3.org/Graphics/SVG/1.1/DTD/svg11.dtd">
<svg version="1.1" id="图层_1" xmlns="http://www.w3.org/2000/svg" xmlns:xlink="http://www.w3.org/1999/xlink" x="0px" y="0px"
	 width="60px" height="60px" viewBox="0 0 60 60" enable-background="new 0 0 60 60" xml:space="preserve">
<linearGradient id="SVGID_1_" gradientUnits="userSpaceOnUse" x1="297.6602" y1="-389.9595" x2="297.6602" y2="-329.96" gradientTransform="matrix(1 0 0 -1 -267.6602 -329.96)">
	<stop  offset="0.0035" style="stop-color:#FF8E00"/>
	<stop  offset="1" style="stop-color:#FF5000"/>
</linearGradient>
<path fill="url(#SVGID_1_)" d="M60,51c0,4.971-4.029,9-9,9H9c-4.971,0-9-4.029-9-9V9c0-4.971,4.03-9,9-9h42c4.971,0,9,4.029,9,9V51z
	"/>
<path fill="#FFFFFF" d="M17.237,7.52v43.647H43.43V7.52H17.237z M30.333,48.732c-1.627,0-2.947-1.318-2.947-2.946
	c0-1.627,1.319-2.948,2.947-2.948c1.626,0,2.946,1.321,2.946,2.948C33.279,47.414,31.959,48.732,30.333,48.732z M35.077,13.408
	h-9.488c-0.808,0-1.464-0.655-1.464-1.464s0.656-1.464,1.464-1.464h9.488c0.81,0,1.465,0.655,1.465,1.464
	C36.542,12.752,35.887,13.408,35.077,13.408z"/>
</svg>
