<?xml version="1.0" encoding="utf-8"?>
<!-- Generator: Adobe Illustrator 16.0.0, SVG Export Plug-In . SVG Version: 6.00 Build 0)  -->
<!DOCTYPE svg PUBLIC "-//W3C//DTD SVG 1.1//EN" "http://www.w3.org/Graphics/SVG/1.1/DTD/svg11.dtd">
<svg version="1.1" id="图层_1" xmlns="http://www.w3.org/2000/svg" xmlns:xlink="http://www.w3.org/1999/xlink" x="0px" y="0px"
	 width="60px" height="60px" viewBox="0 0 60 60" enable-background="new 0 0 60 60" xml:space="preserve">
<linearGradient id="SVGID_1_" gradientUnits="userSpaceOnUse" x1="297.6602" y1="-389.9595" x2="297.6602" y2="-329.96" gradientTransform="matrix(1 0 0 -1 -267.6602 -329.96)">
	<stop  offset="0.0035" style="stop-color:#00CBE7"/>
	<stop  offset="1" style="stop-color:#11A3E7"/>
</linearGradient>
<path fill="url(#SVGID_1_)" d="M60,51c0,4.971-4.029,9-9,9H9c-4.971,0-9-4.029-9-9V9c0-4.971,4.029-9,9-9h42c4.971,0,9,4.029,9,9V51
	z"/>
<path fill="#FFFFFF" d="M52.307,29.908L31.576,9.453c-0.459-0.458-1.01-0.733-1.56-0.733s-1.101,0.184-1.559,0.642L7.636,29.908
	c-1.376,1.283-0.366,3.669,1.56,3.669h3.485c1.192,0,1.284,0.918,1.284,2.108V49.17c0,1.193,1.743,2.109,2.936,2.109h26.783
	c1.192,0,2.937-0.916,2.937-2.109V35.688c0-1.191,0.185-2.109,1.284-2.109h2.752C52.766,33.577,53.773,31.191,52.307,29.908z
	 M36.438,39.448c1.285,0,1.928,0.733,1.928,1.559c0,0.826-0.643,1.651-1.928,1.651h-4.77v0.275c0,1.834-0.643,2.293-1.834,2.293
	c-1.285,0-1.835-0.459-1.835-2.293v-0.275H23.32c-1.283,0-1.926-0.826-1.926-1.651c0.092-0.917,0.734-1.651,2.019-1.651h4.678V37.43
	h-4.678c-1.284,0-1.927-0.824-1.927-1.65c0-0.825,0.643-1.559,1.927-1.559h3.394l-4.128-6.422c-0.367-0.551-0.55-0.918-0.642-1.101
	c-0.092-0.184-0.184-0.459-0.184-0.734c0-0.459,0.184-0.825,0.458-1.101c0.275-0.275,0.643-0.459,1.102-0.459
	c0.458,0,0.825,0.184,1.101,0.459c0.274,0.275,0.642,0.733,1.009,1.376l4.402,6.88l3.944-6.513c0.184-0.275,0.275-0.551,0.459-0.826
	c0.184-0.275,0.367-0.55,0.459-0.733c0.184-0.184,0.365-0.367,0.55-0.459c0.274-0.092,0.552-0.184,0.826-0.184
	c0.458,0,0.825,0.184,1.101,0.459c0.274,0.275,0.459,0.642,0.459,1.009c0,0.275-0.093,0.643-0.185,0.918
	c-0.093,0.274-0.274,0.55-0.55,1.009l-3.944,6.512h3.394c1.285,0,1.928,0.734,1.928,1.561s-0.643,1.65-1.928,1.65h-4.77v1.928
	L36.438,39.448L36.438,39.448z"/>
</svg>
