<?xml version="1.0" encoding="utf-8"?>
<!-- Generator: Adobe Illustrator 16.0.0, SVG Export Plug-In . SVG Version: 6.00 Build 0)  -->
<!DOCTYPE svg PUBLIC "-//W3C//DTD SVG 1.1//EN" "http://www.w3.org/Graphics/SVG/1.1/DTD/svg11.dtd">
<svg version="1.1" id="图层_1" xmlns="http://www.w3.org/2000/svg" xmlns:xlink="http://www.w3.org/1999/xlink" x="0px" y="0px"
	 width="60px" height="60px" viewBox="0 0 60 60" enable-background="new 0 0 60 60" xml:space="preserve">
<linearGradient id="SVGID_1_" gradientUnits="userSpaceOnUse" x1="30.0005" y1="60" x2="30.0005" y2="4.882813e-004">
	<stop  offset="0" style="stop-color:#E94700"/>
	<stop  offset="1" style="stop-color:#E9A100"/>
</linearGradient>
<path fill="url(#SVGID_1_)" d="M60,51c0,4.971-4.029,9-9,9H9c-4.971,0-9-4.029-9-9V9c0-4.971,4.029-9,9-9h42c4.971,0,9,4.029,9,9V51
	z"/>
<g>
	<path fill="#FFFFFF" d="M24.872,52.94C12.845,52.94,7,50.128,7,44.329c0-4.073,6.073-6.749,12.21-7.681v-0.348
		c-4.584-3.506-5.197-9.771-5.197-14.922c0-7.014,4.128-11.206,11.05-11.206h0.365c6.923,0,11.051,4.192,11.051,11.206
		c0,5.15-0.612,11.406-5.196,14.922v0.348c6.137,0.932,12.21,3.598,12.21,7.681C43.493,48.265,40.26,52.94,24.872,52.94z
		 M25.063,13.58c-5.078,0-7.653,2.63-7.653,7.808c0,4.85,0.521,10.128,4.411,12.604c0.493,0.311,0.785,0.849,0.785,1.434v2.722
		c0,0.867-0.657,1.598-1.516,1.689c-6.429,0.676-10.694,3.15-10.694,4.493c0,3.461,4.868,5.214,14.475,5.214
		c9.672,0,15.224-1.899,15.224-5.214c0-1.343-4.265-3.817-10.694-4.493c-0.867-0.092-1.516-0.822-1.516-1.689v-2.722
		c0-0.585,0.301-1.123,0.785-1.434c3.882-2.476,4.411-7.763,4.411-12.604c0-5.178-2.575-7.808-7.653-7.808H25.063L25.063,13.58z"/>
	<path fill="#FFFFFF" d="M51.301,42.512c-0.94,0-1.698-0.759-1.698-1.699c0-1.297-4.841-4.456-10.457-5.05
		c-0.867-0.092-1.524-0.822-1.524-1.689v-3.525c0-0.584,0.301-1.123,0.785-1.434c4.393-2.795,4.867-9.014,4.867-11.562
		c0-5.863-3.963-7.096-7.287-7.096c-0.94,0-1.698-0.758-1.698-1.699c0-0.94,0.758-1.698,1.698-1.698
		c6.594,0,10.685,4.018,10.685,10.493c0,2.959-0.566,10.019-5.653,13.872v1.178C46.442,33.589,53,36.85,53,40.813
		C53.009,41.753,52.242,42.512,51.301,42.512z"/>
</g>
</svg>
