<?xml version="1.0" encoding="utf-8"?>
<!-- Generator: Adobe Illustrator 16.0.0, SVG Export Plug-In . SVG Version: 6.00 Build 0)  -->
<!DOCTYPE svg PUBLIC "-//W3C//DTD SVG 1.1//EN" "http://www.w3.org/Graphics/SVG/1.1/DTD/svg11.dtd">
<svg version="1.1" id="图层_1" xmlns="http://www.w3.org/2000/svg" xmlns:xlink="http://www.w3.org/1999/xlink" x="0px" y="0px"
	 width="60px" height="60px" viewBox="0 0 60 60" enable-background="new 0 0 60 60" xml:space="preserve">
<linearGradient id="SVGID_1_" gradientUnits="userSpaceOnUse" x1="30.0005" y1="60" x2="30.0005" y2="4.882813e-004">
	<stop  offset="0" style="stop-color:#0065FF"/>
	<stop  offset="0.0309" style="stop-color:#0366FF"/>
	<stop  offset="0.686" style="stop-color:#3D79FF"/>
	<stop  offset="1" style="stop-color:#5481FF"/>
</linearGradient>
<path fill="url(#SVGID_1_)" d="M60,51c0,4.971-4.029,9-9,9H9c-4.971,0-9-4.029-9-9V9c0-4.971,4.029-9,9-9h42c4.971,0,9,4.029,9,9V51
	z"/>
<path fill="#FFFFFF" d="M42.551,29.679h-8.348c-3.07-0.006-5.557-2.496-5.56-5.566v-8.344c0.004-3.069,2.49-5.556,5.56-5.563h8.348
	c3.072,0.002,5.562,2.491,5.566,5.563v8.344C48.113,27.183,45.618,29.679,42.551,29.679L42.551,29.679z M34.203,12.987
	c-1.534,0.004-2.776,1.248-2.777,2.781v8.344c0,1.535,1.249,2.785,2.777,2.785h8.348c1.538,0,2.785-1.247,2.785-2.785v-8.344
	c-0.002-1.537-1.249-2.781-2.785-2.781H34.203z M21.688,12.987h-8.344c-0.768,0.039-1.422-0.552-1.461-1.32
	c-0.039-0.769,0.552-1.423,1.321-1.461c0.047-0.002,0.094-0.002,0.141,0h8.344c0.769,0,1.391,0.623,1.391,1.391
	S22.457,12.987,21.688,12.987z M21.688,25.395h-8.344c-0.768,0.039-1.422-0.553-1.461-1.321c-0.039-0.768,0.552-1.422,1.321-1.461
	c0.046-0.002,0.094-0.002,0.141,0h8.344c0.769,0,1.391,0.623,1.391,1.391S22.457,25.395,21.688,25.395z M46.725,38.026h-33.38
	c-0.769,0-1.393-0.623-1.394-1.392c0-0.769,0.622-1.393,1.392-1.394c0,0,0.001,0,0.002,0h33.38c0.769-0.001,1.393,0.622,1.394,1.392
	s-0.622,1.393-1.392,1.394C46.726,38.026,46.725,38.026,46.725,38.026z M34.203,49.795H13.345c-0.768,0.039-1.422-0.553-1.461-1.321
	c-0.039-0.768,0.552-1.422,1.321-1.46c0.047-0.003,0.094-0.003,0.141,0h20.858c0.768-0.04,1.422,0.552,1.461,1.32
	c0.039,0.768-0.552,1.421-1.32,1.461C34.297,49.797,34.249,49.797,34.203,49.795z"/>
</svg>
