<?xml version="1.0" encoding="utf-8"?>
<!-- Generator: Adobe Illustrator 16.0.0, SVG Export Plug-In . SVG Version: 6.00 Build 0)  -->
<!DOCTYPE svg PUBLIC "-//W3C//DTD SVG 1.1//EN" "http://www.w3.org/Graphics/SVG/1.1/DTD/svg11.dtd">
<svg version="1.1" id="图层_1" xmlns="http://www.w3.org/2000/svg" xmlns:xlink="http://www.w3.org/1999/xlink" x="0px" y="0px"
	 width="60px" height="60px" viewBox="0 0 60 60" enable-background="new 0 0 60 60" xml:space="preserve">
<linearGradient id="SVGID_1_" gradientUnits="userSpaceOnUse" x1="-486.0601" y1="1868.0391" x2="-486.0601" y2="1928.04" gradientTransform="matrix(1 0 0 1 516.0596 -1868.04)">
	<stop  offset="0" style="stop-color:#5D5D5D"/>
	<stop  offset="1" style="stop-color:#999999"/>
</linearGradient>
<path fill="url(#SVGID_1_)" d="M60,51c0,4.971-4.029,9-9,9H9c-4.971,0-9-4.029-9-9V9c0-4.971,4.029-9,9-9h42c4.971,0,9,4.029,9,9V51
	z"/>
<g>
	<path fill-rule="evenodd" clip-rule="evenodd" fill="#FFFFFF" d="M38.519,21.437c0,0-4.168,1.427-8.293,1.427
		c-4.102,0-8.156-1.427-8.156-1.427s1.426,3.886,1.426,7.886c0,4.22-1.426,8.564-1.426,8.564s4.299-1.359,8.497-1.359
		c4.023,0,7.952,1.359,7.952,1.359s-1.427-4.062-1.427-8.157C37.092,25.602,38.519,21.437,38.519,21.437 M34.42,33.787
		c0,0-1.971-0.682-3.99-0.682c-2.104,0-4.26,0.682-4.26,0.682s0.716-2.18,0.716-4.296c0-2.005-0.716-3.954-0.716-3.954
		s2.033,0.716,4.09,0.716c2.067,0,4.16-0.716,4.16-0.716s-0.717,2.088-0.717,4.158C33.703,31.751,34.42,33.787,34.42,33.787"/>
	<path fill-rule="evenodd" clip-rule="evenodd" fill="#FFFFFF" d="M34.993,46.12c-9.511,2.549-19.285-3.095-21.833-12.605
		c-2.549-9.511,3.095-19.285,12.605-21.834c5.843-1.566,11.788-0.037,16.093,3.583c-4.863-4.813-12.083-6.986-19.17-5.087
		C12.068,13.022,5.765,23.939,8.61,34.562c2.847,10.623,13.765,16.925,24.386,14.08c6.195-1.66,10.919-6.064,13.219-11.555
		C43.992,41.384,40.035,44.771,34.993,46.12"/>
	<path fill-rule="evenodd" clip-rule="evenodd" fill="#FFFFFF" d="M41.368,9.857c-8.857-5.123-19.679-3.748-26.953,2.649
		c6.779-5.478,16.499-6.526,24.502-1.896c10.389,6.01,13.954,19.311,7.964,29.708c-5.99,10.396-19.271,13.951-29.659,7.94
		C11.906,45.185,8.376,40.2,7,34.671c1.293,6.283,5.161,12.01,11.148,15.472c11.117,6.429,25.328,2.624,31.74-8.501
		C56.299,30.517,52.485,16.287,41.368,9.857"/>
</g>
</svg>
