<?xml version="1.0" encoding="utf-8"?>
<!-- Generator: Adobe Illustrator 16.0.0, SVG Export Plug-In . SVG Version: 6.00 Build 0)  -->
<!DOCTYPE svg PUBLIC "-//W3C//DTD SVG 1.1//EN" "http://www.w3.org/Graphics/SVG/1.1/DTD/svg11.dtd">
<svg version="1.1" id="图层_1" xmlns="http://www.w3.org/2000/svg" xmlns:xlink="http://www.w3.org/1999/xlink" x="0px" y="0px"
	 width="60px" height="60px" viewBox="0 0 60 60" enable-background="new 0 0 60 60" xml:space="preserve">
<linearGradient id="SVGID_1_" gradientUnits="userSpaceOnUse" x1="29.9995" y1="0" x2="29.9995" y2="60.0005">
	<stop  offset="0" style="stop-color:#FF973A"/>
	<stop  offset="1" style="stop-color:#FFCE3A"/>
</linearGradient>
<path fill="url(#SVGID_1_)" d="M60,51c0,4.971-4.029,9-9,9H9c-4.971,0-9-4.029-9-9V9c0-4.971,4.029-9,9-9h42c4.971,0,9,4.029,9,9V51
	z"/>
<g>
	<path fill="#FFFFFF" d="M25.782,8.913h8.436c0,0,12.087,15.565,18.782,20.782c-3.479-0.087-8.782,0-8.782,0
		S33.174,19.435,30.044,14.391c-0.696,0.957-4,6.435-14.088,15.304c-5.304-0.087-8.956,0-8.956,0S22.305,12.652,25.782,8.913z"/>
	<circle fill="#FFFFFF" cx="30" cy="25.522" r="5.203"/>
	<g>
		<linearGradient id="SVGID_2_" gradientUnits="userSpaceOnUse" x1="30.041" y1="22.29" x2="30.041" y2="28.8984">
			<stop  offset="0" style="stop-color:#FF973A"/>
			<stop  offset="1" style="stop-color:#FFCE3A"/>
		</linearGradient>
		<path fill="url(#SVGID_2_)" d="M29.362,28.288v-1.113h-1.329c-0.287,0-0.432-0.131-0.432-0.395
			c0.024-0.216,0.168-0.347,0.432-0.396h1.329v-0.61h-1.329c-0.287,0-0.432-0.131-0.432-0.395c0.024-0.215,0.168-0.347,0.432-0.395
			h0.754l-1.149-1.616c-0.119-0.096-0.168-0.228-0.144-0.395c0.024-0.407,0.252-0.634,0.683-0.683
			c0.215,0.024,0.396,0.12,0.539,0.288l1.328,1.903l1.33-1.903c0.119-0.167,0.299-0.264,0.538-0.288
			c0.407,0.048,0.635,0.275,0.683,0.683c0,0.167-0.048,0.299-0.144,0.395l-1.149,1.616h0.754c0.24,0.048,0.383,0.18,0.432,0.395
			c-0.024,0.264-0.168,0.395-0.432,0.395h-1.329v0.61h1.329c0.24,0.048,0.383,0.18,0.432,0.396
			c-0.024,0.264-0.168,0.395-0.432,0.395h-1.329v1.113c-0.023,0.408-0.251,0.61-0.683,0.61
			C29.59,28.898,29.362,28.696,29.362,28.288z"/>
	</g>
	<path fill="#FFFFFF" d="M13,31.652v2.392h25.782c0,0,1.044,0.695,0,1.651c0,0-5.232,8.305-12.659,15.392c2.269,0,7.659,0,7.659,0
		s8.436-8.479,13.436-16.956c0-0.87,0.217-1.739-1.826-2.479C43,31.652,13,31.652,13,31.652z"/>
</g>
</svg>
