<?xml version="1.0" encoding="utf-8"?>
<!-- Generator: Adobe Illustrator 16.0.0, SVG Export Plug-In . SVG Version: 6.00 Build 0)  -->
<!DOCTYPE svg PUBLIC "-//W3C//DTD SVG 1.1//EN" "http://www.w3.org/Graphics/SVG/1.1/DTD/svg11.dtd">
<svg version="1.1" id="图层_1" xmlns="http://www.w3.org/2000/svg" xmlns:xlink="http://www.w3.org/1999/xlink" x="0px" y="0px"
	 width="60px" height="60px" viewBox="0 0 60 60" enable-background="new 0 0 60 60" xml:space="preserve">
<linearGradient id="SVGID_1_" gradientUnits="userSpaceOnUse" x1="-1065.0991" y1="-1646.2002" x2="-1065.0991" y2="-1706.2007" gradientTransform="matrix(1 0 0 -1 1095.0996 -1646.2002)">
	<stop  offset="0" style="stop-color:#5D5D5D"/>
	<stop  offset="1" style="stop-color:#999999"/>
</linearGradient>
<path fill="url(#SVGID_1_)" d="M60,51c0,4.971-4.029,9-9,9H9c-4.971,0-9-4.029-9-9V9c0-4.971,4.029-9,9-9h42c4.971,0,9,4.029,9,9V51
	z"/>
<g>
	<path fill="#FFFFFF" d="M8.113,30.403c-0.283,0-0.565-0.107-0.782-0.321c-0.437-0.433-0.441-1.137-0.009-1.574L25.686,9.93
		c1.095-1.109,2.559-1.728,4.119-1.738c0.014,0,0.027,0,0.041,0c1.546,0,3.001,0.598,4.103,1.685l18.721,18.456
		c0.438,0.432,0.442,1.136,0.011,1.574c-0.432,0.438-1.137,0.442-1.574,0.011L32.385,11.46c-0.682-0.673-1.583-1.042-2.54-1.042
		c-0.009,0-0.017,0-0.025,0c-0.966,0.006-1.872,0.389-2.55,1.076L8.904,30.073C8.687,30.293,8.4,30.403,8.113,30.403z"/>
	<path fill="#FFFFFF" d="M44.302,51.809H15.364c-2.301,0-4.173-1.872-4.173-4.174V32.272c0-0.614,0.498-1.112,1.113-1.112
		s1.113,0.498,1.113,1.112v15.362c0,1.074,0.874,1.947,1.948,1.947h28.938c1.073,0,1.947-0.873,1.947-1.947V32.272
		c0-0.614,0.498-1.112,1.113-1.112c0.614,0,1.112,0.498,1.112,1.112v15.362C48.475,49.937,46.603,51.809,44.302,51.809z"/>
	<path fill="#FFFFFF" d="M29.833,21.958c-6.41,0-11.604,5.196-11.604,11.604c0,6.409,5.194,11.604,11.604,11.604
		s11.604-5.194,11.604-11.604C41.437,27.154,36.242,21.958,29.833,21.958z M34.417,32.363c0.536,0.104,0.854,0.401,0.963,0.88
		c-0.055,0.588-0.375,0.88-0.963,0.88h-2.964v1.363h2.964c0.536,0.107,0.854,0.401,0.963,0.88c-0.055,0.589-0.375,0.883-0.963,0.883
		h-2.964v2.482c-0.053,0.908-0.56,1.361-1.522,1.361c-1.013,0-1.521-0.453-1.521-1.361v-2.482h-2.964
		c-0.64,0-0.962-0.294-0.962-0.883c0.054-0.479,0.375-0.772,0.962-0.88h2.964v-1.363h-2.964c-0.64,0-0.962-0.292-0.962-0.88
		c0.054-0.479,0.375-0.775,0.962-0.88h1.681l-2.563-3.606c-0.266-0.213-0.375-0.505-0.32-0.88c0.054-0.908,0.562-1.415,1.522-1.522
		c0.479,0.055,0.882,0.269,1.202,0.643l2.962,4.243l2.966-4.243c0.267-0.374,0.667-0.588,1.2-0.643
		c0.908,0.107,1.416,0.614,1.522,1.522c0,0.375-0.106,0.667-0.32,0.88l-2.563,3.606H34.417z"/>
</g>
</svg>
