<?xml version="1.0" encoding="utf-8"?>
<!-- Generator: Adobe Illustrator 16.0.0, SVG Export Plug-In . SVG Version: 6.00 Build 0)  -->
<!DOCTYPE svg PUBLIC "-//W3C//DTD SVG 1.1//EN" "http://www.w3.org/Graphics/SVG/1.1/DTD/svg11.dtd">
<svg version="1.1" id="图层_1" xmlns="http://www.w3.org/2000/svg" xmlns:xlink="http://www.w3.org/1999/xlink" x="0px" y="0px"
	 width="60px" height="60px" viewBox="0 0 60 60" enable-background="new 0 0 60 60" xml:space="preserve">
<linearGradient id="SVGID_1_" gradientUnits="userSpaceOnUse" x1="29.9995" y1="0" x2="29.9995" y2="60.0005">
	<stop  offset="0" style="stop-color:#1554D4"/>
	<stop  offset="1" style="stop-color:#009DEA"/>
</linearGradient>
<path fill="url(#SVGID_1_)" d="M60,51c0,4.971-4.029,9-9,9H9c-4.971,0-9-4.029-9-9V9c0-4.971,4.029-9,9-9h42c4.971,0,9,4.029,9,9V51
	z"/>
<g>
	<path fill="#FFFFFF" d="M49.528,54.302H12.208c-1.917-0.002-3.47-1.555-3.472-3.472v-6.075c0-0.959,0.777-1.736,1.736-1.736
		s1.736,0.777,1.736,1.736v6.075h37.321V9.17H12.208v7.811c0,0.959-0.777,1.736-1.736,1.736s-1.736-0.777-1.736-1.736V9.17
		c0.002-1.917,1.555-3.47,3.472-3.472h37.321C51.444,5.7,52.998,7.253,53,9.17v41.66C52.998,52.747,51.444,54.3,49.528,54.302z"/>
	<path fill="#FFFFFF" d="M12.208,39.547H8.736C7.777,39.547,7,38.77,7,37.812c0-0.959,0.777-1.736,1.736-1.736h3.472
		c0.958,0,1.736,0.777,1.736,1.736C13.943,38.77,13.166,39.547,12.208,39.547z M12.208,32.604H8.736C7.777,32.604,7,31.826,7,30.868
		c0-0.959,0.777-1.736,1.736-1.736h3.472c0.958,0,1.736,0.777,1.736,1.736C13.943,31.826,13.166,32.604,12.208,32.604z
		 M12.208,25.66H8.736C7.777,25.66,7,24.883,7,23.924c0-0.958,0.777-1.736,1.736-1.736h3.472c0.958,0,1.736,0.777,1.736,1.736
		C13.943,24.883,13.166,25.66,12.208,25.66z M30.434,33.472c-4.785,0-8.679-3.894-8.679-8.679s3.894-8.679,8.679-8.679
		c4.786,0,8.68,3.894,8.68,8.679S35.22,33.472,30.434,33.472z M30.434,19.585c-2.875,0-5.207,2.332-5.207,5.208S27.558,30,30.434,30
		c2.876,0,5.208-2.332,5.208-5.208C35.639,21.917,33.309,19.588,30.434,19.585z"/>
	<path fill="#FFFFFF" d="M40.849,43.887c-0.958,0-1.735-0.777-1.735-1.735c0-4.786-3.894-8.68-8.68-8.68
		c-4.785,0-8.679,3.894-8.679,8.68c0,0.958-0.777,1.735-1.736,1.735c-0.959,0-1.736-0.777-1.736-1.735
		c0-6.711,5.44-12.151,12.15-12.151c6.711,0,12.151,5.44,12.151,12.151C42.585,43.109,41.808,43.887,40.849,43.887z"/>
	<path fill="#FFFFFF" d="M49.528,54.302H12.208c-1.917-0.002-3.47-1.555-3.472-3.472v-6.075c0-0.959,0.777-1.736,1.736-1.736
		s1.736,0.777,1.736,1.736v6.075h37.321V9.17H12.208v7.811c0,0.959-0.777,1.736-1.736,1.736s-1.736-0.777-1.736-1.736V9.17
		c0.002-1.917,1.555-3.47,3.472-3.472h37.321C51.444,5.7,52.998,7.253,53,9.17v41.66C52.998,52.747,51.444,54.3,49.528,54.302z"/>
	<path fill="#FFFFFF" d="M12.208,39.547H8.736C7.777,39.547,7,38.77,7,37.812c0-0.959,0.777-1.736,1.736-1.736h3.472
		c0.958,0,1.736,0.777,1.736,1.736C13.943,38.77,13.166,39.547,12.208,39.547z M12.208,32.604H8.736C7.777,32.604,7,31.826,7,30.868
		c0-0.959,0.777-1.736,1.736-1.736h3.472c0.958,0,1.736,0.777,1.736,1.736C13.943,31.826,13.166,32.604,12.208,32.604z
		 M12.208,25.66H8.736C7.777,25.66,7,24.883,7,23.924c0-0.958,0.777-1.736,1.736-1.736h3.472c0.958,0,1.736,0.777,1.736,1.736
		C13.943,24.883,13.166,25.66,12.208,25.66z M30.434,33.472c-4.785,0-8.679-3.894-8.679-8.679s3.894-8.679,8.679-8.679
		c4.786,0,8.68,3.894,8.68,8.679S35.22,33.472,30.434,33.472z M30.434,19.585c-2.875,0-5.207,2.332-5.207,5.208S27.558,30,30.434,30
		c2.876,0,5.208-2.332,5.208-5.208C35.639,21.917,33.309,19.588,30.434,19.585z"/>
	<path fill="#FFFFFF" d="M40.849,43.887c-0.958,0-1.735-0.777-1.735-1.735c0-4.786-3.894-8.68-8.68-8.68
		c-4.785,0-8.679,3.894-8.679,8.68c0,0.958-0.777,1.735-1.736,1.735c-0.959,0-1.736-0.777-1.736-1.735
		c0-6.711,5.44-12.151,12.15-12.151c6.711,0,12.151,5.44,12.151,12.151C42.585,43.109,41.808,43.887,40.849,43.887z"/>
</g>
</svg>
