<svg id="svg" version="1.1" width="400" height="400" viewBox="0 0 400 400" xmlns="http://www.w3.org/2000/svg" xmlns:xlink="http://www.w3.org/1999/xlink" ><g id="svgg"><path id="path0" d="" stroke="none" fill="#000000" fill-rule="evenodd"></path><path id="path1" d="" stroke="none" fill="#555555" fill-rule="evenodd"></path><path id="path2" d="M97.200 231.902 C 97.200 232.122,97.470 232.526,97.800 232.800 C 98.135 233.078,98.400 233.121,98.400 232.898 C 98.400 232.678,98.130 232.274,97.800 232.000 C 97.465 231.722,97.200 231.679,97.200 231.902 " stroke="none" fill="#005500" fill-rule="evenodd"></path><path id="path3" d="M174.800 0.367 C 174.800 0.569,172.535 0.794,169.767 0.867 C 165.670 0.975,164.645 1.122,164.255 1.655 C 163.891 2.154,162.938 2.345,160.260 2.455 C 157.425 2.572,156.668 2.736,156.352 3.300 C 156.037 3.863,155.410 4.000,153.143 4.000 C 150.662 4.000,150.300 4.096,150.116 4.800 C 149.935 5.493,149.570 5.600,147.386 5.600 C 144.507 5.600,143.600 5.850,143.600 6.643 C 143.600 7.051,143.018 7.200,141.427 7.200 C 139.605 7.200,139.213 7.329,139.000 8.000 C 138.787 8.671,138.395 8.800,136.573 8.800 C 134.998 8.800,134.400 8.951,134.400 9.349 C 134.400 9.718,133.722 9.963,132.333 10.097 C 131.070 10.218,130.080 10.549,129.789 10.948 C 129.526 11.306,128.949 11.600,128.506 11.600 C 126.836 11.600,125.200 12.120,125.200 12.650 C 125.200 13.015,124.716 13.200,123.763 13.200 C 122.662 13.200,122.276 13.387,122.116 14.000 C 121.952 14.627,121.570 14.800,120.353 14.800 C 119.333 14.800,118.525 15.075,118.000 15.600 C 117.560 16.040,116.667 16.400,116.014 16.400 C 115.238 16.400,114.680 16.676,114.400 17.200 C 114.115 17.732,113.562 18.000,112.748 18.000 C 111.862 18.000,111.468 18.220,111.316 18.800 C 111.168 19.366,110.770 19.600,109.957 19.600 C 109.240 19.600,108.619 19.901,108.307 20.400 C 107.974 20.934,107.374 21.200,106.504 21.200 C 105.787 21.200,105.200 21.381,105.200 21.603 C 105.200 21.825,104.480 22.295,103.600 22.647 C 102.720 22.999,102.000 23.447,102.000 23.643 C 102.000 23.840,101.664 24.000,101.254 24.000 C 100.844 24.000,100.050 24.360,99.491 24.800 C 98.931 25.240,98.199 25.600,97.864 25.600 C 97.528 25.600,97.140 25.960,97.000 26.400 C 96.860 26.840,96.413 27.200,96.006 27.200 C 94.839 27.200,94.000 27.636,94.000 28.243 C 94.000 28.549,93.640 28.800,93.200 28.800 C 92.760 28.800,92.040 29.160,91.600 29.600 C 91.160 30.040,90.513 30.400,90.163 30.400 C 89.812 30.400,89.431 30.760,89.316 31.200 C 89.181 31.717,88.770 32.000,88.157 32.000 C 87.634 32.000,86.982 32.360,86.707 32.800 C 86.432 33.240,85.891 33.600,85.504 33.600 C 85.117 33.600,84.800 33.870,84.800 34.200 C 84.800 34.530,84.513 34.800,84.163 34.800 C 83.812 34.800,83.435 35.143,83.326 35.562 C 83.198 36.051,82.629 36.418,81.742 36.584 C 80.981 36.727,80.258 37.104,80.136 37.422 C 80.014 37.740,79.647 38.000,79.320 38.000 C 78.993 38.000,78.631 38.360,78.516 38.800 C 78.400 39.243,77.970 39.600,77.553 39.600 C 77.139 39.600,76.471 39.929,76.069 40.331 C 75.668 40.732,75.038 41.177,74.669 41.318 C 74.301 41.459,74.000 41.851,74.000 42.187 C 74.000 42.533,73.652 42.800,73.200 42.800 C 72.667 42.800,72.400 43.067,72.400 43.600 C 72.400 44.133,72.133 44.400,71.600 44.400 C 71.067 44.400,70.800 44.667,70.800 45.200 C 70.800 45.733,70.533 46.000,70.000 46.000 C 69.560 46.000,69.200 46.250,69.200 46.557 C 69.200 46.863,68.719 47.234,68.131 47.382 C 67.543 47.529,66.495 48.269,65.803 49.025 C 65.110 49.781,64.371 50.400,64.161 50.400 C 63.725 50.400,61.600 52.719,61.600 53.194 C 61.600 53.366,61.240 53.601,60.800 53.716 C 60.360 53.831,60.000 54.191,60.000 54.516 C 60.000 54.841,59.640 55.201,59.200 55.316 C 58.760 55.431,58.400 55.791,58.400 56.116 C 58.400 56.441,58.040 56.801,57.600 56.916 C 57.160 57.031,56.800 57.391,56.800 57.716 C 56.800 58.041,56.440 58.401,56.000 58.516 C 55.560 58.631,55.200 58.991,55.200 59.316 C 55.200 59.641,54.840 60.001,54.400 60.116 C 53.960 60.231,53.600 60.612,53.600 60.963 C 53.600 61.313,53.439 61.600,53.241 61.600 C 52.732 61.600,50.400 63.701,50.400 64.161 C 50.400 64.371,49.781 65.110,49.025 65.803 C 48.269 66.495,47.529 67.543,47.382 68.131 C 47.234 68.719,46.863 69.200,46.557 69.200 C 46.250 69.200,46.000 69.560,46.000 70.000 C 46.000 70.533,45.733 70.800,45.200 70.800 C 44.760 70.800,44.400 71.058,44.400 71.373 C 44.400 71.688,44.040 72.060,43.600 72.200 C 43.160 72.340,42.800 72.802,42.800 73.227 C 42.800 73.654,42.526 74.000,42.187 74.000 C 41.851 74.000,41.459 74.301,41.318 74.669 C 41.177 75.038,40.732 75.668,40.331 76.069 C 39.929 76.471,39.600 77.139,39.600 77.553 C 39.600 77.970,39.243 78.400,38.800 78.516 C 38.360 78.631,38.000 78.993,38.000 79.320 C 38.000 79.647,37.730 80.018,37.400 80.145 C 37.070 80.271,36.800 80.607,36.800 80.891 C 36.800 81.175,36.456 81.622,36.036 81.885 C 35.616 82.147,35.151 82.910,35.004 83.581 C 34.857 84.251,34.481 84.800,34.168 84.800 C 33.856 84.800,33.600 85.117,33.600 85.504 C 33.600 85.891,33.240 86.432,32.800 86.707 C 32.360 86.982,32.000 87.634,32.000 88.157 C 32.000 88.770,31.717 89.181,31.200 89.316 C 30.760 89.431,30.400 89.812,30.400 90.163 C 30.400 90.513,30.040 91.160,29.600 91.600 C 29.160 92.040,28.800 92.760,28.800 93.200 C 28.800 93.640,28.549 94.000,28.243 94.000 C 27.636 94.000,27.200 94.839,27.200 96.006 C 27.200 96.413,26.840 96.860,26.400 97.000 C 25.960 97.140,25.600 97.591,25.600 98.003 C 25.600 98.416,25.402 98.875,25.159 99.025 C 24.917 99.175,24.464 99.906,24.154 100.649 C 23.843 101.392,23.420 102.000,23.213 102.000 C 23.006 102.000,22.720 102.618,22.579 103.372 C 22.437 104.127,22.069 104.841,21.761 104.960 C 21.431 105.086,21.200 105.738,21.200 106.541 C 21.200 107.570,21.003 107.958,20.400 108.116 C 19.787 108.276,19.600 108.662,19.600 109.763 C 19.600 110.933,19.452 111.200,18.800 111.200 C 18.164 111.200,18.000 111.467,18.000 112.504 C 18.000 113.374,17.734 113.974,17.200 114.307 C 16.713 114.611,16.400 115.240,16.400 115.914 C 16.400 116.527,16.043 117.328,15.600 117.707 C 15.020 118.204,14.800 118.887,14.800 120.196 C 14.800 121.733,14.682 122.000,14.000 122.000 C 13.370 122.000,13.200 122.267,13.200 123.256 C 13.200 123.955,12.911 124.723,12.548 124.989 C 12.149 125.280,11.818 126.270,11.697 127.533 C 11.567 128.884,11.314 129.600,10.967 129.600 C 10.669 129.600,10.316 130.258,10.161 131.100 C 10.010 131.925,9.642 132.955,9.343 133.389 C 9.044 133.823,8.800 134.905,8.800 135.793 C 8.800 136.974,8.585 137.542,8.000 137.907 C 7.336 138.322,7.200 138.840,7.200 140.957 C 7.200 143.170,7.094 143.534,6.400 143.716 C 5.732 143.891,5.600 144.262,5.600 145.963 C 5.600 147.467,5.391 148.209,4.800 148.800 C 4.133 149.467,4.000 150.133,4.000 152.800 C 4.000 155.269,3.873 156.000,3.443 156.000 C 2.621 156.000,2.400 156.918,2.400 160.336 C 2.400 162.974,2.287 163.478,1.600 163.907 C 0.879 164.358,0.800 164.840,0.800 168.803 C 0.800 171.468,0.642 173.200,0.400 173.200 C 0.137 173.200,0.000 182.200,0.000 199.400 C 0.000 216.600,0.137 225.600,0.400 225.600 C 0.644 225.600,0.800 227.467,0.800 230.400 C 0.800 234.667,0.889 235.289,1.600 236.000 C 2.267 236.667,2.400 237.333,2.400 239.997 C 2.400 242.760,2.508 243.261,3.200 243.693 C 3.880 244.117,4.000 244.626,4.000 247.069 C 4.000 249.595,4.098 249.977,4.800 250.200 C 5.500 250.422,5.600 250.805,5.600 253.264 C 5.600 255.738,5.696 256.100,6.400 256.284 C 7.077 256.461,7.200 256.830,7.200 258.684 C 7.200 260.538,7.323 260.907,8.000 261.084 C 8.675 261.261,8.800 261.630,8.800 263.447 C 8.800 265.005,8.952 265.600,9.349 265.600 C 9.718 265.600,9.963 266.278,10.097 267.667 C 10.208 268.829,10.555 269.924,10.887 270.167 C 11.213 270.405,11.609 271.465,11.768 272.523 C 11.929 273.602,12.307 274.543,12.628 274.666 C 12.973 274.798,13.200 275.440,13.200 276.280 C 13.200 277.338,13.393 277.725,14.000 277.884 C 14.627 278.048,14.800 278.430,14.800 279.647 C 14.800 280.933,14.937 281.200,15.600 281.200 C 16.267 281.200,16.400 281.467,16.400 282.800 C 16.400 283.867,16.667 284.667,17.200 285.200 C 17.640 285.640,18.000 286.360,18.000 286.800 C 18.000 287.240,18.360 287.960,18.800 288.400 C 19.240 288.840,19.600 289.648,19.600 290.197 C 19.600 290.760,19.948 291.410,20.400 291.693 C 20.840 291.968,21.200 292.504,21.200 292.884 C 21.200 293.969,22.820 296.800,23.440 296.800 C 23.766 296.800,24.000 297.205,24.000 297.767 C 24.000 299.148,24.398 300.000,25.043 300.000 C 25.393 300.000,25.600 300.438,25.600 301.177 C 25.600 301.887,25.907 302.569,26.372 302.895 C 26.796 303.193,27.269 303.937,27.423 304.550 C 27.577 305.163,27.950 305.759,28.251 305.875 C 28.553 305.991,28.800 306.426,28.800 306.843 C 28.800 307.333,29.082 307.600,29.600 307.600 C 30.133 307.600,30.400 307.867,30.400 308.400 C 30.400 308.840,30.760 309.560,31.200 310.000 C 31.640 310.440,32.000 311.160,32.000 311.600 C 32.000 312.133,32.267 312.400,32.800 312.400 C 33.373 312.400,33.600 312.667,33.600 313.338 C 33.600 313.854,33.960 314.602,34.400 315.000 C 34.840 315.398,35.200 315.966,35.200 316.262 C 35.200 316.558,35.470 316.800,35.800 316.800 C 36.130 316.800,36.400 317.060,36.400 317.377 C 36.400 317.695,36.747 318.198,37.172 318.495 C 37.596 318.793,38.069 319.537,38.223 320.150 C 38.377 320.763,38.750 321.359,39.051 321.475 C 39.353 321.591,39.600 321.953,39.600 322.280 C 39.600 322.607,39.960 322.969,40.400 323.084 C 40.843 323.200,41.200 323.630,41.200 324.047 C 41.200 324.533,41.483 324.800,42.000 324.800 C 42.533 324.800,42.800 325.067,42.800 325.600 C 42.800 326.040,43.160 326.760,43.600 327.200 C 44.040 327.640,44.400 328.270,44.400 328.600 C 44.400 328.933,44.756 329.200,45.200 329.200 C 45.733 329.200,46.000 329.467,46.000 330.000 C 46.000 330.440,46.258 330.800,46.573 330.800 C 46.888 330.800,47.260 331.160,47.400 331.600 C 47.540 332.040,47.900 332.400,48.200 332.400 C 48.500 332.400,48.860 332.760,49.000 333.200 C 49.140 333.640,49.512 334.000,49.827 334.000 C 50.142 334.000,50.400 334.360,50.400 334.800 C 50.400 335.333,50.667 335.600,51.200 335.600 C 51.733 335.600,52.000 335.867,52.000 336.400 C 52.000 336.933,52.267 337.200,52.800 337.200 C 53.332 337.200,53.600 337.467,53.600 337.995 C 53.600 339.089,59.270 344.800,60.357 344.800 C 60.862 344.800,61.200 345.056,61.200 345.437 C 61.200 345.788,61.560 346.169,62.000 346.284 C 62.443 346.400,62.800 346.830,62.800 347.247 C 62.800 347.733,63.083 348.000,63.600 348.000 C 64.133 348.000,64.400 348.267,64.400 348.800 C 64.400 349.333,64.667 349.600,65.200 349.600 C 65.665 349.600,66.000 349.867,66.000 350.237 C 66.000 350.588,66.360 350.969,66.800 351.084 C 67.240 351.199,67.600 351.559,67.600 351.884 C 67.600 352.209,67.960 352.569,68.400 352.684 C 68.840 352.799,69.200 353.142,69.200 353.447 C 69.200 353.751,69.462 354.000,69.782 354.000 C 70.102 354.000,70.814 354.450,71.364 355.000 C 71.914 355.550,72.623 356.000,72.939 356.000 C 73.255 356.000,73.618 356.270,73.745 356.600 C 73.871 356.930,74.251 357.200,74.587 357.200 C 74.924 357.200,75.200 357.476,75.200 357.813 C 75.200 358.149,75.515 358.543,75.900 358.686 C 76.285 358.830,76.835 359.274,77.123 359.674 C 77.410 360.073,77.815 360.400,78.023 360.400 C 78.230 360.400,78.760 360.760,79.200 361.200 C 79.640 361.640,80.360 362.000,80.800 362.000 C 81.333 362.000,81.600 362.267,81.600 362.800 C 81.600 363.333,81.867 363.600,82.400 363.600 C 82.840 363.600,83.200 363.851,83.200 364.157 C 83.200 364.726,84.026 365.200,85.019 365.200 C 85.324 365.200,86.207 365.834,86.983 366.609 C 87.758 367.384,88.934 368.127,89.596 368.259 C 90.258 368.392,90.800 368.748,90.800 369.050 C 90.800 369.353,91.148 369.600,91.573 369.600 C 91.998 369.600,92.460 369.960,92.600 370.400 C 92.789 370.995,93.205 371.200,94.227 371.200 C 95.333 371.200,95.600 371.355,95.600 372.000 C 95.600 372.444,95.867 372.800,96.200 372.800 C 96.530 372.800,97.160 373.160,97.600 373.600 C 98.040 374.040,98.720 374.400,99.111 374.400 C 99.502 374.400,100.130 374.760,100.507 375.200 C 100.884 375.640,101.554 376.000,101.996 376.000 C 102.438 376.000,103.160 376.360,103.600 376.800 C 104.040 377.240,104.850 377.600,105.400 377.600 C 105.995 377.600,106.400 377.829,106.400 378.165 C 106.400 378.512,107.016 378.834,108.000 379.000 C 108.954 379.161,109.600 379.491,109.600 379.817 C 109.600 380.127,110.219 380.480,111.032 380.632 C 111.819 380.780,112.559 381.148,112.675 381.451 C 112.795 381.764,113.457 382.000,114.216 382.000 C 115.195 382.000,115.613 382.211,115.800 382.800 C 115.988 383.392,116.405 383.600,117.407 383.600 C 118.234 383.600,118.900 383.850,119.120 384.242 C 119.338 384.633,120.229 384.969,121.392 385.100 C 122.808 385.260,123.356 385.509,123.499 386.058 C 123.640 386.596,124.065 386.800,125.047 386.800 C 125.867 386.800,126.715 387.115,127.200 387.600 C 127.707 388.107,128.533 388.400,129.456 388.400 C 130.340 388.400,131.099 388.656,131.389 389.052 C 131.680 389.451,132.670 389.782,133.933 389.903 C 135.212 390.026,136.000 390.292,136.000 390.601 C 136.000 391.103,137.705 391.600,139.430 391.600 C 139.942 391.600,140.524 391.892,140.724 392.249 C 140.986 392.719,141.878 392.955,143.944 393.103 C 145.991 393.250,146.800 393.462,146.800 393.854 C 146.800 394.266,147.527 394.400,149.773 394.400 C 152.395 394.400,152.776 394.495,153.000 395.200 C 153.222 395.899,153.605 396.000,156.027 396.000 C 158.267 396.000,158.954 396.154,159.600 396.800 C 160.293 397.493,160.933 397.600,164.386 397.600 C 167.962 397.600,168.416 397.682,168.800 398.400 C 169.202 399.150,169.638 399.200,175.814 399.200 C 179.938 399.200,182.400 399.350,182.400 399.600 C 182.400 399.860,188.267 400.000,199.200 400.000 C 210.133 400.000,216.000 399.860,216.000 399.600 C 216.000 399.349,218.546 399.200,222.837 399.200 C 229.338 399.200,229.685 399.161,229.884 398.400 C 230.077 397.661,230.430 397.600,234.484 397.600 C 238.538 397.600,238.891 397.539,239.084 396.800 C 239.271 396.086,239.630 396.000,242.414 396.000 C 245.881 396.000,246.800 395.781,246.800 394.957 C 246.800 394.535,247.466 394.400,249.551 394.400 C 251.508 394.400,252.446 394.227,252.800 393.800 C 253.074 393.470,253.793 393.200,254.399 393.200 C 256.340 393.200,258.000 392.716,258.000 392.150 C 258.000 391.757,258.569 391.600,259.997 391.600 C 261.560 391.600,262.102 391.426,262.493 390.800 C 262.878 390.183,263.426 390.000,264.882 390.000 C 266.317 390.000,266.868 389.820,267.171 389.254 C 267.443 388.746,268.176 388.439,269.461 388.294 C 270.524 388.174,271.556 387.801,271.820 387.441 C 272.101 387.056,272.871 386.800,273.744 386.800 C 274.933 386.800,275.200 386.653,275.200 386.000 C 275.200 385.305,275.467 385.200,277.237 385.200 C 278.938 385.200,279.309 385.068,279.484 384.400 C 279.643 383.794,280.030 383.600,281.084 383.600 C 282.138 383.600,282.525 383.406,282.684 382.800 C 282.848 382.173,283.230 382.000,284.447 382.000 C 285.561 382.000,286.000 381.830,286.000 381.400 C 286.000 381.032,286.374 380.800,286.967 380.800 C 288.348 380.800,289.200 380.402,289.200 379.757 C 289.200 379.405,289.640 379.200,290.397 379.200 C 291.160 379.200,291.774 378.910,292.093 378.400 C 292.368 377.960,292.894 377.600,293.264 377.600 C 294.366 377.600,295.200 377.151,295.200 376.557 C 295.200 376.184,295.675 376.000,296.637 376.000 C 297.738 376.000,298.124 375.813,298.284 375.200 C 298.433 374.631,298.830 374.400,299.659 374.400 C 300.352 374.400,300.923 374.144,301.067 373.769 C 301.200 373.423,301.735 372.977,302.255 372.779 C 302.775 372.582,303.200 372.145,303.200 371.810 C 303.200 371.380,303.612 371.200,304.600 371.200 C 305.733 371.200,306.000 371.048,306.000 370.400 C 306.000 369.860,306.267 369.600,306.821 369.600 C 307.839 369.600,310.793 367.951,310.797 367.380 C 310.799 367.150,311.430 366.733,312.200 366.454 C 312.970 366.176,313.600 365.780,313.600 365.574 C 313.600 365.368,313.977 365.200,314.437 365.200 C 314.930 365.200,315.359 364.880,315.478 364.423 C 315.596 363.971,316.167 363.539,316.841 363.391 C 317.478 363.251,318.000 362.966,318.000 362.758 C 318.000 362.550,318.450 362.209,319.000 362.000 C 319.550 361.791,320.000 361.345,320.000 361.010 C 320.000 360.667,320.350 360.400,320.800 360.400 C 321.333 360.400,321.600 360.133,321.600 359.600 C 321.600 359.067,321.867 358.800,322.400 358.800 C 322.933 358.800,323.200 358.533,323.200 358.000 C 323.200 357.378,323.467 357.200,324.397 357.200 C 325.160 357.200,325.774 356.910,326.093 356.400 C 326.368 355.960,326.735 355.600,326.910 355.600 C 327.084 355.600,327.829 354.998,328.566 354.261 C 329.302 353.525,330.196 352.810,330.552 352.674 C 330.908 352.537,331.200 352.149,331.200 351.813 C 331.200 351.476,331.470 351.200,331.800 351.200 C 332.133 351.200,332.400 350.844,332.400 350.400 C 332.400 349.868,332.667 349.600,333.197 349.600 C 333.636 349.600,335.092 348.520,336.432 347.200 C 337.773 345.880,339.112 344.800,339.408 344.800 C 339.704 344.800,340.060 344.440,340.200 344.000 C 340.340 343.560,340.712 343.200,341.027 343.200 C 341.342 343.200,341.600 342.913,341.600 342.563 C 341.600 342.212,341.960 341.831,342.400 341.716 C 342.840 341.601,343.200 341.270,343.200 340.980 C 343.200 340.691,343.560 340.340,344.000 340.200 C 344.440 340.060,344.800 339.704,344.800 339.408 C 344.800 339.112,345.880 337.773,347.200 336.432 C 348.520 335.092,349.600 333.636,349.600 333.197 C 349.600 332.667,349.868 332.400,350.400 332.400 C 350.840 332.400,351.200 332.142,351.200 331.827 C 351.200 331.512,351.560 331.140,352.000 331.000 C 352.440 330.860,352.800 330.584,352.800 330.386 C 352.800 330.189,353.430 329.397,354.200 328.627 C 354.970 327.857,355.600 327.069,355.600 326.875 C 355.600 326.682,355.960 326.198,356.400 325.800 C 356.840 325.402,357.200 324.654,357.200 324.138 C 357.200 323.467,357.427 323.200,358.000 323.200 C 358.533 323.200,358.800 322.933,358.800 322.400 C 358.800 321.867,359.067 321.600,359.600 321.600 C 360.133 321.600,360.400 321.333,360.400 320.800 C 360.400 320.360,360.651 320.000,360.957 320.000 C 361.569 320.000,362.000 319.159,362.000 317.967 C 362.000 317.545,362.275 317.200,362.613 317.200 C 362.949 317.200,363.343 316.885,363.486 316.500 C 363.630 316.115,364.074 315.565,364.474 315.277 C 364.873 314.990,365.200 314.495,365.200 314.177 C 365.200 313.860,365.368 313.600,365.574 313.600 C 365.780 313.600,366.176 312.970,366.454 312.200 C 366.733 311.430,367.195 310.800,367.480 310.800 C 367.766 310.800,368.000 310.603,368.000 310.363 C 368.000 310.123,368.360 309.469,368.800 308.909 C 369.240 308.350,369.600 307.466,369.600 306.946 C 369.600 306.267,369.825 306.000,370.400 306.000 C 371.042 306.000,371.200 305.733,371.200 304.647 C 371.200 303.630,371.399 303.241,372.000 303.084 C 372.440 302.969,372.800 302.588,372.800 302.237 C 372.800 301.887,373.160 301.240,373.600 300.800 C 374.040 300.360,374.400 299.680,374.400 299.289 C 374.400 298.898,374.760 298.270,375.200 297.893 C 375.640 297.516,376.000 296.756,376.000 296.204 C 376.000 295.612,376.229 295.200,376.557 295.200 C 377.171 295.200,377.600 294.359,377.600 293.155 C 377.600 292.726,377.859 292.276,378.176 292.154 C 378.492 292.033,378.870 291.390,379.016 290.726 C 379.162 290.062,379.623 289.177,380.041 288.759 C 380.458 288.342,380.800 287.569,380.800 287.043 C 380.800 286.516,381.070 285.982,381.400 285.855 C 381.765 285.715,382.000 285.110,382.000 284.309 C 382.000 283.426,382.263 282.828,382.800 282.493 C 383.252 282.210,383.600 281.560,383.600 280.997 C 383.600 280.448,383.960 279.640,384.400 279.200 C 384.925 278.675,385.200 277.867,385.200 276.847 C 385.200 275.630,385.373 275.248,386.000 275.084 C 386.589 274.930,386.800 274.538,386.800 273.601 C 386.800 272.900,387.160 271.869,387.600 271.309 C 388.087 270.691,388.400 269.686,388.400 268.746 C 388.400 267.691,388.577 267.200,388.957 267.200 C 389.675 267.200,390.000 266.322,390.000 264.387 C 390.000 263.432,390.228 262.712,390.596 262.506 C 390.927 262.321,391.311 261.292,391.462 260.186 C 391.610 259.094,391.990 258.009,392.306 257.776 C 392.661 257.514,392.963 256.317,393.097 254.642 C 393.238 252.893,393.508 251.857,393.858 251.723 C 394.245 251.574,394.400 250.685,394.400 248.604 C 394.400 246.030,394.492 245.669,395.200 245.484 C 395.925 245.294,396.000 244.938,396.000 241.684 C 396.000 238.430,396.075 238.074,396.800 237.884 C 397.540 237.691,397.600 237.338,397.600 233.200 C 397.600 229.062,397.660 228.709,398.400 228.516 C 399.164 228.316,399.200 227.970,399.200 220.753 C 399.200 215.984,399.347 213.200,399.600 213.200 C 399.859 213.200,400.000 208.333,400.000 199.400 C 400.000 191.073,399.851 185.600,399.625 185.600 C 399.409 185.600,399.196 182.442,399.125 178.171 C 399.014 171.591,398.920 170.698,398.300 170.351 C 397.699 170.016,397.600 169.334,397.600 165.543 C 397.600 161.462,397.539 161.109,396.800 160.916 C 396.086 160.729,396.000 160.370,396.000 157.586 C 396.000 154.119,395.781 153.200,394.957 153.200 C 394.535 153.200,394.400 152.534,394.400 150.449 C 394.400 148.603,394.219 147.548,393.850 147.242 C 393.548 146.991,393.211 145.858,393.102 144.726 C 392.982 143.468,392.650 142.480,392.252 142.189 C 391.831 141.880,391.600 141.125,391.600 140.052 C 391.600 138.887,391.361 138.188,390.800 137.707 C 390.203 137.196,390.000 136.527,390.000 135.074 C 390.000 133.462,389.862 133.089,389.200 132.916 C 388.538 132.743,388.400 132.370,388.400 130.757 C 388.400 129.240,388.222 128.696,387.600 128.307 C 387.030 127.951,386.800 127.374,386.800 126.304 C 386.800 125.333,386.516 124.516,386.000 124.000 C 385.545 123.545,385.200 122.667,385.200 121.963 C 385.200 121.062,384.983 120.668,384.400 120.516 C 383.773 120.352,383.600 119.970,383.600 118.753 C 383.600 117.467,383.463 117.200,382.800 117.200 C 382.122 117.200,382.000 116.933,382.000 115.449 C 382.000 114.415,381.765 113.503,381.426 113.221 C 381.110 112.959,380.738 112.230,380.600 111.600 C 380.462 110.970,380.102 110.250,379.800 110.000 C 379.498 109.750,379.138 109.030,379.000 108.400 C 378.862 107.770,378.490 107.041,378.174 106.779 C 377.858 106.517,377.600 105.964,377.600 105.551 C 377.600 105.138,377.240 104.440,376.800 104.000 C 376.360 103.560,376.000 102.913,376.000 102.563 C 376.000 102.212,375.640 101.831,375.200 101.716 C 374.606 101.561,374.400 101.170,374.400 100.200 C 374.400 99.230,374.194 98.839,373.600 98.684 C 373.134 98.562,372.800 98.138,372.800 97.670 C 372.800 96.443,372.375 95.600,371.757 95.600 C 371.451 95.600,371.200 95.240,371.200 94.800 C 371.200 94.267,370.933 94.000,370.400 94.000 C 369.755 94.000,369.600 93.733,369.600 92.620 C 369.600 91.861,369.364 91.096,369.077 90.920 C 368.789 90.744,368.322 90.028,368.040 89.329 C 367.758 88.630,367.273 87.960,366.963 87.841 C 366.654 87.722,366.400 87.349,366.400 87.013 C 366.400 86.676,366.216 86.400,365.990 86.400 C 365.765 86.400,365.409 85.950,365.200 85.400 C 364.991 84.850,364.545 84.400,364.210 84.400 C 363.874 84.400,363.600 84.055,363.600 83.633 C 363.600 82.441,363.169 81.600,362.557 81.600 C 362.251 81.600,362.000 81.240,362.000 80.800 C 362.000 80.267,361.733 80.000,361.200 80.000 C 360.667 80.000,360.400 79.733,360.400 79.200 C 360.400 78.760,360.040 78.040,359.600 77.600 C 359.160 77.160,358.800 76.542,358.800 76.227 C 358.800 75.912,358.440 75.540,358.000 75.400 C 357.560 75.260,357.200 74.972,357.200 74.760 C 357.200 74.547,356.615 73.787,355.900 73.071 C 355.185 72.355,354.377 71.276,354.103 70.673 C 353.830 70.071,353.335 69.473,353.003 69.346 C 352.672 69.219,352.400 68.907,352.400 68.654 C 352.400 68.401,351.803 67.647,351.073 66.977 C 350.344 66.307,349.629 65.454,349.486 65.080 C 349.342 64.706,348.970 64.400,348.659 64.400 C 348.348 64.400,347.999 64.040,347.884 63.600 C 347.769 63.160,347.388 62.800,347.037 62.800 C 346.687 62.800,346.400 62.542,346.400 62.227 C 346.400 61.912,346.040 61.540,345.600 61.400 C 345.160 61.260,344.800 60.986,344.800 60.791 C 344.800 60.330,342.870 58.400,342.409 58.400 C 342.214 58.400,341.940 58.040,341.800 57.600 C 341.660 57.160,341.309 56.800,341.020 56.800 C 340.730 56.800,340.399 56.440,340.284 56.000 C 340.169 55.560,339.809 55.200,339.484 55.200 C 339.159 55.200,338.799 54.840,338.684 54.400 C 338.569 53.960,338.209 53.600,337.884 53.600 C 337.559 53.600,337.199 53.240,337.084 52.800 C 336.969 52.360,336.609 52.000,336.284 52.000 C 335.959 52.000,335.599 51.640,335.484 51.200 C 335.369 50.760,334.988 50.400,334.637 50.400 C 334.287 50.400,334.000 50.130,334.000 49.800 C 334.000 49.467,333.644 49.200,333.200 49.200 C 332.667 49.200,332.400 48.933,332.400 48.400 C 332.400 47.960,332.162 47.600,331.870 47.600 C 331.579 47.600,330.634 46.883,329.770 46.007 C 328.907 45.130,327.816 44.410,327.347 44.407 C 326.833 44.403,326.410 44.081,326.284 43.600 C 326.169 43.160,325.788 42.800,325.437 42.800 C 325.087 42.800,324.800 42.524,324.800 42.187 C 324.800 41.851,324.485 41.459,324.100 41.318 C 323.715 41.176,323.260 40.829,323.089 40.546 C 322.918 40.264,322.153 39.915,321.389 39.772 C 320.386 39.583,320.000 39.301,320.000 38.755 C 320.000 38.340,319.724 38.000,319.387 38.000 C 319.051 38.000,318.671 37.730,318.545 37.400 C 318.418 37.070,318.135 36.800,317.915 36.800 C 317.695 36.800,316.981 36.350,316.327 35.800 C 315.673 35.250,314.882 34.800,314.569 34.800 C 314.256 34.800,314.000 34.530,314.000 34.200 C 314.000 33.870,313.652 33.600,313.227 33.600 C 312.802 33.600,312.340 33.240,312.200 32.800 C 312.011 32.205,311.595 32.000,310.573 32.000 C 309.467 32.000,309.200 31.845,309.200 31.200 C 309.200 30.667,308.933 30.400,308.400 30.400 C 307.960 30.400,307.600 30.149,307.600 29.843 C 307.600 29.249,306.766 28.800,305.664 28.800 C 305.294 28.800,304.768 28.440,304.493 28.000 C 304.218 27.560,303.815 27.200,303.597 27.200 C 303.378 27.200,302.840 26.840,302.400 26.400 C 301.960 25.960,301.259 25.600,300.843 25.600 C 300.426 25.600,299.986 25.340,299.864 25.022 C 299.742 24.704,299.003 24.324,298.221 24.178 C 297.439 24.031,296.800 23.677,296.800 23.391 C 296.800 23.095,296.108 22.753,295.200 22.600 C 294.216 22.434,293.600 22.112,293.600 21.765 C 293.600 21.388,293.143 21.200,292.227 21.200 C 291.205 21.200,290.789 20.995,290.600 20.400 C 290.413 19.812,289.995 19.600,289.020 19.600 C 288.030 19.600,287.640 19.397,287.484 18.800 C 287.325 18.194,286.938 18.000,285.884 18.000 C 284.830 18.000,284.443 17.806,284.284 17.200 C 284.124 16.587,283.738 16.400,282.637 16.400 C 281.675 16.400,281.200 16.216,281.200 15.843 C 281.200 15.231,280.359 14.800,279.167 14.800 C 278.745 14.800,278.040 14.440,277.600 14.000 C 277.093 13.493,276.267 13.200,275.344 13.200 C 274.460 13.200,273.701 12.944,273.411 12.548 C 273.122 12.152,272.136 11.819,270.901 11.700 C 269.346 11.551,268.822 11.328,268.672 10.752 C 268.531 10.216,268.112 10.000,267.209 10.000 C 266.513 10.000,265.673 9.730,265.343 9.400 C 264.972 9.029,263.990 8.800,262.771 8.800 C 261.353 8.800,260.800 8.644,260.800 8.243 C 260.800 7.462,259.898 7.200,257.214 7.200 C 255.230 7.200,254.863 7.084,254.684 6.400 C 254.500 5.696,254.138 5.600,251.684 5.600 C 249.230 5.600,248.868 5.504,248.684 4.800 C 248.498 4.089,248.138 4.000,245.437 4.000 C 243.108 4.000,242.400 3.870,242.400 3.443 C 242.400 2.623,241.483 2.400,238.111 2.400 C 235.693 2.400,234.986 2.260,234.577 1.700 C 234.147 1.111,233.267 0.979,229.033 0.867 C 226.265 0.794,224.000 0.569,224.000 0.367 C 224.000 0.148,214.077 0.000,199.400 0.000 C 184.723 0.000,174.800 0.148,174.800 0.367 M205.716 26.400 C 205.917 27.168,206.262 27.200,214.363 27.200 C 221.237 27.200,222.800 27.301,222.800 27.748 C 222.800 28.437,224.854 28.790,228.900 28.796 C 231.262 28.799,232.000 28.931,232.000 29.350 C 232.000 29.982,233.705 30.400,236.279 30.400 C 237.326 30.400,238.304 30.647,238.657 31.000 C 239.062 31.404,240.066 31.600,241.740 31.600 C 243.727 31.600,244.359 31.760,244.907 32.400 C 245.450 33.033,246.087 33.200,247.969 33.200 C 249.995 33.200,250.384 33.318,250.600 34.000 C 250.812 34.668,251.205 34.800,252.980 34.800 C 254.770 34.800,255.140 34.927,255.316 35.600 C 255.489 36.261,255.862 36.400,257.466 36.400 C 258.974 36.400,259.519 36.579,259.907 37.200 C 260.211 37.687,260.840 38.000,261.514 38.000 C 262.127 38.000,262.928 38.357,263.307 38.800 C 263.804 39.380,264.487 39.600,265.796 39.600 C 267.127 39.600,267.600 39.756,267.600 40.195 C 267.600 40.580,268.165 40.881,269.200 41.046 C 270.157 41.199,270.800 41.521,270.800 41.846 C 270.800 42.172,271.443 42.493,272.400 42.646 C 273.365 42.801,274.000 43.120,274.000 43.451 C 274.000 43.810,274.476 44.000,275.373 44.000 C 276.395 44.000,276.811 44.205,277.000 44.800 C 277.187 45.388,277.605 45.600,278.580 45.600 C 279.570 45.600,279.960 45.803,280.116 46.400 C 280.276 47.013,280.662 47.200,281.763 47.200 C 282.933 47.200,283.200 47.348,283.200 48.000 C 283.200 48.648,283.467 48.800,284.600 48.800 C 285.591 48.800,286.000 48.979,286.000 49.413 C 286.000 49.749,286.315 50.138,286.700 50.277 C 287.085 50.415,287.722 50.859,288.116 51.264 C 288.509 51.669,289.274 52.000,289.816 52.000 C 290.424 52.000,290.800 52.229,290.800 52.600 C 290.800 52.930,291.063 53.200,291.384 53.200 C 291.706 53.200,292.291 53.545,292.684 53.968 C 293.078 54.390,293.895 54.859,294.500 55.011 C 295.105 55.163,295.600 55.537,295.600 55.843 C 295.600 56.150,295.917 56.400,296.304 56.400 C 296.691 56.400,297.232 56.760,297.507 57.200 C 297.790 57.652,298.440 58.000,299.003 58.000 C 299.630 58.000,300.000 58.227,300.000 58.610 C 300.000 58.945,300.425 59.382,300.945 59.579 C 301.465 59.777,302.000 60.223,302.133 60.569 C 302.280 60.952,302.852 61.200,303.587 61.200 C 304.533 61.200,304.800 61.376,304.800 62.000 C 304.800 62.533,305.067 62.800,305.600 62.800 C 306.065 62.800,306.400 63.067,306.400 63.437 C 306.400 63.788,306.760 64.169,307.200 64.284 C 307.640 64.399,308.000 64.742,308.000 65.047 C 308.000 65.351,308.238 65.600,308.530 65.600 C 308.821 65.600,309.766 66.317,310.630 67.193 C 311.526 68.103,312.586 68.789,313.100 68.793 C 313.731 68.798,314.000 69.039,314.000 69.600 C 314.000 70.133,314.267 70.400,314.800 70.400 C 315.333 70.400,315.600 70.667,315.600 71.200 C 315.600 71.733,315.867 72.000,316.400 72.000 C 316.933 72.000,317.200 72.267,317.200 72.800 C 317.200 73.333,317.467 73.600,318.000 73.600 C 318.465 73.600,318.800 73.867,318.800 74.237 C 318.800 74.588,319.160 74.969,319.600 75.084 C 320.040 75.199,320.400 75.559,320.400 75.884 C 320.400 76.209,320.760 76.569,321.200 76.684 C 321.640 76.799,322.000 77.076,322.000 77.299 C 322.000 77.855,325.385 81.200,325.947 81.200 C 326.196 81.200,326.400 81.487,326.400 81.837 C 326.400 82.188,326.760 82.569,327.200 82.684 C 327.643 82.800,328.000 83.230,328.000 83.647 C 328.000 84.133,328.283 84.400,328.800 84.400 C 329.333 84.400,329.600 84.667,329.600 85.200 C 329.600 85.733,329.867 86.000,330.400 86.000 C 330.986 86.000,331.200 86.267,331.200 86.997 C 331.200 87.560,331.548 88.210,332.000 88.493 C 332.440 88.768,332.800 89.297,332.800 89.669 C 332.800 90.042,333.160 90.460,333.600 90.600 C 334.040 90.740,334.400 91.112,334.400 91.427 C 334.400 91.742,334.670 92.000,335.000 92.000 C 335.330 92.000,335.600 92.287,335.600 92.637 C 335.600 92.988,335.960 93.369,336.400 93.484 C 336.840 93.599,337.200 94.008,337.200 94.393 C 337.200 94.777,337.529 95.521,337.932 96.046 C 338.334 96.571,338.779 97.315,338.919 97.700 C 339.060 98.085,339.430 98.400,339.741 98.400 C 340.052 98.400,340.401 98.760,340.516 99.200 C 340.631 99.640,341.012 100.000,341.363 100.000 C 341.806 100.000,342.000 100.370,342.000 101.213 C 342.000 101.948,342.248 102.520,342.631 102.667 C 342.977 102.800,343.423 103.335,343.621 103.855 C 343.818 104.375,344.255 104.800,344.590 104.800 C 344.973 104.800,345.200 105.170,345.200 105.797 C 345.200 106.360,345.548 107.010,346.000 107.293 C 346.440 107.568,346.800 108.109,346.800 108.496 C 346.800 108.883,347.047 109.200,347.349 109.200 C 347.680 109.200,347.999 109.835,348.154 110.800 C 348.308 111.768,348.627 112.400,348.960 112.400 C 349.270 112.400,349.623 112.996,349.766 113.761 C 349.907 114.510,350.270 115.218,350.573 115.334 C 350.876 115.451,351.243 116.083,351.387 116.740 C 351.531 117.396,351.885 118.024,352.174 118.135 C 352.463 118.245,352.817 118.963,352.960 119.729 C 353.104 120.496,353.487 121.224,353.811 121.349 C 354.135 121.473,354.400 121.941,354.400 122.387 C 354.400 122.834,354.760 123.560,355.200 124.000 C 355.640 124.440,356.000 125.160,356.000 125.600 C 356.000 126.040,356.360 126.760,356.800 127.200 C 357.255 127.655,357.600 128.533,357.600 129.237 C 357.600 130.138,357.817 130.532,358.400 130.684 C 359.027 130.848,359.200 131.230,359.200 132.447 C 359.200 133.561,359.370 134.000,359.800 134.000 C 360.198 134.000,360.400 134.398,360.400 135.181 C 360.400 136.498,361.147 138.400,361.664 138.400 C 361.849 138.400,362.000 138.942,362.000 139.604 C 362.000 140.313,362.329 141.089,362.800 141.493 C 363.397 142.004,363.600 142.673,363.600 144.126 C 363.600 145.738,363.738 146.111,364.400 146.284 C 365.086 146.463,365.200 146.830,365.200 148.847 C 365.200 150.667,365.381 151.381,366.000 152.000 C 366.591 152.591,366.800 153.333,366.800 154.837 C 366.800 156.538,366.932 156.909,367.600 157.084 C 368.315 157.271,368.400 157.630,368.400 160.447 C 368.400 163.067,368.535 163.735,369.200 164.400 C 369.881 165.081,370.000 165.733,370.000 168.773 C 370.000 171.995,370.079 172.371,370.800 172.600 C 371.549 172.838,371.600 173.205,371.600 178.398 C 371.600 182.793,371.724 184.067,372.200 184.543 C 372.712 185.055,372.800 187.325,372.800 199.984 C 372.800 212.807,372.718 214.856,372.200 215.055 C 371.704 215.246,371.600 216.314,371.600 221.216 C 371.600 226.795,371.553 227.161,370.800 227.400 C 370.075 227.630,370.000 228.005,370.000 231.380 C 370.000 234.770,369.928 235.126,369.200 235.316 C 368.495 235.500,368.400 235.862,368.400 238.363 C 368.400 240.667,368.250 241.350,367.600 242.000 C 366.978 242.622,366.800 243.333,366.800 245.200 C 366.800 246.985,366.657 247.600,366.243 247.600 C 365.533 247.600,365.200 248.475,365.200 250.344 C 365.200 251.327,364.932 252.052,364.400 252.507 C 363.839 252.988,363.600 253.687,363.600 254.852 C 363.600 255.925,363.369 256.680,362.948 256.989 C 362.549 257.280,362.218 258.270,362.097 259.533 C 361.972 260.829,361.709 261.600,361.392 261.600 C 360.821 261.600,360.400 262.475,360.400 263.661 C 360.400 264.099,360.130 264.727,359.800 265.057 C 359.447 265.410,359.200 266.387,359.200 267.429 C 359.200 268.933,359.080 269.200,358.400 269.200 C 357.733 269.200,357.600 269.467,357.600 270.800 C 357.600 272.133,357.467 272.400,356.800 272.400 C 356.158 272.400,356.000 272.667,356.000 273.753 C 356.000 274.770,355.801 275.159,355.200 275.316 C 354.594 275.475,354.400 275.862,354.400 276.916 C 354.400 277.970,354.206 278.357,353.600 278.516 C 352.987 278.676,352.800 279.062,352.800 280.163 C 352.800 281.125,352.616 281.600,352.243 281.600 C 351.639 281.600,351.200 282.438,351.200 283.590 C 351.200 283.988,350.945 284.412,350.634 284.532 C 350.075 284.746,349.414 285.773,348.209 288.300 C 347.868 289.015,347.412 289.600,347.195 289.600 C 346.978 289.600,346.800 290.230,346.800 291.000 C 346.800 292.133,346.648 292.400,346.000 292.400 C 345.503 292.400,345.200 292.667,345.200 293.104 C 345.200 293.491,344.840 294.032,344.400 294.307 C 343.957 294.584,343.600 295.240,343.600 295.776 C 343.600 296.395,343.310 296.838,342.800 297.000 C 342.360 297.140,342.000 297.602,342.000 298.027 C 342.000 298.452,341.749 298.800,341.443 298.800 C 340.831 298.800,340.400 299.641,340.400 300.833 C 340.400 301.268,340.124 301.600,339.763 301.600 C 339.412 301.600,339.031 301.960,338.916 302.400 C 338.801 302.840,338.470 303.200,338.180 303.200 C 337.891 303.200,337.545 303.543,337.412 303.963 C 337.279 304.383,336.916 304.823,336.607 304.942 C 336.297 305.061,335.924 305.797,335.778 306.579 C 335.624 307.397,335.275 308.000,334.955 308.000 C 334.650 308.000,334.400 308.270,334.400 308.600 C 334.400 308.930,334.113 309.200,333.763 309.200 C 333.412 309.200,333.033 309.554,332.919 309.987 C 332.806 310.419,332.373 310.882,331.957 311.014 C 331.541 311.146,331.200 311.468,331.200 311.731 C 331.200 311.993,330.840 312.432,330.400 312.707 C 329.960 312.982,329.600 313.385,329.600 313.603 C 329.600 313.822,328.520 315.080,327.200 316.400 C 325.880 317.720,324.800 319.139,324.800 319.553 C 324.800 319.970,324.443 320.400,324.000 320.516 C 323.560 320.631,323.200 321.012,323.200 321.363 C 323.200 321.713,322.930 322.000,322.600 322.000 C 322.270 322.000,322.000 322.249,322.000 322.553 C 322.000 322.858,321.640 323.201,321.200 323.316 C 320.760 323.431,320.400 323.812,320.400 324.163 C 320.400 324.533,320.065 324.800,319.600 324.800 C 319.156 324.800,317.733 325.867,316.400 327.200 C 315.080 328.520,313.822 329.600,313.603 329.600 C 313.385 329.600,312.982 329.960,312.707 330.400 C 312.432 330.840,311.981 331.200,311.704 331.200 C 311.427 331.200,311.200 331.560,311.200 332.000 C 311.200 332.524,310.933 332.800,310.427 332.800 C 310.002 332.800,309.540 333.160,309.400 333.600 C 309.260 334.040,308.888 334.400,308.573 334.400 C 308.258 334.400,308.000 334.670,308.000 335.000 C 308.000 335.330,307.649 335.600,307.221 335.600 C 306.792 335.600,305.956 336.050,305.362 336.600 C 304.769 337.150,304.039 337.600,303.742 337.600 C 303.444 337.600,303.200 337.849,303.200 338.153 C 303.200 338.458,302.840 338.801,302.400 338.916 C 301.960 339.031,301.600 339.412,301.600 339.763 C 301.600 340.124,301.268 340.400,300.833 340.400 C 299.641 340.400,298.800 340.831,298.800 341.443 C 298.800 341.749,298.452 342.000,298.027 342.000 C 297.602 342.000,297.140 342.360,297.000 342.800 C 296.860 343.240,296.396 343.600,295.969 343.600 C 295.542 343.600,294.884 343.960,294.507 344.400 C 294.130 344.840,293.502 345.200,293.111 345.200 C 292.667 345.200,292.400 345.500,292.400 346.000 C 292.400 346.648,292.133 346.800,291.000 346.800 C 290.230 346.800,289.600 346.984,289.600 347.209 C 289.600 347.433,289.150 347.822,288.600 348.073 C 288.050 348.323,287.600 348.749,287.600 349.020 C 287.600 349.290,286.987 349.626,286.239 349.766 C 285.490 349.907,284.776 350.287,284.651 350.611 C 284.527 350.935,284.074 351.200,283.645 351.200 C 282.441 351.200,281.600 351.629,281.600 352.243 C 281.600 352.571,281.188 352.800,280.596 352.800 C 280.044 352.800,279.284 353.160,278.907 353.600 C 278.530 354.040,277.729 354.400,277.125 354.400 C 276.438 354.400,275.868 354.699,275.600 355.200 C 275.315 355.732,274.762 356.000,273.948 356.000 C 273.062 356.000,272.668 356.220,272.516 356.800 C 272.357 357.406,271.970 357.600,270.916 357.600 C 269.862 357.600,269.475 357.794,269.316 358.400 C 269.152 359.027,268.770 359.200,267.553 359.200 C 266.505 359.200,266.000 359.378,266.000 359.748 C 266.000 360.104,265.343 360.370,264.124 360.507 C 263.093 360.624,262.058 360.978,261.824 361.295 C 261.591 361.612,260.621 361.975,259.669 362.102 C 258.717 362.228,257.623 362.617,257.237 362.966 C 256.852 363.315,255.876 363.600,255.069 363.600 C 254.172 363.600,253.311 363.889,252.859 364.341 C 252.435 364.765,251.288 365.176,250.183 365.301 C 249.083 365.425,248.046 365.795,247.780 366.159 C 247.454 366.606,246.677 366.800,245.218 366.800 C 243.462 366.800,243.091 366.929,242.916 367.600 C 242.731 368.309,242.370 368.400,239.753 368.400 C 237.067 368.400,236.800 368.472,236.800 369.200 C 236.800 369.949,236.533 370.000,232.603 370.000 C 228.840 370.000,228.355 370.083,227.907 370.800 C 227.452 371.529,226.974 371.600,222.532 371.600 C 218.732 371.600,217.525 371.732,217.057 372.200 C 216.155 373.102,182.645 373.102,181.743 372.200 C 181.275 371.732,180.068 371.600,176.268 371.600 C 171.826 371.600,171.348 371.529,170.893 370.800 C 170.457 370.102,169.960 370.000,166.997 370.000 C 164.133 370.000,163.474 369.874,162.800 369.200 C 162.185 368.585,161.467 368.400,159.689 368.400 C 157.873 368.400,157.231 368.229,156.693 367.600 C 156.154 366.971,155.513 366.800,153.693 366.800 C 151.873 366.800,151.231 366.629,150.693 366.000 C 150.212 365.439,149.513 365.200,148.348 365.200 C 147.275 365.200,146.520 364.969,146.211 364.548 C 145.920 364.149,144.930 363.818,143.667 363.697 C 142.388 363.574,141.600 363.308,141.600 362.999 C 141.600 362.494,139.893 362.000,138.150 362.000 C 137.576 362.000,137.200 361.765,137.200 361.405 C 137.200 361.020,136.637 360.719,135.608 360.555 C 134.732 360.415,133.810 360.053,133.559 359.750 C 133.300 359.439,132.353 359.200,131.378 359.200 C 130.005 359.200,129.602 359.037,129.400 358.400 C 129.212 357.809,128.795 357.600,127.800 357.600 C 126.805 357.600,126.388 357.391,126.200 356.800 C 126.013 356.212,125.595 356.000,124.620 356.000 C 123.630 356.000,123.240 355.797,123.084 355.200 C 122.924 354.587,122.538 354.400,121.437 354.400 C 120.475 354.400,120.000 354.216,120.000 353.843 C 120.000 353.236,119.161 352.800,117.994 352.800 C 117.587 352.800,117.140 352.440,117.000 352.000 C 116.811 351.405,116.395 351.200,115.373 351.200 C 114.448 351.200,114.000 351.013,114.000 350.627 C 114.000 350.312,113.657 349.945,113.237 349.812 C 112.817 349.679,112.377 349.316,112.258 349.007 C 112.139 348.697,111.403 348.324,110.621 348.178 C 109.803 348.024,109.200 347.675,109.200 347.355 C 109.200 346.989,108.732 346.800,107.827 346.800 C 106.805 346.800,106.389 346.595,106.200 346.000 C 106.060 345.560,105.598 345.200,105.173 345.200 C 104.667 345.200,104.400 344.924,104.400 344.400 C 104.400 343.752,104.133 343.600,103.000 343.600 C 101.986 343.600,101.600 343.424,101.600 342.963 C 101.600 342.612,101.257 342.235,100.837 342.126 C 100.417 342.016,99.984 341.583,99.874 341.163 C 99.765 340.743,99.388 340.400,99.037 340.400 C 98.687 340.400,98.040 340.040,97.600 339.600 C 97.160 339.160,96.440 338.800,96.000 338.800 C 95.535 338.800,95.200 338.533,95.200 338.163 C 95.200 337.812,94.840 337.431,94.400 337.316 C 93.960 337.201,93.600 336.858,93.600 336.553 C 93.600 336.249,93.358 336.000,93.062 336.000 C 92.766 336.000,92.198 335.640,91.800 335.200 C 91.402 334.760,90.654 334.400,90.138 334.400 C 89.467 334.400,89.200 334.173,89.200 333.600 C 89.200 333.067,88.933 332.800,88.400 332.800 C 87.867 332.800,87.600 332.533,87.600 332.000 C 87.600 331.467,87.333 331.200,86.800 331.200 C 86.267 331.200,86.000 330.933,86.000 330.400 C 86.000 329.867,85.733 329.600,85.200 329.600 C 84.735 329.600,84.400 329.333,84.400 328.963 C 84.400 328.612,84.040 328.231,83.600 328.116 C 83.160 328.001,82.800 327.670,82.800 327.380 C 82.800 327.091,82.440 326.740,82.000 326.600 C 81.560 326.460,81.200 326.088,81.200 325.773 C 81.200 325.458,81.042 325.200,80.849 325.200 C 80.544 325.200,78.703 323.639,76.259 321.307 C 75.852 320.918,75.361 320.195,75.169 319.700 C 74.977 319.205,74.545 318.800,74.210 318.800 C 73.874 318.800,73.600 318.513,73.600 318.163 C 73.600 317.812,73.240 317.431,72.800 317.316 C 72.360 317.201,72.000 316.841,72.000 316.516 C 72.000 316.191,71.657 315.835,71.237 315.726 C 70.817 315.616,70.384 315.183,70.274 314.763 C 70.165 314.343,69.788 314.000,69.437 314.000 C 69.067 314.000,68.800 313.665,68.800 313.200 C 68.800 312.760,68.628 312.400,68.418 312.400 C 67.930 312.400,66.026 310.504,65.656 309.651 C 65.002 308.141,63.768 306.405,63.347 306.403 C 63.097 306.401,62.799 306.040,62.684 305.600 C 62.569 305.160,62.188 304.800,61.837 304.800 C 61.467 304.800,61.200 304.465,61.200 304.000 C 61.200 303.467,60.933 303.200,60.400 303.200 C 59.772 303.200,59.600 302.933,59.600 301.963 C 59.600 301.062,59.383 300.668,58.800 300.516 C 58.360 300.401,58.000 299.980,58.000 299.580 C 58.000 299.181,57.640 298.740,57.200 298.600 C 56.760 298.460,56.400 298.011,56.400 297.601 C 56.400 296.649,54.748 294.039,54.132 294.017 C 53.874 294.008,53.542 293.448,53.394 292.773 C 53.246 292.098,52.872 291.449,52.562 291.330 C 52.253 291.212,52.000 290.757,52.000 290.320 C 52.000 289.862,51.661 289.437,51.200 289.316 C 50.636 289.168,50.400 288.770,50.400 287.967 C 50.400 287.238,50.113 286.674,49.600 286.400 C 49.160 286.165,48.800 285.633,48.800 285.219 C 48.800 284.068,48.371 283.200,47.802 283.200 C 47.520 283.200,47.171 282.570,47.026 281.800 C 46.869 280.962,46.530 280.400,46.182 280.400 C 45.802 280.400,45.600 279.984,45.600 279.203 C 45.600 278.440,45.310 277.826,44.800 277.507 C 44.329 277.213,44.000 276.574,44.000 275.953 C 44.000 275.373,43.742 274.683,43.426 274.421 C 43.110 274.159,42.738 273.430,42.600 272.800 C 42.462 272.170,42.109 271.456,41.816 271.213 C 41.523 270.970,41.165 270.138,41.020 269.365 C 40.875 268.591,40.496 267.858,40.178 267.736 C 39.827 267.601,39.600 266.967,39.600 266.120 C 39.600 265.062,39.407 264.675,38.800 264.516 C 38.177 264.353,38.000 263.970,38.000 262.786 C 38.000 260.877,37.672 260.000,36.957 260.000 C 36.574 260.000,36.400 259.501,36.400 258.400 C 36.400 257.333,36.133 256.533,35.600 256.000 C 35.067 255.467,34.800 254.667,34.800 253.600 C 34.800 252.533,34.533 251.733,34.000 251.200 C 33.437 250.637,33.200 249.867,33.200 248.603 C 33.200 247.240,33.007 246.686,32.400 246.307 C 31.731 245.889,31.600 245.374,31.600 243.153 C 31.600 241.281,31.423 240.351,31.000 240.000 C 30.639 239.700,30.400 238.825,30.400 237.801 C 30.400 235.369,29.980 233.600,29.402 233.600 C 29.049 233.600,28.850 232.369,28.715 229.341 C 28.566 225.988,28.385 224.978,27.863 224.597 C 27.292 224.179,27.200 223.193,27.200 217.470 C 27.200 211.238,27.151 210.802,26.400 210.400 C 25.157 209.735,25.157 190.557,26.400 189.493 C 27.145 188.855,27.200 188.313,27.200 181.604 C 27.200 175.737,27.303 174.400,27.753 174.400 C 28.510 174.400,28.788 173.131,28.795 169.644 C 28.799 167.358,28.950 166.578,29.463 166.204 C 29.958 165.842,30.173 164.868,30.314 162.360 C 30.441 160.101,30.683 158.895,31.052 158.680 C 31.405 158.474,31.600 157.619,31.600 156.276 C 31.600 154.626,31.766 154.089,32.400 153.693 C 33.064 153.278,33.200 152.760,33.200 150.643 C 33.200 148.430,33.306 148.066,34.000 147.884 C 34.677 147.707,34.800 147.338,34.800 145.484 C 34.800 143.630,34.923 143.261,35.600 143.084 C 36.265 142.910,36.400 142.538,36.400 140.884 C 36.400 139.230,36.535 138.858,37.200 138.684 C 37.792 138.529,38.000 138.138,38.000 137.182 C 38.000 136.469,38.281 135.682,38.627 135.430 C 38.971 135.178,39.359 134.168,39.490 133.186 C 39.631 132.115,40.021 131.191,40.463 130.877 C 40.868 130.590,41.200 129.915,41.200 129.377 C 41.200 128.840,41.560 128.040,42.000 127.600 C 42.440 127.160,42.800 126.369,42.800 125.843 C 42.800 125.316,43.070 124.782,43.400 124.655 C 43.771 124.513,44.000 123.904,44.000 123.059 C 44.000 122.030,44.197 121.642,44.800 121.484 C 45.413 121.324,45.600 120.938,45.600 119.837 C 45.600 118.667,45.748 118.400,46.400 118.400 C 47.042 118.400,47.200 118.133,47.200 117.047 C 47.200 116.030,47.399 115.641,48.000 115.484 C 48.440 115.369,48.800 114.988,48.800 114.637 C 48.800 114.287,49.160 113.640,49.600 113.200 C 50.040 112.760,50.400 112.083,50.400 111.696 C 50.400 111.309,50.760 110.768,51.200 110.493 C 51.710 110.174,52.000 109.560,52.000 108.797 C 52.000 108.020,52.203 107.600,52.578 107.600 C 53.146 107.600,53.931 106.451,54.812 104.332 C 55.056 103.745,55.513 103.165,55.828 103.045 C 56.143 102.924,56.400 102.480,56.400 102.059 C 56.400 101.630,56.751 101.201,57.200 101.084 C 57.783 100.932,58.000 100.538,58.000 99.637 C 58.000 98.667,58.172 98.400,58.800 98.400 C 59.333 98.400,59.600 98.133,59.600 97.600 C 59.600 97.150,59.867 96.800,60.210 96.800 C 60.545 96.800,60.991 96.350,61.200 95.800 C 61.409 95.250,61.750 94.800,61.958 94.800 C 62.166 94.800,62.451 94.278,62.591 93.641 C 62.739 92.967,63.171 92.396,63.623 92.278 C 64.050 92.166,64.400 91.788,64.400 91.437 C 64.400 91.087,64.641 90.800,64.936 90.800 C 65.230 90.800,65.677 90.350,65.927 89.800 C 66.178 89.250,66.567 88.800,66.791 88.800 C 67.016 88.800,67.200 88.536,67.200 88.214 C 67.200 87.892,67.560 87.435,68.000 87.200 C 68.440 86.965,68.800 86.508,68.800 86.186 C 68.800 85.864,69.051 85.600,69.357 85.600 C 69.969 85.600,70.400 84.759,70.400 83.567 C 70.400 83.067,70.678 82.800,71.200 82.800 C 71.733 82.800,72.000 82.533,72.000 82.000 C 72.000 81.467,72.267 81.200,72.800 81.200 C 73.240 81.200,73.600 80.951,73.600 80.647 C 73.600 80.342,73.960 79.999,74.400 79.884 C 74.840 79.769,75.200 79.409,75.200 79.084 C 75.200 78.759,75.560 78.399,76.000 78.284 C 76.440 78.169,76.800 77.809,76.800 77.484 C 76.800 77.159,77.160 76.799,77.600 76.684 C 78.040 76.569,78.400 76.209,78.400 75.884 C 78.400 75.559,78.760 75.199,79.200 75.084 C 79.640 74.969,80.000 74.588,80.000 74.237 C 80.000 73.887,80.270 73.600,80.600 73.600 C 80.933 73.600,81.200 73.244,81.200 72.800 C 81.200 72.227,81.467 72.000,82.141 72.000 C 83.076 72.000,85.600 69.954,85.600 69.197 C 85.600 68.978,85.977 68.800,86.437 68.800 C 86.938 68.800,87.359 68.479,87.484 68.000 C 87.599 67.560,87.942 67.200,88.247 67.200 C 88.551 67.200,88.800 67.016,88.800 66.791 C 88.800 66.567,89.250 66.178,89.800 65.927 C 90.350 65.677,90.800 65.251,90.800 64.982 C 90.800 64.713,91.160 64.399,91.600 64.284 C 92.040 64.169,92.400 63.802,92.400 63.469 C 92.400 63.122,92.911 62.751,93.600 62.600 C 94.260 62.455,94.800 62.166,94.800 61.958 C 94.800 61.750,95.250 61.409,95.800 61.200 C 96.350 60.991,96.800 60.545,96.800 60.210 C 96.800 59.867,97.150 59.600,97.600 59.600 C 98.133 59.600,98.400 59.333,98.400 58.800 C 98.400 58.172,98.667 58.000,99.637 58.000 C 100.538 58.000,100.932 57.783,101.084 57.200 C 101.219 56.682,101.630 56.400,102.247 56.400 C 102.804 56.400,103.200 56.164,103.200 55.832 C 103.200 55.519,103.739 55.145,104.398 55.001 C 105.056 54.856,105.731 54.513,105.898 54.239 C 106.064 53.964,106.515 53.624,106.900 53.482 C 107.285 53.341,107.600 52.949,107.600 52.613 C 107.600 52.176,108.013 52.000,109.037 52.000 C 110.138 52.000,110.524 51.813,110.684 51.200 C 110.800 50.757,111.230 50.400,111.647 50.400 C 112.061 50.400,112.760 50.040,113.200 49.600 C 113.640 49.160,114.287 48.800,114.637 48.800 C 114.988 48.800,115.369 48.440,115.484 48.000 C 115.640 47.403,116.030 47.200,117.020 47.200 C 117.995 47.200,118.413 46.988,118.600 46.400 C 118.789 45.805,119.205 45.600,120.227 45.600 C 121.333 45.600,121.600 45.445,121.600 44.800 C 121.600 44.133,121.867 44.000,123.200 44.000 C 124.356 44.000,124.800 43.833,124.800 43.400 C 124.800 43.032,125.174 42.800,125.767 42.800 C 127.112 42.800,128.000 42.406,128.000 41.810 C 128.000 41.522,128.701 41.211,129.631 41.087 C 130.528 40.966,131.577 40.583,131.963 40.234 C 132.348 39.885,133.142 39.600,133.728 39.600 C 134.360 39.600,134.996 39.275,135.293 38.800 C 135.649 38.230,136.226 38.000,137.296 38.000 C 138.267 38.000,139.084 37.716,139.600 37.200 C 140.089 36.711,140.933 36.400,141.773 36.400 C 142.795 36.400,143.211 36.195,143.400 35.600 C 143.606 34.951,144.008 34.799,145.527 34.795 C 147.971 34.787,149.200 34.439,149.200 33.753 C 149.200 33.348,149.799 33.200,151.437 33.200 C 153.338 33.200,153.706 33.080,153.884 32.400 C 154.070 31.691,154.430 31.600,157.059 31.600 C 159.327 31.600,160.079 31.459,160.255 31.000 C 160.423 30.562,161.113 30.400,162.810 30.400 C 165.498 30.400,166.400 30.138,166.400 29.357 C 166.400 28.916,167.277 28.800,170.600 28.800 C 174.267 28.800,174.902 28.698,175.600 28.000 C 176.348 27.252,176.933 27.200,184.556 27.200 C 192.079 27.200,192.785 27.139,193.656 26.413 C 195.110 25.202,205.400 25.191,205.716 26.400 M129.907 91.600 C 129.569 92.142,128.974 92.400,128.066 92.400 C 127.062 92.400,126.673 92.601,126.516 93.200 C 126.360 93.797,125.970 94.000,124.980 94.000 C 124.005 94.000,123.587 94.212,123.400 94.800 C 123.260 95.240,122.933 95.606,122.673 95.613 C 121.916 95.635,120.400 97.069,120.400 97.764 C 120.400 98.133,120.065 98.400,119.600 98.400 C 119.067 98.400,118.800 98.667,118.800 99.200 C 118.800 99.733,118.533 100.000,118.000 100.000 C 117.483 100.000,117.200 100.267,117.200 100.753 C 117.200 101.170,116.843 101.600,116.400 101.716 C 115.934 101.838,115.600 102.262,115.600 102.730 C 115.600 103.957,115.175 104.800,114.557 104.800 C 114.174 104.800,114.000 105.299,114.000 106.400 C 114.000 107.501,113.826 108.000,113.443 108.000 C 112.024 108.000,111.787 124.315,113.200 124.684 C 113.801 124.841,114.000 125.230,114.000 126.243 C 114.000 127.160,114.257 127.754,114.800 128.093 C 115.278 128.391,115.600 129.026,115.600 129.669 C 115.600 130.395,115.861 130.829,116.400 131.000 C 116.840 131.140,117.200 131.512,117.200 131.827 C 117.200 132.142,117.560 132.400,118.000 132.400 C 118.517 132.400,118.800 132.667,118.800 133.153 C 118.800 133.570,119.157 134.000,119.600 134.116 C 120.040 134.231,120.400 134.591,120.400 134.916 C 120.400 135.241,120.760 135.601,121.200 135.716 C 121.640 135.831,122.000 136.212,122.000 136.563 C 122.000 136.913,122.258 137.200,122.573 137.200 C 122.888 137.200,123.260 137.560,123.400 138.000 C 123.587 138.588,124.005 138.800,124.980 138.800 C 125.970 138.800,126.360 139.003,126.516 139.600 C 126.676 140.213,127.062 140.400,128.163 140.400 C 129.154 140.400,129.600 140.581,129.600 140.982 C 129.600 142.327,145.200 142.438,146.177 141.100 C 146.482 140.683,147.211 140.400,147.982 140.400 C 148.938 140.400,149.329 140.192,149.484 139.600 C 149.643 138.994,150.030 138.800,151.084 138.800 C 152.138 138.800,152.525 138.606,152.684 138.000 C 152.799 137.560,153.087 137.200,153.325 137.200 C 153.946 137.200,156.000 135.147,156.000 134.525 C 156.000 134.236,156.270 134.000,156.600 134.000 C 156.933 134.000,157.200 133.644,157.200 133.200 C 157.200 132.667,157.467 132.400,158.000 132.400 C 158.440 132.400,158.800 132.142,158.800 131.827 C 158.800 131.512,159.160 131.140,159.600 131.000 C 160.110 130.838,160.400 130.395,160.400 129.776 C 160.400 129.240,160.757 128.584,161.200 128.307 C 161.734 127.974,162.000 127.374,162.000 126.504 C 162.000 125.733,162.327 124.873,162.800 124.400 C 164.193 123.007,163.971 108.000,162.557 108.000 C 162.174 108.000,162.000 107.501,162.000 106.400 C 162.000 105.067,161.867 104.800,161.200 104.800 C 160.548 104.800,160.400 104.533,160.400 103.363 C 160.400 102.262,160.213 101.876,159.600 101.716 C 159.157 101.600,158.800 101.170,158.800 100.753 C 158.800 100.267,158.517 100.000,158.000 100.000 C 157.467 100.000,157.200 99.733,157.200 99.200 C 157.200 98.756,156.933 98.400,156.600 98.400 C 156.270 98.400,156.000 98.142,156.000 97.827 C 156.000 97.512,155.657 97.145,155.237 97.012 C 154.817 96.879,154.373 96.506,154.250 96.185 C 154.126 95.863,153.770 95.600,153.459 95.600 C 153.148 95.600,152.799 95.240,152.684 94.800 C 152.524 94.187,152.138 94.000,151.037 94.000 C 149.867 94.000,149.600 93.852,149.600 93.200 C 149.600 92.536,149.333 92.400,148.027 92.400 C 146.805 92.400,146.397 92.221,146.200 91.600 C 145.958 90.836,145.595 90.800,138.176 90.800 C 130.840 90.800,130.379 90.845,129.907 91.600 M189.200 91.600 C 188.760 92.040,188.055 92.400,187.633 92.400 C 186.441 92.400,185.600 92.831,185.600 93.443 C 185.600 93.749,185.268 94.000,184.862 94.000 C 184.456 94.000,183.798 94.360,183.400 94.800 C 183.002 95.240,182.327 95.600,181.901 95.600 C 181.462 95.600,181.034 95.947,180.916 96.400 C 180.801 96.840,180.441 97.200,180.116 97.200 C 179.791 97.200,179.431 97.560,179.316 98.000 C 179.201 98.440,178.841 98.800,178.516 98.800 C 178.191 98.800,177.831 99.160,177.716 99.600 C 177.601 100.040,177.266 100.400,176.971 100.400 C 176.676 100.400,176.318 101.028,176.174 101.800 C 176.029 102.570,175.680 103.200,175.398 103.200 C 174.794 103.200,174.400 104.082,174.400 105.433 C 174.400 105.990,174.165 106.400,173.847 106.400 C 173.199 106.400,172.813 107.609,172.805 109.667 C 172.802 110.480,172.577 111.207,172.300 111.299 C 171.467 111.576,171.341 120.726,172.166 121.042 C 172.625 121.219,172.800 121.825,172.800 123.243 C 172.800 124.667,173.018 125.418,173.600 126.000 C 174.040 126.440,174.400 127.244,174.400 127.786 C 174.400 128.362,174.732 128.950,175.200 129.200 C 175.640 129.435,176.000 129.982,176.000 130.414 C 176.000 130.846,176.329 131.529,176.731 131.931 C 177.132 132.332,177.577 132.962,177.718 133.331 C 177.859 133.699,178.251 134.000,178.587 134.000 C 178.933 134.000,179.200 134.348,179.200 134.800 C 179.200 135.317,179.467 135.600,179.953 135.600 C 180.370 135.600,180.800 135.957,180.916 136.400 C 181.057 136.940,181.462 137.200,182.159 137.200 C 182.760 137.200,183.403 137.535,183.693 138.000 C 183.968 138.440,184.419 138.800,184.696 138.800 C 184.973 138.800,185.560 139.160,186.000 139.600 C 186.440 140.040,187.241 140.400,187.780 140.400 C 188.319 140.400,188.936 140.715,189.152 141.100 C 189.504 141.730,190.339 141.800,197.529 141.800 C 204.573 141.800,205.606 141.717,206.289 141.100 C 206.715 140.715,207.439 140.400,207.899 140.400 C 209.127 140.400,210.000 139.985,210.000 139.402 C 210.000 139.120,210.630 138.771,211.400 138.626 C 212.238 138.469,212.800 138.130,212.800 137.782 C 212.800 137.458,213.171 137.200,213.637 137.200 C 214.125 137.200,214.558 136.881,214.674 136.437 C 214.784 136.017,215.217 135.584,215.637 135.474 C 216.057 135.365,216.400 135.009,216.400 134.684 C 216.400 134.359,216.760 133.999,217.200 133.884 C 217.640 133.769,218.000 133.388,218.000 133.037 C 218.000 132.687,218.270 132.400,218.600 132.400 C 218.973 132.400,219.200 132.023,219.200 131.403 C 219.200 130.840,219.548 130.190,220.000 129.907 C 220.440 129.632,220.800 129.091,220.800 128.704 C 220.800 128.317,221.160 127.640,221.600 127.200 C 222.133 126.667,222.400 125.867,222.400 124.800 C 222.400 123.714,222.667 122.933,223.230 122.370 C 224.381 121.219,224.272 110.678,223.100 109.823 C 222.715 109.542,222.398 108.792,222.395 108.156 C 222.386 106.391,221.967 105.200,221.353 105.200 C 221.045 105.200,220.800 104.799,220.800 104.296 C 220.800 103.799,220.440 103.168,220.000 102.893 C 219.560 102.618,219.200 102.011,219.200 101.545 C 219.200 100.668,214.482 95.600,213.666 95.600 C 213.425 95.600,213.035 95.240,212.800 94.800 C 212.526 94.287,211.962 94.000,211.233 94.000 C 210.430 94.000,210.032 93.764,209.884 93.200 C 209.727 92.601,209.338 92.400,208.334 92.400 C 207.426 92.400,206.831 92.142,206.493 91.600 C 206.020 90.843,205.560 90.800,197.997 90.800 C 190.533 90.800,189.947 90.853,189.200 91.600 M249.700 91.065 C 249.425 91.176,249.200 91.522,249.200 91.833 C 249.200 92.228,248.714 92.400,247.600 92.400 C 246.267 92.400,246.000 92.533,246.000 93.200 C 246.000 93.852,245.733 94.000,244.563 94.000 C 243.462 94.000,243.076 94.187,242.916 94.800 C 242.800 95.243,242.370 95.600,241.953 95.600 C 241.539 95.600,241.200 95.870,241.200 96.200 C 241.200 96.530,240.913 96.800,240.563 96.800 C 240.212 96.800,239.831 97.160,239.716 97.600 C 239.601 98.040,239.241 98.400,238.916 98.400 C 238.591 98.400,238.235 98.743,238.126 99.163 C 238.016 99.583,237.583 100.016,237.163 100.126 C 236.743 100.235,236.400 100.612,236.400 100.963 C 236.400 101.313,236.149 101.600,235.843 101.600 C 235.198 101.600,234.800 102.452,234.800 103.833 C 234.800 104.426,234.568 104.800,234.200 104.800 C 233.770 104.800,233.600 105.239,233.600 106.353 C 233.600 107.570,233.427 107.952,232.800 108.116 C 232.034 108.316,232.000 108.662,232.000 116.336 C 232.000 123.995,232.035 124.357,232.800 124.600 C 233.397 124.790,233.600 125.205,233.600 126.240 C 233.600 127.102,233.826 127.712,234.200 127.855 C 234.530 127.982,234.800 128.484,234.800 128.971 C 234.800 129.925,236.774 132.400,237.536 132.400 C 237.791 132.400,238.000 132.760,238.000 133.200 C 238.000 133.733,238.267 134.000,238.800 134.000 C 239.333 134.000,239.600 134.267,239.600 134.800 C 239.600 135.333,239.867 135.600,240.400 135.600 C 240.933 135.600,241.200 135.867,241.200 136.400 C 241.200 136.917,241.467 137.200,241.953 137.200 C 242.370 137.200,242.800 137.557,242.916 138.000 C 243.075 138.606,243.462 138.800,244.516 138.800 C 245.570 138.800,245.957 138.994,246.116 139.600 C 246.276 140.213,246.662 140.400,247.763 140.400 C 248.720 140.400,249.200 140.585,249.200 140.953 C 249.200 141.820,250.537 141.989,257.400 141.989 C 264.221 141.989,265.600 141.819,265.600 140.976 C 265.600 140.638,266.217 140.401,267.300 140.323 C 268.454 140.239,268.965 140.030,268.890 139.670 C 268.830 139.379,268.952 139.247,269.162 139.377 C 269.373 139.507,269.658 139.430,269.796 139.207 C 269.934 138.983,270.413 138.800,270.861 138.800 C 271.338 138.800,271.761 138.469,271.884 138.000 C 272.000 137.558,272.430 137.200,272.844 137.200 C 273.707 137.200,278.400 132.743,278.400 131.923 C 278.400 131.623,278.715 131.074,279.100 130.703 C 281.003 128.868,281.200 128.490,281.200 126.666 C 281.200 125.067,281.314 124.800,282.000 124.800 C 282.731 124.800,282.800 124.533,282.800 121.689 C 282.800 119.073,282.927 118.469,283.600 117.893 C 284.040 117.516,284.400 116.846,284.400 116.404 C 284.400 115.962,284.040 115.240,283.600 114.800 C 282.942 114.142,282.800 113.467,282.800 111.000 C 282.800 108.267,282.729 108.000,282.000 108.000 C 281.319 108.000,281.200 107.733,281.200 106.200 C 281.200 104.967,280.948 104.117,280.400 103.500 C 278.736 101.628,278.472 101.255,278.201 100.402 C 277.827 99.225,275.212 96.800,274.317 96.800 C 273.922 96.800,273.600 96.530,273.600 96.200 C 273.600 95.867,273.244 95.600,272.800 95.600 C 272.267 95.600,272.000 95.333,272.000 94.800 C 272.000 94.261,271.733 94.000,271.183 94.000 C 270.734 94.000,269.980 93.640,269.508 93.200 C 268.970 92.699,268.096 92.400,267.171 92.400 C 266.030 92.400,265.646 92.218,265.484 91.600 C 265.281 90.824,251.458 90.355,249.700 91.065 M98.916 148.768 C 98.522 149.190,97.705 149.659,97.100 149.811 C 96.495 149.963,96.000 150.251,96.000 150.452 C 96.000 150.653,95.550 151.022,95.000 151.273 C 94.234 151.622,94.000 152.031,94.000 153.018 C 94.000 153.970,93.791 154.361,93.200 154.516 C 92.407 154.723,92.400 155.062,92.400 190.866 C 92.400 226.574,92.410 227.014,93.200 227.507 C 93.652 227.790,94.000 228.440,94.000 229.003 C 94.000 229.612,94.228 230.000,94.586 230.000 C 94.908 230.000,95.365 230.360,95.600 230.800 C 95.835 231.240,96.380 231.600,96.811 231.600 C 97.241 231.600,97.818 231.960,98.093 232.400 C 98.474 233.010,99.026 233.200,100.416 233.200 C 101.419 233.200,102.454 233.414,102.715 233.675 C 103.435 234.395,104.658 234.453,105.207 233.791 C 105.477 233.466,105.856 233.200,106.049 233.200 C 106.248 233.200,106.400 249.668,106.400 271.200 L 106.400 309.200 129.600 309.200 L 152.800 309.200 152.800 276.190 L 152.800 243.180 151.855 242.821 C 151.335 242.623,150.800 242.177,150.667 241.831 C 150.520 241.448,149.948 241.200,149.213 241.200 C 148.267 241.200,148.000 241.024,148.000 240.400 C 148.000 239.867,147.733 239.600,147.200 239.600 C 146.667 239.600,146.400 239.333,146.400 238.800 C 146.400 238.267,146.133 238.000,145.600 238.000 C 145.076 238.000,144.800 237.733,144.800 237.228 C 144.800 236.230,143.150 233.639,142.500 233.617 C 142.225 233.608,142.000 233.150,142.000 232.600 C 142.000 232.050,141.640 231.240,141.200 230.800 C 140.619 230.219,140.400 229.467,140.400 228.054 C 140.400 226.714,140.151 225.791,139.600 225.091 C 138.544 223.748,138.316 158.671,139.365 158.269 C 139.731 158.128,140.033 157.095,140.221 155.342 C 140.381 153.851,140.756 152.387,141.056 152.087 C 141.999 151.144,141.757 148.535,140.700 148.252 C 137.985 147.524,99.633 147.998,98.916 148.768 M158.500 148.409 C 158.005 148.610,157.600 148.939,157.600 149.140 C 157.600 149.342,157.240 149.601,156.800 149.716 C 156.360 149.831,156.000 150.212,156.000 150.563 C 156.000 150.933,155.665 151.200,155.200 151.200 C 154.683 151.200,154.400 151.467,154.400 151.953 C 154.400 152.370,154.043 152.800,153.600 152.916 C 153.160 153.031,152.800 153.412,152.800 153.763 C 152.800 154.113,152.549 154.400,152.243 154.400 C 151.229 154.400,151.200 155.417,151.200 191.010 C 151.200 224.990,151.229 226.375,151.943 226.877 C 152.351 227.165,152.811 227.798,152.964 228.284 C 153.293 229.325,156.033 231.600,156.958 231.600 C 157.333 231.600,157.600 231.932,157.600 232.400 C 157.600 233.109,157.867 233.200,159.957 233.200 C 161.684 233.200,162.376 233.361,162.545 233.800 C 162.859 234.620,164.269 234.557,164.768 233.700 C 165.047 233.221,165.180 245.023,165.188 271.100 L 165.200 309.200 197.546 309.200 L 229.891 309.200 230.150 307.314 C 230.292 306.277,230.403 289.241,230.396 269.456 C 230.389 249.671,230.477 233.390,230.592 233.275 C 230.706 233.160,230.800 233.367,230.800 233.733 C 230.800 234.603,233.291 234.655,234.000 233.800 C 234.304 233.434,235.180 233.200,236.249 233.200 C 237.733 233.200,238.000 233.078,238.000 232.400 C 238.000 231.778,238.267 231.600,239.197 231.600 C 240.331 231.600,242.800 229.641,242.800 228.741 C 242.800 228.553,243.070 228.400,243.400 228.400 C 243.860 228.400,244.000 227.892,244.000 226.227 C 244.000 224.405,244.129 224.013,244.800 223.800 C 245.591 223.549,245.600 223.195,245.600 190.736 C 245.600 158.262,245.592 157.923,244.800 157.716 C 244.153 157.547,244.000 157.170,244.000 155.753 C 244.000 154.786,243.810 154.000,243.576 154.000 C 243.343 154.000,243.264 153.820,243.400 153.600 C 243.536 153.380,243.452 153.200,243.214 153.200 C 242.975 153.200,242.609 152.750,242.400 152.200 C 242.191 151.650,241.745 151.200,241.410 151.200 C 241.074 151.200,240.800 150.944,240.800 150.632 C 240.800 150.319,240.261 149.945,239.602 149.801 C 238.944 149.656,238.236 149.237,238.031 148.869 C 237.604 148.106,160.350 147.660,158.500 148.409 M255.477 148.256 C 254.751 148.982,255.187 153.672,256.000 153.884 C 256.793 154.091,256.800 154.430,256.800 190.750 C 256.800 226.974,256.791 227.413,256.000 227.907 C 255.393 228.286,255.200 228.840,255.200 230.203 C 255.200 231.733,255.081 232.000,254.400 232.000 C 253.758 232.000,253.600 232.267,253.600 233.353 C 253.600 234.370,253.401 234.759,252.800 234.916 C 252.321 235.041,252.000 235.462,252.000 235.963 C 252.000 236.423,251.761 236.800,251.470 236.800 C 251.178 236.800,250.414 237.430,249.772 238.200 C 249.130 238.970,248.391 239.600,248.129 239.600 C 247.868 239.600,247.540 239.960,247.400 240.400 C 247.260 240.840,246.888 241.200,246.573 241.200 C 246.258 241.200,246.000 241.560,246.000 242.000 C 246.000 242.667,245.733 242.800,244.400 242.800 C 243.100 242.800,242.800 242.941,242.800 243.553 C 242.800 243.971,242.442 244.400,241.998 244.517 C 241.202 244.725,241.196 244.988,241.298 276.863 L 241.400 309.000 265.774 309.103 C 285.009 309.185,290.216 309.100,290.468 308.703 C 290.644 308.426,290.811 291.280,290.840 270.600 C 290.869 249.920,290.975 233.315,291.076 233.700 C 291.308 234.589,293.686 234.660,294.400 233.800 C 294.704 233.434,295.581 233.200,296.653 233.200 C 297.913 233.200,298.601 232.974,299.093 232.400 C 299.470 231.960,300.022 231.600,300.320 231.600 C 301.122 231.600,303.025 229.551,303.322 228.368 C 303.464 227.801,304.039 227.129,304.598 226.873 C 306.391 226.057,306.400 225.871,306.400 190.807 C 306.400 157.179,306.366 156.000,305.384 156.000 C 305.093 156.000,304.740 155.640,304.600 155.200 C 304.460 154.760,304.088 154.400,303.773 154.400 C 303.413 154.400,303.200 153.987,303.200 153.289 C 303.200 152.015,301.342 150.150,299.655 149.730 C 299.075 149.586,298.390 149.182,298.132 148.834 C 297.639 148.165,256.130 147.604,255.477 148.256 " stroke="none" fill="#4db849" fill-rule="evenodd"></path><path id="path4" d="" stroke="none" fill="#00ff00" fill-rule="evenodd"></path></g></svg>