<svg id="svg" version="1.1" width="400" height="377.0925110132158" viewBox="0 0 400 377.0925110132158" xmlns="http://www.w3.org/2000/svg" xmlns:xlink="http://www.w3.org/1999/xlink" ><g id="svgg"><path id="path0" d="M202.115 66.960 C 202.872 67.736,203.570 68.370,203.667 68.370 C 203.764 68.370,203.224 67.736,202.467 66.960 C 201.710 66.185,201.011 65.551,200.914 65.551 C 200.817 65.551,201.357 66.185,202.115 66.960 M212.186 157.858 C 212.171 158.133,211.887 158.688,211.555 159.091 C 210.986 159.782,210.998 159.781,211.773 159.068 C 212.225 158.652,212.509 158.097,212.404 157.834 C 212.250 157.447,212.209 157.452,212.186 157.858 M142.125 189.863 C 143.052 189.936,144.479 189.935,145.297 189.861 C 146.115 189.787,145.357 189.728,143.612 189.729 C 141.868 189.730,141.199 189.790,142.125 189.863 M157.378 190.143 C 157.001 190.428,156.851 190.661,157.043 190.661 C 157.235 190.661,157.544 190.509,157.730 190.323 C 157.915 190.138,159.493 189.932,161.236 189.867 L 164.405 189.748 161.233 189.687 C 158.914 189.642,157.878 189.765,157.378 190.143 M129.500 198.257 C 130.073 198.556,131.025 198.739,131.615 198.664 C 132.599 198.538,132.580 198.522,131.386 198.470 C 130.671 198.439,129.988 198.256,129.868 198.062 C 129.748 197.868,129.382 197.710,129.054 197.711 C 128.685 197.713,128.855 197.921,129.500 198.257 M174.978 198.062 C 174.858 198.256,174.175 198.439,173.459 198.470 C 172.163 198.527,172.162 198.527,173.301 198.669 C 173.977 198.753,174.764 198.586,175.230 198.260 C 175.662 197.957,175.831 197.709,175.606 197.709 C 175.380 197.709,175.098 197.868,174.978 198.062 M195.665 211.524 C 195.433 211.757,195.270 212.669,195.304 213.551 L 195.365 215.154 195.504 213.575 C 195.581 212.707,195.810 211.795,196.015 211.549 C 196.486 210.981,196.226 210.963,195.665 211.524 M195.295 258.547 C 195.263 259.227,195.478 259.835,195.859 260.133 C 196.396 260.554,196.423 260.548,196.066 260.088 C 195.841 259.797,195.588 259.084,195.502 258.502 L 195.348 257.445 195.295 258.547 M264.359 276.476 C 264.673 276.863,265.018 277.419,265.124 277.709 C 265.289 278.158,265.323 278.153,265.347 277.676 C 265.362 277.367,265.018 276.812,264.581 276.442 C 263.795 275.777,263.793 275.777,264.359 276.476 M106.696 331.189 C 131.555 331.239,172.233 331.239,197.093 331.189 C 221.952 331.139,201.612 331.099,151.894 331.099 C 102.176 331.099,81.837 331.139,106.696 331.189 " stroke="none" fill="#003399" fill-rule="evenodd"></path><path id="path1" d="M128.237 50.308 C 127.816 50.846,127.822 50.872,128.283 50.513 C 128.575 50.287,129.368 50.035,130.045 49.953 L 131.278 49.804 129.999 49.748 C 129.150 49.711,128.558 49.899,128.237 50.308 M174.273 49.943 C 174.661 50.036,175.129 50.256,175.313 50.431 C 175.497 50.606,175.805 50.749,175.997 50.749 C 176.189 50.749,176.038 50.516,175.662 50.231 C 175.286 49.947,174.661 49.727,174.273 49.744 L 173.568 49.773 174.273 49.943 M96.423 72.987 C 96.011 73.813,95.995 73.982,96.359 73.680 C 96.792 73.320,97.373 71.894,97.085 71.894 C 97.021 71.894,96.723 72.386,96.423 72.987 M80.786 108.843 C 80.455 109.591,80.366 112.233,80.441 119.154 L 80.541 128.458 80.623 118.925 C 80.678 112.500,80.833 109.264,81.097 109.000 C 81.313 108.784,81.431 108.434,81.360 108.222 C 81.290 108.010,81.031 108.289,80.786 108.843 M283.155 142.115 L 281.762 143.612 283.343 142.203 C 284.212 141.427,284.992 140.753,285.075 140.705 C 285.159 140.656,285.075 140.617,284.888 140.617 C 284.701 140.617,283.921 141.291,283.155 142.115 M325.670 140.705 C 325.752 140.753,326.373 141.269,327.050 141.850 L 328.282 142.907 327.247 141.762 C 326.678 141.132,326.056 140.617,325.867 140.617 C 325.677 140.617,325.588 140.656,325.670 140.705 M218.896 145.744 C 218.873 146.142,218.697 146.658,218.503 146.891 C 218.310 147.124,218.405 147.096,218.714 146.827 C 219.022 146.559,219.199 146.043,219.106 145.680 C 218.953 145.087,218.932 145.093,218.896 145.744 M201.035 171.013 L 200.000 172.159 201.145 171.123 C 201.775 170.554,202.291 170.039,202.291 169.978 C 202.291 169.706,202.000 169.946,201.035 171.013 M114.262 179.571 C 114.790 180.126,115.284 180.508,115.361 180.422 C 115.439 180.335,115.007 179.881,114.403 179.414 L 113.304 178.563 114.262 179.571 M135.602 188.741 C 136.141 189.119,136.957 189.248,138.236 189.159 L 140.088 189.029 138.082 188.964 C 136.979 188.928,135.979 188.740,135.859 188.546 C 135.739 188.352,135.457 188.194,135.231 188.194 C 135.006 188.194,135.173 188.440,135.602 188.741 M167.930 188.546 C 167.810 188.740,167.047 188.925,166.235 188.958 L 164.758 189.017 166.078 189.155 C 166.902 189.242,167.692 189.087,168.182 188.744 C 168.614 188.441,168.783 188.194,168.557 188.194 C 168.332 188.194,168.049 188.352,167.930 188.546 M133.833 199.368 C 134.269 199.452,134.982 199.452,135.419 199.368 C 135.855 199.284,135.498 199.215,134.626 199.215 C 133.753 199.215,133.396 199.284,133.833 199.368 M167.950 199.659 C 167.574 199.943,167.423 200.176,167.615 200.176 C 167.808 200.176,168.115 200.028,168.300 199.846 C 168.484 199.664,169.348 199.454,170.220 199.379 L 171.806 199.242 170.220 199.192 C 169.298 199.162,168.348 199.358,167.950 199.659 M396.154 211.189 C 396.236 211.238,396.857 211.753,397.535 212.335 L 398.767 213.392 397.731 212.247 C 397.162 211.617,396.541 211.101,396.351 211.101 C 396.161 211.101,396.073 211.141,396.154 211.189 M212.313 212.952 L 211.278 214.097 212.423 213.062 C 213.053 212.493,213.568 211.977,213.568 211.916 C 213.568 211.644,213.277 211.884,212.313 212.952 M194.618 236.014 C 194.574 247.294,194.656 256.596,194.802 256.686 C 195.042 256.834,195.038 242.040,194.793 222.907 C 194.741 218.837,194.663 224.735,194.618 236.014 M29.838 221.557 C 29.709 221.686,29.604 222.130,29.604 222.543 C 29.604 222.957,29.405 223.517,29.163 223.789 C 28.792 224.205,28.814 224.214,29.301 223.848 C 29.619 223.609,29.948 222.943,30.033 222.368 C 30.199 221.237,30.191 221.204,29.838 221.557 M57.721 330.065 C 58.211 330.409,59.001 330.563,59.825 330.477 L 61.145 330.339 59.668 330.280 C 58.856 330.247,58.093 330.062,57.974 329.868 C 57.854 329.674,57.571 329.515,57.346 329.515 C 57.120 329.515,57.289 329.763,57.721 330.065 M246.872 329.868 C 246.752 330.062,245.752 330.250,244.649 330.285 L 242.643 330.351 244.496 330.480 C 245.774 330.570,246.590 330.440,247.129 330.063 C 247.559 329.762,247.726 329.515,247.500 329.515 C 247.275 329.515,246.992 329.674,246.872 329.868 " stroke="none" fill="#0000ff" fill-rule="evenodd"></path><path id="path2" d="M141.674 47.220 C 141.383 47.410,140.401 47.569,139.492 47.572 C 138.583 47.575,137.741 47.736,137.621 47.930 C 137.501 48.123,136.809 48.282,136.082 48.282 C 135.355 48.282,134.452 48.515,134.076 48.799 C 133.700 49.084,133.045 49.322,132.620 49.328 C 132.195 49.334,131.750 49.498,131.630 49.692 C 131.510 49.885,130.855 50.044,130.174 50.044 C 129.493 50.044,128.697 50.283,128.405 50.576 C 128.112 50.868,127.727 51.018,127.549 50.908 C 127.370 50.797,127.225 50.875,127.225 51.081 C 127.225 51.286,126.950 51.454,126.614 51.454 C 126.062 51.454,122.954 52.811,120.441 54.149 C 119.907 54.433,119.469 54.537,119.466 54.381 C 119.463 54.225,119.344 54.256,119.202 54.449 C 118.837 54.946,116.652 56.127,116.652 55.827 C 116.652 55.691,116.295 55.963,115.859 56.432 C 115.423 56.901,114.511 57.551,113.833 57.877 C 112.684 58.429,110.449 60.033,107.315 62.555 C 105.203 64.254,96.916 72.356,96.916 72.721 C 96.916 72.905,96.242 73.798,95.419 74.707 C 93.622 76.689,90.158 82.052,88.472 85.462 C 87.801 86.819,87.166 88.009,87.062 88.106 C 86.305 88.809,83.325 97.262,83.830 97.274 C 83.953 97.277,83.854 97.406,83.611 97.560 C 83.368 97.714,83.074 98.544,82.956 99.405 C 82.839 100.265,82.635 101.128,82.503 101.322 C 82.372 101.515,82.215 102.150,82.155 102.731 C 82.095 103.313,81.927 103.947,81.782 104.141 C 81.637 104.335,81.480 105.445,81.434 106.607 C 81.388 107.770,81.211 108.890,81.040 109.096 C 80.629 109.591,80.639 127.601,81.050 128.096 C 81.225 128.307,81.401 129.347,81.442 130.407 C 81.482 131.467,81.634 132.573,81.780 132.863 C 81.925 133.154,82.091 133.947,82.149 134.626 C 82.207 135.304,82.366 136.018,82.502 136.211 C 82.756 136.572,83.542 139.188,83.768 140.425 C 83.838 140.804,84.089 141.238,84.326 141.389 C 84.563 141.540,84.642 141.666,84.501 141.669 C 83.860 141.682,87.144 149.392,88.880 151.949 C 89.230 152.463,89.515 153.137,89.515 153.446 C 89.515 153.756,89.658 154.009,89.833 154.009 C 90.008 154.009,90.323 154.445,90.534 154.978 C 91.247 156.786,92.826 159.185,94.626 161.193 C 95.013 161.626,95.793 162.605,96.358 163.369 C 97.664 165.133,106.504 173.940,108.369 175.335 C 110.439 176.883,111.714 177.730,113.392 178.672 C 114.216 179.135,114.890 179.652,114.890 179.821 C 114.890 179.991,115.025 180.046,115.191 179.944 C 115.357 179.841,115.860 180.149,116.310 180.628 C 116.759 181.106,117.342 181.498,117.606 181.498 C 117.869 181.498,118.175 181.735,118.286 182.024 C 118.397 182.314,118.617 182.471,118.775 182.374 C 118.933 182.276,119.341 182.475,119.682 182.816 C 120.023 183.157,120.359 183.381,120.430 183.313 C 120.557 183.190,123.503 184.273,125.770 185.275 C 127.260 185.934,128.914 186.457,130.000 186.612 C 130.461 186.678,131.008 186.902,131.216 187.110 C 131.424 187.319,131.959 187.489,132.405 187.489 C 132.851 187.489,133.216 187.648,133.216 187.841 C 133.216 188.035,133.850 188.194,134.626 188.194 C 135.401 188.194,136.035 188.352,136.035 188.546 C 136.035 188.742,136.968 188.899,138.129 188.899 C 139.281 188.899,140.321 189.057,140.441 189.251 C 140.560 189.445,141.900 189.604,143.417 189.604 C 145.178 189.604,146.540 189.794,147.184 190.130 C 148.607 190.872,156.401 190.882,157.378 190.143 C 157.854 189.783,158.992 189.623,161.125 189.615 C 162.809 189.609,164.285 189.445,164.405 189.251 C 164.525 189.057,165.327 188.899,166.188 188.899 C 167.049 188.899,167.753 188.740,167.753 188.546 C 167.753 188.352,168.378 188.194,169.142 188.194 C 169.906 188.194,170.629 188.035,170.749 187.841 C 170.869 187.648,171.503 187.489,172.159 187.489 C 172.814 187.489,173.448 187.330,173.568 187.137 C 173.688 186.943,174.141 186.784,174.576 186.784 C 175.010 186.784,175.516 186.652,175.700 186.491 C 176.088 186.152,179.079 185.215,179.471 185.310 C 179.617 185.346,179.736 185.255,179.736 185.108 C 179.736 184.962,180.172 184.664,180.705 184.448 C 183.006 183.513,183.942 183.195,184.046 183.312 C 184.108 183.380,184.628 183.000,185.203 182.467 C 185.778 181.934,186.448 181.498,186.692 181.498 C 186.937 181.498,187.137 181.339,187.137 181.145 C 187.137 180.952,187.377 180.793,187.670 180.793 C 188.204 180.793,189.240 180.278,190.282 179.494 C 193.382 177.163,194.235 176.560,195.008 176.154 C 196.390 175.429,206.340 166.110,206.898 165.019 C 207.381 164.075,208.709 162.345,211.013 159.662 C 211.643 158.929,212.159 158.150,212.159 157.931 C 212.159 157.712,212.324 157.533,212.527 157.533 C 212.730 157.533,213.245 156.780,213.673 155.859 C 214.100 154.938,214.782 153.709,215.189 153.128 C 216.050 151.897,218.675 146.600,218.685 146.073 C 218.689 145.876,219.139 144.800,219.687 143.681 C 220.234 142.562,220.597 141.427,220.494 141.158 C 220.391 140.888,220.517 140.493,220.776 140.279 C 221.034 140.065,221.334 139.458,221.444 138.931 C 221.553 138.405,221.793 137.260,221.978 136.388 C 224.406 124.912,224.663 113.555,222.711 103.965 C 221.534 98.178,221.273 97.151,220.850 96.618 C 220.643 96.356,220.422 95.805,220.359 95.392 C 220.296 94.979,220.090 94.487,219.902 94.298 C 219.714 94.110,219.559 93.675,219.559 93.332 C 219.559 92.989,219.240 92.140,218.849 91.444 C 218.459 90.749,218.094 89.912,218.038 89.583 C 217.886 88.681,216.722 86.299,215.852 85.110 C 215.427 84.529,214.959 83.656,214.812 83.172 C 214.664 82.687,214.166 81.786,213.704 81.169 C 213.242 80.552,212.863 79.883,212.863 79.683 C 212.863 79.484,212.546 79.150,212.159 78.943 C 211.771 78.735,211.454 78.361,211.454 78.111 C 211.454 77.861,211.058 77.284,210.574 76.829 C 210.090 76.375,209.766 75.932,209.852 75.845 C 209.939 75.758,209.820 75.484,209.587 75.236 C 209.354 74.987,208.370 73.810,207.401 72.618 C 205.681 70.504,199.824 64.426,199.824 64.756 C 199.824 64.847,198.863 64.032,197.689 62.945 C 196.515 61.858,195.365 60.968,195.134 60.968 C 194.903 60.967,194.216 60.499,193.608 59.929 C 193.000 59.359,192.432 58.963,192.346 59.049 C 192.261 59.134,191.819 58.808,191.364 58.325 C 190.910 57.841,190.399 57.445,190.230 57.445 C 190.061 57.445,189.573 57.088,189.146 56.652 C 188.719 56.216,188.132 55.811,187.841 55.753 C 187.551 55.695,185.377 54.690,183.012 53.520 C 180.647 52.349,178.563 51.483,178.382 51.595 C 178.202 51.707,177.857 51.562,177.618 51.274 C 177.378 50.985,176.726 50.749,176.168 50.749 C 175.611 50.749,175.154 50.590,175.154 50.396 C 175.154 50.203,174.767 50.044,174.294 50.044 C 173.821 50.044,173.336 49.885,173.216 49.692 C 173.096 49.498,172.708 49.339,172.354 49.339 C 172.000 49.339,171.256 49.102,170.701 48.813 C 170.146 48.523,169.097 48.285,168.370 48.284 C 167.643 48.283,167.048 48.123,167.048 47.930 C 167.048 47.736,166.256 47.577,165.286 47.577 C 164.317 47.577,163.524 47.427,163.524 47.244 C 163.524 46.786,142.371 46.763,141.674 47.220 M295.771 140.176 C 300.956 140.231,309.441 140.231,314.626 140.176 C 319.811 140.121,315.568 140.076,305.198 140.076 C 294.828 140.076,290.586 140.121,295.771 140.176 M280.262 178.412 L 280.176 210.393 247.665 210.485 L 215.154 210.576 247.676 210.663 C 273.433 210.731,280.233 210.657,280.366 210.308 C 280.459 210.066,280.493 195.595,280.441 178.150 L 280.349 146.432 280.262 178.412 M79.648 176.211 C 79.357 176.399,78.296 176.556,77.290 176.558 C 76.283 176.561,75.362 176.722,75.242 176.916 C 75.122 177.110,74.518 177.270,73.900 177.273 C 73.281 177.275,72.022 177.505,71.101 177.784 C 70.181 178.064,69.425 178.181,69.422 178.045 C 69.419 177.909,69.300 177.961,69.158 178.162 C 69.015 178.362,67.709 178.910,66.256 179.379 C 64.802 179.848,63.282 180.438,62.879 180.690 C 62.476 180.942,62.040 181.042,61.910 180.912 C 61.780 180.782,61.674 180.827,61.674 181.012 C 61.674 181.197,60.762 181.819,59.648 182.393 C 58.533 182.967,57.314 183.714,56.938 184.053 C 56.562 184.392,56.111 184.670,55.936 184.670 C 54.987 184.670,44.758 193.971,44.758 194.834 C 44.758 194.986,44.282 195.566,43.700 196.123 C 43.119 196.680,42.643 197.284,42.643 197.464 C 42.643 197.644,42.088 198.547,41.410 199.471 C 40.731 200.396,40.176 201.293,40.176 201.465 C 40.176 201.637,39.722 202.329,39.167 203.003 C 38.613 203.678,37.665 205.209,37.061 206.406 C 36.457 207.603,35.812 208.676,35.628 208.790 C 35.444 208.904,35.103 209.589,34.870 210.313 C 34.636 211.037,33.975 212.647,33.401 213.890 C 32.826 215.133,32.282 216.561,32.192 217.062 C 32.102 217.563,31.880 218.026,31.697 218.091 C 31.515 218.156,31.366 218.503,31.366 218.863 C 31.366 219.223,31.204 219.617,31.007 219.739 C 30.810 219.861,30.726 220.085,30.820 220.237 C 30.914 220.389,30.763 220.814,30.485 221.182 C 30.206 221.549,29.973 222.209,29.967 222.648 C 29.961 223.087,29.805 223.721,29.621 224.058 C 29.436 224.394,29.054 225.225,28.772 225.903 C 28.299 227.039,28.123 227.691,27.630 230.132 C 27.532 230.617,26.993 233.075,26.433 235.595 C 25.873 238.115,25.233 241.366,25.013 242.819 C 24.792 244.273,24.493 245.700,24.348 245.991 C 24.203 246.282,24.044 247.549,23.996 248.807 C 23.948 250.065,23.785 251.176,23.635 251.274 C 23.485 251.373,23.330 252.638,23.290 254.086 C 23.251 255.534,23.066 256.901,22.881 257.125 C 22.438 257.658,22.460 294.968,22.903 295.502 C 23.082 295.717,23.288 296.441,23.362 297.112 C 23.436 297.783,23.687 298.687,23.919 299.122 C 24.152 299.556,24.238 299.912,24.110 299.912 C 23.983 299.912,24.036 300.110,24.228 300.352 C 24.420 300.595,24.779 301.427,25.025 302.203 C 25.723 304.405,28.858 310.610,29.436 310.933 C 29.722 311.093,29.956 311.427,29.956 311.674 C 29.956 311.921,30.370 312.508,30.875 312.978 C 31.381 313.448,32.480 314.784,33.318 315.947 C 34.875 318.108,35.818 319.040,36.632 319.221 C 36.884 319.278,37.745 319.950,38.545 320.715 C 39.345 321.481,40.154 322.109,40.341 322.111 C 40.529 322.113,41.044 322.536,41.487 323.050 C 41.929 323.565,42.291 323.858,42.291 323.701 C 42.291 323.544,42.568 323.654,42.907 323.946 C 43.750 324.671,45.955 325.805,48.282 326.708 C 49.348 327.122,50.496 327.606,50.832 327.783 C 51.169 327.961,51.754 328.106,52.133 328.106 C 52.512 328.106,52.920 328.264,53.040 328.458 C 53.159 328.652,53.635 328.811,54.097 328.811 C 54.559 328.811,55.034 328.969,55.154 329.163 C 55.274 329.357,55.997 329.515,56.761 329.515 C 57.525 329.515,58.150 329.674,58.150 329.868 C 58.150 330.062,58.854 330.220,59.715 330.220 C 60.576 330.220,61.378 330.379,61.498 330.573 C 61.800 331.061,241.989 331.061,242.291 330.573 C 242.411 330.379,243.451 330.220,244.602 330.220 C 245.763 330.220,246.696 330.063,246.696 329.868 C 246.696 329.674,247.330 329.515,248.106 329.515 C 248.881 329.515,249.515 329.357,249.515 329.163 C 249.515 328.969,249.872 328.806,250.308 328.799 C 250.744 328.793,251.402 328.560,251.770 328.282 C 252.138 328.004,252.566 327.855,252.722 327.951 C 252.878 328.047,254.646 327.329,256.652 326.354 C 258.657 325.379,260.449 324.579,260.634 324.577 C 260.972 324.572,262.057 323.781,264.090 322.055 L 265.198 321.115 265.198 299.273 C 265.198 278.289,265.172 277.402,264.527 276.689 C 263.856 275.948,263.821 275.947,239.064 275.947 C 222.772 275.947,214.273 275.826,214.273 275.595 C 214.273 275.401,213.490 275.242,212.532 275.242 C 211.574 275.242,210.692 275.084,210.573 274.890 C 210.453 274.696,210.051 274.537,209.680 274.537 C 208.898 274.537,206.599 273.293,205.337 272.187 C 204.858 271.767,204.379 271.510,204.272 271.616 C 204.003 271.886,199.213 267.209,198.627 266.104 C 196.724 262.512,196.302 261.606,196.301 261.100 C 196.300 260.785,196.062 260.329,195.771 260.088 C 195.480 259.847,195.242 259.123,195.242 258.480 C 195.242 257.837,195.084 257.212,194.890 257.093 C 194.661 256.951,194.537 249.636,194.537 236.300 C 194.537 222.963,194.661 215.648,194.890 215.507 C 195.084 215.387,195.242 214.525,195.242 213.591 C 195.242 212.568,195.438 211.730,195.734 211.484 C 196.005 211.260,196.326 210.543,196.448 209.891 C 196.571 209.239,196.913 208.504,197.210 208.257 C 197.507 208.011,197.983 207.321,198.268 206.724 C 199.564 204.006,201.066 202.229,202.819 201.338 C 203.401 201.042,204.313 200.393,204.846 199.894 C 205.379 199.395,205.817 199.136,205.820 199.317 C 205.823 199.499,205.942 199.485,206.085 199.287 C 206.550 198.640,208.241 197.709,208.954 197.709 C 209.337 197.709,209.748 197.551,209.868 197.357 C 209.988 197.163,210.463 197.004,210.925 197.004 C 211.387 197.004,211.863 196.846,211.982 196.652 C 212.124 196.423,220.151 196.300,234.911 196.300 C 251.673 196.300,257.621 196.194,257.621 195.898 C 257.621 195.677,257.892 195.298,258.222 195.057 C 259.296 194.271,254.322 188.844,249.659 185.715 C 248.126 184.687,246.793 183.753,246.696 183.641 C 246.599 183.528,246.315 183.394,246.064 183.343 C 245.290 183.185,242.819 181.508,242.819 181.141 C 242.819 180.950,242.344 180.793,241.762 180.793 C 241.181 180.793,240.705 180.608,240.705 180.382 C 240.705 180.156,240.603 180.072,240.479 180.196 C 240.249 180.427,238.236 179.446,237.846 178.913 C 237.727 178.751,237.569 178.667,237.494 178.726 C 237.314 178.867,233.357 177.997,232.318 177.588 C 231.873 177.412,231.129 177.269,230.665 177.269 C 230.201 177.269,229.723 177.110,229.604 176.916 C 229.484 176.722,228.294 176.564,226.960 176.564 C 225.626 176.564,224.437 176.405,224.317 176.211 C 224.193 176.010,222.382 175.859,220.088 175.859 C 217.794 175.859,215.984 176.010,215.859 176.211 C 215.739 176.405,215.285 176.564,214.849 176.564 C 214.414 176.564,213.527 176.955,212.879 177.433 C 212.231 177.911,211.566 178.219,211.401 178.117 C 211.236 178.015,211.101 178.066,211.101 178.229 C 211.101 178.393,210.651 178.792,210.102 179.117 C 209.076 179.723,205.471 182.589,204.319 183.713 C 203.965 184.060,203.535 184.257,203.365 184.152 C 203.195 184.046,203.003 184.091,202.938 184.251 C 202.677 184.893,193.236 190.661,192.446 190.661 C 192.307 190.661,191.827 191.050,191.380 191.526 C 190.933 192.002,190.469 192.366,190.350 192.335 C 190.230 192.304,189.625 192.548,189.004 192.879 C 188.384 193.210,187.653 193.480,187.380 193.480 C 187.107 193.480,185.949 193.939,184.807 194.500 C 181.786 195.985,179.057 197.004,178.103 197.004 C 177.644 197.004,177.269 197.163,177.269 197.357 C 177.269 197.551,176.982 197.709,176.631 197.709 C 176.281 197.709,175.686 197.942,175.310 198.227 C 174.933 198.511,174.119 198.749,173.501 198.755 C 172.882 198.761,172.278 198.925,172.159 199.119 C 172.039 199.313,171.157 199.471,170.199 199.471 C 169.242 199.471,168.458 199.630,168.458 199.824 C 168.458 200.018,167.542 200.176,166.414 200.176 C 165.290 200.176,164.190 200.356,163.970 200.576 C 163.717 200.829,162.325 200.951,160.173 200.907 C 157.974 200.863,156.597 200.986,156.271 201.257 C 155.667 201.758,149.073 201.722,148.564 201.215 C 148.380 201.031,146.358 200.881,144.070 200.881 C 141.533 200.881,139.912 200.744,139.912 200.529 C 139.912 200.335,139.128 200.176,138.171 200.176 C 137.213 200.176,136.331 200.018,136.211 199.824 C 136.092 199.630,135.299 199.471,134.449 199.471 C 133.600 199.471,132.807 199.313,132.687 199.119 C 132.567 198.925,132.021 198.767,131.473 198.767 C 130.925 198.767,130.023 198.530,129.468 198.240 C 128.912 197.951,128.181 197.713,127.841 197.711 C 127.502 197.710,127.225 197.551,127.225 197.357 C 127.225 197.163,126.868 197.002,126.432 196.999 C 125.996 196.996,125.004 196.753,124.229 196.458 C 123.454 196.163,122.542 195.830,122.203 195.717 C 121.863 195.605,121.586 195.407,121.586 195.278 C 121.586 195.149,121.150 195.008,120.617 194.964 C 119.601 194.880,115.151 192.826,114.949 192.348 C 114.884 192.195,114.527 192.070,114.156 192.070 C 113.784 192.070,113.480 191.912,113.480 191.718 C 113.480 191.524,113.239 191.366,112.945 191.366 C 112.223 191.366,109.604 189.688,109.604 189.226 C 109.604 189.023,109.476 188.936,109.321 189.032 C 109.073 189.185,104.655 186.546,102.203 184.780 C 101.718 184.431,101.224 184.177,101.104 184.216 C 100.984 184.254,100.521 183.897,100.073 183.421 C 99.626 182.945,99.111 182.555,98.929 182.555 C 98.746 182.555,98.100 182.040,97.492 181.410 C 96.885 180.780,96.150 180.213,95.859 180.150 C 95.568 180.087,95.012 179.739,94.623 179.376 C 94.234 179.013,92.666 178.073,91.138 177.288 L 88.361 175.859 84.268 175.864 C 82.018 175.867,79.938 176.024,79.648 176.211 M346.167 210.661 C 355.035 210.713,369.546 210.713,378.414 210.661 C 387.282 210.608,380.026 210.565,362.291 210.565 C 344.555 210.565,337.300 210.608,346.167 210.661 M209.856 235.242 C 209.856 245.322,209.901 249.394,209.956 244.292 C 210.011 239.191,210.011 230.944,209.956 225.966 C 209.901 220.989,209.855 225.163,209.856 235.242 M280.345 292.511 C 280.345 310.247,280.388 317.502,280.440 308.634 C 280.493 299.767,280.493 285.256,280.440 276.388 C 280.388 267.520,280.345 274.775,280.345 292.511 " stroke="none" fill="#1f8bd8" fill-rule="evenodd"></path><path id="path3" d="M285.815 140.617 C 285.815 140.811,285.537 140.973,285.198 140.978 C 284.422 140.990,281.233 144.205,281.233 144.977 C 281.233 145.292,281.076 145.551,280.883 145.551 C 280.654 145.551,280.501 156.796,280.442 178.062 L 280.352 210.573 247.612 210.663 L 214.871 210.753 212.817 212.777 C 211.688 213.891,210.760 215.079,210.756 215.419 C 210.752 215.758,210.590 216.035,210.396 216.035 C 210.166 216.035,210.044 222.673,210.044 235.242 C 210.044 247.812,210.166 254.449,210.396 254.449 C 210.590 254.449,210.757 254.885,210.766 255.419 C 210.791 256.812,212.973 258.878,215.325 259.736 C 217.205 260.421,218.141 260.441,248.894 260.441 L 280.529 260.441 280.529 292.868 C 280.529 318.169,280.625 325.463,280.969 326.058 C 281.867 327.610,282.862 328.550,284.482 329.374 L 286.144 330.220 305.451 330.204 L 324.758 330.188 326.291 329.386 C 327.482 328.763,328.093 328.090,329.022 326.378 L 330.220 324.172 330.220 292.307 L 330.220 260.441 361.322 260.437 C 394.424 260.433,393.672 260.468,397.053 258.744 C 399.726 257.380,399.648 258.096,399.648 235.025 L 399.648 214.568 398.150 213.017 C 397.326 212.163,396.374 211.463,396.035 211.460 C 395.696 211.456,395.419 211.295,395.419 211.101 C 395.419 210.869,384.317 210.749,362.819 210.749 L 330.220 210.749 330.220 178.536 L 330.220 146.322 329.446 144.871 C 328.558 143.208,326.282 140.969,325.478 140.969 C 325.179 140.969,324.934 140.811,324.934 140.617 C 324.934 140.386,318.179 140.264,305.374 140.264 C 292.570 140.264,285.815 140.386,285.815 140.617 " stroke="none" fill="#86b50e" fill-rule="evenodd"></path><path id="path4" d="" stroke="none" fill="#00ffff" fill-rule="evenodd"></path></g></svg>