<?xml version="1.0" encoding="iso-8859-1"?>
<!-- Generator: Adobe Illustrator 19.0.0, SVG Export Plug-In . SVG Version: 6.00 Build 0)  -->
<svg version="1.1" id="Capa_1" xmlns="http://www.w3.org/2000/svg" xmlns:xlink="http://www.w3.org/1999/xlink" x="0px" y="0px"
	 viewBox="0 0 480 480" style="enable-background:new 0 0 480 480;" xml:space="preserve">
<g>
	
		<linearGradient id="SVGID_1_" gradientUnits="userSpaceOnUse" x1="-26.875" y1="533.6058" x2="-26.875" y2="589.4728" gradientTransform="matrix(8 0 0 -8 455 4725.0078)">
		<stop  offset="0" style="stop-color:#006DF0"/>
		<stop  offset="1" style="stop-color:#00E7F0"/>
	</linearGradient>
	<path style="fill:url(#SVGID_1_);" d="M324.848,343.833L248,420.689V200.001c0-4.418-3.582-8-8-8s-8,3.582-8,8v220.688
		l-76.848-76.856c-3.126-3.126-8.194-3.126-11.32,0s-3.126,8.194,0,11.32l90.504,90.496c3.12,3.128,8.186,3.135,11.314,0.014
		c0.005-0.005,0.01-0.01,0.014-0.014l90.504-90.496c3.126-3.126,3.126-8.194,0-11.32S327.974,340.707,324.848,343.833
		L324.848,343.833z"/>
	
		<linearGradient id="SVGID_2_" gradientUnits="userSpaceOnUse" x1="-26.875" y1="533.6058" x2="-26.875" y2="589.4728" gradientTransform="matrix(8 0 0 -8 455 4725.0078)">
		<stop  offset="0" style="stop-color:#006DF0"/>
		<stop  offset="1" style="stop-color:#00E7F0"/>
	</linearGradient>
	<path style="fill:url(#SVGID_2_);" d="M456,32.001H24c-13.255,0-24,10.745-24,24v288c0,13.255,10.745,24,24,24h80
		c4.418,0,8-3.582,8-8s-3.582-8-8-8H24c-4.418,0-8-3.582-8-8v-216h448v216c0,4.418-3.582,8-8,8h-80c-4.418,0-8,3.582-8,8
		s3.582,8,8,8h80c13.255,0,24-10.745,24-24v-288C480,42.746,469.255,32.001,456,32.001z M24,48.001h432c4.418,0,8,3.582,8,8v40H16
		v-40C16,51.583,19.582,48.001,24,48.001z"/>
</g>
<linearGradient id="SVGID_3_" gradientUnits="userSpaceOnUse" x1="-38.875" y1="533.6058" x2="-38.875" y2="589.4728" gradientTransform="matrix(8 0 0 -8 455 4725.0078)">
	<stop  offset="0" style="stop-color:#006DF0"/>
	<stop  offset="1" style="stop-color:#00E7F0"/>
</linearGradient>
<path style="fill:url(#SVGID_3_);" d="M240,152.001c0-4.418-3.582-8-8-8H56c-4.418,0-8,3.582-8,8s3.582,8,8,8h176
	C236.418,160.001,240,156.419,240,152.001z"/>
<g>
</g>
<g>
</g>
<g>
</g>
<g>
</g>
<g>
</g>
<g>
</g>
<g>
</g>
<g>
</g>
<g>
</g>
<g>
</g>
<g>
</g>
<g>
</g>
<g>
</g>
<g>
</g>
<g>
</g>
</svg>
