<?xml version="1.0" encoding="utf-8"?>
<!-- Generator: Adobe Illustrator 16.0.0, SVG Export Plug-In . SVG Version: 6.00 Build 0)  -->
<!DOCTYPE svg PUBLIC "-//W3C//DTD SVG 1.1//EN" "http://www.w3.org/Graphics/SVG/1.1/DTD/svg11.dtd">
<svg version="1.1" id="图层_1" xmlns="http://www.w3.org/2000/svg" xmlns:xlink="http://www.w3.org/1999/xlink" x="0px" y="0px"
	 width="200px" height="200px" viewBox="0 0 200 200" enable-background="new 0 0 200 200" xml:space="preserve">
<path fill="#2178F7" d="M100,0C44.775,0,0,44.775,0,100c0,55.225,44.775,100,100,100c55.225,0,100-44.775,100-100
	C200,44.775,155.225,0,100,0z M155.785,93.828v18.595h-37.19v18.595h37.19v18.596h-37.19v18.595h-37.19v-18.595h-37.19v-18.596
	h37.19v-18.595h-37.19V93.828h37.19l-37.19-37.19L62.81,38.042L100,75.232l37.19-37.19l18.595,18.595l-37.19,37.19H155.785z"/>
</svg>
