<?xml version="1.0" encoding="utf-8"?>
<!-- Generator: Adobe Illustrator 16.0.0, SVG Export Plug-In . SVG Version: 6.00 Build 0)  -->
<!DOCTYPE svg PUBLIC "-//W3C//DTD SVG 1.1//EN" "http://www.w3.org/Graphics/SVG/1.1/DTD/svg11.dtd">
<svg version="1.1" id="图层_1" xmlns="http://www.w3.org/2000/svg" xmlns:xlink="http://www.w3.org/1999/xlink" x="0px" y="0px"
	 width="200px" height="200px" viewBox="0 0 200 200" enable-background="new 0 0 200 200" xml:space="preserve">
<circle fill="#0089E5" cx="100" cy="100" r="100"/>
<path fill="#FFFFFF" d="M142.13,42.385l7.899,6.125L67.905,154.4L60,148.27L142.13,42.385z M53.5,108c-4.5,0-9-1.5-12.5-4
	c-4.5-3.5-7.5-8.5-8.5-14s0.5-11.5,4-16l18-24.5c4-5.5,10.5-8.5,17-8.5c4.5,0,9,1.5,12.5,4c9.5,7,11.5,20.5,4.5,30l-18,24.5
	C66.5,105,60,108,53.5,108z M71.5,51c-3.5,0-7,1.5-9,4.5L44,80c-2,2.5-2.5,5.5-2,8.5s2,5.5,4.5,7.5c5,3.5,12.5,2.5,16-2.5l18-24.5
	C84,64,83,57,78,53C76,51.5,74,51,71.5,51z M127.5,170.5c-4.5,0-8.5-1.5-12-4c-9.5-6.5-12-20-5.5-29.5l17.5-25
	c6.5-9.5,20-12,29.5-5.5s12,20,5.5,29.5l-11,16l-8-5.5l11-16c3.5-5,2.5-12-3-16c-5-3.5-12-2.5-16,3l-17.5,25c-3.5,5-2.5,12,3,16
	c2.5,2,6,2.5,9.5,1.5l2.5,9.5C131,170.5,129.5,170.5,127.5,170.5z"/>
</svg>
