<?xml version="1.0" encoding="utf-8"?>
<!-- Generator: Adobe Illustrator 16.0.0, SVG Export Plug-In . SVG Version: 6.00 Build 0)  -->
<!DOCTYPE svg PUBLIC "-//W3C//DTD SVG 1.1//EN" "http://www.w3.org/Graphics/SVG/1.1/DTD/svg11.dtd">
<svg version="1.1" id="图层_1" xmlns="http://www.w3.org/2000/svg" xmlns:xlink="http://www.w3.org/1999/xlink" x="0px" y="0px"
	 width="200px" height="200px" viewBox="0 0 200 200" enable-background="new 0 0 200 200" xml:space="preserve">
<linearGradient id="SVGID_1_" gradientUnits="userSpaceOnUse" x1="0" y1="100" x2="200" y2="100">
	<stop  offset="0" style="stop-color:#3581FF"/>
	<stop  offset="1" style="stop-color:#176DFF"/>
</linearGradient>
<circle fill="url(#SVGID_1_)" cx="100" cy="100" r="100"/>
<g>
	<path fill="#FFFFFF" d="M109.829,61.539c-2.44,0-4.761-1.831-5.249-4.273c-0.488-2.564,0.854-5.006,3.297-5.982l0.366-0.123
		l0.732-0.366h1.587l0.122,0.122c0.244,0.122,0.733,0.367,0.977,0.367c2.442,0.977,3.908,3.418,3.419,6.105
		C114.592,59.584,112.394,61.539,109.829,61.539z M100.062,124.42c-1.953,0-3.785-1.709-3.785-3.663v-1.831v-1.708v-3.663H86.021
		c-0.977,0-1.832-0.367-2.564-1.1s-1.099-1.831-1.099-2.808c0.122-2.076,1.709-3.786,3.663-3.786h10.135v-0.122v-3.174H85.898
		c-1.953,0-3.663-1.71-3.663-3.663c0-0.977,0.366-1.954,1.099-2.809c0.732-0.732,1.587-1.099,2.564-1.099h6.594l-0.122-0.244
		c-1.343-2.198-2.686-4.518-3.908-6.716l-0.122-0.244l-4.395-7.327c-0.367-0.61-1.466-2.319-0.123-3.906
		c0.733-0.978,1.953-1.465,3.296-1.465c0.489,0,0.977,0.122,1.343,0.244c1.588,0.611,2.564,2.076,3.053,3.053
		c1.832,3.296,3.662,6.472,5.494,9.646l2.931,5.25l2.198-3.907l1.831-3.175c1.344-2.442,2.808-4.884,4.151-7.326
		c0.488-0.976,1.344-1.953,2.198-2.687c0.61-0.488,1.466-0.854,2.198-0.854c1.587,0,3.175,0.977,3.786,2.442
		c0.365,0.854,0.121,1.954-0.244,2.564c-1.832,3.175-3.663,6.35-5.496,9.402l-1.343,2.319l-1.831,3.297h6.593
		c1.954,0,3.542,1.71,3.542,3.785c0,2.199-1.588,3.785-3.542,3.785h-10.137v-0.122v3.176h10.134c1.832,0,3.298,1.221,3.664,2.93
		c0.489,1.71-0.611,3.786-2.198,4.519c-0.366,0.243-0.855,0.243-1.222,0.243h-10.378v2.321c-0.122,1.831,0,3.295,0,4.761
		c0.122,0.733-0.244,1.71-0.977,2.32C102.261,123.811,101.04,124.42,100.062,124.42L100.062,124.42z"/>
	<path fill="#FFFFFF" d="M98.841,149.816c-2.32,0-4.151-1.831-4.273-4.273c0-2.441,1.709-4.273,4.273-4.395
		c0.733-0.121,1.343-0.121,1.953-0.121c1.221,0,2.442-0.123,3.663-0.244c7.571-0.734,14.407-3.542,20.392-8.061
		c9.035-6.837,14.285-15.872,15.751-26.494c1.831-13.798-2.076-25.52-11.478-34.8l-0.366-0.366l0.122,0.488
		c0.854,2.687-0.366,5.006-2.687,5.739c-0.488,0.122-0.977,0.245-1.343,0.245c-2.076,0-3.663-1.344-4.273-3.542
		c-1.1-3.785-2.076-7.813-3.419-13.065c-0.366-1.343-0.122-2.686,0.61-3.785c0.611-0.977,1.832-1.709,3.297-1.954
		c1.221-0.122,2.564-0.244,3.785-0.488c1.344-0.122,2.564-0.366,3.907-0.489l5.007-0.61h1.221c2.442,0,4.274,1.709,4.396,4.029
		c0.122,2.442-1.588,4.395-4.03,4.64l-2.686,0.244l0.244,0.244c8.546,7.448,14.041,17.094,16.362,28.571
		c0.243,1.343,0.366,2.564,0.488,3.785c0.122,0.733,0.122,1.344,0.122,1.955v0.488l0.122,0.854v4.152l-0.122,1.222
		c0,0.365-0.122,0.732-0.122,1.097c0,0.366-0.122,0.734-0.122,1.101c-1.343,11.721-6.35,21.854-14.896,30.158
		c-7.326,7.082-16.24,11.477-26.373,13.188c-1.954,0.365-3.909,0.487-5.862,0.487H98.841L98.841,149.816z M87.242,149.574
		l-1.1-0.489c-2.32-0.977-3.663-3.542-3.174-5.86c0.611-2.565,2.686-4.396,5.25-4.396c2.563,0,4.762,1.831,5.25,4.396
		c0.489,2.318-0.855,4.884-3.175,5.86l-1.098,0.489H87.242z M65.385,146.032c-0.61,0-1.22-0.121-1.709-0.245
		c-1.953-0.61-3.174-2.686-2.809-4.762c0.367-1.953,1.955-3.419,4.03-3.54l2.076-0.121l-0.244-0.244
		c-8.303-7.45-13.675-16.851-15.873-28.084c-0.244-1.221-0.367-2.564-0.488-3.787c-0.122-0.73-0.122-1.342-0.122-1.831
		c-0.122-0.364-0.122-0.61-0.122-0.854l-0.123-0.732v-3.908c0-0.488,0-0.977,0.123-1.343l0.365-3.052
		c1.1-8.425,4.152-15.874,8.792-22.467c8.546-11.843,20.268-18.68,34.92-20.513c0.366,0,0.733-0.122,0.977-0.122
		c0.367,0,0.611-0.122,0.978-0.122l1.342-0.122h1.71l0.977,0.489c1.832,0.976,2.931,2.931,2.686,4.762
		c-0.243,1.587-1.344,3.297-4.151,3.541l-1.587,0.122h-0.123c-1.709,0.122-3.418,0.366-5.006,0.611
		c-15.751,2.808-29.06,15.873-32.235,31.624c-2.931,14.042,1.465,28.328,11.722,37.974l0.366,0.365l-0.489-1.831
		c-0.489-1.587-0.244-3.053,0.61-4.151c0.733-0.977,2.076-1.586,3.419-1.586c0.244,0,0.611,0,0.977,0.121
		c1.709,0.244,2.931,1.465,3.419,3.541c0.732,2.808,1.465,5.738,2.198,8.547l0.489,1.831l0.611,2.075v0.124l0.122,0.487
		c0.244,1.344,0,2.686-0.733,3.662c-0.61,0.979-1.831,1.589-3.174,1.832c-1.587,0.123-3.053,0.367-4.64,0.611H74.42
		c-2.808,0.366-5.495,0.609-8.181,0.978C65.873,146.032,65.63,146.032,65.385,146.032L65.385,146.032z"/>
</g>
</svg>
