<?xml version="1.0" encoding="utf-8"?>
<!-- Generator: Adobe Illustrator 16.0.0, SVG Export Plug-In . SVG Version: 6.00 Build 0)  -->
<!DOCTYPE svg PUBLIC "-//W3C//DTD SVG 1.1//EN" "http://www.w3.org/Graphics/SVG/1.1/DTD/svg11.dtd">
<svg version="1.1" id="图层_1" xmlns="http://www.w3.org/2000/svg" xmlns:xlink="http://www.w3.org/1999/xlink" x="0px" y="0px"
	 width="200px" height="200px" viewBox="0 0 200 200" enable-background="new 0 0 200 200" xml:space="preserve">
<linearGradient id="SVGID_1_" gradientUnits="userSpaceOnUse" x1="0" y1="100" x2="200" y2="100">
	<stop  offset="0" style="stop-color:#357CFF"/>
	<stop  offset="1" style="stop-color:#1794FF"/>
</linearGradient>
<circle fill="url(#SVGID_1_)" cx="100" cy="100" r="100"/>
<g>
	<path fill="#FFFFFF" d="M102.201,103.923c-2.173,0-4.104-1.931-4.104-3.984v-2.052v-1.931v-3.984H86.872
		c-1.086,0-2.052-0.362-2.776-1.207c-0.844-0.844-1.207-2.051-1.207-3.018c0.121-2.293,1.931-4.104,3.984-4.104h11.104v-0.121v-3.5
		H86.751c-2.173,0-3.984-1.931-3.984-3.983c0-1.087,0.363-2.173,1.207-3.018c0.845-0.845,1.69-1.207,2.777-1.207h7.242l-0.121-0.242
		c-1.448-2.414-2.896-4.949-4.225-7.363l-0.121-0.241c-1.569-2.656-3.259-5.312-4.828-7.967c-0.362-0.724-1.569-2.534-0.121-4.225
		c0.845-1.086,2.173-1.569,3.621-1.569c0.483,0,1.087,0.121,1.448,0.241c1.69,0.724,2.776,2.293,3.38,3.38
		c2.052,3.621,3.984,7.123,6.035,10.622l3.259,5.794l2.414-4.225l2.052-3.5c1.448-2.656,3.018-5.312,4.587-7.966
		c0.482-1.087,1.448-2.173,2.414-2.897c0.725-0.483,1.568-0.965,2.414-0.965c1.689,0,3.5,1.086,4.104,2.655
		c0.362,0.966,0.121,2.173-0.241,2.777c-2.051,3.5-3.983,7.001-6.035,10.26l-1.448,2.534l-2.053,3.622h7.243
		c2.173,0,3.862,1.931,3.862,4.104c0,2.414-1.689,4.103-3.862,4.103h-11.104v-0.121v3.38v-0.241h11.104
		c2.052,0,3.621,1.328,3.983,3.259c0.483,1.931-0.724,4.104-2.414,4.949c-0.362,0.242-0.966,0.242-1.328,0.242h-11.346v2.414
		c-0.121,2.052,0,3.621,0,5.191c0.12,0.845-0.242,1.932-1.087,2.535C104.615,103.199,103.287,103.923,102.201,103.923z"/>
	<path fill="#FFFFFF" d="M128.756,133.012c0,2.134,1.73,3.863,3.863,3.863s3.862-1.729,3.862-3.863c0-2.132-1.729-3.86-3.862-3.86
		S128.756,130.88,128.756,133.012z"/>
	<path fill="#FFFFFF" d="M149.035,117.2c-1.932-3.983-6.035-6.639-10.502-6.639c-1.448,0-2.775,0.241-3.982,0.724l-15.33,5.674
		l-0.121-0.12c-1.327-3.743-4.707-6.519-8.811-7.122l-4.708-0.725c-3.984-0.604-7.846-1.568-11.226-3.018
		c-3.742-1.448-7.483-2.052-11.467-2.052c-5.432,0-11.104,1.448-15.932,4.104l-5.673,3.38v-0.122
		c-0.604,0.242-12.191,6.035-11.226,18.951c0.604,8.329,3.5,14.002,7.966,15.933c0.966,0.483,2.173,0.725,3.621,0.725
		c1.931,0,4.225-0.604,6.88-2.535c1.448-0.362,2.776-0.604,4.104-0.604c2.656,0,5.312,0.604,7.605,1.69l0.966,0.482
		c5.311,2.535,11.346,3.863,17.381,3.863c6.518,0,12.674-1.57,18.105-4.346l9.295-4.828c1.328-0.604,2.293-1.932,2.293-3.621
		c0-2.174-1.811-3.984-3.982-3.984c-0.725,0-1.449,0.241-2.053,0.604l-9.415,4.708c-4.587,2.294-9.294,3.38-14.243,3.38
		c-4.828,0-9.415-1.086-13.76-3.138l-0.845-0.483c-3.5-1.689-7.363-2.534-11.226-2.534c-2.897,0-6.035,0.604-9.174,1.688
		l-2.535,0.968c-0.965-0.968-2.293-3.743-2.655-8.934c-0.362-5.069,2.655-8.329,4.828-9.897h0.121l8.086-4.467
		c3.5-2.172,7.605-3.257,11.95-3.257c3.018,0,5.915,0.481,8.449,1.568c3.862,1.449,8.208,2.656,12.915,3.38l4.708,0.724
		c1.569,0.241,2.655,1.57,2.655,3.018c0,1.812-1.328,3.139-3.139,3.139l-19.916,0.724c-1.207,0-2.173,0.483-2.896,1.207
		c-0.845,0.965-1.207,1.932-1.087,2.775c0,1.087,0.362,2.053,1.207,2.897c0.966,0.846,1.931,1.207,2.776,1.207l19.674-0.241
		c4.104,0,7.967-2.414,9.898-6.035v-0.12l18.83-7l1.086-0.122c1.207,0,2.294,0.725,3.018,1.811l0.362,1.448
		c0,1.207-0.724,2.294-1.811,2.776l-0.482,0.241c-1.207,0.724-1.932,1.931-1.932,3.38c0,2.172,1.69,3.862,3.862,3.862
		c0.725,0,1.449-0.241,2.053-0.604l0.12-0.12c3.741-1.811,6.276-5.915,6.276-10.02C150,120.218,149.639,118.649,149.035,117.2
		L149.035,117.2z"/>
</g>
</svg>
