<?xml version="1.0" encoding="utf-8"?>
<!-- Generator: Adobe Illustrator 16.0.0, SVG Export Plug-In . SVG Version: 6.00 Build 0)  -->
<!DOCTYPE svg PUBLIC "-//W3C//DTD SVG 1.1//EN" "http://www.w3.org/Graphics/SVG/1.1/DTD/svg11.dtd">
<svg version="1.1" id="图层_1" xmlns="http://www.w3.org/2000/svg" xmlns:xlink="http://www.w3.org/1999/xlink" x="0px" y="0px"
	 width="200px" height="200px" viewBox="0 0 200 200" enable-background="new 0 0 200 200" xml:space="preserve">
<linearGradient id="SVGID_1_" gradientUnits="userSpaceOnUse" x1="0" y1="100" x2="200" y2="100">
	<stop  offset="0" style="stop-color:#D75E00"/>
	<stop  offset="1" style="stop-color:#FF8C00"/>
</linearGradient>
<circle fill="url(#SVGID_1_)" cx="100" cy="100" r="100"/>
<g>
	<g>
		<path fill="#FFFFFF" d="M132.751,116.683c-0.161-0.591-0.535-1.227-1.127-1.909c-0.591-0.682-1.431-1.432-2.522-2.249
			c-1.637-1.182-3.566-2.828-5.791-4.941c-2.23-2.113-4.456-4.555-6.681-7.327h12.2c1.407,0,2.396-0.329,2.966-0.987
			c0.566-0.658,0.853-1.603,0.853-2.829c0-1.318-0.274-2.295-0.816-2.931c-0.548-0.636-1.548-0.954-3.002-0.954h-16.973v-4.976
			h8.182c2.496,0,4.202-0.589,5.11-1.772c0.909-1.181,1.366-2.999,1.366-5.453v-9.61c0-2.591-0.491-4.442-1.467-5.556
			c-0.979-1.113-2.649-1.67-5.01-1.67H97c-2.499,0-4.238,0.58-5.214,1.737c-0.977,1.16-1.466,2.966-1.466,5.418v9.679
			c0,2.454,0.488,4.271,1.466,5.453c0.976,1.183,2.714,1.773,5.214,1.773h7.224v4.975H90.048c-1.545,0-2.603,0.317-3.169,0.954
			c-0.569,0.637-0.853,1.614-0.853,2.932c0,1.227,0.306,2.171,0.92,2.829c0.613,0.66,1.647,0.988,3.102,0.988h11.041
			c-1,1.363-2.067,2.682-3.203,3.957c-1.136,1.27-2.274,2.451-3.408,3.542c-1.137,1.091-2.227,2.067-3.271,2.932
			c-1.046,0.864-1.955,1.567-2.725,2.111c-1.091,0.773-1.909,1.478-2.454,2.115c-0.545,0.635-0.898,1.248-1.057,1.837
			c-0.159,0.593-0.146,1.162,0.034,1.705c0.181,0.546,0.455,1.112,0.817,1.705c0.772,1.134,1.793,1.609,3.067,1.429
			c1.272-0.182,2.908-1.044,4.908-2.587c2.452-2.045,4.486-3.864,6.1-5.454c1.611-1.589,3.054-3.316,4.327-5.179v14.313
			c0,1.453,0.352,2.487,1.058,3.102c0.705,0.611,1.693,0.921,2.964,0.921c1.32,0,2.251-0.309,2.795-0.921
			c0.545-0.613,0.817-1.648,0.817-3.102v-17.175c1.545,2.405,3.317,4.712,5.316,6.918c2,2.202,4.475,4.507,7.433,6.919
			c1.452,1.228,2.771,1.997,3.952,2.315c1.18,0.317,2.226-0.136,3.135-1.362c0.453-0.682,0.783-1.307,0.99-1.874
			C132.885,117.853,132.907,117.271,132.751,116.683z M100.68,79.739c-0.909,0-1.545-0.192-1.908-0.58
			c-0.363-0.385-0.543-1.101-0.543-2.146v-3.749c0-0.816,0.125-1.352,0.374-1.602c0.248-0.249,0.829-0.375,1.737-0.375h16.155
			c0.909,0,1.485,0.171,1.736,0.511c0.25,0.341,0.375,1.013,0.375,2.011v3.137c0,1.045-0.148,1.771-0.442,2.18
			c-0.295,0.408-0.853,0.614-1.669,0.614L100.68,79.739L100.68,79.739z"/>
		<path fill="#FFFFFF" d="M87.049,62.972c-0.317-1.089-1.227-1.748-2.726-1.976c-1.592-0.182-2.705,0.147-3.34,0.988
			c-0.638,0.839-1.136,2.17-1.5,3.986c-1.089,4.499-2.419,8.724-3.987,12.678c-1.567,3.954-3.692,7.839-6.372,11.655
			c-1.319,1.909-1.976,3.433-1.976,4.567c0,1.135,0.589,2.114,1.772,2.93c0.908,0.775,1.908,1.081,2.999,0.921
			c1.09-0.158,2.226-1.101,3.408-2.828v26.376c0,1.452,0.272,2.521,0.817,3.203c0.544,0.681,1.545,1.022,3,1.022
			c2.271,0,3.41-1.41,3.41-4.226V80.898c0.771-1.953,1.487-3.997,2.146-6.133c0.658-2.134,1.33-4.498,2.01-7.088
			C87.253,65.63,87.366,64.062,87.049,62.972z"/>
	</g>
	<g>
		<path fill="#FFFFFF" d="M139.502,44.75l-32.015-5.681c-1.723-0.343-4.305-0.516-6.885-0.516c-2.408,0-4.819,0.173-6.541,0.516
			L60.5,44.922C54.647,45.954,50,51.462,50,57.314v67.815c0,5.163,3.271,11.017,7.745,13.769l33.393,20.482
			c2.237,1.379,5.164,2.067,8.089,2.067c2.925,0,5.679-0.688,7.746-2.067l35.112-20.653c4.476-2.581,7.745-8.434,7.745-13.769v-17.9
			c0-3.27-2.582-5.851-5.853-5.851s-5.853,2.582-5.853,5.851v18.073c0,1.204-1.205,3.098-2.063,3.786l-35.113,20.654
			c-0.345,0.172-1.032,0.346-1.893,0.346c-1.032,0-1.721-0.346-2.066-0.346l-33.219-20.655c-1.031-0.689-2.236-2.753-2.236-3.786
			V57.143c0-0.345,0.516-1.032,0.86-1.032l33.563-5.853c1.205-0.171,2.753-0.344,4.475-0.344c1.892,0,3.614,0.172,4.819,0.344
			l32.015,5.68c0.345,0,0.859,0.688,0.859,1.033v19.965c0,3.271,2.583,5.853,5.853,5.853c3.271,0,5.852-2.582,5.852-5.853V57.142
			C150.001,51.29,145.354,45.783,139.502,44.75L139.502,44.75z"/>
		<path fill="#FFFFFF" d="M138.297,91.91c0,3.232,2.619,5.853,5.854,5.853c3.23,0,5.85-2.621,5.85-5.853
			c0-3.232-2.619-5.852-5.85-5.852C140.916,86.059,138.297,88.677,138.297,91.91L138.297,91.91z"/>
	</g>
</g>
</svg>
