<?xml version="1.0" encoding="utf-8"?>
<!-- Generator: Adobe Illustrator 16.0.0, SVG Export Plug-In . SVG Version: 6.00 Build 0)  -->
<!DOCTYPE svg PUBLIC "-//W3C//DTD SVG 1.1//EN" "http://www.w3.org/Graphics/SVG/1.1/DTD/svg11.dtd">
<svg version="1.1" id="图层_1" xmlns="http://www.w3.org/2000/svg" xmlns:xlink="http://www.w3.org/1999/xlink" x="0px" y="0px"
	 width="200px" height="200px" viewBox="0 0 200 200" enable-background="new 0 0 200 200" xml:space="preserve">
<path fill="#507FF7" d="M193.507,27.475H144.26V7.429h-13.322v20.046h-61.8V7.429H55.813v20.046H6.879
	c-3.686,0-6.674,2.987-6.674,6.674v151.572c0,3.688,2.988,6.674,6.674,6.674h186.652c3.687,0,6.674-2.986,6.674-6.674V34.149
	C200.182,30.462,197.193,27.475,193.507,27.475L193.507,27.475z M55.789,40.799v16.576h13.324V40.799h61.8v16.576h13.323V40.799
	h42.574v37.176H13.529V40.799H55.789z M13.529,179.047V91.323h173.304v87.724H13.529z"/>
</svg>
