<?xml version="1.0" encoding="utf-8"?>
<!-- Generator: Adobe Illustrator 16.0.0, SVG Export Plug-In . SVG Version: 6.00 Build 0)  -->
<!DOCTYPE svg PUBLIC "-//W3C//DTD SVG 1.1//EN" "http://www.w3.org/Graphics/SVG/1.1/DTD/svg11.dtd">
<svg version="1.1" id="图层_1" xmlns="http://www.w3.org/2000/svg" xmlns:xlink="http://www.w3.org/1999/xlink" x="0px" y="0px"
	 width="200px" height="200px" viewBox="0 0 200 200" enable-background="new 0 0 200 200" xml:space="preserve">
<path fill="#467FFC" d="M72.603,184.749l9.498-10.959l1.461-1.461c8.767-8.037,22.648-7.307,30.685,1.461l9.498,10.959
	c5.114-1.461,10.229-3.653,14.612-5.845l-0.73-14.612v-2.191c0.73-12.42,10.958-21.188,23.379-20.457l14.611,0.73
	c2.192-4.383,4.384-9.497,5.845-14.611l-10.959-9.498l-1.461-1.461c-8.036-8.768-7.306-22.648,1.461-30.685l10.959-9.498
	c-1.461-5.114-3.652-10.229-5.845-14.612l-14.611,0.73h-2.192c-12.42-0.73-21.187-10.959-20.456-23.379l0.73-14.612
	c-4.384-2.192-9.498-4.384-14.612-5.845l-9.497,10.958l-1.462,1.461c-8.767,8.037-22.648,7.306-30.685-1.461l-9.498-10.958
	c-3.653,1.461-8.767,3.653-14.612,6.575l0.73,14.612v2.192c-0.73,12.42-10.959,21.187-23.379,20.457l-14.612-0.73
	c-2.192,4.383-4.384,9.498-5.845,14.612l10.959,9.498l1.461,1.461c8.037,8.767,7.306,22.648-1.461,30.685l-10.959,9.498
	c1.461,5.114,3.653,10.229,5.845,14.611l14.612-0.73h2.191c12.42,0.73,21.188,10.959,20.457,23.379l-0.731,14.612
	C63.105,181.096,67.489,182.557,72.603,184.749z M43.379,181.826l0.73-18.995c0-4.384-2.922-7.306-6.575-8.036h-0.73l-18.996,0.73
	c-2.922,0-5.114-1.462-6.575-3.653c-5.114-8.036-8.767-16.804-10.959-26.302c-0.73-2.922,0-5.113,2.192-7.306l14.612-13.15
	C20,102.191,20,97.808,17.808,94.886l-0.73-0.73L2.466,81.004c-2.192-1.461-2.922-4.383-2.192-7.306
	c2.192-9.498,5.845-18.265,10.959-26.301c1.461-2.192,3.653-3.653,6.575-3.653l18.996,0.731c4.383,0,7.306-2.922,8.037-6.576v-0.73
	l-0.731-18.996c0-2.922,1.461-5.845,4.384-6.575C59.452,5.753,68.219,2.831,74.794,0.639c2.922-0.73,5.114,0,7.306,2.192
	l13.15,14.612c2.922,2.922,7.306,2.922,10.229,0.73l0.73-0.73l13.15-14.612c1.462-2.192,4.384-2.922,7.307-2.192
	c9.497,2.192,18.265,5.845,26.301,10.959c2.192,1.461,3.653,3.653,3.653,6.575l-0.73,18.996c0,4.384,2.922,7.306,6.575,8.037h0.73
	l18.995-0.73c2.923,0,5.114,1.461,6.576,3.653c5.113,8.037,8.767,16.804,10.958,26.301c0.731,2.922,0,5.114-2.191,7.306
	l-14.612,13.15c-2.922,2.922-2.922,7.306-0.73,10.229l0.73,0.73l14.612,13.15c2.191,1.462,2.923,4.384,2.191,7.307
	c-2.191,9.497-5.845,18.265-10.958,26.301c-1.462,2.192-3.653,3.653-6.576,3.653l-18.995-0.73c-4.384,0-7.306,2.922-8.036,6.575
	v0.73l0.73,18.995c0,2.923-1.461,5.114-3.653,6.575c-8.036,5.114-16.804,8.768-26.301,10.959c-2.923,0.731-5.114,0-7.307-2.191
	l-13.15-14.612c-2.923-2.922-7.306-2.922-10.229-0.73l-0.73,0.73L81.37,197.169c-1.461,2.191-4.383,2.923-7.306,2.191
	c-9.498-2.191-18.265-5.845-26.301-10.959C44.84,187.671,43.379,184.749,43.379,181.826L43.379,181.826z M98.904,144.566
	c-24.11,0-43.836-19.727-43.836-43.836s19.726-43.835,43.836-43.835c24.109,0,43.835,19.726,43.835,43.835
	S123.014,144.566,98.904,144.566z M98.904,129.954c16.073,0,29.224-13.15,29.224-29.224c0-16.073-13.15-29.224-29.224-29.224
	S69.68,84.658,69.68,100.73C69.68,116.804,82.831,129.954,98.904,129.954z"/>
</svg>
