<?xml version="1.0" encoding="utf-8"?>
<!-- Generator: Adobe Illustrator 22.1.0, SVG Export Plug-In . SVG Version: 6.00 Build 0)  -->
<svg version="1.1" id="图层_1" xmlns="http://www.w3.org/2000/svg" xmlns:xlink="http://www.w3.org/1999/xlink" x="0px" y="0px"
	 viewBox="0 0 200 200" style="enable-background:new 0 0 200 200;" xml:space="preserve">
<style type="text/css">
	.st0{fill:#FFFFFF;}
	.st1{fill:#D30000;}
</style>
<circle class="st0" cx="100" cy="100" r="95"/>
<path class="st1" d="M100,2.9C46.4,2.9,2.9,46.4,2.9,100s43.5,97.1,97.1,97.1s97.1-43.5,97.1-97.1S153.6,2.9,100,2.9L100,2.9z
	 M141.6,129.1c3.5,3.5,3.5,9.1,0,12.6c-3.5,3.5-9.1,3.5-12.6,0L100,112.6l-29.1,29.1c-3.5,3.5-9.1,3.5-12.6,0
	c-3.5-3.5-3.5-9.1,0-12.6L87.4,100L58.4,70.9c-3.5-3.5-3.5-9.1,0-12.6c3.5-3.5,9.1-3.5,12.6,0L100,87.4l29.1-29.1
	c3.5-3.5,9.1-3.5,12.6,0s3.5,9.1,0,12.6L112.6,100L141.6,129.1z"/>
</svg>
