<?xml version="1.0" encoding="utf-8"?>
<!-- Generator: Adobe Illustrator 22.1.0, SVG Export Plug-In . SVG Version: 6.00 Build 0)  -->
<svg version="1.1" id="图层_1" xmlns="http://www.w3.org/2000/svg" xmlns:xlink="http://www.w3.org/1999/xlink" x="0px" y="0px"
	 viewBox="0 0 200 200" style="enable-background:new 0 0 200 200;" xml:space="preserve">
<style type="text/css">
	.st0{fill:#48485B;}
	.st1{fill:#4C405B;}
	.st2{fill:#EDAB8A;}
	.st3{fill:#DF885A;}
	.st4{fill:#F0A67A;}
	.st5{fill:#FFFFFF;}
	.st6{fill:none;stroke:#E2CDAE;stroke-miterlimit:10;}
	.st7{opacity:0.44;}
	.st8{fill:#FF9178;}
</style>
<g>
	<g>
		<path class="st0" d="M114.4,115.5c2.7-15.3,4.2-17.6,6.9-32.9c1-5.9,4.7-27.3,2.9-33c-1.6-5-5.2-9.1-9.4-12.2
			c-4.2-3.1-9-5.2-13.8-7.3c-3.6-1.6-7.4-3.2-11.3-3.5c-4-0.4-8.2,0.7-10.9,3.6c-2.7,2.9-3,8-0.2,10.8c-4.3-1.8-8.9-3-13.5-3.5
			c-2.1-0.2-4.3-0.3-6,0.8c-2.4,1.6-2.8,5-1.9,7.7c1,2.7,3.1,4.8,5.1,6.8c-4-0.3-8.9-0.3-11.1,3.1c-1.1,1.7-1.2,3.9-1.2,6
			c-0.1,7.8,7.3,21,7.2,28.8c0,2.3,3.7,9.8,5.1,11.7c1.4,1.9-0.3,8,2,8.6c19,4.9,29-1.8,48,3.2"/>
		<path class="st1" d="M45.4,205.9c0,0-0.8-61,53.1-60.6c53.9,0.3,55.5,63.9,55.5,63.9L45.4,205.9z"/>
		<path class="st2" d="M59.5,70.5c-1.1,9.6-1.8,20.9-1.4,31.3c0.7,14.5,11.1,26.6,25.4,29.2l2.3,0.4l-1.3,16.7l27.1-0.3l5.9-38.8
			c0,0,5.5,2.7,11.1-6.2c6.1-9.7,8.2-18.9,0-17.8c-8.3,1.1-15.4,7.1-15.4,7.1c-1.8-12.2,5.1-36.9-23.7-43.2
			C75.2,45.7,61.1,55.8,59.5,70.5z"/>
		<g>
			<path class="st3" d="M119.5,101.4c0.1-0.2,1.2,0.2,3,0c1.8-0.2,4.2-1.2,5.6-3.6c1.1-1.8,1.3-4,0.8-5.4c-0.5-1.5-2.1-1.3-2.4-0.9
				l-0.2-0.3c0.4-0.1,0.6-0.1,0.6-0.1c0,0.1-0.1,0.2-0.4,0.4l-0.5,0.3l0.3-0.6c0.2-0.3,0.7-0.7,1.5-0.7c0.7,0,1.6,0.6,2,1.5
				c0.8,1.8,0.6,4.2-0.7,6.4c-1.6,2.7-4.5,3.8-6.5,3.8C120.6,102.2,119.5,101.5,119.5,101.4z"/>
		</g>
		<g>
			<path class="st3" d="M129.8,95.2c-0.2,0.2-1.2-0.2-2.5,0c-1.3,0.2-2.1,1-2.4,0.8c-0.1-0.1-0.1-0.4,0.3-0.9c0.3-0.4,1-0.9,1.9-1
				c0.8-0.2,1.6,0,2.1,0.3C129.7,94.8,129.9,95.1,129.8,95.2z"/>
		</g>
		<path class="st4" d="M76.3,115.9"/>
		<g>
			<path class="st3" d="M93.1,130c0.1,0.3-0.8,1.1-2.3,1.2c-1.5,0.2-2.7-0.3-2.6-0.6c0.1-0.3,1.2-0.3,2.4-0.5
				C91.9,129.9,93,129.7,93.1,130z"/>
		</g>
		<path class="st5" d="M90.2,90.9c0,0-1.3-7.5,6.7-9.4c6.7-1.6,9.2,6,9.2,6L90.2,90.9z"/>
		<path class="st0" d="M96.2,81.7l3,7.3l-8.9,2C90.2,90.9,89.2,83.4,96.2,81.7z"/>
		<path class="st5" d="M60.5,88.4c0,0,2.1-7.3,10.2-5.5c6.8,1.5,5.7,9.4,5.7,9.4L60.5,88.4z"/>
		<path class="st0" d="M69.8,82.8l-0.5,7.8l-8.9-2.1C60.5,88.4,62.9,81.3,69.8,82.8z"/>
		<path class="st2" d="M84.6,146.3c0,0,5.8,18.9,9.9,19.3c3.5,0.3,18.5-19.2,18.5-19.2L84.6,146.3z"/>
		<g>
			<path class="st6" d="M82.7,104.8"/>
		</g>
		<g class="st7">
			<path class="st8" d="M106.6,94.7c0.1,0.9-3.2,1.9-7.3,2.2c-4.1,0.3-7.5-0.2-7.6-1.1c-0.1-0.9,3.2-1.9,7.3-2.2
				C103.1,93.3,106.5,93.8,106.6,94.7z"/>
		</g>
		<g class="st7">
			<path class="st8" d="M71.2,98c-0.2,0.9-2.9,1.1-6,0.2c-3.1-0.9-5.3-2.7-4.9-3.5c0.4-0.9,3-0.6,5.9,0.3C69,95.9,71.3,97.1,71.2,98
				z"/>
		</g>
		<path class="st0" d="M57.9,61.5c0,0,53.6,0.2,53.9,0c0.3-0.2-0.7,0.5-0.3,0.2c0.3-0.2,0.7-0.5,0.7-0.5s6.2-3.5,6.2-3.7
			c0-0.2-6.6-14.5-6.6-14.5l-20.6-1.7l-18.9,2.3L57.9,61.5z"/>
		<g>
			<path class="st3" d="M83.4,106.8c0,0.1-0.7,0.4-2,0.6c-1.3,0.1-3.4,0-5.5-1.3l-1.6-1l1.9,0.1c1.2,0.1,2.6-0.5,3.6-1.7
				c1.1-1.1,1.6-2.7,1.9-4.4c0.4-4.6-0.1-9-0.4-12.1c-0.4-3.1-0.8-5-0.6-5.1c0.1,0,0.8,1.8,1.4,4.9c0.5,3.1,1.2,7.4,0.8,12.4
				c-0.2,1.9-0.9,3.7-2.2,5c-1.2,1.3-2.9,2-4.5,1.9l0.3-0.8c1.8,1.2,3.7,1.5,5,1.5C82.6,106.9,83.4,106.7,83.4,106.8z"/>
		</g>
		<path class="st5" d="M81.3,113.1c1.3,2.2,4.1,3.3,6.6,3c2.5-0.3,4.8-1.8,6.6-3.7c1.8-1.9,3-4.1,4.3-6.4"/>
		<g>
			<path class="st0" d="M112.6,90.9c-0.1,0,0-1.2-0.5-3.3c-0.5-2-1.7-5-4.6-7.4c-2.8-2.4-7.5-3.9-12.3-2.4C93,78.5,90.7,80,89.1,82
				c-1.7,2-2.7,4.7-2.9,7.5c-0.1,2.8,0.6,5.6,2.1,7.8c1.4,2.2,3.5,3.9,5.8,4.8c4.6,2,9.4,0.9,12.5-1.2c3.1-2.1,4.6-5,5.3-6.9
				C112.5,92.1,112.5,90.9,112.6,90.9c0,0,0,0.3,0,0.9c0,0.6-0.1,1.4-0.4,2.5c-0.5,2.1-2,5.1-5.3,7.5c-3.1,2.3-8.3,3.5-13.3,1.5
				c-2.4-1-4.7-2.8-6.3-5.2c-1.6-2.4-2.5-5.4-2.3-8.4c0.2-3,1.3-6,3.2-8.2c1.8-2.2,4.3-3.8,6.8-4.5c5.1-1.6,10.2,0.1,13.1,2.8
				c3,2.6,4.2,5.8,4.5,7.9c0.2,1.1,0.2,1.9,0.2,2.5C112.7,90.6,112.7,90.9,112.6,90.9z"/>
		</g>
		<g>
			<path class="st0" d="M80.7,90.5c-0.1,0,0-1.2-0.5-3.3c-0.5-2-1.7-5-4.6-7.4c-2.8-2.4-7.5-3.9-12.3-2.4c-2.3,0.7-4.6,2.2-6.2,4.2
				c-1.7,2-2.7,4.7-2.9,7.5c-0.1,2.8,0.6,5.6,2.1,7.8c1.4,2.2,3.5,3.9,5.8,4.8c4.6,2,9.4,0.9,12.5-1.2c3.1-2.1,4.6-5,5.3-6.9
				C80.5,91.7,80.5,90.5,80.7,90.5c0,0,0,0.3,0,0.9c0,0.6-0.1,1.4-0.4,2.5c-0.5,2.1-2,5.1-5.3,7.5c-3.1,2.3-8.3,3.5-13.3,1.5
				c-2.4-1-4.7-2.8-6.3-5.2c-1.6-2.4-2.5-5.4-2.3-8.4c0.2-3,1.3-6,3.2-8.2c1.8-2.2,4.3-3.8,6.8-4.5c5.1-1.6,10.2,0.1,13.1,2.8
				c3,2.6,4.2,5.8,4.5,7.9c0.2,1.1,0.2,1.9,0.2,2.5C80.7,90.2,80.7,90.5,80.7,90.5z"/>
		</g>
		<g>
			<path class="st0" d="M86.8,89c0,0.3-2.1,0.6-4.8,0.7c-2.6,0.1-4.8-0.1-4.8-0.4c0-0.3,2.1-0.6,4.8-0.7
				C84.6,88.5,86.8,88.7,86.8,89z"/>
		</g>
		<g>
			<path class="st0" d="M105.7,74.7c-0.3,0.7-1.3,1.1-2.9,1.4c-1.6,0.3-3.8,0.5-6.2,0.5c-2.4,0-4.6-0.1-6.2-0.3
				c-1.6-0.2-2.7-0.6-3-1.3c-0.3-0.7,0.6-1.8,2.3-2.6c1.7-0.8,4.1-1.3,6.8-1.4c2.7,0,5.1,0.4,6.9,1.2C105.1,72.9,106,74,105.7,74.7z
				"/>
		</g>
		<g>
			<path class="st0" d="M78.3,76.6c-0.7,0.4-1.7,0-3-0.6c-1.3-0.6-2.8-1.4-4.6-2.1c-1.8-0.7-3.4-1.2-4.8-1.6
				c-1.3-0.4-2.4-0.8-2.6-1.6c-0.2-0.7,0.6-1.7,2.4-2.3c1.7-0.6,4.4-0.7,7,0.3c2.6,1,4.5,2.9,5.4,4.5C79,75,78.9,76.2,78.3,76.6z"/>
		</g>
		<g>
			<path class="st0" d="M127.3,68.5c0,0.1-0.7-0.4-1.5,0.3c-0.4,0.3-0.6,1-0.3,1.6c0.3,0.6,1.1,1.1,2,1c0.9-0.1,1.8-0.7,2.3-1.7
				c0.5-0.9,0.7-2.2,0.2-3.3c-0.5-1.1-1.6-2-2.9-2.1c-1.3-0.2-2.6,0.5-3.6,1.6c-1,1.1-1.5,2.5-2,3.8c-0.4,1.4-0.7,2.8-0.9,4.1
				c-0.4,2.7-0.4,5.1-0.3,7.2c0.1,4.1,0.3,6.7,0.1,6.7c-0.1,0-0.2-0.6-0.4-1.8c-0.2-1.1-0.4-2.8-0.5-4.9c-0.1-2.1-0.2-4.6,0.1-7.3
				c0.2-1.4,0.4-2.8,0.8-4.3c0.4-1.5,1-3,2.2-4.3c1.1-1.3,2.8-2.1,4.6-1.9c1.7,0.2,3.1,1.3,3.7,2.8c1.2,3-1,6.1-3.4,6.1
				c-1.2,0.1-2.3-0.7-2.6-1.6c-0.4-0.9,0-1.9,0.6-2.2c0.5-0.4,1.1-0.4,1.4-0.3C127.3,68.3,127.4,68.5,127.3,68.5z"/>
		</g>
	</g>
</g>
</svg>
