<?xml version="1.0" standalone="no"?><!DOCTYPE svg PUBLIC "-//W3C//DTD SVG 1.1//EN" "http://www.w3.org/Graphics/SVG/1.1/DTD/svg11.dtd"><svg t="1550022475713" class="icon" style="" viewBox="0 0 1024 1024" version="1.1" xmlns="http://www.w3.org/2000/svg" p-id="3641" xmlns:xlink="http://www.w3.org/1999/xlink" width="200" height="200"><defs><style type="text/css"></style></defs><path d="M383.35148 127.996163 127.949602 127.996163l0 255.379365 255.401878 0L383.35148 127.996163zM351.92984 351.98254 159.386592 351.98254 159.386592 159.432129l192.542224 0L351.928816 351.98254z" p-id="3642"></path><path d="M191.786513 703.521988l127.630842 0 0 127.645169-127.630842 0 0-127.645169Z" p-id="3643"></path><path d="M159.730423 511.518023l63.781652 0 0 63.808258-63.781652 0 0-63.808258Z" p-id="3644"></path><path d="M479.119637 127.652332l63.793932 0 0 63.780629-63.793932 0 0-63.780629Z" p-id="3645"></path><path d="M894.619816 127.996163 639.221008 127.996163l0 255.379365 255.398808 0L894.619816 127.996163zM863.213525 351.98254 670.656975 351.98254 670.656975 159.432129 863.213525 159.432129 863.213525 351.98254z" p-id="3646"></path><path d="M191.786513 191.763488l127.630842 0 0 127.638005-127.630842 0 0-127.638005Z" p-id="3647"></path><path d="M703.111131 191.763488l127.647215 0 0 127.638005-127.647215 0 0-127.638005Z" p-id="3648"></path><path d="M415.419849 319.374888 479.546356 319.374888 479.546356 383.210775 543.354614 383.210775 543.354614 319.374888 607.48112 319.374888 607.48112 255.586073 479.188198 255.586073 479.188198 191.763488 415.378917 191.763488 415.378917 263.021415 415.419849 263.021415Z" p-id="3649"></path><path d="M703.565479 638.942157 703.524546 638.942157 703.524546 575.298652 670.890288 575.298652 670.890288 511.518023 670.890288 511.296989 767.51086 511.296989 767.51086 575.409169 831.309908 575.409169 831.309908 511.296989 831.416332 511.296989 831.416332 447.487707 670.890288 447.487707 607.494423 447.487707 607.108636 447.487707 607.108636 511.518023 542.914592 511.518023 542.914592 447.487707 479.119637 447.487707 479.119637 511.518023 415.792333 511.518023 415.792333 470.346321 415.378917 470.346321 415.378917 447.487707 223.732086 447.487707 223.732086 511.296989 352.012727 511.296989 352.012727 511.518023 352.012727 539.304879 352.012727 575.298652 479.436862 575.298652 479.436862 639.10691 479.546356 639.10691 479.546356 702.972473 543.340287 702.972473 543.340287 639.10691 638.998951 639.10691 638.998951 703.440124 575.577502 703.440124 575.577502 831.223439 639.38576 831.223439 639.38576 767.332293 703.565479 767.332293 703.565479 702.972473 767.332804 702.972473 767.332804 639.164215 703.565479 639.164215Z" p-id="3650"></path><path d="M831.309908 767.82655l63.792908 0 0 127.783315-63.792908 0 0-127.783315Z" p-id="3651"></path><path d="M767.51086 703.521988l63.799048 0 0 63.781652-63.799048 0 0-63.781652Z" p-id="3652"></path><path d="M831.309908 575.492056l63.792908 0 0 127.809921-63.792908 0 0-127.809921Z" p-id="3653"></path><path d="M127.977231 895.031697l255.387551 0L383.364783 639.658472 127.977231 639.658472 127.977231 895.031697zM159.386592 671.081135l192.542224 0 0 192.554504L159.386592 863.635639 159.386592 671.081135z" p-id="3654"></path><path d="M479.546356 831.718719l63.809281 0 0 63.809281-63.809281 0 0-63.809281Z" p-id="3655"></path><path d="M542.914592 383.707079l63.794955 0 0 63.780629-63.794955 0 0-63.780629Z" p-id="3656"></path><path d="M415.405523 703.440124l63.810305 0 0 127.783315-63.810305 0 0-127.783315Z" p-id="3657"></path><path d="M703.524546 831.718719 638.998951 831.718719 638.998951 895.528 703.524546 895.528 703.524546 895.637494 767.332804 895.637494 767.332804 767.82655 703.524546 767.82655Z" p-id="3658"></path></svg>