<?xml version="1.0" encoding="utf-8"?>
<!-- Generator: Adobe Illustrator 22.1.0, SVG Export Plug-In . SVG Version: 6.00 Build 0)  -->
<svg version="1.1" id="图层_1" xmlns="http://www.w3.org/2000/svg" xmlns:xlink="http://www.w3.org/1999/xlink" x="0px" y="0px"
	 viewBox="0 0 200 200" style="enable-background:new 0 0 200 200;" xml:space="preserve">
<style type="text/css">
	.st0{fill:#D19374;}
	.st1{fill:#6880AF;}
	.st2{fill:#4C405B;}
	.st3{fill:#B56D4D;}
	.st4{fill:#F0A67A;}
	.st5{opacity:0.29;}
	.st6{fill:#EF7756;}
	.st7{fill:#DF885A;}
	.st8{fill:#FFFFFF;}
	.st9{fill:#8E6539;}
	.st10{fill:#423D4C;}
	.st11{fill:#E2A833;}
</style>
<g>
	<g>
		<path class="st0" d="M54.6,200.6c0,0-0.7-57.4,50-57.1c50.8,0.3,52.3,60.2,52.3,60.2L54.6,200.6z"/>
		<path class="st1" d="M53.5,202l64.7-56.2c0,0,24.3,6.4,27.1,28.6s4.5,30.7,4.5,30.7L53.5,202z"/>
		<path class="st1" d="M82.8,148.4l16,14.2L53.5,202C53.5,202,55,156.4,82.8,148.4z"/>
		<path class="st2" d="M130.2,110.4c-4.3,3.3-7.2,14.3-2.4,17.2c4,2.3,10,2.2,12.6,5.6c3.9,5-3,12.2,0.3,17.5c1.6,2.6,5.1,3.7,8.1,5
			c9.5,4,17.1,11.6,19.5,20.5s-0.6,18.9-8.3,25.1c-7.7,6.2-20,8.1-29.5,4c-7.9-3.4-13.2-10.5-15.3-17.9c-2.1-7.4-1.5-15.2-0.2-22.7
			c1.4-7.5,3.4-15,4.2-22.6c1.2-11.6-0.7-23.5,3.2-34.7"/>
		<path class="st2" d="M65.5,93.7c-2.8-7-5.6-14.2-6.3-21.7s1-15.6,6.2-21c4.7-4.9,11.5-7,18.1-8.1c10.6-1.7,22-0.9,31.2,4.6
			c5.7,3.4,10.3,8.3,13.9,13.8c5.8,8.8,9.3,19.5,8.2,30.1c-1,10.5-6.9,20.8-16.3,25.8"/>
		<path class="st0" d="M71.1,51.6c0,0-5.1,26-4.5,48.6c0.4,14.9,11.5,27.5,26.2,30.1l0,0L91,154l26-8.2l5.6-36.6
			c0,0,9.2,1.7,14.5-6.7c5.7-9.1,1.9-25.7-6.5-18.1c-9.9,8.9-12,8.8-12,8.8C116.5,79.1,126.9,46.9,71.1,51.6z"/>
		<g>
			<path class="st3" d="M125.7,100.3c0-0.2,1.1,0.2,2.8,0c1.7-0.2,4-1.2,5.2-3.4c1-1.7,1.2-3.8,0.8-5.1c-0.5-1.4-2-1.3-2.3-0.9
				l-0.2-0.3c0.3-0.1,0.5-0.1,0.6-0.1c0,0.1-0.1,0.2-0.4,0.4l-0.5,0.3l0.3-0.6c0.2-0.3,0.7-0.7,1.4-0.6c0.7,0,1.5,0.5,1.9,1.4
				c0.7,1.7,0.5,4-0.6,6c-1.5,2.6-4.3,3.6-6.1,3.6C126.7,101.1,125.6,100.4,125.7,100.3z"/>
		</g>
		<g>
			<path class="st3" d="M135.4,94.5c-0.2,0.2-1.2-0.2-2.4,0s-2,0.9-2.2,0.8c-0.1-0.1-0.1-0.4,0.3-0.8c0.3-0.4,1-0.8,1.8-1
				c0.8-0.1,1.5,0,2,0.3C135.3,94.1,135.5,94.4,135.4,94.5z"/>
		</g>
		<path class="st4" d="M83.8,115.7"/>
		<g class="st5">
			<path class="st6" d="M115.3,96.3c0.2,1.4-2.9,3.1-7,3.7s-7.6-0.1-7.8-1.5c-0.2-1.4,2.9-3.1,7-3.7
				C111.6,94.2,115.1,94.8,115.3,96.3z"/>
		</g>
		<g class="st5">
			<path class="st6" d="M80.7,97.1c-0.2,1.4-2.8,2.2-5.8,1.7c-2.9-0.5-5.1-2.1-4.9-3.5s2.8-2.2,5.8-1.7C78.8,94.1,81,95.6,80.7,97.1
				z"/>
		</g>
		<g>
			<path class="st7" d="M99.6,129c0.1,0.2-0.8,1-2.2,1.2c-1.4,0.2-2.5-0.3-2.4-0.6s1.1-0.3,2.3-0.5C98.4,129,99.4,128.7,99.6,129z"
				/>
		</g>
		<path class="st8" d="M96.8,92.2c0,0-1.2-7.1,6.4-8.9c6.4-1.5,8.6,5.6,8.6,5.6L96.8,92.2z"/>
		<path class="st9" d="M102.4,83.6l2.8,6.8l-8.4,1.8C96.8,92.2,95.9,85.2,102.4,83.6z"/>
		<g>
			<path class="st10" d="M111.9,87.7c-0.2,0.1-0.7-1.1-2.3-2.3c-1.5-1.2-4.4-2.2-7.2-1.3c-2.8,1-4.5,3.5-5,5.4
				c-0.6,1.9-0.3,3.2-0.5,3.2c-0.1,0-0.7-1.3-0.2-3.4c0.4-2.1,2.1-5.1,5.4-6.2s6.5,0.3,8,1.7C111.7,86.3,112,87.7,111.9,87.7z"/>
		</g>
		<path class="st8" d="M68.8,89.9c0,0,2-6.9,9.6-5.2c6.4,1.4,5.3,8.8,5.3,8.8L68.8,89.9z"/>
		<path class="st9" d="M77.7,84.5l-0.5,7.4l-8.4-2C68.8,89.9,71.1,83.1,77.7,84.5z"/>
		<g>
			<path class="st10" d="M84.4,92.4c-0.2,0-0.2-1.3-1.1-3.1c-0.9-1.7-3-3.9-5.9-4.3c-3-0.4-5.6,1.2-6.8,2.7
				c-1.4,1.5-1.7,2.8-1.8,2.7c-0.1,0-0.1-1.4,1.3-3.2c1.3-1.7,4.1-3.6,7.5-3.2c3.5,0.5,5.7,3.1,6.5,5.1C84.8,91,84.5,92.4,84.4,92.4
				z"/>
		</g>
		<g>
			<path class="st3" d="M102.6,105.1c0.1,0,0,1.2-1,2.8c-0.9,1.6-2.8,3.6-5.5,4.6s-5.4,0.8-7.2,0.3c-1.8-0.5-2.7-1.3-2.6-1.4
				s1.1,0.4,2.8,0.7c1.7,0.3,4.2,0.4,6.6-0.5c2.4-1,4.2-2.7,5.2-4.1C102,106.1,102.4,105,102.6,105.1z"/>
		</g>
		<g class="st5">
			<path class="st6" d="M101.1,109.6c0.8,1.2-0.9,3.8-4.3,4.8s-6.2-0.2-6.2-1.6c0-1.5,2.2-2.6,4.7-3.4
				C97.8,108.6,100.3,108.4,101.1,109.6z"/>
		</g>
		<g>
			<path class="st11" d="M124.3,102.6c0-0.1,1.6,0.4,3.5,2.4c0.9,1,1.8,2.3,2.4,4c0.6,1.7,0.9,3.6,0.5,5.7c-0.6,4.1-3.2,7.2-5.7,8.3
				c-1.3,0.5-2.5,0.4-3.2,0.2c-0.7-0.3-1-0.6-1-0.6c0-0.1,0.4,0.1,1.1,0.2s1.7,0.1,2.7-0.5c2.1-1.1,4.4-4.1,5-7.8
				c0.6-3.7-0.9-7.1-2.5-9C125.6,103.5,124.2,102.7,124.3,102.6z"/>
		</g>
		<g>
			<path class="st11" d="M75.4,120.7c0.1,0,0.3,0.5,0.3,1.4s-0.2,2.3-1.3,3.7c-1,1.4-3.1,2.4-5.4,2.1c-2.2-0.3-4.6-1.7-5.8-4
				s-1.4-4.8-1.1-7c0.3-2.2,1-4,1.7-5.4c1.4-2.9,2.6-4.5,2.7-4.4c0.2,0.1-0.8,1.8-2,4.7c-0.6,1.5-1.2,3.2-1.5,5.3
				c-0.2,2,0,4.3,1.1,6.4c1.1,2,3.1,3.3,5,3.6c2,0.3,3.7-0.5,4.7-1.6s1.3-2.4,1.4-3.2C75.4,121.2,75.3,120.7,75.4,120.7z"/>
		</g>
		<path class="st2" d="M65,82.6c0.5-1,21.2-19.1,18.8-31.4c0,0,4.8,10.6,37.1,30.6l-4.3-30.6l-32.8-5.4L65,54.2V82.6z"/>
		<g>
			<path class="st2" d="M134.5,115.5c0-0.1,1.5,0.3,4-0.4c2.4-0.7,6-3,7.6-7.4s0.4-10.5-3.5-15.2c-3.9-4.8-10.3-7.9-17.2-10.1
				c-3.4-1.1-6.9-2.1-10.1-3.2s-6.4-2.4-9-4.3c-5.2-3.7-9-8.1-11.9-11.9c-2.9-3.8-4.9-7.1-6.2-9.4c-0.7-1.2-1.2-2.1-1.5-2.7
				c-0.3-0.6-0.5-1-0.4-1c0,0,0.2,0.3,0.6,0.9c0.4,0.7,1,1.5,1.6,2.6c1.4,2.2,3.5,5.5,6.5,9.2c2.9,3.7,6.7,8,11.8,11.5
				c2.6,1.8,5.6,3,8.8,4.1c3.2,1.1,6.6,2.1,10.1,3.2c6.9,2.2,13.5,5.4,17.6,10.5c4.1,5,5.3,11.4,3.5,16.1c-1.9,4.6-5.7,6.9-8.2,7.5
				c-1.3,0.3-2.4,0.3-3.1,0.2C134.8,115.6,134.5,115.5,134.5,115.5z"/>
		</g>
		<g>
			<path class="st2" d="M68.2,114c0,0-0.2,0.1-0.7,0.3c-0.5,0.1-1.2,0.2-2.1,0.1c-1.8-0.2-4.5-1.5-6-4.6c-1.5-3-1.3-7.2,0.1-11.2
				c1.3-4.1,3.6-8.2,6.1-12.3c5.2-8.2,10.5-15.3,13.3-21c0.8-1.4,1.3-2.7,1.8-3.9s0.8-2.2,1.1-3c0.5-1.7,0.8-2.6,0.8-2.6
				c0.1,0-0.1,1-0.4,2.7c-0.3,0.9-0.6,1.9-1,3.1c-0.5,1.2-1,2.5-1.7,4c-2.7,5.8-7.9,13-13.1,21.2C64,91,61.8,95,60.5,98.9
				c-1.4,3.9-1.6,7.8-0.4,10.6c1.3,2.8,3.7,4.2,5.4,4.5C67.2,114.3,68.2,113.9,68.2,114z"/>
		</g>
		<g>
			<path class="st2" d="M166.4,164c0,0-0.3,0.3-1,0.4c-0.7,0.1-1.9-0.2-2.7-1.4c-0.9-1.1-0.6-3.3,1.1-4.5c0.8-0.6,1.8-1,2.9-0.9
				c1.1,0,2.2,0.4,3.3,1c2,1.3,3.9,3.4,4.5,6.2c0.3,1.4,0.1,3-0.6,4.4c-0.8,1.4-2,2.4-3.5,3.1c-3,1.5-6.5,1.1-9.7,0.6
				c-3.3-0.6-6.7-1.1-10-2.7c-3.2-1.6-6.1-4.5-6.5-8c-0.5-3.5,0.7-6.7,1.1-9.6c0.9-5.9-1.4-11.4-4.4-14.7c-3.1-3.3-6.7-4.7-9.2-5.3
				s-3.9-0.5-3.9-0.6c0,0,0.4-0.1,1-0.1c0.7,0,1.7,0,3,0.3c2.5,0.5,6.3,1.8,9.6,5.2c3.2,3.4,5.8,9,4.8,15.3c-0.4,3.1-1.5,6.2-1,9.3
				c0.4,3.1,3,5.8,6,7.3c3.1,1.5,6.5,2,9.8,2.6c3.2,0.6,6.5,0.9,9.1-0.4c1.3-0.6,2.4-1.6,3.1-2.7c0.7-1.2,0.8-2.5,0.6-3.8
				c-0.5-2.5-2.2-4.6-4-5.8s-4.1-1.3-5.5-0.3c-1.5,1-1.8,2.8-1.1,3.8c0.6,1,1.7,1.4,2.3,1.4C166.1,164.2,166.4,163.9,166.4,164z"/>
		</g>
		<g>
			<path class="st3" d="M91.4,107.8c0,0.1-0.5,0.3-1.5,0.3s-2.5-0.1-4.2-0.9l-1-0.5l1.1-0.2c1.3-0.2,2.3-1.5,3-3.2
				c0.6-1.7,1.1-3.6,1.1-5.6c0.1-4.5-1.9-8.3-3.7-10.5c-1.9-2.3-3.5-3.2-3.4-3.4c0-0.1,1.8,0.6,4,2.9c2.1,2.2,4.3,6.2,4.2,11
				c0,2.2-0.5,4.2-1.2,6c-0.7,1.7-2,3.3-3.7,3.6l0.1-0.7C89.1,108.2,91.4,107.6,91.4,107.8z"/>
		</g>
		<g>
			<path class="st2" d="M108,77.8c0.2,0.8-2.7,2.3-6.5,3.3s-7.1,1.1-7.3,0.3c-0.2-0.8,2.7-2.3,6.5-3.3C104.5,77.1,107.8,77,108,77.8
				z"/>
		</g>
		<g>
			<path class="st2" d="M81.2,82.9c-0.7,0.5-2.6-0.7-5.1-1.1c-1.9-0.4-3.5-0.2-4.5-0.4l-3.7-0.6l3.1-0.5c0.4-0.1,0.7,0,0.8,0.2
				c0.1,0.2,0.2,0.5,0,0.8l-0.8-1c0.6-0.9,2.9-2,5.5-1.5c1.8,0.3,3.3,1.2,4,2.2C81.4,81.8,81.5,82.6,81.2,82.9z"/>
		</g>
	</g>
</g>
</svg>
