<?xml version="1.0" encoding="utf-8"?>
<!-- Generator: Adobe Illustrator 16.0.0, SVG Export Plug-In . SVG Version: 6.00 Build 0)  -->
<!DOCTYPE svg PUBLIC "-//W3C//DTD SVG 1.1//EN" "http://www.w3.org/Graphics/SVG/1.1/DTD/svg11.dtd">
<svg version="1.1" id="图层_1" xmlns="http://www.w3.org/2000/svg" xmlns:xlink="http://www.w3.org/1999/xlink" x="0px" y="0px"
	 width="88px" height="88px" viewBox="0 0 88 88" enable-background="new 0 0 88 88" xml:space="preserve">
<path fill="#1296DB" d="M88,60.246V16.921C88,7.579,80.424,0,71.078,0H16.921C7.579,0,0,7.576,0,16.921v54.157
	C0,80.421,7.576,88,16.921,88h54.157c8.326,0,15.252-6.018,16.66-13.941c-4.485-1.93-23.939-10.329-34.069-15.174
	c-7.708,9.339-15.784,14.941-27.958,14.941c-12.173,0-20.296-7.487-19.317-16.669c0.643-6.026,4.775-15.865,22.713-14.172
	c9.455,0.892,13.784,2.656,21.501,5.196c1.983-3.655,3.648-7.681,4.898-11.965H21.324v-3.385h16.911v-6.092H17.603v-3.723h20.632
	v-8.776c0,0,0.195-1.377,1.704-1.377H48.4v10.154h22v3.723h-22v6.092h17.938c-1.644,6.721-4.142,12.886-7.278,18.281
	C64.277,52.994,88,60.246,88,60.246z M24.369,68.031c-12.862,0-14.892-8.124-14.215-11.509c0.677-3.384,4.4-7.784,11.55-7.784
	c8.222,0,15.573,2.098,24.409,6.401C39.915,63.217,32.286,68.031,24.369,68.031L24.369,68.031z"/>
</svg>
