<?xml version="1.0" encoding="utf-8"?>
<!-- Generator: Adobe Illustrator 16.0.0, SVG Export Plug-In . SVG Version: 6.00 Build 0)  -->
<!DOCTYPE svg PUBLIC "-//W3C//DTD SVG 1.1//EN" "http://www.w3.org/Graphics/SVG/1.1/DTD/svg11.dtd">
<svg version="1.1" id="图层_1" xmlns="http://www.w3.org/2000/svg" xmlns:xlink="http://www.w3.org/1999/xlink" x="0px" y="0px"
	 width="88px" height="88px" viewBox="0 0 88 88" enable-background="new 0 0 88 88" xml:space="preserve">
<g>
	<path fill="#FFA000" d="M73.964,52.426v7.568c0,1.451-0.66,2.729-1.672,3.607h15.004V52.471H73.964V52.426z"/>
	<path fill="#FF6000" d="M41.052,50.49c-0.001,4.155,3.346,7.525,7.478,7.527c4.131,0.002,7.48-3.365,7.482-7.521
		c0-0.002,0-0.004,0-0.006c0-4.156-3.348-7.524-7.48-7.524C44.401,42.966,41.052,46.334,41.052,50.49z"/>
	<path fill="#FF8900" d="M51.656,50.49c0,4.155,3.35,7.523,7.48,7.523s7.479-3.368,7.479-7.523c0-4.156-3.349-7.524-7.479-7.524
		S51.656,46.334,51.656,50.49z"/>
	<path fill="#FFA000" d="M0.704,24.486h73.172v11.132H0.704V24.486z"/>
	<path fill="#FF6000" d="M82.544,22.594h-7.876V20.79c0-3.476-2.816-6.336-6.336-6.336H6.292C2.816,14.498,0,17.314,0,20.79v38.28
		c0,3.476,2.816,6.336,6.336,6.336h6.996v2.684c0,2.992,2.464,5.456,5.456,5.456h63.756c2.992,0,5.456-2.464,5.456-5.456V28.05
		C88,25.058,85.536,22.594,82.544,22.594L82.544,22.594z M1.408,59.114v-38.28c0-2.728,2.2-4.928,4.928-4.928h62.04
		c2.728,0,4.928,2.2,4.928,4.928v38.28c0,2.728-2.2,4.928-4.928,4.928H6.336C3.608,64.042,1.408,61.842,1.408,59.114z M86.592,68.09
		c0,2.244-1.804,4.049-4.048,4.049H18.788c-2.244,0-4.048-1.805-4.048-4.049v-2.684h53.636c3.476,0,6.336-2.816,6.336-6.336V24.002
		h7.876c2.244,0,4.048,1.804,4.048,4.048v40.04H86.592z"/>
</g>
</svg>
