<?xml version="1.0" encoding="utf-8"?>
<!-- Generator: Adobe Illustrator 16.0.0, SVG Export Plug-In . SVG Version: 6.00 Build 0)  -->
<!DOCTYPE svg PUBLIC "-//W3C//DTD SVG 1.1//EN" "http://www.w3.org/Graphics/SVG/1.1/DTD/svg11.dtd">
<svg version="1.1" id="图层_1" xmlns="http://www.w3.org/2000/svg" xmlns:xlink="http://www.w3.org/1999/xlink" x="0px" y="0px"
	 width="88px" height="88px" viewBox="0 0 88 88" enable-background="new 0 0 88 88" xml:space="preserve">
<g>
	<path fill="#006AE8" d="M44,88C16.512,88,4.981,78.167,4.981,57.961c0-16.74,13.075-34.209,28.924-39.721h20.189
		c15.85,5.511,28.924,22.98,28.924,39.721C83.019,78.167,71.488,88,44,88L44,88z M54.813,54.796v-0.007
		c1.823-0.01,3.3-1.491,3.3-3.317c0-1.827-1.476-3.308-3.3-3.319v-0.008h-6.692c0.013-0.074-0.01-0.141-0.002-0.216l7.843-8.018
		c1.279-1.441,0.628-2.633-0.665-3.94c-1.301-1.313-3.428-1.589-4.479-0.444l-6.745,7.189l-7.285-7.285
		c-0.922-0.921-2.715-0.621-4.005,0.669c-1.292,1.292-1.591,3.087-0.67,4.009l7.451,7.449c-0.14,0.179-0.23,0.376-0.284,0.587
		h-6.055v0.007c-0.006,0-0.012,0-0.017,0c-1.834,0-3.321,1.485-3.321,3.32c0,1.832,1.487,3.32,3.321,3.32
		c0.005,0,0.011-0.003,0.017-0.003v0.007h6.637v3.308h-6.637v0.01c-0.006,0-0.012,0-0.017,0c-1.834,0-3.321,1.485-3.321,3.32
		c0,1.832,1.487,3.321,3.321,3.321c0.005,0,0.011-0.003,0.017-0.003v0.003h6.637v3.343h0.069c-0.052,0.26-0.082,0.53-0.082,0.808
		c0,2.293,1.858,4.151,4.151,4.151c2.293,0,4.15-1.858,4.15-4.151c0-0.277-0.029-0.548-0.081-0.808h0.038v-3.343l6.706-0.003
		c1.824-0.013,3.3-1.492,3.3-3.318c0-1.827-1.476-3.308-3.3-3.319v-0.011h-6.706v-3.308H54.813L54.813,54.796z M59.773,4.981
		l-0.698,0.873c-0.015,0.016-0.025,0.035-0.041,0.051l-5.901,7.378H33.208l-5.891-7.365c-0.043-0.042-0.072-0.094-0.113-0.139
		l-0.638-0.798l0.112-0.225c-0.054-0.205-0.126-0.404-0.126-0.624c0-1.058,0.665-1.951,1.596-2.314l0.079-0.158
		c0,0,8.162-1.633,14.943-1.66c7.098-0.029,14.943,1.66,14.943,1.66l0.08,0.159c0.925,0.367,1.584,1.258,1.584,2.312
		c0,0.217-0.071,0.411-0.123,0.609L59.773,4.981L59.773,4.981z"/>
</g>
</svg>
