<?xml version="1.0" encoding="utf-8"?>
<!-- Generator: Adobe Illustrator 16.0.0, SVG Export Plug-In . SVG Version: 6.00 Build 0)  -->
<!DOCTYPE svg PUBLIC "-//W3C//DTD SVG 1.1//EN" "http://www.w3.org/Graphics/SVG/1.1/DTD/svg11.dtd">
<svg version="1.1" id="图层_1" xmlns="http://www.w3.org/2000/svg" xmlns:xlink="http://www.w3.org/1999/xlink" x="0px" y="0px"
	 width="88px" height="88px" viewBox="0 0 88 88" enable-background="new 0 0 88 88" xml:space="preserve">
<g>
	<path fill="#00908C" d="M24.378,19.487h61.217c2.002,0.587,2.581,1.917,2.359,3.663L69.656,65.975
		c-1.006,1.382-2.428,2.303-4.458,2.542h-63.4c-1.669-0.166-2.176-1.601-1.521-4.302L17.964,22.83
		c1.495-2.04,3.643-3.143,6.416-3.347L24.378,19.487z"/>
	<path fill="#E60012" d="M24.44,19.487h18.102c-2.772,0.205-4.92,1.307-6.416,3.347L18.442,64.215
		c-0.658,2.697-0.152,4.131,1.518,4.298H1.856c-1.669-0.164-2.175-1.597-1.518-4.298L18.025,22.83
		C19.523,20.789,21.668,19.685,24.44,19.487z"/>
	<path fill="#00508E" d="M42.542,19.487H64.82c-2.772,0.205-4.921,1.307-6.416,3.347L40.722,64.215
		c-0.658,2.697-0.152,4.131,1.518,4.298H19.961c-1.669-0.164-2.175-1.597-1.518-4.298L36.127,22.83
		c1.495-2.04,3.643-3.143,6.416-3.347L42.542,19.487z"/>
	<path fill="#FFFFFF" d="M26.744,37.214h3.143l0.036,1.412h2.805v2.738h-4.124c-0.674,1.138-1.991,1.596-3.379,1.253l-0.014-2.21
		c1.163-0.141,1.642-1.116,1.532-3.192L26.744,37.214z M66.125,41.997h-2.331l-1.941-2.913c-0.17,0.099-0.216,0.444-0.386,0.541
		c-0.283,0.162-0.534,0.042-0.817,0.204l0.019,12.77c0.809,0.527,0.543,1.206,0.602,2.019c0.647-0.129,1.057,0.07,1.703-0.06
		c0.368-1.263,1.192-2.712,1.619-4.055c0.099-0.311-0.047-0.643,0.039-0.934h-2.585l0.044-2.468l3.047,0.029
		c0-0.518,0.061-1.513,0.061-2.031h-3.151v-2.517l9.155,0.149l-0.03,2.374l-3.017,0.104l-0.061,2.047l2.883-0.045l0.015,2.24
		l-3.05,0.043c-0.271,0-0.099,0.598-0.266,0.854v0.197c0.389,0.048,0.857-0.146,1.214,0.15c0.327,0.273,0.124,0.955,0.395,1.406
		c0.472,0.782,0.618,1.818,1.963,1.956l-0.019,2.896h-1.999c-0.963-1.261-1.937-1.989-2.331-3.893l-0.388,0.198
		c-0.429,1.564-1.14,2.703-2.136,3.688h-2.912c-0.11-0.249,0.057-0.759,0.011-0.867c-0.074-0.181-0.367,0.112-0.789-0.099
		c-0.125,0.706,0.104,0.592-0.206,0.972c-0.945-0.01-1.81,0.03-2.605-0.1c-0.494-0.079,0.028-0.72-0.47-0.812
		c-1.273-0.235-3.784-0.055-5.651-0.06v-2.532c0.706-0.126,0.593,0.149,0.972-0.16V37.725c0.841,0.065,1.683,0.01,2.523,0.075
		c0.065,0.324-0.049,0.856,0.015,1.185c0.161-0.107,0.64,0.224,0.659,0.021c0.116-1.229,2.624-1.54,5.018-1.299
		c0.514,0.053-0.046-0.43,0.521-0.457c0.93-0.045,1.918-0.159,2.914-0.099c0.44,1.004,0.677,1.712,1.748,2.136v2.719L66.125,41.997z
		 M68.648,37.337h2.719v0.388c0.622,1.694-0.964,3.242-1.777,4.167l-2.284,0.016l-0.018-2.581c0.987-0.183,1.029-0.358,1.359-1.016
		v-0.972L68.648,37.337z M34.302,37.534h2.171l0.072,1.554c1.555-1.535,3.684-1.698,7.655-1.431l0.02,8.141
		c0,1.106-1,1.538-1.104,1.689l-6.884-0.068l0.032,5.856c0.191,0.34,0.431,0.604,0.741,0.602l1.974-0.013l-0.03,2.715l-4.237-0.017
		c-0.375-0.047-0.493-0.352-0.493-0.771l0.087-18.266L34.302,37.534z M55.856,39.973c-0.467,0.986-0.505,2.072-0.471,3.714
		c1.139-0.121,1.776-0.523,2.391-1.165c-0.065-0.841,0.053-1.678-0.011-2.517C57.183,40.005,56.438,39.973,55.856,39.973z
		 M36.777,40.385v2.458c0.197-0.197,0.477-0.278,0.671-0.473c1.601-1.355,2.237-0.647,3.602-1.015v-0.972L36.777,40.385z
		 M25.032,43.359h7.961v2.136h-3.106v2.341h2.913v2.514h-1.364c-0.624,1.204-1.635,2.617-1.359,4.077h2.136v2.33l-3.689,0.197
		c-1.854-1.063-1.678-3.624-1.553-6.602h-2.135v-2.521h2.136v-2.341h-1.942v-2.136L25.032,43.359z M41.051,45.407l0.048-1.16
		l-4.146,0.018v1.17l4.095-0.027H41.051z M55.362,45.111v3.295c0.841-0.197,1.579-0.388,2.417-0.582v-2.722L55.362,45.111z
		 M42.619,48.209h1.919c-0.065,0.906-0.019,1.967-0.084,2.873c-0.749,0.313-1.643,0.279-2.868,0.256v0.604
		c0.305,0.961,0.099,1.859,1.073,2.241c0.411-0.42,0.888-0.342,1.776-0.344c-0.065,0.906,0.025,1.812-0.04,2.718
		c-1.61,0.04-2.891,0.166-3.641-0.331c-1.993-1.322-1.505-4.64-2.445-7.63c0.065-0.129,0.198-0.259,0.261-0.388h2.136
		c0.198,0.518,0.189,1.079,0.384,1.597c0.876-0.041,1.024-0.182,1.532-0.433v-1.163H42.619z M55.521,49.957v3.106h2.14
		c-0.064-1.035,0-2.018-0.061-3.054c-0.647,0-1.429-0.053-2.073-0.053H55.521z"/>
</g>
</svg>
