<?xml version="1.0" encoding="utf-8"?>
<!-- Generator: Adobe Illustrator 16.0.0, SVG Export Plug-In . SVG Version: 6.00 Build 0)  -->
<!DOCTYPE svg PUBLIC "-//W3C//DTD SVG 1.1//EN" "http://www.w3.org/Graphics/SVG/1.1/DTD/svg11.dtd">
<svg version="1.1" id="图层_1" xmlns="http://www.w3.org/2000/svg" xmlns:xlink="http://www.w3.org/1999/xlink" x="0px" y="0px"
	 width="88px" height="88px" viewBox="0 0 88 88" enable-background="new 0 0 88 88" xml:space="preserve">
<g>
	<path fill="#33EA00" d="M20.723,27.554c0,2.051,1.654,3.705,3.705,3.705s3.705-1.654,3.705-3.705s-1.654-3.705-3.705-3.705
		S20.723,25.503,20.723,27.554L20.723,27.554z"/>
	<path fill="#33EA00" d="M49.581,46.705c0,1.604,1.308,2.911,2.911,2.911c1.604,0,2.911-1.307,2.911-2.911
		c0-1.604-1.307-2.911-2.911-2.911C50.872,43.811,49.581,45.102,49.581,46.705z"/>
	<path fill="#33EA00" d="M39.625,27.554c0,2.051,1.654,3.705,3.705,3.705s3.704-1.654,3.704-3.705s-1.653-3.705-3.704-3.705
		S39.625,25.503,39.625,27.554L39.625,27.554z"/>
	<path fill="#33EA00" d="M88.182,12.884c0-7.194-5.92-12.867-12.866-12.867H13.313c-7.211,0-12.867,5.921-12.867,12.867v62.267
		c0,7.193,5.92,12.866,12.867,12.866H75.58c7.194,0,12.867-5.921,12.867-12.866L88.182,12.884z M33.424,58.695
		c-3.324,0-6.003-0.678-9.344-1.34l-9.311,4.681l2.663-8.021C10.75,49.351,6.764,43.332,6.764,36.005
		c0-12.685,12.007-22.69,26.676-22.69c13.115,0,24.608,7.988,26.924,18.738c-0.843-0.083-1.703-0.149-2.563-0.149
		c-12.668,0-22.673,9.443-22.673,21.103c0,1.936,0.297,3.804,0.827,5.591C35.094,58.662,34.267,58.695,33.424,58.695z
		 M72.769,68.039l2.001,6.665l-7.31-4.002c-2.663,0.661-5.342,1.34-8.005,1.34c-12.685,0-22.69-8.666-22.69-19.35
		c0-10.667,9.989-19.35,22.69-19.35c11.99,0,22.657,8.699,22.657,19.35C82.112,58.695,78.127,64.021,72.769,68.039z"/>
	<path fill="#33EA00" d="M64.103,46.705c0,1.604,1.307,2.911,2.911,2.911c1.604,0,2.91-1.307,2.91-2.911
		c0-1.604-1.307-2.911-2.91-2.911C65.409,43.811,64.103,45.102,64.103,46.705z"/>
</g>
</svg>
