<?xml version="1.0" encoding="utf-8"?>
<!-- Generator: Adobe Illustrator 19.0.0, SVG Export Plug-In . SVG Version: 6.00 Build 0)  -->
<svg version="1.1" id="图层_1" xmlns="http://www.w3.org/2000/svg" xmlns:xlink="http://www.w3.org/1999/xlink" x="0px" y="0px"
	 viewBox="-90 45 48 48" style="enable-background:new -90 45 48 48;" xml:space="preserve">
<style type="text/css">
	.st0{fill:#1A56FF;}
	.st1{opacity:0.8;fill:#1A56FF;enable-background:new    ;}
</style>
<g>
	<path class="st0" d="M-54,86.5c-0.1-6.9-4.3-13.2-10.6-16.1c3-2.3,4.7-5.8,4.7-9.5c0-6.7-5.3-12-12-12c-6.6,0-12,5.4-12,12
		c0,3.9,1.8,7.4,4.7,9.5c-6.2,2.8-10.3,9-10.6,15.9c0,0.1-0.1,0.3-0.1,0.5V87c0,1.1,0.9,2,2,2s2-0.9,2-2l0,0l0,0l0,0l0,0
		c0-7.3,5.6-13.4,12.8-14.1c0.8,0.1,1.5,0.1,2.3,0c7.1,0.6,12.7,6.6,12.8,13.7v0.1V87c0,1.1,0.9,2,2,2c1.1,0,2-0.9,2-2v-0.2
		C-54,86.8-54,86.6-54,86.5L-54,86.5z M-72,68.9c-4.4,0-8.1-3.6-7.9-8.1c0-4.4,3.5-8.1,7.9-8.1l0,0c4.4,0,8.1,3.6,7.9,8.1l0,0
		C-64,65.3-67.5,68.9-72,68.9z"/>
	<path class="st1" d="M-42,86.8c0-0.1,0-0.2,0-0.2c-0.1-6.9-4.2-13-10.4-16c0-0.1,0-0.1,0-0.2c2.8-2.3,4.5-5.8,4.5-9.4
		c0-6.4-4.9-11.6-11.1-12c0,0-1.9,0.2-1.9,2v0.2c0,1,0.8,1.9,1.9,1.9c0.3,0,1,0,1,0.1c4.3,1.1,6.8,5.6,5.7,9.8
		c-0.6,2-1.8,3.9-3.6,4.9l-0.1,0.1c-0.8,0.2-1.4,0.9-1.7,1.7c0,0-0.1,0.7-0.1,0.9v0.2c0,1.6,1.2,2.8,2.7,2.8c0.2,0,1,0.5,1.1,0.7
		c4.8,2.3,7.9,7.1,7.9,12.5v0.1v0.2c0,1.1,0.9,2,2,2c1.1,0,2-0.9,2-2l0,0L-42,86.8L-42,86.8z"/>
</g>
</svg>
