<?xml version="1.0" encoding="utf-8"?>
<!-- Generator: Adobe Illustrator 19.0.0, SVG Export Plug-In . SVG Version: 6.00 Build 0)  -->
<svg version="1.1" id="图层_1" xmlns="http://www.w3.org/2000/svg" xmlns:xlink="http://www.w3.org/1999/xlink" x="0px" y="0px"
	 viewBox="-90 45 48 48" style="enable-background:new -90 45 48 48;" xml:space="preserve">
<style type="text/css">
	.st0{fill:url(#XMLID_2_);}
	.st1{fill:url(#XMLID_3_);}
	.st2{fill:url(#XMLID_4_);}
	.st3{fill:url(#XMLID_5_);}
	.st4{fill:url(#XMLID_6_);}
</style>
<g id="XMLID_880_">
	<linearGradient id="XMLID_2_" gradientUnits="userSpaceOnUse" x1="-88.5" y1="51" x2="-43.5" y2="51">
		<stop  offset="0" style="stop-color:#3580FF"/>
		<stop  offset="1" style="stop-color:#176DFF"/>
	</linearGradient>
	<path id="XMLID_741_" class="st0" d="M-47.5,45h-37c-2.2,0-4,1.8-4,4v4c0,2.2,1.8,4,4,4h37c2.2,0,4-1.8,4-4v-4
		C-43.5,46.8-45.3,45-47.5,45z M-46.5,53c0,0.6-0.5,1-1,1h-37c-0.6,0-1-0.5-1-1v-4c0-0.6,0.4-1,1-1h37c0.6,0,1,0.5,1,1V53z"/>
	<linearGradient id="XMLID_3_" gradientUnits="userSpaceOnUse" x1="-88.5" y1="67.5" x2="-43.5" y2="67.5">
		<stop  offset="0" style="stop-color:#3580FF"/>
		<stop  offset="1" style="stop-color:#176DFF"/>
	</linearGradient>
	<path id="XMLID_246_" class="st1" d="M-47.7,60h-36.6c-2.3,0-4.2,1.9-4.2,4.2v6.6c0,2.3,1.9,4.2,4.2,4.2h36.6
		c2.3,0,4.2-1.9,4.2-4.2v-6.6C-43.5,61.9-45.4,60-47.7,60z M-46.5,70.8c0,0.7-0.5,1.2-1.2,1.2h-36.6c-0.7,0-1.2-0.5-1.2-1.2v-6.6
		c0-0.7,0.5-1.2,1.2-1.2h36.6c0.7,0,1.2,0.5,1.2,1.2V70.8z"/>
	<linearGradient id="XMLID_4_" gradientUnits="userSpaceOnUse" x1="-88.5" y1="85.5" x2="-43.5" y2="85.5">
		<stop  offset="0" style="stop-color:#3580FF"/>
		<stop  offset="1" style="stop-color:#176DFF"/>
	</linearGradient>
	<path id="XMLID_216_" class="st2" d="M-47.7,78h-36.6c-2.3,0-4.2,1.9-4.2,4.2v6.6c0,2.3,1.9,4.2,4.2,4.2h36.6
		c2.3,0,4.2-1.9,4.2-4.2v-6.6C-43.5,79.9-45.4,78-47.7,78z M-46.5,88.8c0,0.7-0.5,1.2-1.2,1.2h-36.6c-0.7,0-1.2-0.5-1.2-1.2v-6.6
		c0-0.7,0.5-1.2,1.2-1.2h36.6c0.7,0,1.2,0.5,1.2,1.2V88.8z"/>
	<linearGradient id="XMLID_5_" gradientUnits="userSpaceOnUse" x1="-82.5" y1="67.5" x2="-76.5" y2="67.5">
		<stop  offset="0" style="stop-color:#3580FF"/>
		<stop  offset="1" style="stop-color:#176DFF"/>
	</linearGradient>
	<path id="XMLID_215_" class="st3" d="M-82.5,67.5c0,1.7,1.3,3,3,3s3-1.3,3-3s-1.3-3-3-3S-82.5,65.8-82.5,67.5z"/>
	<linearGradient id="XMLID_6_" gradientUnits="userSpaceOnUse" x1="-82.5" y1="85.5" x2="-76.5" y2="85.5">
		<stop  offset="0" style="stop-color:#3580FF"/>
		<stop  offset="1" style="stop-color:#176DFF"/>
	</linearGradient>
	<path id="XMLID_213_" class="st4" d="M-82.5,85.5c0,1.7,1.3,3,3,3s3-1.3,3-3s-1.3-3-3-3S-82.5,83.8-82.5,85.5z"/>
</g>
</svg>
