<?xml version="1.0" encoding="utf-8"?>
<!-- Generator: Adobe Illustrator 19.0.0, SVG Export Plug-In . SVG Version: 6.00 Build 0)  -->
<svg version="1.1" id="图层_1" xmlns="http://www.w3.org/2000/svg" xmlns:xlink="http://www.w3.org/1999/xlink" x="0px" y="0px"
	 viewBox="-90 45 48 48" style="enable-background:new -90 45 48 48;" xml:space="preserve">
<style type="text/css">
	.st0{fill:#1A56FF;}
</style>
<g id="XMLID_828_">
	<path id="XMLID_202_" class="st0" d="M-48.7,45h-34.6c-1.1,0-1.9,0.9-1.9,1.9v44.2c0,1.1,0.9,1.9,1.9,1.9h34.6
		c1.1,0,1.9-0.9,1.9-1.9V46.9C-46.8,45.9-47.7,45-48.7,45z M-50.6,89.2h-30.7V48.8h30.7L-50.6,89.2L-50.6,89.2z"/>
	<path id="XMLID_187_" class="st0" d="M-75.6,79.8h19.2v3.8h-19.2V79.8z M-75.6,70.6h19.2v3.8h-19.2V70.6z M-75.6,58.6h4.9v3.8h-4.9
		V58.6z"/>
	<path id="XMLID_183_" class="st0" d="M-66,60.5c0,2.9,2.4,5.3,5.3,5.3c2.9,0,5.3-2.4,5.3-5.3c0-2.9-2.4-5.3-5.3-5.3
		C-63.6,55.2-66,57.6-66,60.5C-66,60.5-66,60.5-66,60.5z"/>
</g>
</svg>
