<?xml version="1.0" encoding="utf-8"?>
<!-- Generator: Adobe Illustrator 19.0.0, SVG Export Plug-In . SVG Version: 6.00 Build 0)  -->
<svg version="1.1" id="图层_1" xmlns="http://www.w3.org/2000/svg" xmlns:xlink="http://www.w3.org/1999/xlink" x="0px" y="0px"
	 viewBox="-90 45 48 48" style="enable-background:new -90 45 48 48;" xml:space="preserve">
<style type="text/css">
	.st0{fill:url(#XMLID_2_);}
	.st1{fill:url(#XMLID_3_);}
	.st2{fill:url(#XMLID_4_);}
	.st3{fill:url(#XMLID_5_);}
	.st4{fill:url(#XMLID_6_);}
	.st5{fill:url(#XMLID_7_);}
	.st6{fill:url(#XMLID_8_);}
	.st7{fill:url(#XMLID_9_);}
	.st8{fill:url(#XMLID_10_);}
</style>
<g id="XMLID_884_">
	<linearGradient id="XMLID_2_" gradientUnits="userSpaceOnUse" x1="-90" y1="68.9997" x2="-85.6363" y2="68.9997">
		<stop  offset="0" style="stop-color:#3580FF"/>
		<stop  offset="1" style="stop-color:#176DFF"/>
	</linearGradient>
	<path id="XMLID_181_" class="st0" d="M-87.8,47.2L-87.8,47.2c1.5,0,2.2,0.7,2.2,2.2v39.3c0,1.5-0.7,2.2-2.2,2.2l0,0
		c-1.5,0-2.2-0.7-2.2-2.2V49.4C-90,47.9-89.3,47.2-87.8,47.2z"/>
	<linearGradient id="XMLID_3_" gradientUnits="userSpaceOnUse" x1="-90" y1="88.6366" x2="-42" y2="88.6366">
		<stop  offset="0" style="stop-color:#3580FF"/>
		<stop  offset="1" style="stop-color:#176DFF"/>
	</linearGradient>
	<path id="XMLID_141_" class="st1" d="M-87.8,86.5h43.6c1.5,0,2.2,0.7,2.2,2.2l0,0c0,1.5-0.7,2.2-2.2,2.2h-43.6
		c-1.5,0-2.2-0.7-2.2-2.2l0,0C-90,87.2-89.3,86.5-87.8,86.5z"/>
	<linearGradient id="XMLID_4_" gradientUnits="userSpaceOnUse" x1="-81.2726" y1="75.5455" x2="-76.9089" y2="75.5455">
		<stop  offset="0" style="stop-color:#3580FF"/>
		<stop  offset="1" style="stop-color:#176DFF"/>
	</linearGradient>
	<path id="XMLID_68_" class="st2" d="M-79.1,69L-79.1,69c1.5,0,2.2,0.7,2.2,2.2v8.7c0,1.5-0.7,2.2-2.2,2.2l0,0
		c-1.5,0-2.2-0.7-2.2-2.2v-8.7C-81.3,69.7-80.5,69-79.1,69z"/>
	<linearGradient id="XMLID_5_" gradientUnits="userSpaceOnUse" x1="-70.3634" y1="72.2728" x2="-65.9997" y2="72.2728">
		<stop  offset="0" style="stop-color:#3580FF"/>
		<stop  offset="1" style="stop-color:#176DFF"/>
	</linearGradient>
	<path id="XMLID_67_" class="st3" d="M-68.2,62.5L-68.2,62.5c1.5,0,2.2,0.7,2.2,2.2v15.3c0,1.5-0.7,2.2-2.2,2.2l0,0
		c-1.5,0-2.2-0.7-2.2-2.2V64.6C-70.4,63.2-69.6,62.5-68.2,62.5z"/>
	<linearGradient id="XMLID_6_" gradientUnits="userSpaceOnUse" x1="-59.4542" y1="73.3637" x2="-55.0905" y2="73.3637">
		<stop  offset="0" style="stop-color:#3580FF"/>
		<stop  offset="1" style="stop-color:#176DFF"/>
	</linearGradient>
	<path id="XMLID_65_" class="st4" d="M-57.3,64.6L-57.3,64.6c1.5,0,2.2,0.7,2.2,2.2v13.1c0,1.5-0.7,2.2-2.2,2.2l0,0
		c-1.5,0-2.2-0.7-2.2-2.2V66.8C-59.5,65.4-58.7,64.6-57.3,64.6z"/>
	<linearGradient id="XMLID_7_" gradientUnits="userSpaceOnUse" x1="-48.545" y1="70.0909" x2="-44.1813" y2="70.0909">
		<stop  offset="0" style="stop-color:#3580FF"/>
		<stop  offset="1" style="stop-color:#176DFF"/>
	</linearGradient>
	<path id="XMLID_64_" class="st5" d="M-46.4,58.1L-46.4,58.1c1.5,0,2.2,0.7,2.2,2.2v19.6c0,1.5-0.7,2.2-2.2,2.2l0,0
		c-1.5,0-2.2-0.7-2.2-2.2V60.3C-48.5,58.8-47.8,58.1-46.4,58.1z"/>
	<linearGradient id="XMLID_8_" gradientUnits="userSpaceOnUse" x1="-81.2736" y1="55.9191" x2="-66.0219" y2="55.9191">
		<stop  offset="0" style="stop-color:#3580FF"/>
		<stop  offset="1" style="stop-color:#176DFF"/>
	</linearGradient>
	<path id="XMLID_61_" class="st6" d="M-79.1,62.5c-1.2,0-2.2-1-2.2-2.2c0-0.7,0.3-1.3,0.8-1.7l10.9-8.7c1-0.7,2.3-0.6,3.1,0.4
		c0.7,0.9,0.6,2.3-0.3,3L-77.7,62C-78.1,62.3-78.6,62.5-79.1,62.5z"/>
	<linearGradient id="XMLID_9_" gradientUnits="userSpaceOnUse" x1="-70.3639" y1="53.7285" x2="-55.0862" y2="53.7285">
		<stop  offset="0" style="stop-color:#3580FF"/>
		<stop  offset="1" style="stop-color:#176DFF"/>
	</linearGradient>
	<path id="XMLID_60_" class="st7" d="M-57.3,58.1c-0.3,0-0.6-0.1-0.8-0.2L-69,53.6c-1.1-0.4-1.7-1.7-1.2-2.8
		c0.4-1.1,1.7-1.7,2.8-1.2l0,0l10.9,4.4c1.1,0.4,1.7,1.7,1.2,2.8C-55.6,57.5-56.4,58.1-57.3,58.1z"/>
	<linearGradient id="XMLID_10_" gradientUnits="userSpaceOnUse" x1="-59.4518" y1="52.6362" x2="-44.1797" y2="52.6362">
		<stop  offset="0" style="stop-color:#3580FF"/>
		<stop  offset="1" style="stop-color:#176DFF"/>
	</linearGradient>
	<path id="XMLID_58_" class="st8" d="M-57.3,58.1c-1.2,0-2.2-1-2.2-2.2c0-0.8,0.4-1.5,1.1-1.9l10.9-6.5c1-0.6,2.4-0.3,3,0.7
		c0.6,1,0.3,2.4-0.7,3l-10.9,6.5C-56.5,58-56.9,58.1-57.3,58.1z"/>
</g>
</svg>
