<?xml version="1.0" encoding="utf-8"?>
<!-- Generator: Adobe Illustrator 19.0.0, SVG Export Plug-In . SVG Version: 6.00 Build 0)  -->
<svg version="1.1" id="图层_1" xmlns="http://www.w3.org/2000/svg" xmlns:xlink="http://www.w3.org/1999/xlink" x="0px" y="0px"
	 viewBox="-75 17 48 48" style="enable-background:new -75 17 48 48;" xml:space="preserve">
<style type="text/css">
	.st0{fill:#1A56FF;}
</style>
<g>
	<path class="st0" d="M-61.7,22.4h21.5c0.9,0,1.7-0.7,1.7-1.7s-0.7-1.7-1.7-1.7h-21.5c-0.9,0-1.7,0.7-1.7,1.7
		C-63.4,21.6-62.7,22.4-61.7,22.4z M-70,28.2H-32c0.9,0,1.7-0.7,1.7-1.7s-0.7-1.7-1.7-1.7H-70c-0.9,0-1.7,0.7-1.7,1.7
		C-71.7,27.4-70.9,28.2-70,28.2z M-42.7,49.7h-6.6v-2.5h6.6c0.9,0,1.7-0.7,1.7-1.7s-0.7-1.7-1.7-1.7h-4.7l4-4c0.7-0.7,0.7-1.7,0-2.3
		c-0.7-0.7-1.7-0.7-2.3,0l-5.3,5.2l-5.3-5.3c-0.7-0.7-1.7-0.7-2.3,0c-0.7,0.7-0.7,1.7,0,2.3l4,4h-4.7c-0.9,0-1.7,0.7-1.7,1.7
		s0.7,1.7,1.7,1.7h6.6v2.5h-6.6c-0.9,0-1.7,0.7-1.7,1.7s0.7,1.7,1.7,1.7h6.6v3.3c0,0.9,0.7,1.7,1.7,1.7s1.7-0.7,1.7-1.7V53h6.6
		c0.9,0,1.7-0.7,1.7-1.7C-41.1,50.5-41.8,49.7-42.7,49.7z"/>
	<path class="st0" d="M-29.5,30.7h-43c-1.4,0-2.5,1.1-2.5,2.5v27.3c0,1.4,1.1,2.5,2.5,2.5h43c1.4,0,2.5-1.1,2.5-2.5V33.1
		C-27,31.8-28.1,30.7-29.5,30.7L-29.5,30.7z M-30.3,59.6h-41.4V34h41.4L-30.3,59.6L-30.3,59.6z"/>
</g>
</svg>
