<?xml version="1.0" encoding="utf-8"?>
<!-- Generator: Adobe Illustrator 22.1.0, SVG Export Plug-In . SVG Version: 6.00 Build 0)  -->
<svg version="1.1" id="图层_1" xmlns="http://www.w3.org/2000/svg" xmlns:xlink="http://www.w3.org/1999/xlink" x="0px" y="0px"
	 viewBox="0 0 48 48" style="enable-background:new 0 0 48 48;" xml:space="preserve">
<style type="text/css">
	.st0{fill:#1A56FF;}
	.st1{fill:#FFFFFF;}
</style>
<circle class="st0" cx="24" cy="24" r="24"/>
<circle class="st1" cx="24" cy="24" r="20.3"/>
<path class="st0" d="M40.9,22.6H35l-2.1-6.8c-0.1-0.4-0.5-0.6-0.9-0.5l-1.3,0c-0.4-0.1-0.7,0.2-0.8,0.6l-3.1,15L22.6,10
	c-0.1-0.4-0.5-0.6-0.9-0.5c0,0-1.1,0-1.6,0c-0.5,0-0.7,0.5-0.7,0.5l-3.1,16.5L15.3,23c-0.1-0.4-0.5-0.4-0.9-0.4l-7.2,0
	c-0.4,0-0.7,0.3-0.7,0.7v1.5c0,0.4,0.3,0.7,0.7,0.7h5.8l2.2,6.7c0.1,0.4,0.5,0.6,0.9,0.5l1.1,0c0.4,0.1,0.8-0.2,0.9-0.6L21.3,17
	l4.3,21c0.1,0.4,0.5,0.6,0.9,0.5c0,0,0.8,0,1.2,0c0.5,0,0.5-0.8,0.5-0.8l3.4-16.1l1.1,3.5c0.1,0.4,0.5,0.6,0.9,0.5l7.3,0
	c0.4,0,0.7-0.3,0.7-0.7v-1.5C41.6,22.9,41.3,22.6,40.9,22.6z"/>
</svg>
