<?xml version="1.0" encoding="utf-8"?>
<!-- Generator: Adobe Illustrator 22.1.0, SVG Export Plug-In . SVG Version: 6.00 Build 0)  -->
<svg version="1.1" id="图层_1" xmlns="http://www.w3.org/2000/svg" xmlns:xlink="http://www.w3.org/1999/xlink" x="0px" y="0px"
	 viewBox="0 0 48 48" style="enable-background:new 0 0 48 48;" xml:space="preserve">
<style type="text/css">
	.st0{fill:#1A56FF;}
</style>
<path class="st0" d="M16.1,48.1H7.5c-2.6,0-4.8-2.2-4.8-4.8V4.9c0-2.6,2.2-4.8,4.8-4.8h31.1c2.6,0,4.8,2.2,4.8,4.8v11.2
	c0,1-0.8,1.9-1.9,1.9c-1,0-1.9-0.8-1.9-1.9V4.9c0-0.6-0.5-1.1-1.1-1.1H7.5c-0.6,0-1.1,0.5-1.1,1.1v38.4c0,0.6,0.5,1.1,1.1,1.1h8.7
	c1,0,1.9,0.8,1.9,1.9S17.2,48.1,16.1,48.1L16.1,48.1z"/>
<path class="st0" d="M31.1,13.2H12.2c-1,0-1.9-0.8-1.9-1.9s0.8-1.9,1.9-1.9h18.9c1,0,1.9,0.8,1.9,1.9S32.1,13.2,31.1,13.2L31.1,13.2
	z M28.5,22.3H12.2c-1,0-1.9-0.8-1.9-1.9s0.8-1.9,1.9-1.9h16.3c1,0,1.9,0.8,1.9,1.9S29.6,22.3,28.5,22.3L28.5,22.3z M23.2,31.5H12.3
	c-1,0-1.9-0.8-1.9-1.9s0.8-1.9,1.9-1.9h10.9c1,0,1.9,0.8,1.9,1.9S24.2,31.5,23.2,31.5z M21.5,47.8l-0.2-8.5c-0.3-1,0.2-2,0.8-2.7
	l15.2-17.1c0.4-0.5,1-0.8,1.6-0.8c0.7-0.1,1.4,0.2,1.9,0.6l6.3,5.6c1,0.9,1.1,2.5,0.2,3.5l-3.8,4.3c-0.7,0.8-1.8,0.8-2.6,0.2
	c-0.8-0.7-0.8-1.8-0.2-2.6l3-3.4l-4.4-3.9L25,38.9c0,0.1,0,0.2,0,0.3l0.1,4.5l3.9-0.5c0.1-0.1,0.1-0.1,0.2-0.2l0,0l7.8-8.6
	c0.7-0.8,1.9-0.8,2.6-0.1c0.8,0.7,0.8,1.9,0.1,2.6L32,45.5c-0.2,0.2-0.5,0.5-0.8,0.8c-0.7,0.6-1.4,0.7-1.9,0.7
	C29.3,46.9,21.5,47.8,21.5,47.8z M21.4,39.5C21.4,39.5,21.4,39.5,21.4,39.5C21.4,39.5,21.4,39.5,21.4,39.5z"/>
<path class="st0" d="M41.8,33.3c-0.5,0-1-0.2-1.3-0.6l-5.7-5.9c-0.7-0.7-0.7-1.9,0-2.6c0.7-0.7,1.9-0.7,2.6,0l5.7,5.9
	c0.7,0.7,0.7,1.9,0,2.6C42.7,33.1,42.2,33.3,41.8,33.3L41.8,33.3z"/>
</svg>
