<?xml version="1.0" encoding="utf-8"?>
<!-- Generator: Adobe Illustrator 19.0.0, SVG Export Plug-In . SVG Version: 6.00 Build 0)  -->
<svg version="1.1" id="图层_1" xmlns="http://www.w3.org/2000/svg" xmlns:xlink="http://www.w3.org/1999/xlink" x="0px" y="0px"
	 viewBox="-90 45 48 48" style="enable-background:new -90 45 48 48;" xml:space="preserve">
<style type="text/css">
	.st0{fill:#1A56FF;}
	.st1{opacity:0.8;fill:#1A56FF;}
</style>
<g id="XMLID_881_">
	<path id="XMLID_956_" class="st0" d="M-48.2,50.7h-35.2c-3.5,0-6.4,2.9-6.4,6.4v25.6c0,3.5,2.9,6.4,6.4,6.4h35.2
		c3.5,0,6.4-2.9,6.4-6.4V57.1C-41.8,53.5-44.6,50.7-48.2,50.7z M-45,82.7c0,1.8-1.4,3.2-3.2,3.2h-35.2c-1.8,0-3.2-1.4-3.2-3.2V57.1
		c0-1.8,1.4-3.2,3.2-3.2h35.2c1.8,0,3.2,1.4,3.2,3.2V82.7z"/>
	<path id="XMLID_951_" class="st0" d="M-65.8,69.9c0.9,0,1.6-0.7,1.6-1.6s-0.7-1.6-1.6-1.6h-5.6l-0.1-0.1l5.1-5.1
		c0.6-0.7,0.6-1.7-0.1-2.4c-0.6-0.6-1.6-0.6-2.3,0l-5.1,5.1l-5.1-5.1c-0.7-0.6-1.7-0.6-2.4,0.1c-0.6,0.6-0.6,1.6,0,2.3l5.1,5.1
		l-0.1,0.1h-5.6c-0.9,0-1.6,0.7-1.6,1.6s0.7,1.6,1.6,1.6h6.4v3.2h-6.4c-0.9,0-1.6,0.7-1.6,1.6c0,0.9,0.7,1.6,1.6,1.6h6.4v4.8
		c0,0.9,0.7,1.6,1.6,1.6s1.6-0.7,1.6-1.6v-4.8h6.4c0.9,0,1.6-0.7,1.6-1.6c0-0.9-0.7-1.6-1.6-1.6h-6.4v-3.2H-65.8z M-49.8,74.7h-9.6
		c-0.9,0-1.6,0.7-1.6,1.6s0.7,1.6,1.6,1.6h9.6c0.9,0,1.6-0.7,1.6-1.6S-48.9,74.7-49.8,74.7z M-49.8,61.9h-9.6
		c-0.9,0-1.6,0.7-1.6,1.6c0,0.9,0.7,1.6,1.6,1.6h9.6c0.9,0,1.6-0.7,1.6-1.6C-48.2,62.6-48.9,61.9-49.8,61.9z"/>
</g>
<path id="XMLID_887_" class="st1" d="M-49.8,68.3h-9.6c-0.9,0-1.6,0.7-1.6,1.6c0,0.9,0.7,1.6,1.6,1.6h9.6c0.9,0,1.6-0.7,1.6-1.6
	C-48.2,69-48.9,68.3-49.8,68.3z"/>
</svg>
