<?xml version="1.0" encoding="utf-8"?>
<!-- Generator: Adobe Illustrator 19.0.0, SVG Export Plug-In . SVG Version: 6.00 Build 0)  -->
<svg version="1.1" id="图层_1" xmlns="http://www.w3.org/2000/svg" xmlns:xlink="http://www.w3.org/1999/xlink" x="0px" y="0px"
	 viewBox="97 -10 394.5 100" style="enable-background:new 97 -10 394.5 100;" xml:space="preserve">
<style type="text/css">
	.st0{fill:#5B5758;}
	.st1{fill:#0475FF;}
	.st2{fill:#FFFFFF;}
</style>
<g>
	<path class="st0" d="M258.9,5.8v30.6h36.5c1.7,0.2,2.7,1.5,3,3.7c-0.2,2.5-1.2,3.7-3,3.7H260c9.1,12.3,21.5,22.8,37.3,31.4
		c2.5,1.5,3.1,3.3,1.8,5.5c-1.5,2.2-3.4,2.7-5.9,1.5c-14-7.6-25.5-17.2-34.3-28.8v32.5c-0.2,2.5-1.6,3.8-4.1,4.1
		c-2.7-0.2-4.1-1.6-4.1-4.1V54.2c-11.1,12.1-22.4,20.7-34,25.8c-2.7,1-4.7,0.7-5.9-0.7c-1-2.7-0.2-4.8,2.2-6.3
		c15.3-6.9,27.6-16.6,36.9-29.2h-35.4c-2.2,0-3.3-1.2-3.3-3.7c0-2.2,1.1-3.4,3.3-3.7h36.2V5.8c0-2.2,1.3-3.4,4.1-3.7
		C257.3,2.4,258.6,3.6,258.9,5.8z M226.8,8c4.2,5.7,8.1,11.2,11.8,16.6c1.2,2.5,1,4.6-0.7,6.3c-2,1.5-3.7,1.1-5.2-1.1
		c-0.7-0.7-1.4-1.6-1.8-2.6c-3.7-5.2-7.1-9.8-10.3-14c-1.7-2-1.7-3.7,0-5.2C222.7,6.6,224.8,6.6,226.8,8z M281.4,10.3
		c1.7-2.2,3.8-2.7,6.3-1.5c2.2,1.7,2.6,3.8,1.1,6.3c-3.4,5.2-7.1,10.5-11.1,15.9c-2,2.2-4.1,2.7-6.3,1.5c-2-1.7-2.1-3.8-0.4-6.3
		C276.5,18,279.9,12.7,281.4,10.3z"/>
	<path id="Combined-Shape_1_" class="st1" d="M97.1,7.2c-0.7-4.1,2-8,6.1-8.7s8,2,8.7,6.1c3.6,20.7,17.6,33.2,33.8,33.5
		c16.2,0.3,29.5-11.8,32.4-33.3c0.6-4.1,4.4-7,8.5-6.4s7,4.4,6.4,8.5C184.5,69.3,107.6,67.9,97.1,7.2z M179.9,43.7
		c6-5.3,10.7-12,13.7-19.6v59.1c0,3.8-3.1,6.9-6.9,6.9c-3.8,0-6.9-3.1-6.9-6.9V43.7z M138.8,55.9c2.5,0.4,5,0.6,7.5,0.6
		c2.1,0,4.1-0.1,6.2-0.4v27.1c0,3.8-3.1,6.9-6.9,6.9c-3.8,0-6.9-3.1-6.9-6.9V55.9z M99.1,24.1c3,7.6,7.7,14.3,13.7,19.6v39.4
		c0,3.8-3.1,6.9-6.9,6.9c-3.8,0-6.9-3.1-6.9-6.9V24.1z"/>
	<g>
		<path class="st0" d="M332.3,58.2c-2.5,0.2-3.8,1.6-4.1,4.1c-1.2,11.3-8.1,17.4-20.7,18.1c-2.7,0.2-4.1,1.7-4.1,4.4
			c0.5,2.5,2.1,3.7,4.8,3.7c18-2.2,27.2-10.8,27.7-25.8C336,60.2,334.8,58.7,332.3,58.2z"/>
		<path class="st0" d="M379.2,47.9h-3.1c-1.4,0-2.7,0.5-3.6,1.5c-1.1,1.2-1.1,2.5,0,3.7c0.9,1,2.3,1.5,3.6,1.5h4.9
			c4.9,0.5,7.3-1.7,7-6.6V14.3c-0.2-3-1.7-4.7-4.4-5.2h-8.5c-1.8,0.2-2.9,1-3.2,2.4c-0.5,2.2,1.4,4.3,3.6,4.3l2.2,0
			c2.2,0.2,3.4,1.1,3.7,2.6v27C381,47.1,380.2,47.9,379.2,47.9z"/>
		<path class="st0" d="M393.6,72.6c0-2.7-1.4-4.2-4.1-4.4c-2.7,0.2-3.9,1.7-3.7,4.4c0.2,5.9-1.7,8.7-5.9,8.5h-7.4
			c-4.7-0.2-7.1-1.7-7.4-4.4V61.2c-0.2-2-1.4-3.1-3.3-3.3c-2.2,0.2-3.3,1.4-3.3,3.3v17.4c0,6.1,4.4,9.4,13.3,9.6h8.1
			C389.8,88.9,394.4,83.7,393.6,72.6z"/>
		<path class="st0" d="M317.2,55.3l2.2-1.1c2.7-1,4.6-1.8,5.5-2.6c2.2-1.5,3-3.2,2.2-5.2c-1-2.2-2.6-2.7-4.8-1.5
			c-1.5,1-3,1.8-4.4,2.6c-1.2,0.5-1.8,0.6-1.8,0.4c-0.5,0-0.6-0.7-0.4-2.2V19.5c-0.5-1.5,0.9-2.7,4.1-3.7c2-0.7,3.7-1.5,5.2-2.2
			c2-1,2.6-2.6,1.8-4.8c-1.2-1.7-2.8-2.2-4.8-1.5c-2,1-4.3,1.8-7,2.6c-4.2,1.2-6.3,3.7-6.3,7.4V49C308.5,55.7,311.3,57.8,317.2,55.3
			z"/>
		<path class="st0" d="M335.3,54.2h24.4c5.7,0.5,8.4-2.6,8.1-9.2V18.4c0-4.7-2.1-7.1-6.3-7.4h-27c-3.9,0.2-5.9,2.3-5.9,6.3v30.6
			C328.7,52.3,330.9,54.4,335.3,54.2z M335.3,20.2c0-1.5,0.9-2.5,2.6-3h20.7c1.7,0,2.6,1.1,2.6,3.3v23.6c-0.2,2.2-1.1,3.3-2.6,3.3
			h-20.3c-2,0-3-1-3-3V20.2z"/>
	</g>
	<path class="st0" d="M357.3,35.2h-18.2c-1.8,0-3.3-1.5-3.3-3.3v0c0-1.8,1.5-3.3,3.3-3.3h18.2c1.8,0,3.3,1.5,3.3,3.3v0
		C360.6,33.7,359.2,35.2,357.3,35.2z"/>
	<path class="st0" d="M354.4,6.8H336c-1.5,0-2.8-1.3-2.8-2.8v0c0-1.5,1.3-2.8,2.8-2.8h18.4c1.5,0,2.8,1.3,2.8,2.8v0
		C357.2,5.5,355.9,6.8,354.4,6.8z"/>
</g>
<g>
	<path class="st1" d="M130.6,4l13.6-13.6c0.5-0.5,1.4-0.5,1.9,0L159.6,4c0.5,0.5,0.5,1.4,0,1.9l-13.6,13.6c-0.5,0.5-1.4,0.5-1.9,0
		L130.6,5.9C130,5.4,130,4.5,130.6,4z"/>
	<path class="st2" d="M136.4,4.9c2.2,0.5,4.1,1.6,5.7,3.2c1.6,1.6,2.6,3.4,3.1,5.5c0.5-2.3,1.5-4.1,2.9-5.5c1.4-1.4,3.4-2.5,5.8-3.2
		c-2.4-0.6-4.3-1.7-5.8-3.2s-2.5-3.3-2.9-5.5c-0.6,2.2-1.6,4.1-3.1,5.5S138.7,4.2,136.4,4.9z"/>
</g>
</svg>
