<?xml version="1.0" encoding="utf-8"?>
<!-- Generator: Adobe Illustrator 19.0.0, SVG Export Plug-In . SVG Version: 6.00 Build 0)  -->
<svg version="1.1" id="图层_1" xmlns="http://www.w3.org/2000/svg" xmlns:xlink="http://www.w3.org/1999/xlink" x="0px" y="0px"
	 viewBox="-35 -24 128 128" style="enable-background:new -35 -24 128 128;" xml:space="preserve">
<style type="text/css">
	.st0{fill:#3D86E4;}
	.st1{fill:#FFFFFF;}
</style>
<g id="logo">
	<rect id="Rectangle" x="-35" y="-24" class="st0" width="128" height="128"/>
	<path id="Combined-Shape" class="st1" d="M18.4,13.7l9.9-9.9c0.4-0.4,1-0.4,1.4,0l9.9,9.9c0.4,0.4,0.4,1,0,1.4L29.7,25
		c-0.4,0.4-1,0.4-1.4,0l-9.9-9.9C18,14.7,18,14.1,18.4,13.7z M22.6,15.1c1.6,0.4,3,1.2,4.1,2.3c1.1,1.1,1.9,2.5,2.2,4
		c0.4-1.7,1.1-3,2.1-4s2.4-1.8,4.2-2.3c-1.7-0.5-3.1-1.3-4.2-2.4s-1.8-2.4-2.1-4c-0.4,1.6-1.2,3-2.2,4S24.4,14.6,22.6,15.1z
		 M-6.9,16.1c-0.5-3,1.5-5.8,4.5-6.4s5.8,1.5,6.4,4.5c2.6,15.1,12.9,24.3,24.7,24.5c11.8,0.2,21.5-8.6,23.7-24.3
		c0.4-3,3.2-5.1,6.2-4.7s5.1,3.2,4.7,6.2C56.9,61.4,0.7,60.4-6.9,16.1z M53.5,42.7c4.4-3.9,7.8-8.8,10-14.3v43.1c0,2.8-2.2,5-5,5
		s-5-2.2-5-5V42.7z M23.5,51.6c1.8,0.3,3.6,0.4,5.5,0.4c1.5,0,3-0.1,4.5-0.3v19.8c0,2.8-2.2,5-5,5c-2.8,0-5-2.2-5-5V51.6z
		 M-5.5,28.4c2.2,5.6,5.6,10.5,10,14.3v28.8c0,2.8-2.2,5-5,5s-5-2.2-5-5V28.4z"/>
</g>
</svg>
