<?xml version="1.0" encoding="utf-8"?>
<!-- Generator: Adobe Illustrator 16.0.0, SVG Export Plug-In . SVG Version: 6.00 Build 0)  -->
<!DOCTYPE svg PUBLIC "-//W3C//DTD SVG 1.1//EN" "http://www.w3.org/Graphics/SVG/1.1/DTD/svg11.dtd">
<svg version="1.1" id="图层_1" xmlns="http://www.w3.org/2000/svg" xmlns:xlink="http://www.w3.org/1999/xlink" x="0px" y="0px"
	 width="60px" height="60px" viewBox="0 0 60 60" enable-background="new 0 0 60 60" xml:space="preserve">
<linearGradient id="SVGID_1_" gradientUnits="userSpaceOnUse" x1="297.6602" y1="-329.96" x2="297.6602" y2="-389.9604" gradientTransform="matrix(1 0 0 -1 -267.6602 -329.96)">
	<stop  offset="0" style="stop-color:#FF2A30"/>
	<stop  offset="1" style="stop-color:#FF9497"/>
</linearGradient>
<path fill="url(#SVGID_1_)" d="M60,51c0,4.971-4.029,9-9,9H9c-4.971,0-9-4.029-9-9V9c0-4.971,4.029-9,9-9h42c4.971,0,9,4.029,9,9V51
	z"/>
<g>
	<path fill="#FFFFFF" d="M42.713,28.629v-0.978c0-8.605-5.671-13.298-12.713-13.298s-12.713,4.693-12.713,13.298v1.371
		c0,0.393,0,0.584,0.196,0.781C18.27,37.823,23.547,45.643,30,45.643s11.734-8.021,12.518-15.839
		c0.195-0.393,0.195-0.585,0.195-0.781V28.629z M30.979,31.956v-5.868c6.063,0.197,9.387,1.759,9.779,2.737v0.197
		C40.369,30.197,37.042,31.76,30.979,31.956L30.979,31.956z M19.444,29.219v-0.393c0.394-0.978,3.716-2.541,9.583-2.737v5.868
		C23.352,31.76,19.833,30.197,19.444,29.219L19.444,29.219z M40.561,26.285c-2.151-1.175-5.867-1.956-9.582-1.956v-8.02
		C36.457,16.703,40.173,20.614,40.561,26.285L40.561,26.285z M29.022,16.31v7.823c-3.715,0.196-7.431,0.781-9.583,1.956
		C20.029,20.614,23.548,16.894,29.022,16.31z M19.833,31.956c2.152,1.175,5.671,1.759,9.189,1.956v9.779
		C24.919,42.904,21.204,37.823,19.833,31.956z M30.979,43.686v-9.778c3.52,0,7.043-0.781,9.189-1.955
		C38.998,38.016,35.087,42.904,30.979,43.686z"/>
	<path fill="#FFFFFF" d="M51.613,51.259H40.448c-0.552,0-0.944-0.394-0.944-0.942c0-0.551,0.473-0.943,0.944-0.943h10.143v-8.964
		c0-0.552,0.472-0.943,0.943-0.943c0.55,0,0.942,0.394,0.942,0.943v9.907C52.557,50.865,52.163,51.259,51.613,51.259L51.613,51.259z
		 M51.573,20.929c-0.55,0-0.943-0.393-0.943-0.943v-9.357H40.408c-0.551,0-0.943-0.393-0.943-0.943c0-0.55,0.473-0.943,0.943-0.943
		h11.087c0.55,0,0.942,0.393,0.942,0.943v10.3C52.518,20.536,52.124,20.929,51.573,20.929z M18.57,10.628H9.449v9.357
		c0,0.55-0.472,0.943-0.943,0.943c-0.551,0-0.943-0.393-0.943-0.943v-10.3c0-0.55,0.472-0.943,0.943-0.943h10.143
		c0.551,0,0.943,0.393,0.943,0.943C19.592,10.235,19.12,10.628,18.57,10.628z M8.427,39.387c0.551,0,0.943,0.393,0.943,0.943v8.963
		h9.2c0.55,0,0.943,0.395,0.943,0.943c0,0.551-0.472,0.943-0.943,0.943H8.427c-0.55,0-0.943-0.394-0.943-0.943v-9.828
		C7.483,39.857,7.877,39.387,8.427,39.387z M51.613,51.573H40.448c-0.695,0-1.259-0.563-1.259-1.259
		c0-0.694,0.563-1.258,1.259-1.258h9.827v-8.648c0-0.694,0.563-1.258,1.258-1.26c0.693,0,1.258,0.563,1.259,1.258v0.002v9.906
		C52.871,51.023,52.32,51.573,51.613,51.573L51.613,51.573z M52.242,40.408c0-0.348-0.282-0.629-0.629-0.629
		c-0.348,0-0.631,0.281-0.631,0.629v9.277H40.448c-0.349,0-0.63,0.281-0.63,0.629c0,0.349,0.281,0.629,0.63,0.629h11.086
		c0.343,0.006,0.624-0.269,0.629-0.61c0-0.006,0-0.013,0-0.019v-9.906H52.242L52.242,40.408z M51.573,21.243
		c-0.687,0.009-1.249-0.54-1.259-1.226c0-0.011,0-0.021,0-0.032v-9.042h-9.906c-0.686,0.009-1.249-0.54-1.258-1.225
		c0-0.011,0-0.022,0-0.033C39.143,9,39.689,8.436,40.376,8.427c0.011,0,0.021,0,0.032,0h11.087c0.786,0,1.336,0.551,1.336,1.258
		v10.3c0.01,0.686-0.539,1.249-1.226,1.258C51.596,21.243,51.584,21.243,51.573,21.243L51.573,21.243z M52.202,9.685
		c0.005-0.342-0.269-0.624-0.61-0.629c-0.007,0-0.013,0-0.019,0H40.408c-0.342-0.005-0.624,0.269-0.629,0.611
		c0,0.006,0,0.012,0,0.018c-0.006,0.342,0.269,0.624,0.611,0.629c0.006,0,0.012,0,0.018,0h10.458v9.671
		c0,0.347,0.28,0.629,0.629,0.629c0.347,0,0.629-0.282,0.629-0.629v-10.3H52.202z M18.57,10.943H9.764v9.042
		c0.009,0.686-0.54,1.249-1.226,1.258c-0.011,0-0.021,0-0.032,0c-0.686,0.009-1.249-0.54-1.258-1.226
		c-0.001-0.011-0.001-0.021,0-0.032v-10.3C7.169,8.978,7.72,8.427,8.427,8.427H18.57c0.686-0.009,1.249,0.54,1.258,1.226
		c0,0.011,0,0.021,0,0.033C19.906,10.393,19.277,10.943,18.57,10.943z M18.57,9.056H8.427C8.085,9.051,7.803,9.325,7.798,9.667
		c0,0.006,0,0.012,0,0.018v10.3c-0.005,0.342,0.269,0.624,0.611,0.629c0.006,0,0.012,0,0.018,0c0.343,0.005,0.624-0.269,0.629-0.611
		c0.001-0.006,0.001-0.012,0-0.018v-9.671h9.515c0.342,0.005,0.624-0.269,0.629-0.611c0-0.006,0-0.012,0-0.018
		C19.277,9.292,18.963,9.056,18.57,9.056z M8.427,39.15c0.688-0.01,1.249,0.539,1.258,1.225c0.001,0.012,0.001,0.021,0,0.033v8.648
		h8.886c0.694,0,1.258,0.563,1.258,1.258s-0.563,1.259-1.258,1.259H8.427c-0.686,0.009-1.249-0.539-1.258-1.226
		c0-0.012,0-0.021,0-0.033v-9.906c-0.009-0.686,0.54-1.249,1.226-1.258C8.405,39.15,8.416,39.15,8.427,39.15z M7.798,50.314
		c-0.005,0.344,0.269,0.625,0.611,0.629c0.006,0,0.012,0,0.018,0H18.57c0.347,0,0.629-0.28,0.629-0.629
		c0-0.348-0.282-0.629-0.629-0.629H9.135v-9.277c0.005-0.342-0.269-0.623-0.611-0.629c-0.006,0-0.012,0-0.018,0
		c-0.343-0.006-0.624,0.27-0.629,0.611c0,0.006,0,0.012,0,0.018v9.906H7.798z"/>
</g>
</svg>
