<?xml version="1.0" encoding="utf-8"?>
<!-- Generator: Adobe Illustrator 16.0.0, SVG Export Plug-In . SVG Version: 6.00 Build 0)  -->
<!DOCTYPE svg PUBLIC "-//W3C//DTD SVG 1.1//EN" "http://www.w3.org/Graphics/SVG/1.1/DTD/svg11.dtd">
<svg version="1.1" id="图层_1" xmlns="http://www.w3.org/2000/svg" xmlns:xlink="http://www.w3.org/1999/xlink" x="0px" y="0px"
	 width="60px" height="60px" viewBox="0 0 60 60" enable-background="new 0 0 60 60" xml:space="preserve">
<g>
	
		<linearGradient id="SVGID_1_" gradientUnits="userSpaceOnUse" x1="297.6602" y1="-329.96" x2="297.6602" y2="-389.9604" gradientTransform="matrix(1 0 0 -1 -267.6602 -329.96)">
		<stop  offset="0" style="stop-color:#5D5D5D"/>
		<stop  offset="1" style="stop-color:#999999"/>
	</linearGradient>
	<path fill="url(#SVGID_1_)" d="M60,51c0,4.971-4.029,9-9,9H9c-4.971,0-9-4.029-9-9V9c0-4.971,4.029-9,9-9h42c4.971,0,9,4.029,9,9
		V51z"/>
	<path opacity="0.9" fill="#FFFFFF" enable-background="new    " d="M47.992,15.522c-3.303-2.894-8.146-4.356-14.396-4.356h-7.369
		v34.668h7.369c6.25,0,11.104-1.467,14.396-4.352C51.27,38.613,53,34.127,53,28.507C52.996,22.882,51.266,18.384,47.992,15.522
		 M44.208,37.77c-2.203,2.01-5.556,3.037-9.97,3.037h-2.563V16.223h2.563c4.414,0,7.771,1.022,9.97,3.025
		c2.159,1.966,3.298,5.164,3.298,9.265C47.502,32.602,46.367,35.797,44.208,37.77L44.208,37.77L44.208,37.77z M16.694,32.083
		c0,2.282-0.152,3.89-0.455,4.782c-0.283,0.844-0.776,1.553-1.456,2.092c-0.824,0.629-1.833,1.094-2.991,1.391
		c-1.132,0.289-2.554,0.438-4.213,0.453H7v5.021h0.553c0.127,0.008,0.228,0,0.268,0c4.813,0,8.584-1.023,10.919-3.023
		c2.389-2.051,3.599-5.15,3.599-9.24V11.174h-5.643L16.694,32.083L16.694,32.083z"/>
</g>
</svg>
