<?xml version="1.0" encoding="utf-8"?>
<!-- Generator: Adobe Illustrator 16.0.0, SVG Export Plug-In . SVG Version: 6.00 Build 0)  -->
<!DOCTYPE svg PUBLIC "-//W3C//DTD SVG 1.1//EN" "http://www.w3.org/Graphics/SVG/1.1/DTD/svg11.dtd">
<svg version="1.1" id="图层_1" xmlns="http://www.w3.org/2000/svg" xmlns:xlink="http://www.w3.org/1999/xlink" x="0px" y="0px"
	 width="60px" height="60px" viewBox="0 0 60 60" enable-background="new 0 0 60 60" xml:space="preserve">
<linearGradient id="SVGID_1_" gradientUnits="userSpaceOnUse" x1="297.6602" y1="-389.9595" x2="297.6602" y2="-329.96" gradientTransform="matrix(1 0 0 -1 -267.6602 -329.96)">
	<stop  offset="0.0035" style="stop-color:#FF8900"/>
	<stop  offset="1" style="stop-color:#FF5000"/>
</linearGradient>
<path fill="url(#SVGID_1_)" d="M60,51c0,4.971-4.029,9-9,9H9c-4.971,0-9-4.029-9-9V9c0-4.971,4.029-9,9-9h42c4.971,0,9,4.029,9,9V51
	z"/>
<path fill="#FFFFFF" d="M24.24,36.18c-0.2-0.156-1.794-1.361-6.214-1.654c-0.243-0.021-0.488-0.193-0.704-0.338
	c-0.275-0.184-0.561-0.375-0.769-0.623c-0.339-0.403-0.721-0.743-1.042-1.191c-2.149-2.996-4.256-3.598-4.57-3.717
	c-0.42-0.202-2.026,0.047-1.254,1.118c0.049,0.008,2.457,3.392,2.613,3.661c0.276,0.479,0.59,0.674,0.884,1.008
	c0.269,0.307,0.565,0.589,0.84,0.89c0,0-1.54-0.912-1.909-1.312c-0.164-0.181-0.243-0.437-0.374-0.648
	c-0.152-0.244-0.312-0.484-0.478-0.721c-0.204-0.295-0.414-0.586-0.632-0.873c-0.278-0.363-0.568-0.719-0.855-1.075
	c-0.179-0.222-0.381-0.437-0.528-0.669c-0.729-1.149,0.104-1.839,0.896-1.926c-0.038-0.132-0.402-3.612-0.467-4.196
	c-0.182-1.678-0.36-2.92-1.322-3.258c-0.248-0.088-0.423-0.059-0.608,0.137c-0.218,0.229-0.349,1.447-0.411,2.219
	c0,0-0.421,4.134-0.319,6.063c0.054,1.034,3.268,8.151,4.19,9.25c0.923,1.1,8.145,5.263,8.145,5.263
	c0.242,0.201,1.579,1.23,1.579,2.581v2.931l7.785,0.01l0.007-2.689c0.019-0.497,0.103-0.99,0.162-1.486
	c0.17-0.564,0.034-1.635-0.045-2.05C27.935,38.844,24.604,36.46,24.24,36.18z M52.664,23.009c-0.063-0.771-0.192-1.988-0.411-2.219
	c-0.186-0.193-0.359-0.225-0.607-0.137c-0.961,0.339-1.142,1.581-1.322,3.259c-0.064,0.584-0.428,4.063-0.467,4.196
	c0.791,0.087,1.623,0.773,0.896,1.926c-0.147,0.232-0.349,0.446-0.528,0.669c-0.287,0.355-0.576,0.712-0.855,1.074
	c-0.217,0.287-0.428,0.578-0.631,0.873c-0.165,0.236-0.324,0.477-0.477,0.722c-0.132,0.213-0.211,0.469-0.375,0.647
	c-0.369,0.399-1.91,1.312-1.91,1.312c0.274-0.301,0.571-0.582,0.84-0.888c0.295-0.336,0.607-0.53,0.885-1.008
	c0.156-0.271,2.564-3.654,2.613-3.662c0.771-1.071-0.834-1.32-1.254-1.118c-0.314,0.118-2.422,0.721-4.569,3.716
	c-0.321,0.449-0.704,0.789-1.042,1.191c-0.208,0.248-0.494,0.44-0.77,0.623c-0.217,0.146-0.461,0.317-0.703,0.338
	c-4.422,0.293-6.015,1.498-6.215,1.654c-0.365,0.281-3.695,2.664-4.6,6.7c-0.079,0.415-0.215,1.483-0.045,2.05
	c0.06,0.494,0.145,0.988,0.162,1.485l0.006,2.688l7.785-0.008v-2.932c0-1.352,1.338-2.38,1.578-2.581c0,0,7.224-4.162,8.146-5.263
	c0.923-1.1,4.137-8.215,4.189-9.25C53.085,27.144,52.664,23.009,52.664,23.009L52.664,23.009z M34.69,32.203
	c3.695-3.475,8.279-7.788,8.91-11.628c0.44-2.715,0.01-4.952-1.285-6.651c-1.308-1.715-3.295-2.693-6.078-2.992
	c-0.252-0.025-0.504-0.039-0.756-0.039c-1.969,0-3.957,0.732-5.482,1.972c-1.524-1.238-3.514-1.972-5.481-1.972
	c-0.243,0-0.487,0.013-0.756,0.039c-2.783,0.299-4.771,1.277-6.078,2.992c-1.295,1.699-1.727,3.938-1.285,6.651
	c0.63,3.84,5.216,8.153,8.909,11.628c0,0,1.842,1.85,2.396,2.322c0.416,0.357,1.319,1.078,2.297,1.078s1.879-0.721,2.296-1.078
	C32.851,34.053,34.69,32.203,34.69,32.203L34.69,32.203z M25.311,15.473c-2.353,0-4.268,1.702-4.268,3.796
	c0,0.636-0.515,1.149-1.15,1.149c-0.635,0-1.149-0.515-1.149-1.149c0-3.361,2.946-6.097,6.567-6.097c0.636,0,1.15,0.516,1.15,1.15
	S25.945,15.473,25.311,15.473L25.311,15.473z"/>
</svg>
