<?xml version="1.0" encoding="utf-8"?>
<!-- Generator: Adobe Illustrator 16.0.0, SVG Export Plug-In . SVG Version: 6.00 Build 0)  -->
<!DOCTYPE svg PUBLIC "-//W3C//DTD SVG 1.1//EN" "http://www.w3.org/Graphics/SVG/1.1/DTD/svg11.dtd">
<svg version="1.1" id="图层_1" xmlns="http://www.w3.org/2000/svg" xmlns:xlink="http://www.w3.org/1999/xlink" x="0px" y="0px"
	 width="60px" height="60px" viewBox="0 0 60 60" enable-background="new 0 0 60 60" xml:space="preserve">
<linearGradient id="SVGID_1_" gradientUnits="userSpaceOnUse" x1="30.0005" y1="60" x2="30.0005" y2="4.882813e-004">
	<stop  offset="0" style="stop-color:#FF8A00"/>
	<stop  offset="1" style="stop-color:#FF5000"/>
</linearGradient>
<path fill="url(#SVGID_1_)" d="M60,51c0,4.971-4.029,9-9,9H9c-4.971,0-9-4.029-9-9V9c0-4.971,4.029-9,9-9h42c4.971,0,9,4.029,9,9V51
	z"/>
<path fill="#FFFFFF" d="M11.544,21.982l-2.596,4.007l4.81,2.991c0,0,3.199,1.641,1.679,4.708C13.995,36.599,7,42.963,7,42.963
	l6.278,3.914c4.329-9.408,4.056-8.15,5.149-11.536c1.118-3.454,1.355-6.087-0.54-7.987C15.441,24.901,15.178,24.675,11.544,21.982
	L11.544,21.982z M27.677,16.907c0.992-1.725,1.471-2.849,1.471-2.849l-5.791-1.624c0,0-2.335,7.62-6.5,11.174
	c0,0,4.028,2.324,3.981,2.256c1.16-1.154,2.191-2.328,3.098-3.469c0.921-0.402,1.815-0.782,2.684-1.137
	c-1.068,1.928-2.802,4.816-4.532,6.637l2.438,2.134c0,0,1.661-1.595,3.478-3.524h2.072v3.554h-8.079v2.843h8.079v6.817
	c-0.102-0.005-0.204-0.005-0.304-0.012c-0.893-0.045-2.282-0.194-2.824-1.047c-0.661-1.043-0.178-2.961-0.144-4.133h-5.564
	l-0.206,0.103c0,0-2.031,9.142,5.893,8.938c7.42,0.2,11.674-2.063,13.714-3.634l0.812,3.025l4.577-1.897l-3.091-7.588l-3.721,1.156
	l0.698,2.601c-0.96,0.709-2.063,1.243-3.238,1.636v-5.966h7.878V30.06h-7.878v-3.554h7.91v-2.845H30.534
	c1.012-1.229,1.81-2.358,2.019-3.079l-2.443-0.663c10.504-3.761,16.359-3.114,16.304,3.049v16.251c0,0,0.629,5.589-5.771,5.182
	l-3.453-0.743l-0.813,3.283c0,0,14.931,4.266,16.151-7.216c1.219-11.477-0.305-18.791-0.305-18.791S50.874,10.339,27.677,16.907
	L27.677,16.907z M14.976,20.486c2.282,0,4.132-1.835,4.132-4.101c0-2.262-1.851-4.1-4.132-4.1c-2.28,0-4.131,1.838-4.131,4.1
	C10.845,18.65,12.695,20.486,14.976,20.486z"/>
</svg>
