<?xml version="1.0" encoding="utf-8"?>
<!-- Generator: Adobe Illustrator 16.0.0, SVG Export Plug-In . SVG Version: 6.00 Build 0)  -->
<!DOCTYPE svg PUBLIC "-//W3C//DTD SVG 1.1//EN" "http://www.w3.org/Graphics/SVG/1.1/DTD/svg11.dtd">
<svg version="1.1" id="图层_1" xmlns="http://www.w3.org/2000/svg" xmlns:xlink="http://www.w3.org/1999/xlink" x="0px" y="0px"
	 width="60px" height="60px" viewBox="0 0 60 60" enable-background="new 0 0 60 60" xml:space="preserve">
<linearGradient id="SVGID_1_" gradientUnits="userSpaceOnUse" x1="-1644.1401" y1="2403.3594" x2="-1644.1401" y2="2463.3604" gradientTransform="matrix(1 0 0 1 1674.1396 -2403.3604)">
	<stop  offset="0" style="stop-color:#5D5D5D"/>
	<stop  offset="1" style="stop-color:#999999"/>
</linearGradient>
<path fill="url(#SVGID_1_)" d="M60,51c0,4.971-4.029,9-9,9H9c-4.971,0-9-4.029-9-9V9c0-4.971,4.029-9,9-9h42c4.971,0,9,4.029,9,9V51
	z"/>
<g>
	<path fill="#FFFFFF" d="M7.757,28.864c0,0,8.562-4.045,14.672,1.506c1.291-0.989,2.452-2.065,4.174-2.366
		c-0.259-1.334-0.86-2.281-0.86-2.281s-2.501,1.065-3.625,2.189C20.783,27.095,14.469,23.099,7.757,28.864z"/>
	<path fill="#FFFFFF" d="M30,25.205c-0.887,0-1.755,0.082-2.6,0.231l2.797,2.441c0.016,0,0.031,0.001,0.047,0.002l2.898,2.49
		l0.131-2.047c5.136,1.429,8.905,6.136,8.905,11.728c0,6.727-5.452,12.179-12.179,12.179s-12.179-5.452-12.179-12.179
		c0-3.356,1.358-6.396,3.556-8.599l-2.438-1.3c-2.353,2.626-3.784,6.095-3.784,9.898c0,8.199,6.646,14.847,14.846,14.847
		s14.846-6.647,14.846-14.847S38.199,25.205,30,25.205z"/>
	<path fill="#FFFFFF" d="M30.131,31.102c-5.229,0-9.467,4.237-9.467,9.466c0,5.228,4.238,9.466,9.467,9.466s9.466-4.238,9.466-9.466
		C39.597,35.339,35.359,31.102,30.131,31.102z M35.691,39.868v2.044h-3.473l-0.445,0.708v0.629h3.918v1.965h-3.918v2.752h-3.473
		v-2.752h-4.008v-1.965h4.008V42.62l-0.445-0.708h-3.473l-0.09-2.044h2.85l-2.85-5.818h3.651l2.315,6.054l2.404-6.054h3.562
		l-2.85,5.818H35.691z"/>
	<path fill="#FFFFFF" d="M31.131,8.663V6.038c0-0.517-0.418-0.936-0.936-0.936c-0.517,0-0.936,0.419-0.936,0.936v2.62
		C17.9,9.089,8.6,17.609,7,29.434c2.478-3.667,6.316-9.383,15.45-6.034c0.839-0.517,7.745-6.583,16.78-0.193
		c1.151-0.182,8.692-2.625,13.77,5.852C51.376,16.832,41.31,9.105,31.131,8.663z M21.998,21.42
		c-1.247-8.476,6.283-11.315,6.283-11.315C21.525,14.02,22.171,20.259,21.998,21.42z M39.123,21.42
		c-0.387-9.121-6.324-11.144-6.324-11.144C39.554,12.213,39.468,19.656,39.123,21.42z"/>
</g>
</svg>
