<?xml version="1.0" encoding="utf-8"?>
<!-- Generator: Adobe Illustrator 16.0.0, SVG Export Plug-In . SVG Version: 6.00 Build 0)  -->
<!DOCTYPE svg PUBLIC "-//W3C//DTD SVG 1.1//EN" "http://www.w3.org/Graphics/SVG/1.1/DTD/svg11.dtd">
<svg version="1.1" id="图层_1" xmlns="http://www.w3.org/2000/svg" xmlns:xlink="http://www.w3.org/1999/xlink" x="0px" y="0px"
	 width="200px" height="200px" viewBox="0 0 200 200" enable-background="new 0 0 200 200" xml:space="preserve">
<g>
	<circle fill="#0089E5" cx="100" cy="100" r="100"/>
	<path fill="#FFFFFF" d="M111.792,48.889c7.862,15.306,19.97,24.499,36.319,27.597c16.349,3.098,18.773,10.928,7.291,23.488
		c-11.483,12.562-16.098,27.428-13.857,44.654c2.223,17.226-4.143,22.058-19.095,14.515c-14.951-7.543-29.92-7.543-44.889,0
		c-14.969,7.543-21.316,2.693-19.094-14.515c2.223-17.226-2.391-32.11-13.875-44.654c-11.483-12.561-9.042-20.39,7.291-23.488
		c16.349-3.098,28.456-12.292,36.319-27.597C96.049,33.583,103.93,33.583,111.792,48.889z"/>
</g>
</svg>
