<?xml version="1.0" encoding="utf-8"?>
<!-- Generator: Adobe Illustrator 16.0.0, SVG Export Plug-In . SVG Version: 6.00 Build 0)  -->
<!DOCTYPE svg PUBLIC "-//W3C//DTD SVG 1.1//EN" "http://www.w3.org/Graphics/SVG/1.1/DTD/svg11.dtd">
<svg version="1.1" id="图层_1" xmlns="http://www.w3.org/2000/svg" xmlns:xlink="http://www.w3.org/1999/xlink" x="0px" y="0px"
	 width="200px" height="200px" viewBox="0 0 200 200" enable-background="new 0 0 200 200" xml:space="preserve">
<circle fill="#0089E5" cx="100" cy="100" r="100"/>
<path fill="#FFFFFF" d="M138.526,120.586c1.526,0,2.804,0.313,3.836,0.941s1.861,1.436,2.489,2.423
	c0.628,0.986,1.076,2.107,1.346,3.364c0.27,1.255,0.403,2.511,0.403,3.768v9.42c0,2.332-0.784,4.373-2.354,6.122
	c-1.57,1.75-3.79,2.625-6.661,2.625H45.54c-1.974,0-3.791-0.718-5.45-2.153c-1.659-1.437-2.489-3.364-2.489-5.786v-11.17
	c0-2.781,0.875-5.068,2.624-6.862c1.75-1.795,3.88-2.691,6.392-2.691H138.526L138.526,120.586z M137.585,87.347
	c1.614,0,2.982,0.292,4.104,0.875c1.121,0.583,2.063,1.324,2.826,2.221c0.762,0.897,1.301,1.929,1.615,3.095
	c0.313,1.166,0.47,2.288,0.47,3.364v7.536c0,2.602-0.695,4.776-2.085,6.525c-1.391,1.75-3.79,2.625-7.2,2.625H46.212
	c-2.422,0-4.463-0.875-6.123-2.625c-1.659-1.749-2.489-3.7-2.489-5.853v-9.42c0-2.333,0.785-4.306,2.355-5.921
	s3.521-2.422,5.854-2.422H137.585z M152.118,51.551c2.512,0,4.62,1.009,6.325,3.028c1.704,2.019,2.557,4.329,2.557,6.931v8.208
	c0,2.871-0.83,5.36-2.489,7.468c-1.659,2.108-3.791,3.163-6.393,3.163H60.477c-2.333,0-4.352-0.83-6.056-2.49
	c-1.705-1.66-2.557-3.655-2.557-5.988V60.298c0-2.512,0.763-4.598,2.288-6.257c1.525-1.66,3.454-2.49,5.786-2.49H152.118
	L152.118,51.551z"/>
</svg>
