<?xml version="1.0" encoding="utf-8"?>
<!-- Generator: Adobe Illustrator 16.0.0, SVG Export Plug-In . SVG Version: 6.00 Build 0)  -->
<!DOCTYPE svg PUBLIC "-//W3C//DTD SVG 1.1//EN" "http://www.w3.org/Graphics/SVG/1.1/DTD/svg11.dtd">
<svg version="1.1" id="图层_1" xmlns="http://www.w3.org/2000/svg" xmlns:xlink="http://www.w3.org/1999/xlink" x="0px" y="0px"
	 width="200px" height="200px" viewBox="0 0 200 200" enable-background="new 0 0 200 200" xml:space="preserve">
<g>
	<linearGradient id="SVGID_1_" gradientUnits="userSpaceOnUse" x1="70.5791" y1="79.4761" x2="129.4141" y2="79.4761">
		<stop  offset="0" style="stop-color:#3581FF"/>
		<stop  offset="1" style="stop-color:#176DFF"/>
	</linearGradient>
	<path fill="url(#SVGID_1_)" d="M116.278,36.305c-4.044,0-7.886-3.032-8.694-7.077c-0.809-4.246,1.415-8.29,5.459-9.907l0.607-0.203
		l1.213-0.606h2.628l0.203,0.202c0.403,0.202,1.213,0.607,1.617,0.607c4.044,1.617,6.471,5.661,5.662,10.11
		C124.164,33.069,120.524,36.305,116.278,36.305z M100.102,140.441c-3.235,0-6.269-2.83-6.269-6.066v-3.033v-2.829v-6.066H76.848
		c-1.617,0-3.033-0.608-4.246-1.82c-1.213-1.213-1.82-3.033-1.82-4.65c0.202-3.438,2.831-6.271,6.066-6.271h16.784v-0.201v-5.257
		H76.646c-3.234,0-6.066-2.831-6.066-6.066c0-1.618,0.607-3.236,1.82-4.651c1.213-1.213,2.629-1.819,4.246-1.819h10.92l-0.202-0.404
		c-2.225-3.64-4.449-7.482-6.472-11.122l-0.202-0.404l-7.278-12.133c-0.607-1.011-2.428-3.841-0.203-6.47
		c1.214-1.618,3.235-2.426,5.459-2.426c0.81,0,1.618,0.201,2.225,0.403c2.63,1.012,4.247,3.438,5.056,5.056
		c3.033,5.459,6.065,10.718,9.099,15.974l4.854,8.694l3.641-6.47l3.032-5.258c2.225-4.044,4.65-8.088,6.875-12.132
		c0.809-1.617,2.225-3.234,3.64-4.449c1.011-0.808,2.427-1.415,3.641-1.415c2.628,0,5.257,1.618,6.269,4.044
		c0.605,1.415,0.201,3.236-0.405,4.247c-3.033,5.257-6.066,10.515-9.1,15.57l-2.224,3.841l-3.033,5.46h10.919
		c3.235,0,5.864,2.832,5.864,6.269c0,3.641-2.629,6.269-5.864,6.269H106.37v-0.203v5.259h16.783c3.033,0,5.46,2.021,6.066,4.852
		c0.81,2.832-1.012,6.27-3.64,7.482c-0.606,0.404-1.416,0.404-2.022,0.404H106.37v3.843c-0.202,3.033,0,5.458,0,7.885
		c0.202,1.215-0.404,2.832-1.617,3.843C103.742,139.431,101.72,140.441,100.102,140.441L100.102,140.441z"/>
	<linearGradient id="SVGID_2_" gradientUnits="userSpaceOnUse" x1="17.1963" y1="100" x2="182.8037" y2="100">
		<stop  offset="0" style="stop-color:#3581FF"/>
		<stop  offset="1" style="stop-color:#176DFF"/>
	</linearGradient>
	<path fill="url(#SVGID_2_)" d="M98.079,182.5c-3.842,0-6.875-3.033-7.077-7.077c0-4.044,2.831-7.077,7.077-7.278
		c1.214-0.202,2.225-0.202,3.236-0.202c2.021,0,4.044-0.203,6.065-0.404c12.538-1.215,23.86-5.865,33.77-13.347
		c14.963-11.323,23.657-26.287,26.084-43.878c3.033-22.85-3.438-42.262-19.007-57.63l-0.607-0.606l0.202,0.809
		c1.416,4.449-0.605,8.291-4.448,9.504c-0.809,0.202-1.617,0.405-2.224,0.405c-3.438,0-6.066-2.226-7.077-5.865
		c-1.821-6.268-3.438-12.94-5.663-21.636c-0.605-2.225-0.202-4.448,1.012-6.269c1.011-1.617,3.033-2.831,5.46-3.235
		c2.021-0.202,4.246-0.404,6.269-0.809c2.224-0.202,4.245-0.606,6.47-0.809l8.291-1.011h2.021c4.045,0,7.078,2.83,7.28,6.673
		c0.202,4.044-2.63,7.278-6.674,7.684l-4.447,0.404l0.403,0.404c14.154,12.335,23.254,28.309,27.097,47.316
		c0.403,2.224,0.606,4.246,0.809,6.268c0.202,1.215,0.202,2.226,0.202,3.237v0.808l0.201,1.415v6.876l-0.201,2.022
		c0,0.606-0.202,1.213-0.202,1.818c0,0.606-0.202,1.215-0.202,1.821c-2.225,19.411-10.516,36.193-24.67,49.945
		c-12.133,11.728-26.894,19.006-43.676,21.838c-3.235,0.606-6.472,0.808-9.707,0.808H98.079z M78.87,182.098l-1.82-0.811
		c-3.842-1.617-6.066-5.864-5.257-9.705c1.011-4.247,4.448-7.28,8.695-7.28c4.245,0,7.886,3.033,8.694,7.28
		c0.809,3.841-1.416,8.088-5.258,9.705l-1.819,0.811H78.87z M42.675,176.232c-1.011,0-2.021-0.201-2.831-0.405
		c-3.235-1.011-5.257-4.448-4.651-7.885c0.607-3.236,3.236-5.663,6.674-5.864l3.437-0.201l-0.403-0.405
		c-13.751-12.336-22.647-27.904-26.287-46.508c-0.404-2.021-0.607-4.247-0.809-6.27c-0.202-1.212-0.202-2.224-0.202-3.033
		c-0.202-0.605-0.202-1.011-0.202-1.414l-0.203-1.214v-6.471c0-0.809,0-1.618,0.203-2.225l0.605-5.055
		c1.821-13.952,6.876-26.287,14.56-37.206C46.719,32.463,66.131,21.14,90.396,18.106c0.606,0,1.214-0.202,1.617-0.202
		c0.607,0,1.012-0.202,1.619-0.202l2.223-0.202h2.832l1.617,0.809c3.033,1.617,4.854,4.854,4.449,7.886
		c-0.404,2.629-2.225,5.46-6.876,5.864l-2.628,0.202h-0.203c-2.83,0.202-5.661,0.606-8.29,1.012
		c-26.085,4.65-48.125,26.286-53.383,52.371c-4.853,23.254,2.427,46.913,19.412,62.886l0.606,0.606l-0.809-3.033
		c-0.809-2.628-0.404-5.055,1.011-6.874c1.214-1.617,3.438-2.628,5.662-2.628c0.404,0,1.012,0,1.617,0.201
		c2.831,0.405,4.854,2.427,5.662,5.865c1.213,4.65,2.427,9.502,3.64,14.154l0.809,3.033l1.012,3.436v0.204l0.202,0.808
		c0.404,2.226,0,4.448-1.214,6.065c-1.011,1.62-3.032,2.631-5.257,3.033c-2.629,0.204-5.056,0.608-7.684,1.012h-0.405
		c-4.65,0.607-9.099,1.011-13.547,1.619C43.483,176.232,43.08,176.232,42.675,176.232L42.675,176.232z"/>
</g>
</svg>
