<?xml version="1.0" encoding="utf-8"?>
<!-- Generator: Adobe Illustrator 16.0.0, SVG Export Plug-In . SVG Version: 6.00 Build 0)  -->
<!DOCTYPE svg PUBLIC "-//W3C//DTD SVG 1.1//EN" "http://www.w3.org/Graphics/SVG/1.1/DTD/svg11.dtd">
<svg version="1.1" id="图层_1" xmlns="http://www.w3.org/2000/svg" xmlns:xlink="http://www.w3.org/1999/xlink" x="0px" y="0px"
	 width="200px" height="200px" viewBox="0 0 200 200" enable-background="new 0 0 200 200" xml:space="preserve">
<g>
	<linearGradient id="SVGID_1_" gradientUnits="userSpaceOnUse" x1="72.5996" y1="61.9004" x2="137.3779" y2="61.9004">
		<stop  offset="0" style="stop-color:#357CFF"/>
		<stop  offset="1" style="stop-color:#1794FF"/>
	</linearGradient>
	<path fill="url(#SVGID_1_)" d="M104.8,106.4c-3.6,0-6.8-3.199-6.8-6.6v-3.4v-3.199V86.6H79.4C77.6,86.6,76,86,74.8,84.6
		c-1.399-1.399-2-3.399-2-5c0.2-3.8,3.2-6.8,6.601-6.8H97.8v-0.2v-5.8H79.2c-3.601,0-6.601-3.2-6.601-6.6c0-1.801,0.601-3.601,2-5
		c1.4-1.4,2.801-2,4.601-2h12L91,52.8c-2.4-4-4.8-8.2-7-12.2l-0.2-0.399C81.2,35.8,78.4,31.4,75.8,27c-0.6-1.199-2.6-4.199-0.2-7
		c1.4-1.799,3.601-2.6,6-2.6c0.801,0,1.801,0.2,2.4,0.4c2.8,1.199,4.6,3.8,5.6,5.6c3.4,6,6.601,11.801,10,17.6L105,50.6l4-7l3.4-5.8
		c2.399-4.4,5-8.801,7.6-13.2c0.8-1.8,2.4-3.601,4-4.8c1.2-0.801,2.6-1.6,4-1.6c2.8,0,5.8,1.799,6.8,4.399
		c0.601,1.601,0.2,3.601-0.399,4.601c-3.4,5.799-6.601,11.6-10,17L122,48.4l-3.4,6h12c3.601,0,6.4,3.2,6.4,6.801
		c0,4-2.8,6.799-6.4,6.799H112.2V67.8v5.6V73H130.6c3.4,0,6,2.201,6.601,5.4c0.8,3.2-1.2,6.801-4,8.2C132.6,87,131.6,87,131,87
		h-18.8v4c-0.2,3.4,0,6,0,8.601c0.2,1.4-0.4,3.201-1.8,4.201C108.8,105.201,106.6,106.4,104.8,106.4z"/>
	<linearGradient id="SVGID_2_" gradientUnits="userSpaceOnUse" x1="148.7998" y1="154.6006" x2="161.5996" y2="154.6006">
		<stop  offset="0" style="stop-color:#357CFF"/>
		<stop  offset="1" style="stop-color:#1794FF"/>
	</linearGradient>
	<path fill="url(#SVGID_2_)" d="M148.8,154.6c0,3.535,2.866,6.4,6.4,6.4s6.399-2.865,6.399-6.4c0-3.533-2.865-6.398-6.399-6.398
		S148.8,151.066,148.8,154.6z"/>
	<linearGradient id="SVGID_3_" gradientUnits="userSpaceOnUse" x1="18.3057" y1="144.4004" x2="184" y2="144.4004">
		<stop  offset="0" style="stop-color:#357CFF"/>
		<stop  offset="1" style="stop-color:#1794FF"/>
	</linearGradient>
	<path fill="url(#SVGID_3_)" d="M182.4,128.4c-3.2-6.6-10-11-17.4-11c-2.4,0-4.6,0.4-6.6,1.199L133,128l-0.2-0.199
		C130.6,121.6,125,117,118.2,116l-7.8-1.199c-6.601-1-13-2.6-18.601-5c-6.2-2.4-12.399-3.4-19-3.4c-9,0-18.399,2.4-26.399,6.801
		l-9.4,5.6V118.6c-1,0.4-20.2,10-18.6,31.4c1,13.801,5.8,23.201,13.199,26.4c1.601,0.801,3.601,1.199,6,1.199c3.2,0,7-1,11.4-4.199
		c2.4-0.6,4.6-1,6.8-1c4.4,0,8.8,1,12.601,2.801L70,176c8.8,4.201,18.8,6.4,28.8,6.4c10.8,0,21-2.6,30-7.199l15.4-8
		c2.2-1,3.8-3.201,3.8-6c0-3.602-3-6.602-6.6-6.602c-1.2,0-2.4,0.4-3.4,1l-15.6,7.801C114.8,167.201,107,169,98.8,169
		c-8,0-15.6-1.799-22.8-5.199L74.6,163c-5.8-2.799-12.199-4.199-18.6-4.199c-4.8,0-10,1-15.2,2.799l-4.2,1.602
		C35,161.6,32.8,157,32.2,148.4C31.6,140,36.6,134.6,40.2,132h0.2l13.399-7.4c5.8-3.6,12.601-5.398,19.8-5.398
		c5,0,9.801,0.799,14,2.6c6.4,2.4,13.601,4.4,21.4,5.6l7.8,1.199c2.601,0.4,4.4,2.602,4.4,5c0,3-2.2,5.201-5.2,5.201L83,140
		c-2,0-3.6,0.801-4.8,2c-1.4,1.6-2,3.201-1.8,4.6c0,1.801,0.6,3.4,2,4.801c1.6,1.4,3.199,2,4.6,2l32.6-0.4c6.801,0,13.2-4,16.4-10
		v-0.199l31.2-11.6L165,131c2,0,3.8,1.201,5,3l0.6,2.4c0,2-1.199,3.801-3,4.6l-0.8,0.4c-2,1.199-3.2,3.199-3.2,5.6
		c0,3.6,2.801,6.4,6.4,6.4c1.2,0,2.4-0.4,3.4-1l0.199-0.199c6.2-3,10.4-9.801,10.4-16.602C184,133.4,183.4,130.801,182.4,128.4
		L182.4,128.4z"/>
</g>
</svg>
