<?xml version="1.0" encoding="utf-8"?>
<!-- Generator: Adobe Illustrator 16.0.0, SVG Export Plug-In . SVG Version: 6.00 Build 0)  -->
<!DOCTYPE svg PUBLIC "-//W3C//DTD SVG 1.1//EN" "http://www.w3.org/Graphics/SVG/1.1/DTD/svg11.dtd">
<svg version="1.1" id="图层_1" xmlns="http://www.w3.org/2000/svg" xmlns:xlink="http://www.w3.org/1999/xlink" x="0px" y="0px"
	 width="200px" height="200px" viewBox="0 0 200 200" enable-background="new 0 0 200 200" xml:space="preserve">
<g>
	<g>
		
			<linearGradient id="SVGID_1_" gradientUnits="userSpaceOnUse" x1="175.5898" y1="55.0513" x2="223.3574" y2="55.0513" gradientTransform="matrix(1 0 0 -1 -90.6602 148.04)">
			<stop  offset="0" style="stop-color:#D75E00"/>
			<stop  offset="1" style="stop-color:#FF8C00"/>
		</linearGradient>
		<path fill="url(#SVGID_1_)" d="M132.594,114.457c-0.159-0.588-0.532-1.221-1.119-1.899c-0.588-0.678-1.425-1.425-2.511-2.238
			c-1.628-1.176-3.55-2.815-5.765-4.918c-2.218-2.103-4.434-4.533-6.648-7.292h12.143c1.4,0,2.384-0.327,2.951-0.983
			c0.564-0.655,0.847-1.595,0.847-2.815c0-1.312-0.271-2.284-0.813-2.918c-0.543-0.633-1.539-0.949-2.985-0.949h-16.891v-4.952h8.14
			c2.486,0,4.183-0.587,5.088-1.764c0.903-1.175,1.357-2.985,1.357-5.427v-9.564c0-2.578-0.487-4.42-1.459-5.529
			c-0.974-1.108-2.635-1.662-4.986-1.662H97.014c-2.487,0-4.218,0.577-5.189,1.729c-0.973,1.154-1.459,2.951-1.459,5.393v9.632
			c0,2.442,0.485,4.251,1.459,5.427c0.972,1.177,2.701,1.764,5.189,1.764h7.19v4.952H90.095c-1.538,0-2.59,0.316-3.154,0.949
			c-0.566,0.634-0.848,1.606-0.848,2.918c0,1.22,0.305,2.16,0.916,2.815c0.61,0.656,1.639,0.983,3.086,0.983h10.989
			c-0.995,1.357-2.058,2.668-3.188,3.936c-1.131,1.266-2.263,2.441-3.392,3.527c-1.131,1.086-2.216,2.058-3.256,2.917
			c-1.041,0.86-1.945,1.56-2.713,2.103c-1.085,0.77-1.899,1.469-2.441,2.104c-0.542,0.632-0.894,1.242-1.052,1.83
			c-0.159,0.588-0.146,1.154,0.034,1.697c0.18,0.541,0.452,1.105,0.813,1.695c0.769,1.129,1.786,1.604,3.053,1.424
			c1.266-0.182,2.893-1.04,4.884-2.577c2.441-2.035,4.465-3.845,6.071-5.427c1.604-1.582,3.04-3.301,4.308-5.155v14.245
			c0,1.447,0.349,2.476,1.052,3.087c0.7,0.609,1.685,0.916,2.95,0.916c1.312,0,2.239-0.306,2.782-0.916
			c0.541-0.61,0.813-1.64,0.813-3.087v-17.093c1.537,2.396,3.301,4.69,5.291,6.885c1.99,2.192,4.453,4.486,7.396,6.885
			c1.445,1.222,2.757,1.989,3.933,2.307c1.176,0.315,2.216-0.136,3.121-1.357c0.451-0.678,0.78-1.3,0.984-1.865
			C132.729,115.621,132.751,115.045,132.594,114.457z M100.677,77.69c-0.905,0-1.538-0.191-1.899-0.577
			c-0.362-0.383-0.542-1.095-0.542-2.136v-3.731c0-0.813,0.124-1.345,0.372-1.594c0.248-0.248,0.825-0.373,1.73-0.373h16.077
			c0.905,0,1.48,0.17,1.729,0.509c0.248,0.339,0.373,1.007,0.373,2.001v3.121c0,1.041-0.148,1.764-0.44,2.17
			c-0.294,0.407-0.848,0.611-1.662,0.611h-15.738V77.69z"/>
		
			<linearGradient id="SVGID_2_" gradientUnits="userSpaceOnUse" x1="157.9639" y1="56.4326" x2="177.9453" y2="56.4326" gradientTransform="matrix(1 0 0 -1 -90.6602 148.04)">
			<stop  offset="0" style="stop-color:#D75E00"/>
			<stop  offset="1" style="stop-color:#FF8C00"/>
		</linearGradient>
		<path fill="url(#SVGID_2_)" d="M87.111,61.003c-0.316-1.085-1.222-1.74-2.713-1.966c-1.584-0.181-2.692,0.146-3.325,0.983
			c-0.634,0.836-1.13,2.16-1.492,3.968c-1.085,4.477-2.408,8.682-3.968,12.617s-3.675,7.801-6.342,11.6
			c-1.312,1.9-1.967,3.416-1.967,4.545c0,1.13,0.587,2.103,1.764,2.917c0.904,0.77,1.899,1.075,2.985,0.916
			c1.085-0.157,2.215-1.096,3.392-2.815v26.251c0,1.446,0.271,2.51,0.813,3.188c0.542,0.678,1.538,1.018,2.985,1.018
			c2.261,0,3.393-1.402,3.393-4.206V78.844c0.768-1.944,1.48-3.978,2.136-6.104c0.655-2.125,1.323-4.477,2.001-7.055
			C87.314,63.649,87.426,62.088,87.111,61.003z"/>
	</g>
	<g>
		
			<linearGradient id="SVGID_3_" gradientUnits="userSpaceOnUse" x1="123.5293" y1="48.0391" x2="257.5674" y2="48.0391" gradientTransform="matrix(1 0 0 -1 -90.6602 148.04)">
			<stop  offset="0" style="stop-color:#D75E00"/>
			<stop  offset="1" style="stop-color:#FF8C00"/>
		</linearGradient>
		<path fill="url(#SVGID_3_)" d="M153.036,25.82l-42.984-7.627c-2.311-0.461-5.778-0.692-9.243-0.692
			c-3.234,0-6.47,0.231-8.781,0.692l-45.062,7.858c-7.857,1.385-14.097,8.781-14.097,16.638v91.049
			c0,6.933,4.391,14.791,10.399,18.487l44.833,27.5c3.004,1.85,6.933,2.775,10.861,2.775c3.929,0,7.626-0.925,10.399-2.775
			l47.143-27.73c6.008-3.466,10.398-11.323,10.398-18.486v-24.034c0-4.389-3.467-7.855-7.856-7.855
			c-4.391,0-7.858,3.467-7.858,7.855v24.266c0,1.617-1.617,4.16-2.772,5.083l-47.142,27.731c-0.464,0.231-1.387,0.464-2.543,0.464
			c-1.385,0-2.31-0.464-2.773-0.464l-44.6-27.732c-1.385-0.924-3.003-3.696-3.003-5.084v-91.28c0-0.462,0.692-1.385,1.155-1.385
			l45.063-7.858c1.618-0.23,3.696-0.462,6.008-0.462c2.54,0,4.852,0.231,6.47,0.462l42.983,7.626c0.463,0,1.155,0.924,1.155,1.387
			v26.806c0,4.392,3.468,7.858,7.858,7.858c4.39,0,7.855-3.466,7.855-7.858V42.458C167.132,34.601,160.892,27.207,153.036,25.82
			L153.036,25.82z"/>
		
			<linearGradient id="SVGID_4_" gradientUnits="userSpaceOnUse" x1="242.0781" y1="58.9023" x2="257.792" y2="58.9023" gradientTransform="matrix(1 0 0 -1 -90.6602 148.04)">
			<stop  offset="0" style="stop-color:#D75E00"/>
			<stop  offset="1" style="stop-color:#FF8C00"/>
		</linearGradient>
		<path fill="url(#SVGID_4_)" d="M151.418,89.137c0,4.34,3.518,7.858,7.857,7.858c4.339,0,7.856-3.518,7.856-7.858
			c0-4.339-3.517-7.856-7.856-7.856C154.936,81.282,151.418,84.798,151.418,89.137L151.418,89.137z"/>
	</g>
</g>
</svg>
