<?xml version="1.0" encoding="utf-8"?>
<!-- Generator: Adobe Illustrator 16.0.0, SVG Export Plug-In . SVG Version: 6.00 Build 0)  -->
<!DOCTYPE svg PUBLIC "-//W3C//DTD SVG 1.1//EN" "http://www.w3.org/Graphics/SVG/1.1/DTD/svg11.dtd">
<svg version="1.1" id="图层_1" xmlns="http://www.w3.org/2000/svg" xmlns:xlink="http://www.w3.org/1999/xlink" x="0px" y="0px"
	 width="200px" height="200px" viewBox="0 0 200 200" enable-background="new 0 0 200 200" xml:space="preserve">
<g>
	<path fill="#45BF9A" d="M77.705,199.742C25.413,199.742,0,187.512,0,162.299c0-17.709,26.405-29.342,53.087-33.393v-1.51
		C33.154,112.15,30.494,84.912,30.494,62.517c0-30.494,17.947-48.72,48.044-48.72h1.588c30.099,0,48.045,18.226,48.045,48.72
		c0,22.395-2.66,49.594-22.594,64.879v1.51c26.684,4.051,53.088,15.645,53.088,33.393
		C158.666,179.412,144.609,199.742,77.705,199.742z M78.539,28.608c-22.077,0-33.274,11.435-33.274,33.949
		c0,21.083,2.264,44.035,19.179,54.794c2.144,1.35,3.415,3.692,3.415,6.233v11.832c0,3.771-2.859,6.949-6.591,7.347
		c-27.953,2.938-46.496,13.698-46.496,19.534c0,15.052,21.163,22.672,62.934,22.672c42.048,0,66.19-8.258,66.19-22.672
		c0-5.836-18.543-16.598-46.497-19.534c-3.771-0.396-6.592-3.574-6.592-7.347v-11.832c0-2.541,1.311-4.885,3.417-6.233
		c16.875-10.761,19.177-33.75,19.177-54.794c0-22.514-11.197-33.949-33.274-33.949H78.539L78.539,28.608z"/>
	<path fill="#45BF9A" d="M192.615,154.396c-4.09,0-7.387-3.295-7.387-7.383c0-5.642-21.043-19.378-45.463-21.959
		c-3.772-0.396-6.632-3.574-6.632-7.347v-15.326c0-2.542,1.312-4.883,3.415-6.234c19.098-12.151,21.164-39.19,21.164-50.268
		c0-25.492-17.234-30.853-31.688-30.853c-4.09,0-7.385-3.295-7.385-7.384c0-4.09,3.295-7.385,7.385-7.385
		c28.668,0,46.457,17.47,46.457,45.623c0,12.864-2.463,43.558-24.578,60.314v5.121C171.491,115.605,200,129.779,200,147.014
		C200.04,151.102,196.705,154.396,192.615,154.396z"/>
</g>
</svg>
