<?xml version="1.0" encoding="utf-8"?>
<!-- Generator: Adobe Illustrator 16.0.0, SVG Export Plug-In . SVG Version: 6.00 Build 0)  -->
<!DOCTYPE svg PUBLIC "-//W3C//DTD SVG 1.1//EN" "http://www.w3.org/Graphics/SVG/1.1/DTD/svg11.dtd">
<svg version="1.1" id="图层_1" xmlns="http://www.w3.org/2000/svg" xmlns:xlink="http://www.w3.org/1999/xlink" x="0px" y="0px"
	 width="200px" height="200px" viewBox="0 0 200 200" enable-background="new 0 0 200 200" xml:space="preserve">
<path fill="#F75A53" d="M62.894,131.813l-4.995,47.097l37.82-21.408c2.141-1.427,4.996-1.427,7.136,0l37.82,21.408l-4.995-47.097
	c-10.704,6.422-23.549,9.99-37.107,9.99S74.311,138.235,62.894,131.813z M50.049,121.109
	c-12.845-12.845-21.408-30.685-21.408-50.665c0-39.248,32.111-71.359,71.359-71.359c39.247,0,71.359,32.111,71.359,71.359
	c0,19.98-7.85,37.82-21.408,50.665l7.136,69.932c0.714,5.709-5.708,9.99-10.703,7.136L100,171.774l-46.383,26.402
	c-4.995,2.854-11.417-1.427-10.704-7.136L50.049,121.109z M100,127.531c31.397,0,57.087-25.689,57.087-57.087
	c0-31.398-25.689-57.087-57.087-57.087c-31.398,0-57.087,25.689-57.087,57.087C42.913,101.842,68.602,127.531,100,127.531z"/>
</svg>
