<?xml version="1.0" encoding="utf-8"?>
<!-- Generator: Adobe Illustrator 16.0.0, SVG Export Plug-In . SVG Version: 6.00 Build 0)  -->
<!DOCTYPE svg PUBLIC "-//W3C//DTD SVG 1.1//EN" "http://www.w3.org/Graphics/SVG/1.1/DTD/svg11.dtd">
<svg version="1.1" id="图层_1" xmlns="http://www.w3.org/2000/svg" xmlns:xlink="http://www.w3.org/1999/xlink" x="0px" y="0px"
	 width="200px" height="200px" viewBox="0 0 200 200" enable-background="new 0 0 200 200" xml:space="preserve">
<path fill="#9E9E9E" d="M160.281,33.374H39.72c-13.62,0-24.702,10.563-24.702,23.547v12.425h169.965V56.921
	C184.982,43.937,173.901,33.374,160.281,33.374z M15.018,143.078c0,12.984,11.081,23.549,24.702,23.549h120.562
	c13.62,0,24.701-10.564,24.701-23.549V93.43H15.018V143.078z M117.576,130.332h35.349c3.54,0,6.409,2.869,6.409,6.41
	c0,3.539-2.869,6.408-6.409,6.408h-35.349c-3.54,0-6.41-2.869-6.41-6.408C111.166,133.201,114.036,130.332,117.576,130.332z"/>
</svg>
