<?xml version="1.0" encoding="utf-8"?>
<!-- Generator: Adobe Illustrator 16.0.0, SVG Export Plug-In . SVG Version: 6.00 Build 0)  -->
<!DOCTYPE svg PUBLIC "-//W3C//DTD SVG 1.1//EN" "http://www.w3.org/Graphics/SVG/1.1/DTD/svg11.dtd">
<svg version="1.1" id="图层_1" xmlns="http://www.w3.org/2000/svg" xmlns:xlink="http://www.w3.org/1999/xlink" x="0px" y="0px"
	 width="200px" height="200px" viewBox="0 0 200 200" enable-background="new 0 0 200 200" xml:space="preserve">
<g id="men_2">
	<g>
		<path fill="#FFE7C0" d="M184.997,100.001C184.997,53.056,146.942,15,100,15c-46.944,0-85,38.056-85,85.001
			c0,46.942,38.056,84.997,85,84.997C146.942,184.998,184.997,146.943,184.997,100.001z"/>
	</g>
	<g>
		<defs>
			<circle id="SVGID_1_" cx="100" cy="100" r="85"/>
		</defs>
		<clipPath id="SVGID_2_">
			<use xlink:href="#SVGID_1_"  overflow="visible"/>
		</clipPath>
		<g clip-path="url(#SVGID_2_)">
			<rect x="87.554" y="121.438" fill="#D9A78C" width="24.893" height="27.295"/>
			<path fill="#C0D0D8" d="M84.533,137.701c0,0-23.667,3.461-27.163,7.102C54.327,147.973,48,178.336,46.536,185
				c41.552,0,53.463,0,53.463,0v-46.012L84.533,137.701z"/>
			<path fill="#A7BDC8" d="M115.464,137.701c0,0,23.67,3.461,27.164,7.102c3.043,3.17,9.371,33.533,10.835,40.197
				c-41.552,0-53.464,0-53.464,0v-46.012L115.464,137.701z"/>
			<polygon fill="#14A89A" points="98.394,143.496 95.244,175.912 100,184.879 104.757,175.912 101.606,143.496 			"/>
			<path fill="#14A89A" d="M104.249,143.227L100,147.475l-4.249-4.248l4.249-4.248L104.249,143.227z"/>
			<g>
				<path fill="#EAC0A7" d="M99.999,43.334c12.086,0,31.2,6.87,31.2,39.066c0,18.589-6.061,30.767-8.701,34.136
					c-2.43,3.1-16.089,9.703-22.499,9.703C99.999,93.704,99.999,43.334,99.999,43.334z"/>
				<path fill="#EAC0A7" d="M137.212,90.078c0.532-5.145-1.919-9.709-5.475-10.197c-3.557-0.487-6.871,3.287-7.404,8.432
					c-0.533,5.143,1.918,9.708,5.475,10.195S136.678,95.22,137.212,90.078z"/>
			</g>
			<g>
				<path fill="#F2D7BC" d="M100,43.334c-12.086,0-31.199,6.87-31.199,39.066c0,18.589,6.06,30.767,8.7,34.136
					c2.431,3.1,16.09,9.703,22.499,9.703C100,93.704,100,43.334,100,43.334z"/>
				<path fill="#F2D7BC" d="M62.788,90.078c-0.533-5.145,1.918-9.709,5.474-10.197c3.557-0.487,6.871,3.287,7.405,8.432
					c0.534,5.143-1.918,9.708-5.475,10.195S63.321,95.22,62.788,90.078z"/>
			</g>
			<polygon fill="#FFFFFF" points="99.999,138.988 87.362,133.906 84.249,137.068 90.537,151.012 			"/>
			<polygon fill="#FFFFFF" points="99.999,138.988 112.637,133.906 115.751,137.068 109.461,151.012 			"/>
			<rect x="72.618" y="171.145" fill="#7F97A3" width="15.771" height="3.479"/>
			<rect x="111.622" y="171.145" fill="#7F97A3" width="15.77" height="3.479"/>
			<path fill="#8B5F3C" d="M72.954,90.642h2.155c0,0-1.31-8.385,2.533-11.092c0-4.192,0-5.415,0-5.415s-1.485-0.175-1.485-6.55
				c0-6.376,7.599-10.918,23.843-10.918c0-9.083,0-19.563,0-19.563s-32.111,3.464-32.111,26.769c0,9.682,0,16.027,0,16.027
				s2.343-0.415,4.018,0.99C73.711,82.404,72.954,90.642,72.954,90.642z"/>
			<path fill="#8B5F3C" d="M126.74,90.642h-2.153c0,0,1.31-8.385-2.534-11.092c0-4.192,0-5.415,0-5.415s1.485-0.175,1.485-6.55
				c0-6.376-7.599-10.918-23.843-10.918c0-9.083,0-19.563,0-19.563s32.11,3.464,32.11,26.769c0,9.682,0,16.027,0,16.027
				s-2.343-0.415-4.018,0.99C125.983,82.404,126.74,90.642,126.74,90.642z"/>
			<path fill="#FFFFFF" d="M100,112.375c5.634,0,10.2-1.861,10.2-4.156H89.8C89.8,110.514,94.366,112.375,100,112.375z"/>
		</g>
	</g>
</g>
</svg>
