<?xml version="1.0" encoding="utf-8"?>
<!-- Generator: Adobe Illustrator 16.0.0, SVG Export Plug-In . SVG Version: 6.00 Build 0)  -->
<!DOCTYPE svg PUBLIC "-//W3C//DTD SVG 1.1//EN" "http://www.w3.org/Graphics/SVG/1.1/DTD/svg11.dtd">
<svg version="1.1" id="图层_1" xmlns="http://www.w3.org/2000/svg" xmlns:xlink="http://www.w3.org/1999/xlink" x="0px" y="0px"
	 width="200px" height="200px" viewBox="0 0 200 200" enable-background="new 0 0 200 200" xml:space="preserve">
<path fill="#9E9E9E" d="M156.25,37.5H43.75c-13.807,0-25,11.193-25,25v75c0,13.807,11.193,25,25,25h112.5c13.807,0,25-11.193,25-25
	v-75C181.25,48.693,170.057,37.5,156.25,37.5z M60.388,130.275h-7.15V82.35c-2.047,1.98-4.316,3.716-6.762,5.175
	c-2.383,1.525-4.902,2.827-7.525,3.888V84.15c3.987-1.975,7.487-4.375,10.475-7.188c2.988-2.813,5.113-5.538,6.35-8.188h4.613
	L60.388,130.275L60.388,130.275z M115.75,130.275H77.275c-0.056-1.779,0.228-3.553,0.837-5.227c0.988-2.763,2.55-5.475,4.7-8.148
	c2.163-2.664,5.275-5.764,9.35-9.275c6.325-5.463,10.6-9.775,12.824-12.975c2.227-3.188,3.339-6.2,3.339-9.05
	c0.062-2.822-1.036-5.547-3.038-7.538c-2.104-2.073-4.973-3.182-7.925-3.063c-3.438,0-6.188,1.087-8.262,3.25
	c-2.063,2.175-3.1,5.188-3.138,9.025l-7.337-0.788c0.5-5.762,2.388-10.162,5.675-13.188c3.288-3.025,7.688-4.525,13.225-4.525
	c5.586,0,10,1.625,13.275,4.888c3.25,3.262,4.888,7.3,4.888,12.125c0,2.45-0.486,4.862-1.438,7.225
	c-0.95,2.362-2.537,4.85-4.75,7.475c-2.213,2.625-5.889,6.213-11.025,10.763c-4.288,3.8-7.038,6.375-8.263,7.726
	c-1.141,1.252-2.15,2.616-3.012,4.074h28.55V130.275L115.75,130.275z M155.486,125.787c-3.688,3.738-8.375,5.574-14.063,5.574
	c-5.087,0-9.35-1.6-12.725-4.799c-3.375-3.201-5.275-7.362-5.75-12.463l7.138-1c0.813,4.262,2.212,7.324,4.188,9.213
	c1.975,1.875,4.375,2.824,7.199,2.824c3.375,0,6.199-1.226,8.524-3.675c2.325-2.438,3.463-5.487,3.463-9.112
	c0.119-3.16-1.034-6.234-3.2-8.537c-2.121-2.236-5.095-3.464-8.175-3.375c-1.351,0-3.024,0.275-5.038,0.838l0.788-6.602
	c3.313,0.317,6.631-0.541,9.375-2.425c2.438-1.675,3.638-4.25,3.638-7.737c0.226-5.056-3.69-9.336-8.746-9.561
	c-0.26-0.012-0.521-0.012-0.778-0.001c-2.597-0.075-5.108,0.919-6.95,2.75c-1.85,1.85-3.037,4.612-3.575,8.287l-7.138-1.337
	c0.875-5.038,2.863-8.95,5.963-11.725c3.1-2.775,6.95-4.162,11.55-4.162c3.175,0,6.101,0.712,8.775,2.15
	c2.674,1.438,4.712,3.387,6.138,5.875c1.412,2.487,2.125,5.112,2.125,7.9c0,2.638-0.688,5.05-2.025,7.225
	c-1.459,2.266-3.537,4.066-5.986,5.188c3.425,0.837,6.1,2.575,8.023,5.2c1.889,2.639,2.863,5.926,2.863,9.889
	C161.162,117.297,159.139,122.213,155.486,125.787L155.486,125.787z"/>
</svg>
