<?xml version="1.0" encoding="utf-8"?>
<!-- Generator: Adobe Illustrator 16.0.0, SVG Export Plug-In . SVG Version: 6.00 Build 0)  -->
<!DOCTYPE svg PUBLIC "-//W3C//DTD SVG 1.1//EN" "http://www.w3.org/Graphics/SVG/1.1/DTD/svg11.dtd">
<svg version="1.1" id="图层_1" xmlns="http://www.w3.org/2000/svg" xmlns:xlink="http://www.w3.org/1999/xlink" x="0px" y="0px"
	 width="200px" height="200px" viewBox="0 0 200 200" enable-background="new 0 0 200 200" xml:space="preserve">
<circle fill="#FF822E" cx="100" cy="100" r="100"/>
<path fill="#FFFFFF" d="M100,151.577c8.372,0,15.16-6.79,15.16-15.162c0-8.374-6.788-15.161-15.16-15.161
	c-8.374,0-15.161,6.787-15.161,15.161C84.852,144.783,91.632,151.563,100,151.577z M100,129.82c3.642,0,6.593,2.951,6.593,6.593
	c0,3.64-2.951,6.593-6.593,6.593s-6.593-2.953-6.593-6.593C93.414,132.775,96.36,129.826,100,129.82z M133.758,29.541H66.242
	c-9.404,0.014-17.023,7.633-17.039,17.037v106.901c0.015,9.405,7.634,17.025,17.039,17.04h40.057c3.195,0,5.786-2.591,5.786-5.785
	c0-3.193-2.591-5.784-5.786-5.784H66.242c-3.018-0.005-5.465-2.45-5.468-5.469V46.578c0.003-3.018,2.45-5.464,5.468-5.468h67.516
	c3.019,0.004,5.466,2.45,5.469,5.468v106.901c-0.003,3.019-2.45,5.465-5.469,5.469h-0.014l-9.947,0.025
	c-3.193,0.003-5.781,2.597-5.775,5.791c0.004,3.193,2.596,5.78,5.79,5.777h0.014l9.948-0.024h0.01
	c9.395-0.029,16.998-7.643,17.014-17.038V46.578C150.781,37.174,143.162,29.555,133.758,29.541z M125.477,55.799
	c0-3.194-2.59-5.785-5.785-5.785H80.308c-3.195,0-5.785,2.59-5.785,5.785s2.59,5.784,5.785,5.784h39.383
	C122.887,61.583,125.477,58.993,125.477,55.799c0,0,0-0.001,0-0.001V55.799z"/>
</svg>
