<?xml version="1.0" encoding="utf-8"?>
<!-- Generator: Adobe Illustrator 16.0.0, SVG Export Plug-In . SVG Version: 6.00 Build 0)  -->
<!DOCTYPE svg PUBLIC "-//W3C//DTD SVG 1.1//EN" "http://www.w3.org/Graphics/SVG/1.1/DTD/svg11.dtd">
<svg version="1.1" id="图层_1" xmlns="http://www.w3.org/2000/svg" xmlns:xlink="http://www.w3.org/1999/xlink" x="0px" y="0px"
	 width="200px" height="200px" viewBox="0 0 200 200" enable-background="new 0 0 200 200" xml:space="preserve">
<path opacity="0.5" fill="#BBD5FF" d="M197.724,200H52.276c-1.257,0-2.271-1.014-2.271-2.271v-63.896
	c0-1.258,1.013-2.271,2.271-2.271h145.447c1.258,0,2.271,1.013,2.271,2.271v63.896C199.994,198.969,198.981,200,197.724,200z
	 M54.546,195.46h140.908v-59.356H54.546V195.46z"/>
<path opacity="0.5" fill="#BBD5FF" d="M196.449,149.829c-10.076,0-18.283-7.072-18.283-15.752c0-1.257,1.013-2.27,2.271-2.27
	c1.257,0,2.27,1.013,2.27,2.27c0,6.182,6.164,11.211,13.743,11.211c0.385,0,0.751-0.017,1.135-0.034
	c1.258-0.088,2.34,0.855,2.41,2.112c0.087,1.258-0.855,2.34-2.113,2.41C197.41,149.812,196.921,149.829,196.449,149.829z
	 M180.437,199.737c-1.258,0-2.271-1.013-2.271-2.27c0-8.68,8.207-15.752,18.283-15.752c0.472,0,0.961,0.018,1.432,0.053
	c1.258,0.087,2.2,1.17,2.113,2.409c-0.088,1.258-1.17,2.201-2.41,2.113c-0.366-0.017-0.75-0.034-1.135-0.034
	c-7.579,0-13.743,5.028-13.743,11.211C182.706,198.725,181.693,199.737,180.437,199.737z M53.568,149.829
	c-0.471,0-0.96-0.018-1.432-0.053c-1.257-0.087-2.201-1.17-2.113-2.41c0.087-1.239,1.17-2.2,2.41-2.112
	c0.367,0.018,0.751,0.034,1.135,0.034c7.579,0,13.744-5.029,13.744-11.211c0-1.257,1.013-2.27,2.27-2.27s2.271,1.013,2.271,2.27
	C71.835,142.757,63.645,149.829,53.568,149.829z M69.565,199.737c-1.257,0-2.271-1.013-2.271-2.27
	c0-6.183-6.164-11.211-13.743-11.211c-0.384,0-0.751,0.018-1.135,0.034c-1.257,0.088-2.34-0.855-2.41-2.113
	c-0.087-1.257,0.856-2.34,2.113-2.409c0.472-0.035,0.961-0.053,1.432-0.053c10.076,0,18.284,7.072,18.284,15.752
	C71.835,198.725,70.822,199.737,69.565,199.737z M124.153,187.426c-11.944,0-21.654-9.709-21.654-21.653
	c0-11.945,9.71-21.654,21.654-21.654s21.653,9.709,21.653,21.654C145.807,177.717,136.098,187.426,124.153,187.426z
	 M124.153,148.658c-9.43,0-17.113,7.684-17.113,17.114c0,9.43,7.684,17.113,17.113,17.113s17.113-7.684,17.113-17.113
	C141.267,156.342,133.6,148.658,124.153,148.658z M89.245,111.742c-9.866,0-19.174-2.025-26.229-5.71
	c-7.509-3.93-11.648-9.308-11.648-15.158c0-5.851,4.139-11.247,11.648-15.158c7.037-3.685,16.363-5.71,26.229-5.71
	c9.867,0,19.174,2.026,26.229,5.71c7.509,3.929,11.647,9.308,11.647,15.158c0,5.85-4.139,11.246-11.647,15.158
	C108.437,109.717,99.112,111.742,89.245,111.742z M89.245,74.546c-9.15,0-17.725,1.851-24.116,5.187
	c-5.937,3.108-9.203,7.055-9.203,11.142c0,4.086,3.266,8.033,9.203,11.141c6.409,3.353,14.966,5.187,24.116,5.187
	c9.151,0,17.725-1.852,24.116-5.187c5.938-3.108,9.203-7.055,9.203-11.141c0-4.087-3.266-8.034-9.203-11.142
	C106.97,76.397,98.396,74.546,89.245,74.546z"/>
<path opacity="0.5" fill="#BBD5FF" d="M89.245,130.672c-9.866,0-19.174-2.025-26.229-5.71c-7.509-3.93-11.648-9.308-11.648-15.157
	c0-4.018,1.974-7.877,5.728-11.177l1.711-1.502l3.003,3.406l-1.711,1.502c-1.904,1.676-4.191,4.4-4.191,7.771
	c0,4.086,3.266,8.032,9.203,11.141c6.409,3.353,14.965,5.187,24.116,5.187c9.151,0,17.725-1.852,24.116-5.187
	c5.938-3.108,9.203-7.055,9.203-11.141c0-2.445-1.17-4.838-3.458-7.091l-1.624-1.589l3.179-3.23l1.624,1.589
	c3.161,3.108,4.819,6.671,4.819,10.338c0,5.851-4.139,11.246-11.647,15.157C108.437,128.646,99.112,130.672,89.245,130.672z
	 M148.618,98.366c-8.783,0-17.323-1.659-24.046-4.645l-2.078-0.926l1.852-4.139l2.077,0.926c6.147,2.741,14.023,4.261,22.195,4.261
	c9.15,0,17.726-1.851,24.117-5.187c5.937-3.108,9.202-7.055,9.202-11.141c0-4.086-3.266-8.033-9.202-11.142
	c-6.409-3.353-14.967-5.186-24.117-5.186c-8.591,0-16.781,1.659-23.067,4.663c-5.851,2.811-9.465,6.461-10.146,10.32l-0.401,2.235
	l-4.471-0.803l0.401-2.235c0.943-5.326,5.448-10.164,12.661-13.621c6.88-3.283,15.769-5.099,25.023-5.099
	c9.867,0,19.175,2.026,26.229,5.71c7.51,3.929,11.647,9.308,11.647,15.158s-4.138,11.246-11.647,15.158
	C167.793,96.34,158.485,98.366,148.618,98.366z"/>
<path opacity="0.5" fill="#BBD5FF" d="M148.618,117.295c-8.783,0-17.323-1.658-24.028-4.645l-2.078-0.926l1.852-4.139l2.077,0.926
	c6.147,2.741,14.022,4.261,22.178,4.261c9.15,0,17.726-1.851,24.117-5.187c5.937-3.108,9.202-7.055,9.202-11.141
	c0-2.445-1.17-4.837-3.458-7.09l-1.624-1.589l3.179-3.23l1.624,1.589c3.161,3.108,4.819,6.67,4.819,10.338
	c0,5.85-4.138,11.246-11.647,15.158C167.793,115.27,158.485,117.295,148.618,117.295L148.618,117.295z"/>
<path opacity="0.5" fill="#BBD5FF" d="M148.618,136.104c-15.001,0-28.568-4.785-34.559-12.207l-1.432-1.764l3.527-2.863l1.432,1.763
	c2.393,2.952,6.619,5.606,11.893,7.475c5.623,2.008,12.259,3.056,19.139,3.056c9.15,0,17.726-1.852,24.117-5.186
	c5.937-3.109,9.202-7.056,9.202-11.143c0-2.444-1.17-4.837-3.458-7.09l-1.624-1.589l3.179-3.23l1.624,1.589
	c3.161,3.108,4.819,6.671,4.819,10.338c0,5.851-4.138,11.246-11.647,15.158C167.793,134.077,158.485,136.104,148.618,136.104z"/>
</svg>
