<?xml version="1.0" encoding="utf-8"?>
<!-- Generator: Adobe Illustrator 16.0.0, SVG Export Plug-In . SVG Version: 6.00 Build 0)  -->
<!DOCTYPE svg PUBLIC "-//W3C//DTD SVG 1.1//EN" "http://www.w3.org/Graphics/SVG/1.1/DTD/svg11.dtd">
<svg version="1.1" id="图层_1" xmlns="http://www.w3.org/2000/svg" xmlns:xlink="http://www.w3.org/1999/xlink" x="0px" y="0px"
	 width="200px" height="200px" viewBox="0 0 200 200" enable-background="new 0 0 200 200" xml:space="preserve">
<path fill="#92BCFF" d="M193.014,173.813l-50-50c8.699-12.5,13.799-27.6,13.799-43.899c0-42.5-34.398-76.9-76.899-76.9
	c-42.5,0-76.9,34.4-76.9,76.9s34.4,76.899,76.9,76.899c16.3,0,31.5-5.1,43.899-13.799l50,50c5.301,5.299,13.9,5.299,19.201,0
	C198.313,187.713,198.313,179.111,193.014,173.813z M21.113,79.913c0-32.4,26.4-58.8,58.8-58.8c32.399,0,58.8,26.4,58.8,58.8
	c0,32.399-26.4,58.8-58.8,58.8C47.513,138.713,21.113,112.313,21.113,79.913L21.113,79.913z"/>
</svg>
