<?xml version="1.0" encoding="utf-8"?>
<!-- Generator: Adobe Illustrator 16.0.0, SVG Export Plug-In . SVG Version: 6.00 Build 0)  -->
<!DOCTYPE svg PUBLIC "-//W3C//DTD SVG 1.1//EN" "http://www.w3.org/Graphics/SVG/1.1/DTD/svg11.dtd">
<svg version="1.1" id="图层_1" xmlns="http://www.w3.org/2000/svg" xmlns:xlink="http://www.w3.org/1999/xlink" x="0px" y="0px"
	 width="25px" height="380.583px" viewBox="0 0 25 380.583" enable-background="new 0 0 25 380.583" xml:space="preserve">
<g>
	<rect x="2.378" y="0.999" fill="#FFFFFF" width="20.188" height="22.845"/>
	<g>
		<linearGradient id="SVGID_1_" gradientUnits="userSpaceOnUse" x1="1.1904" y1="12.5" x2="23.8096" y2="12.5">
			<stop  offset="0" style="stop-color:#358DFF"/>
			<stop  offset="1" style="stop-color:#176DFF"/>
		</linearGradient>
		<path fill="url(#SVGID_1_)" d="M21.429,25H3.571c-1.31,0-2.38-1.071-2.38-2.381V2.381C1.19,1.071,2.261,0,3.571,0h17.858
			c1.309,0,2.381,1.071,2.381,2.381v20.238C23.81,23.929,22.737,25,21.429,25z M3.571,1.587c-0.437,0-0.793,0.357-0.793,0.794
			v20.238c0,0.437,0.357,0.793,0.793,0.793h17.858c0.436,0,0.793-0.357,0.793-0.793V2.381c0-0.437-0.357-0.794-0.793-0.794H3.571z"
			/>
		<linearGradient id="SVGID_2_" gradientUnits="userSpaceOnUse" x1="5.1587" y1="12.397" x2="19.8418" y2="12.397">
			<stop  offset="0" style="stop-color:#358DFF"/>
			<stop  offset="1" style="stop-color:#176DFF"/>
		</linearGradient>
		<path fill="url(#SVGID_2_)" d="M10.714,8.929H9.126V8.234l1.964-2.063c0.298-0.318,0.298-0.833,0-1.171
			C10.794,4.663,10.297,4.682,10,5L8.333,6.746L6.686,5C6.389,4.682,5.893,4.682,5.595,5s-0.298,0.833,0,1.171L7.54,8.234v0.694
			H5.952c-0.437,0-0.793,0.357-0.793,0.793s0.357,0.794,0.793,0.794H7.54V12.5c0,0.437,0.357,0.794,0.793,0.794
			s0.793-0.357,0.793-0.794v-1.984h1.588c0.437,0,0.793-0.357,0.793-0.794S11.151,8.929,10.714,8.929z M19.842,9.127
			c0,0.437-0.358,0.793-0.795,0.793h-4.761c-0.437,0-0.794-0.357-0.794-0.793s0.357-0.794,0.794-0.794h4.761
			C19.483,8.333,19.842,8.69,19.842,9.127L19.842,9.127z M19.842,5.556c0,0.437-0.358,0.793-0.795,0.793h-4.761
			c-0.437,0-0.794-0.357-0.794-0.793s0.357-0.794,0.794-0.794h4.761C19.483,4.762,19.842,5.119,19.842,5.556L19.842,5.556z
			 M19.842,12.5c0,0.437-0.358,0.794-0.795,0.794h-4.761c-0.437,0-0.794-0.357-0.794-0.794s0.357-0.794,0.794-0.794h4.761
			C19.483,11.706,19.842,12.063,19.842,12.5L19.842,12.5z M19.842,15.873c0,0.437-0.358,0.793-0.795,0.793H5.952
			c-0.437,0-0.793-0.357-0.793-0.793s0.357-0.793,0.793-0.793h13.095C19.483,15.08,19.842,15.437,19.842,15.873L19.842,15.873z
			 M19.842,19.246c0,0.436-0.358,0.793-0.795,0.793H5.952c-0.437,0-0.793-0.357-0.793-0.793c0-0.437,0.357-0.793,0.793-0.793h13.095
			C19.483,18.453,19.842,18.81,19.842,19.246L19.842,19.246z"/>
	</g>
</g>
<g>
	<rect x="2.378" y="51.796" fill="#FFFFFF" width="20.188" height="22.845"/>
	<g>
		<path fill="#B5B5B5" d="M21.429,75.797H3.571c-1.31,0-2.38-1.071-2.38-2.381V53.179c0-1.31,1.071-2.381,2.38-2.381h17.858
			c1.309,0,2.381,1.071,2.381,2.381v20.238C23.81,74.726,22.737,75.797,21.429,75.797z M3.571,52.385
			c-0.437,0-0.793,0.357-0.793,0.794v20.238c0,0.437,0.357,0.793,0.793,0.793h17.858c0.436,0,0.793-0.357,0.793-0.793V53.179
			c0-0.437-0.357-0.794-0.793-0.794H3.571z"/>
		<path fill="#B5B5B5" d="M10.714,59.726H9.126v-0.694l1.964-2.063c0.298-0.318,0.298-0.833,0-1.171
			c-0.297-0.337-0.793-0.318-1.091,0l-1.667,1.746l-1.647-1.746c-0.297-0.318-0.793-0.318-1.091,0s-0.298,0.833,0,1.171l1.944,2.063
			v0.694H5.952c-0.437,0-0.793,0.357-0.793,0.793s0.357,0.794,0.793,0.794H7.54v1.984c0,0.437,0.357,0.794,0.793,0.794
			s0.793-0.357,0.793-0.794v-1.984h1.588c0.437,0,0.793-0.357,0.793-0.794S11.151,59.726,10.714,59.726z M19.842,59.924
			c0,0.437-0.358,0.793-0.795,0.793h-4.761c-0.437,0-0.794-0.357-0.794-0.793s0.357-0.794,0.794-0.794h4.761
			C19.483,59.13,19.842,59.488,19.842,59.924L19.842,59.924z M19.842,56.353c0,0.437-0.358,0.793-0.795,0.793h-4.761
			c-0.437,0-0.794-0.357-0.794-0.793s0.357-0.794,0.794-0.794h4.761C19.483,55.559,19.842,55.917,19.842,56.353L19.842,56.353z
			 M19.842,63.297c0,0.437-0.358,0.794-0.795,0.794h-4.761c-0.437,0-0.794-0.357-0.794-0.794s0.357-0.794,0.794-0.794h4.761
			C19.483,62.503,19.842,62.861,19.842,63.297L19.842,63.297z M19.842,66.67c0,0.437-0.358,0.793-0.795,0.793H5.952
			c-0.437,0-0.793-0.357-0.793-0.793s0.357-0.793,0.793-0.793h13.095C19.483,65.877,19.842,66.234,19.842,66.67L19.842,66.67z
			 M19.842,70.043c0,0.436-0.358,0.793-0.795,0.793H5.952c-0.437,0-0.793-0.357-0.793-0.793c0-0.437,0.357-0.793,0.793-0.793h13.095
			C19.483,69.25,19.842,69.607,19.842,70.043L19.842,70.043z"/>
	</g>
</g>
<g>
	<path fill="#FFFFFF" d="M2.192,204.777h16.667v21.826H2.192V204.777z"/>
	<linearGradient id="SVGID_3_" gradientUnits="userSpaceOnUse" x1="3.7798" y1="215.5903" x2="16.875" y2="215.5903">
		<stop  offset="0" style="stop-color:#358DFF"/>
		<stop  offset="1" style="stop-color:#176DFF"/>
	</linearGradient>
	<path fill="url(#SVGID_3_)" d="M16.875,212.317c0,0.437-0.356,0.793-0.794,0.793h-3.174c-0.437,0-0.794-0.356-0.794-0.793
		s0.357-0.794,0.794-0.794h3.174C16.519,211.523,16.875,211.88,16.875,212.317z M16.875,208.746c0,0.437-0.356,0.793-0.794,0.793
		h-3.174c-0.437,0-0.794-0.356-0.794-0.793c0-0.438,0.357-0.794,0.794-0.794h3.174C16.519,207.952,16.875,208.308,16.875,208.746z
		 M16.875,215.69c0,0.437-0.356,0.794-0.794,0.794h-3.174c-0.437,0-0.794-0.357-0.794-0.794s0.357-0.794,0.794-0.794h3.174
		C16.519,214.896,16.875,215.253,16.875,215.69z M16.479,219.063c0,0.437-0.357,0.794-0.794,0.794H4.574
		c-0.437,0-0.794-0.357-0.794-0.794s0.357-0.794,0.794-0.794h11.111C16.121,218.269,16.479,218.626,16.479,219.063z M16.479,222.436
		c0,0.437-0.357,0.793-0.794,0.793H4.574c-0.437,0-0.794-0.356-0.794-0.793c0-0.438,0.357-0.794,0.794-0.794h11.111
		C16.121,221.642,16.479,221.999,16.479,222.436z"/>
	<path fill="#FFFFFF" d="M12.907,221.841c0,2.849,2.31,5.158,5.159,5.158c2.85,0,5.158-2.31,5.158-5.158
		c0-2.85-2.309-5.16-5.158-5.16C15.217,216.681,12.907,218.992,12.907,221.841z"/>
	<linearGradient id="SVGID_4_" gradientUnits="userSpaceOnUse" x1="3.7798" y1="215.8882" x2="20.5469" y2="215.8882">
		<stop  offset="0" style="stop-color:#358DFF"/>
		<stop  offset="1" style="stop-color:#176DFF"/>
	</linearGradient>
	<path fill="url(#SVGID_4_)" d="M19.652,221.841h-0.793v-0.378l1.448-1.448c0.318-0.317,0.318-0.813,0-1.13
		c-0.317-0.318-0.813-0.318-1.131,0l-1.131,1.13l-1.131-1.13c-0.317-0.318-0.814-0.318-1.131,0c-0.317,0.316-0.317,0.813,0,1.13
		l1.449,1.448v0.378h-0.795c-0.436,0-0.794,0.356-0.794,0.793s0.358,0.794,0.794,0.794h0.795v1.171c0,0.337,0.356,0.614,0.792,0.614
		c0.437,0,0.795-0.277,0.795-0.614v-1.171h0.794c0.436,0,0.793-0.357,0.793-0.794S20.09,221.841,19.652,221.841L19.652,221.841z
		 M7.152,211.325c1.31,0,2.381-1.071,2.381-2.381c0-1.309-1.071-2.381-2.381-2.381s-2.381,1.072-2.381,2.381
		C4.771,210.253,5.843,211.325,7.152,211.325z M7.152,208.151c0.437,0,0.793,0.356,0.793,0.793s-0.357,0.794-0.793,0.794
		c-0.437,0-0.793-0.357-0.793-0.794S6.715,208.151,7.152,208.151z M8.145,211.919H6.161c-1.31,0-2.381,1.072-2.381,2.381v1.588
		c0,0.655,0.535,1.191,1.19,1.191h4.365c0.654,0,1.19-0.536,1.19-1.191V214.3C10.526,212.992,9.454,211.919,8.145,211.919z
		 M8.938,215.492H5.367V214.3c0-0.436,0.357-0.793,0.793-0.793h1.984c0.436,0,0.793,0.357,0.793,0.793V215.492z"/>
	<linearGradient id="SVGID_5_" gradientUnits="userSpaceOnUse" x1="0.6045" y1="215.6899" x2="24.3955" y2="215.6899">
		<stop  offset="0" style="stop-color:#358DFF"/>
		<stop  offset="1" style="stop-color:#176DFF"/>
	</linearGradient>
	<path fill="url(#SVGID_5_)" d="M20.347,215.928v-10.357c0-1.31-1.07-2.381-2.381-2.381H2.985c-1.31,0-2.381,1.071-2.381,2.381
		v20.238c0,1.31,1.071,2.381,2.381,2.381h15.061c3.492,0,6.35-2.856,6.35-6.349C24.415,219.142,22.729,216.84,20.347,215.928
		L20.347,215.928z M2.985,226.603c-0.436,0-0.793-0.357-0.793-0.794v-20.238c0-0.437,0.357-0.794,0.793-0.794h14.98
		c0.438,0,0.794,0.357,0.794,0.794v9.96c-0.238-0.02-0.456-0.039-0.694-0.039c-3.492,0-6.349,2.857-6.349,6.35
		c0,1.885,0.833,3.591,2.163,4.762H2.985z M18.065,226.603c-2.618,0-4.762-2.144-4.762-4.762c0-2.619,2.144-4.762,4.762-4.762
		c2.619,0,4.762,2.143,4.762,4.762C22.827,224.459,20.685,226.603,18.065,226.603z"/>
</g>
<g>
	<path fill="#FFFFFF" d="M2.192,255.575h16.667v21.826H2.192V255.575z"/>
	<path fill="#B5B5B5" d="M16.875,263.115c0,0.437-0.356,0.793-0.794,0.793h-3.174c-0.437,0-0.794-0.356-0.794-0.793
		s0.357-0.794,0.794-0.794h3.174C16.519,262.321,16.875,262.678,16.875,263.115z M16.875,259.543c0,0.437-0.356,0.793-0.794,0.793
		h-3.174c-0.437,0-0.794-0.356-0.794-0.793c0-0.438,0.357-0.794,0.794-0.794h3.174C16.519,258.75,16.875,259.106,16.875,259.543z
		 M16.875,266.488c0,0.437-0.356,0.794-0.794,0.794h-3.174c-0.437,0-0.794-0.357-0.794-0.794s0.357-0.794,0.794-0.794h3.174
		C16.519,265.694,16.875,266.051,16.875,266.488z M16.479,269.861c0,0.437-0.357,0.794-0.794,0.794H4.574
		c-0.437,0-0.794-0.357-0.794-0.794s0.357-0.794,0.794-0.794h11.111C16.121,269.067,16.479,269.424,16.479,269.861z M16.479,273.234
		c0,0.437-0.357,0.793-0.794,0.793H4.574c-0.437,0-0.794-0.356-0.794-0.793c0-0.438,0.357-0.794,0.794-0.794h11.111
		C16.121,272.44,16.479,272.796,16.479,273.234z"/>
	<path fill="#FFFFFF" d="M12.907,272.639c0,2.849,2.31,5.158,5.159,5.158c2.85,0,5.158-2.31,5.158-5.158
		c0-2.85-2.309-5.16-5.158-5.16C15.217,267.479,12.907,269.79,12.907,272.639z"/>
	<path fill="#B5B5B5" d="M19.652,272.639h-0.793v-0.378l1.448-1.448c0.318-0.317,0.318-0.813,0-1.13
		c-0.317-0.318-0.813-0.318-1.131,0l-1.131,1.13l-1.131-1.13c-0.317-0.318-0.814-0.318-1.131,0c-0.317,0.316-0.317,0.813,0,1.13
		l1.449,1.448v0.378h-0.795c-0.436,0-0.794,0.356-0.794,0.793s0.358,0.794,0.794,0.794h0.795v1.171c0,0.337,0.356,0.614,0.792,0.614
		c0.437,0,0.795-0.277,0.795-0.614v-1.171h0.794c0.436,0,0.793-0.357,0.793-0.794S20.09,272.639,19.652,272.639L19.652,272.639z
		 M7.152,262.123c1.31,0,2.381-1.071,2.381-2.381s-1.071-2.381-2.381-2.381s-2.381,1.071-2.381,2.381S5.843,262.123,7.152,262.123z
		 M7.152,258.949c0.437,0,0.793,0.356,0.793,0.793s-0.357,0.794-0.793,0.794c-0.437,0-0.793-0.357-0.793-0.794
		S6.715,258.949,7.152,258.949z M8.145,262.717H6.161c-1.31,0-2.381,1.072-2.381,2.381v1.588c0,0.655,0.535,1.191,1.19,1.191h4.365
		c0.654,0,1.19-0.536,1.19-1.191v-1.588C10.526,263.79,9.454,262.717,8.145,262.717z M8.938,266.29H5.367v-1.191
		c0-0.436,0.357-0.793,0.793-0.793h1.984c0.436,0,0.793,0.357,0.793,0.793V266.29z"/>
	<path fill="#B5B5B5" d="M20.347,266.726v-10.357c0-1.31-1.07-2.381-2.381-2.381H2.985c-1.31,0-2.381,1.071-2.381,2.381v20.238
		c0,1.31,1.071,2.381,2.381,2.381h15.061c3.492,0,6.35-2.856,6.35-6.349C24.415,269.94,22.729,267.638,20.347,266.726
		L20.347,266.726z M2.985,277.401c-0.436,0-0.793-0.357-0.793-0.794v-20.238c0-0.437,0.357-0.794,0.793-0.794h14.98
		c0.438,0,0.794,0.357,0.794,0.794v9.96c-0.238-0.02-0.456-0.039-0.694-0.039c-3.492,0-6.349,2.857-6.349,6.35
		c0,1.885,0.833,3.591,2.163,4.762H2.985z M18.065,277.401c-2.618,0-4.762-2.144-4.762-4.762c0-2.619,2.144-4.762,4.762-4.762
		c2.619,0,4.762,2.143,4.762,4.762C22.827,275.257,20.685,277.401,18.065,277.401z"/>
</g>
<g>
	<path fill="#FFFFFF" d="M15.08,328.992H3.571c-0.873,0-1.587-0.714-1.587-1.587v-5.556c0-1.746,1.429-3.175,3.175-3.175h8.333
		c1.746,0,3.175,1.429,3.175,3.175v5.556C16.667,328.278,15.953,328.992,15.08,328.992z"/>
	<path fill="#FFFFFF" d="M10.318,319.012h12.698v9.523H10.318V319.012z"/>
	<path fill="#FFFFFF" d="M12.698,312.801c0.694,1.012,1.945,1.706,3.373,1.706c2.183,0,3.969-1.606,3.969-3.571v-3.571
		c0-0.793-0.715-1.429-1.588-1.429h-4.761"/>
	<path fill="#FFFFFF" d="M12.698,306.253c-0.277-0.197-0.615-0.317-0.992-0.317H6.945c-0.874,0-1.588,0.636-1.588,1.429v3.571
		c0,1.965,1.786,3.571,3.968,3.571c1.429,0,2.679-0.674,3.373-1.706c0.377-0.535,0.595-1.19,0.595-1.885v-3.552
		C13.293,306.909,13.055,306.511,12.698,306.253z"/>
	<g>
		<linearGradient id="SVGID_6_" gradientUnits="userSpaceOnUse" x1="13.6865" y1="323.8286" x2="20.0439" y2="323.8286">
			<stop  offset="0" style="stop-color:#358DFF"/>
			<stop  offset="1" style="stop-color:#176DFF"/>
		</linearGradient>
		<path fill="url(#SVGID_6_)" d="M14.484,323.436h4.762c0.298,0,0.575-0.179,0.715-0.437c0.139-0.277,0.099-0.595-0.08-0.833
			l-1.229-1.587c-0.278-0.338-0.774-0.417-1.111-0.139c-0.338,0.277-0.417,0.773-0.139,1.11l0.237,0.298h-3.154
			c-0.437,0-0.793,0.357-0.793,0.793C13.691,323.079,14.048,323.436,14.484,323.436z M19.246,324.23h-4.762
			c-0.298,0-0.576,0.179-0.715,0.437c-0.139,0.277-0.099,0.596,0.08,0.833l1.23,1.587c0.158,0.199,0.396,0.298,0.634,0.298
			c0.179,0,0.338-0.059,0.497-0.158c0.337-0.278,0.416-0.773,0.138-1.111l-0.237-0.298h3.135c0.437,0,0.794-0.356,0.794-0.793
			S19.683,324.23,19.246,324.23z"/>
		<linearGradient id="SVGID_7_" gradientUnits="userSpaceOnUse" x1="1.1904" y1="317.2847" x2="23.8096" y2="317.2847">
			<stop  offset="0" style="stop-color:#358DFF"/>
			<stop  offset="1" style="stop-color:#176DFF"/>
		</linearGradient>
		<path fill="url(#SVGID_7_)" d="M21.429,317.881H5.159c-2.183,0-3.968,1.785-3.968,3.968v5.556c0,1.31,1.071,2.38,2.381,2.38
			h17.857c1.31,0,2.381-1.07,2.381-2.38v-7.143C23.81,318.952,22.738,317.881,21.429,317.881z M9.663,328.199H3.571
			c-0.436,0-0.793-0.357-0.793-0.794v-5.556c0-1.31,1.071-2.381,2.381-2.381h4.504c-0.079,0.258-0.139,0.516-0.139,0.794v7.143
			C9.524,327.682,9.583,327.94,9.663,328.199z M22.223,327.405c0,0.437-0.357,0.794-0.794,0.794h-9.524
			c-0.437,0-0.794-0.357-0.794-0.794v-7.143c0-0.438,0.357-0.794,0.794-0.794h9.524c0.437,0,0.794,0.356,0.794,0.794V327.405
			L22.223,327.405z M9.325,315.897c1.29,0,2.5-0.517,3.373-1.409c0.873,0.893,2.083,1.409,3.373,1.409
			c2.619,0,4.763-2.143,4.763-4.763v-3.968c0-1.31-1.072-2.382-2.382-2.382h-4.761c-0.299,0-0.537,0.159-0.676,0.398
			c-0.376-0.259-0.833-0.398-1.309-0.398H6.945c-1.31,0-2.381,1.072-2.381,2.382v3.968C4.563,313.754,6.707,315.897,9.325,315.897z
			 M14.087,311.134v-3.968c0-0.277-0.039-0.535-0.138-0.794h4.503c0.437,0,0.794,0.357,0.794,0.794v3.968
			c0,1.747-1.429,3.175-3.175,3.175c-0.952,0-1.845-0.416-2.44-1.15C13.929,312.523,14.087,311.829,14.087,311.134z M6.151,307.167
			c0-0.437,0.357-0.794,0.794-0.794h4.762c0.238,0,0.397,0.1,0.496,0.179c0.199,0.159,0.298,0.377,0.298,0.615v3.968
			c0,0.596-0.159,1.171-0.476,1.667c-0.575,0.953-1.587,1.508-2.699,1.508c-1.746,0-3.174-1.428-3.174-3.175V307.167z"/>
	</g>
</g>
<g>
	<path fill="#FFFFFF" d="M15.08,379.79H3.571c-0.873,0-1.587-0.714-1.587-1.587v-5.556c0-1.746,1.429-3.175,3.175-3.175h8.333
		c1.746,0,3.175,1.429,3.175,3.175v5.556C16.667,379.076,15.953,379.79,15.08,379.79z"/>
	<path fill="#FFFFFF" d="M10.318,369.81h12.698v9.523H10.318V369.81z"/>
	<path fill="#FFFFFF" d="M12.698,363.599c0.695,1.012,1.946,1.706,3.374,1.706c2.183,0,3.969-1.606,3.969-3.571v-3.571
		c0-0.793-0.715-1.429-1.588-1.429h-4.761"/>
	<path fill="#FFFFFF" d="M12.698,357.051c-0.277-0.197-0.615-0.317-0.991-0.317H6.944c-0.873,0-1.587,0.636-1.587,1.429v3.571
		c0,1.965,1.786,3.571,3.968,3.571c1.429,0,2.678-0.674,3.373-1.706c0.377-0.535,0.595-1.19,0.595-1.885v-3.552
		C13.293,357.707,13.055,357.309,12.698,357.051z"/>
	<g>
		<path fill="#B5B5B5" d="M14.484,374.234h4.762c0.298,0,0.575-0.179,0.715-0.437c0.139-0.277,0.099-0.595-0.08-0.833l-1.229-1.587
			c-0.278-0.338-0.774-0.417-1.111-0.139c-0.338,0.277-0.417,0.772-0.139,1.11l0.237,0.298h-3.154c-0.437,0-0.793,0.357-0.793,0.793
			C13.691,373.876,14.048,374.234,14.484,374.234z M19.246,375.028h-4.762c-0.298,0-0.576,0.179-0.715,0.437
			c-0.139,0.277-0.099,0.596,0.08,0.833l1.23,1.587c0.158,0.199,0.396,0.298,0.634,0.298c0.179,0,0.338-0.059,0.497-0.158
			c0.337-0.278,0.416-0.773,0.138-1.111l-0.237-0.298h3.135c0.437,0,0.794-0.356,0.794-0.793S19.683,375.028,19.246,375.028z"/>
		<path fill="#B5B5B5" d="M21.429,368.679H5.159c-2.183,0-3.968,1.785-3.968,3.968v5.556c0,1.31,1.071,2.38,2.381,2.38h17.857
			c1.31,0,2.381-1.07,2.381-2.38v-7.143C23.81,369.75,22.738,368.679,21.429,368.679z M9.662,378.997H3.571
			c-0.436,0-0.793-0.357-0.793-0.794v-5.556c0-1.31,1.071-2.381,2.381-2.381h4.503c-0.079,0.258-0.138,0.516-0.138,0.794v7.143
			C9.524,378.48,9.583,378.738,9.662,378.997z M22.223,378.203c0,0.437-0.357,0.794-0.794,0.794h-9.524
			c-0.437,0-0.793-0.357-0.793-0.794v-7.143c0-0.438,0.357-0.794,0.793-0.794h9.524c0.437,0,0.794,0.356,0.794,0.794V378.203
			L22.223,378.203z M9.325,366.695c1.29,0,2.5-0.517,3.373-1.409c0.874,0.893,2.083,1.409,3.374,1.409
			c2.619,0,4.763-2.143,4.763-4.763v-3.968c0-1.31-1.072-2.382-2.382-2.382h-4.761c-0.299,0-0.537,0.159-0.676,0.398
			c-0.376-0.259-0.833-0.398-1.309-0.398H6.944c-1.31,0-2.381,1.072-2.381,2.382v3.968C4.563,364.552,6.707,366.695,9.325,366.695z
			 M14.087,361.932v-3.968c0-0.277-0.039-0.535-0.138-0.794h4.503c0.437,0,0.794,0.357,0.794,0.794v3.968
			c0,1.747-1.429,3.175-3.175,3.175c-0.952,0-1.845-0.416-2.44-1.15C13.929,363.321,14.087,362.626,14.087,361.932z M6.151,357.964
			c0-0.437,0.357-0.794,0.793-0.794h4.762c0.238,0,0.397,0.1,0.496,0.179c0.199,0.159,0.298,0.377,0.298,0.615v3.968
			c0,0.596-0.159,1.171-0.476,1.667c-0.575,0.953-1.588,1.508-2.699,1.508c-1.746,0-3.174-1.428-3.174-3.175V357.964z"/>
	</g>
</g>
<g>
	<path fill="#FFFFFF" d="M20.834,125.801H4.167c-0.873,0-1.587-0.714-1.587-1.587v-20.238c0-0.873,0.714-1.587,1.587-1.587h16.667
		c0.872,0,1.587,0.714,1.587,1.587v20.238C22.421,125.087,21.706,125.801,20.834,125.801L20.834,125.801z"/>
	<path fill="#FFFFFF" d="M14.087,109.532v-1.19c0-0.218-0.178-0.397-0.396-0.397H11.31c-0.218,0-0.396,0.179-0.396,0.397v1.19
		c0,0.873,0.714,1.587,1.587,1.587S14.087,110.405,14.087,109.532z"/>
	<linearGradient id="SVGID_8_" gradientUnits="userSpaceOnUse" x1="8.5322" y1="121.0396" x2="16.4678" y2="121.0396">
		<stop  offset="0" style="stop-color:#358DFF"/>
		<stop  offset="1" style="stop-color:#176DFF"/>
	</linearGradient>
	<path fill="url(#SVGID_8_)" d="M15.674,118.658H9.326c-0.437,0-0.794,0.357-0.794,0.794s0.357,0.793,0.794,0.793h6.348
		c0.438,0,0.794-0.357,0.794-0.793S16.111,118.658,15.674,118.658z M15.674,121.833H9.326c-0.437,0-0.794,0.357-0.794,0.793
		s0.357,0.793,0.794,0.793h6.348c0.438,0,0.794-0.357,0.794-0.793S16.111,121.833,15.674,121.833z"/>
	<linearGradient id="SVGID_9_" gradientUnits="userSpaceOnUse" x1="1.7861" y1="114.0952" x2="23.2139" y2="114.0952">
		<stop  offset="0" style="stop-color:#358DFF"/>
		<stop  offset="1" style="stop-color:#176DFF"/>
	</linearGradient>
	<path fill="url(#SVGID_9_)" d="M20.834,101.595H4.167c-1.31,0-2.381,1.071-2.381,2.381v20.238c0,1.31,1.071,2.381,2.381,2.381
		h16.667c1.309,0,2.38-1.071,2.38-2.381v-20.238C23.214,102.667,22.143,101.595,20.834,101.595L20.834,101.595z M20.834,103.183
		c0.436,0,0.793,0.357,0.793,0.793v0.397H3.373v-0.397c0-0.437,0.357-0.793,0.794-0.793H20.834L20.834,103.183z M20.834,125.008
		H4.167c-0.437,0-0.794-0.357-0.794-0.793V105.96h18.254v18.254C21.627,124.651,21.27,125.008,20.834,125.008L20.834,125.008z"/>
	<linearGradient id="SVGID_10_" gradientUnits="userSpaceOnUse" x1="8.5322" y1="112.3096" x2="16.4678" y2="112.3096">
		<stop  offset="0" style="stop-color:#358DFF"/>
		<stop  offset="1" style="stop-color:#176DFF"/>
	</linearGradient>
	<path fill="url(#SVGID_10_)" d="M14.483,112.706h-3.968c-1.091,0-1.983,0.893-1.983,1.984v1.587c0,0.655,0.536,1.19,1.19,1.19
		h5.555c0.654,0,1.19-0.536,1.19-1.19v-1.587C16.468,113.599,15.575,112.706,14.483,112.706z M14.881,115.881h-4.762v-1.19
		c0-0.218,0.179-0.397,0.396-0.397h3.968c0.219,0,0.397,0.179,0.397,0.397V115.881z M12.5,111.913c1.31,0,2.381-1.071,2.381-2.381
		v-1.19c0-0.655-0.536-1.19-1.19-1.19H11.31c-0.654,0-1.19,0.536-1.19,1.19v1.19C10.119,110.841,11.19,111.913,12.5,111.913z
		 M11.707,108.738h1.587v0.793c0,0.437-0.356,0.794-0.794,0.794c-0.437,0-0.793-0.357-0.793-0.794V108.738z"/>
</g>
<g>
	<path fill="#FFFFFF" d="M20.834,176.599H4.167c-0.873,0-1.587-0.714-1.587-1.587v-20.238c0-0.873,0.714-1.587,1.587-1.587h16.667
		c0.872,0,1.587,0.714,1.587,1.587v20.238C22.421,175.884,21.706,176.599,20.834,176.599L20.834,176.599z"/>
	<path fill="#FFFFFF" d="M14.087,160.329v-1.19c0-0.218-0.178-0.397-0.396-0.397H11.31c-0.218,0-0.396,0.179-0.396,0.397v1.19
		c0,0.873,0.714,1.587,1.587,1.587S14.087,161.202,14.087,160.329z"/>
	<path fill="#B5B5B5" d="M15.674,169.456H9.326c-0.437,0-0.794,0.357-0.794,0.794s0.357,0.793,0.794,0.793h6.348
		c0.438,0,0.794-0.357,0.794-0.793S16.111,169.456,15.674,169.456z M15.674,172.631H9.326c-0.437,0-0.794,0.357-0.794,0.793
		s0.357,0.793,0.794,0.793h6.348c0.438,0,0.794-0.357,0.794-0.793S16.111,172.631,15.674,172.631z"/>
	<path fill="#B5B5B5" d="M20.834,152.393H4.167c-1.31,0-2.381,1.071-2.381,2.381v20.238c0,1.31,1.071,2.381,2.381,2.381h16.667
		c1.309,0,2.38-1.071,2.38-2.381v-20.238C23.214,153.464,22.143,152.393,20.834,152.393L20.834,152.393z M20.834,153.98
		c0.436,0,0.793,0.357,0.793,0.793v0.397H3.373v-0.397c0-0.437,0.357-0.793,0.794-0.793H20.834L20.834,153.98z M20.834,175.805
		H4.167c-0.437,0-0.794-0.357-0.794-0.793v-18.254h18.254v18.254C21.627,175.448,21.27,175.805,20.834,175.805L20.834,175.805z"/>
	<path fill="#B5B5B5" d="M14.483,163.503h-3.968c-1.091,0-1.983,0.893-1.983,1.984v1.587c0,0.654,0.536,1.19,1.19,1.19h5.555
		c0.654,0,1.19-0.536,1.19-1.19v-1.587C16.468,164.396,15.575,163.503,14.483,163.503z M14.881,166.678h-4.762v-1.19
		c0-0.218,0.179-0.397,0.396-0.397h3.968c0.219,0,0.397,0.179,0.397,0.397V166.678z M12.5,162.71c1.31,0,2.381-1.071,2.381-2.381
		v-1.19c0-0.655-0.536-1.19-1.19-1.19H11.31c-0.654,0-1.19,0.536-1.19,1.19v1.19C10.119,161.639,11.19,162.71,12.5,162.71z
		 M11.707,159.536h1.587v0.793c0,0.437-0.356,0.794-0.794,0.794c-0.437,0-0.793-0.357-0.793-0.794V159.536z"/>
</g>
</svg>
