<?xml version="1.0" encoding="utf-8"?>
<!-- Generator: Adobe Illustrator 16.0.0, SVG Export Plug-In . SVG Version: 6.00 Build 0)  -->
<!DOCTYPE svg PUBLIC "-//W3C//DTD SVG 1.1//EN" "http://www.w3.org/Graphics/SVG/1.1/DTD/svg11.dtd">
<svg version="1.1" id="图层_1" xmlns="http://www.w3.org/2000/svg" xmlns:xlink="http://www.w3.org/1999/xlink" x="0px" y="0px"
	 width="200px" height="200px" viewBox="0 0 200 200" enable-background="new 0 0 200 200" xml:space="preserve">
<path fill="#9E9E9E" d="M172.153,29.862H27.829c-11.92,0-21.588,9.668-21.588,21.588v97.119c0,11.92,9.668,21.57,21.588,21.57
	h144.342c11.92,0,21.588-9.668,21.588-21.57V51.45C193.741,39.53,184.073,29.862,172.153,29.862L172.153,29.862L172.153,29.862z
	 M126.321,72.708h29.975c2.381,0,4.578,3.241,4.578,5.621s-2.197,5.621-4.578,5.621h-29.975c-2.38,0-4.577-3.241-4.577-5.621
	S123.941,72.708,126.321,72.708L126.321,72.708z M126.321,96.732h29.975c2.381,0,4.578,3.241,4.578,5.622s-2.197,5.621-4.578,5.621
	h-29.975c-2.38,0-4.577-3.24-4.577-5.621S123.941,96.732,126.321,96.732L126.321,96.732z M28.47,138.498
	c-2.344-0.457-3.882-2.709-3.424-5.053c2.783-14.539,13.642-25.746,27.338-29.682c-7.104-3.809-12.012-11.225-12.012-19.849
	c0-12.47,10.144-22.596,22.595-22.596s22.595,10.145,22.595,22.596c0,8.624-4.907,16.04-12.012,19.849
	c13.733,3.936,24.591,15.197,27.338,29.791c0.439,2.344-1.099,4.596-3.442,5.035l0,0c-0.275,0.055-0.55,0.072-0.806,0.072
	 M170.706,131.998h-44.385c-2.38,0-4.577-3.24-4.577-5.621s2.197-5.621,4.577-5.621h44.385c2.381,0,4.578,3.24,4.578,5.621
	S173.087,131.998,170.706,131.998z"/>
</svg>
