<?xml version="1.0" encoding="utf-8"?>
<!-- Generator: Adobe Illustrator 16.0.0, SVG Export Plug-In . SVG Version: 6.00 Build 0)  -->
<!DOCTYPE svg PUBLIC "-//W3C//DTD SVG 1.1//EN" "http://www.w3.org/Graphics/SVG/1.1/DTD/svg11.dtd">
<svg version="1.1" id="图层_1" xmlns="http://www.w3.org/2000/svg" xmlns:xlink="http://www.w3.org/1999/xlink" x="0px" y="0px"
	 width="200px" height="200px" viewBox="0 0 200 200" enable-background="new 0 0 200 200" xml:space="preserve">
<g id="men_3">
	<g>
		<circle fill="#CCE1FF" cx="100.001" cy="100.003" r="84.999"/>
	</g>
	<g>
		<defs>
			<circle id="SVGID_1_" cx="100" cy="100" r="85"/>
		</defs>
		<clipPath id="SVGID_2_">
			<use xlink:href="#SVGID_1_"  overflow="visible"/>
		</clipPath>
		<g clip-path="url(#SVGID_2_)">
			<g>
				<path fill="#2A2D34" d="M115.466,137.703c0,0,23.669,3.459,27.163,7.1c3.043,3.17,9.371,33.535,10.836,40.197
					c-41.553,0-53.465,0-53.465,0v-43.115L115.466,137.703z"/>
				<rect x="87.554" y="122" fill="#D9A78C" width="24.894" height="27.295"/>
				<g>
					<path fill="#EAC0A7" d="M100,43.335c12.086,0,31.201,6.87,31.201,39.066c0,18.589-6.061,30.767-8.701,34.136
						c-2.431,3.1-16.09,9.705-22.5,9.705C100,93.703,100,43.335,100,43.335z"/>
					<path fill="#EAC0A7" d="M137.212,90.077c0.533-5.144-1.918-9.708-5.474-10.196c-3.557-0.488-6.871,3.287-7.404,8.432
						c-0.533,5.143,1.918,9.708,5.475,10.195S136.68,95.221,137.212,90.077z"/>
				</g>
				<g>
					<path fill="#F2D7BC" d="M100.001,43.335c-12.086,0-31.2,6.87-31.2,39.066c0,18.589,6.061,30.767,8.702,34.136
						c2.429,3.1,16.089,9.705,22.498,9.705C100.001,93.703,100.001,43.335,100.001,43.335z"/>
					<path fill="#F2D7BC" d="M62.789,90.077c-0.533-5.144,1.918-9.708,5.474-10.196c3.557-0.488,6.871,3.287,7.404,8.432
						c0.534,5.143-1.918,9.708-5.475,10.195C66.638,98.995,63.322,95.221,62.789,90.077z"/>
				</g>
				<path fill="#690102" d="M83.723,50.066c0,0-10.557,12.525-6.514,24.204c0.674,13.925-0.673,18.641-5.165,22.459
					c1.122-13.476-0.225-17.968-5.165-16.396C64.857,69.778,69.217,41.343,83.723,50.066z"/>
				<path fill="#690102" d="M116.195,50.066c0,0,10.558,12.525,6.514,24.204c-0.674,13.925,0.674,18.641,5.166,22.459
					c-1.122-13.476,0.225-17.968,5.166-16.396C135.062,69.778,130.701,41.343,116.195,50.066z"/>
				<path fill="#2F343A" d="M84.534,137.703c0,0-23.668,3.459-27.163,7.1C54.328,147.973,48,178.338,46.537,185
					c41.551,0,53.463,0,53.463,0v-43.115L84.534,137.703z"/>
				<polyline fill="#B9C7D0" points="115.752,137.068 100,140.295 84.249,137.068 100,185 				"/>
				<polygon fill="#129E95" points="98.688,146.758 96.116,179.174 100,185 103.884,179.174 101.313,146.758 				"/>
				<path fill="#3A404C" d="M88.645,157.76l-12.527-18.582c3.43-1.242,7.109-2.176,10.979-2.807L100.001,185l-18.096-25.906
					L88.645,157.76z"/>
				<path fill="#3A404C" d="M111.359,157.76l12.526-18.582c-3.43-1.242-7.109-2.176-10.979-2.807L100.001,185l18.097-25.906
					L111.359,157.76z"/>
				<path fill="#129E95" d="M104.25,144.682l-4.249,4.377l-4.248-4.377l4.248-4.379L104.25,144.682z"/>
				<polygon fill="#FFFFFF" points="100,140.297 112.639,133.906 119.154,137.703 105.625,148.516 				"/>
				<polygon fill="#FFFFFF" points="100.002,140.297 87.364,133.906 80.848,137.703 94.147,148.516 				"/>
			</g>
			<path fill="#690102" d="M129.823,55.56c-4.972-20.433-35.263-36.481-56.555-4.409c-1.366,6.325,4.583,9.292,4.583,9.292
				s3.973-9.292,22.193-5.004c9.074-1.983,17.914-3.461,21.994,4.929C126.119,68.756,129.823,55.56,129.823,55.56z"/>
			<path fill="#690102" d="M117.881,112.447c-6.248,0-10.716-5.076-17.881-5.076s-11.634,5.076-17.882,5.076
				c-6.85,0-11.159-11.807-12.459-15.945c1.765,11.912,5.813,19.711,7.844,22.301c2.429,3.1,16.088,9.705,22.497,9.705h0.001l0,0
				c6.41,0,20.068-6.605,22.499-9.705c2.029-2.59,6.08-10.395,7.844-22.313C129.049,100.615,124.738,112.447,117.881,112.447z"/>
			<path fill="#FFFFFF" d="M100.002,118.125c2.106,0,3.814-0.891,3.814-1.986h-7.629C96.188,117.234,97.895,118.125,100.002,118.125
				z"/>
		</g>
	</g>
</g>
</svg>
