<?xml version="1.0" encoding="utf-8"?>
<!-- Generator: Adobe Illustrator 16.0.0, SVG Export Plug-In . SVG Version: 6.00 Build 0)  -->
<!DOCTYPE svg PUBLIC "-//W3C//DTD SVG 1.1//EN" "http://www.w3.org/Graphics/SVG/1.1/DTD/svg11.dtd">
<svg version="1.1" id="图层_1" xmlns="http://www.w3.org/2000/svg" xmlns:xlink="http://www.w3.org/1999/xlink" x="0px" y="0px"
	 width="200px" height="200px" viewBox="0 0 200 200" enable-background="new 0 0 200 200" xml:space="preserve">
<path fill="#9E9E9E" d="M163.613,87.109h-17.422V56.875c0-24.492-18.906-44.375-42.246-44.375h-7.91
	c-23.32,0-42.227,19.883-42.227,44.375v30.234H36.387c-4.668,0-8.438,3.965-8.438,8.887v82.637c0,4.902,3.77,8.867,8.438,8.867
	h127.227c4.668,0,8.457-3.984,8.457-8.867V95.996C172.051,91.074,168.281,87.109,163.613,87.109z M100,171.973
	c-8.809,0-15.977-7.5-15.977-16.777c0-5.898,2.891-11.055,7.266-14.043v-29.004c0-4.648,3.77-8.398,8.457-8.398
	c4.668,0,8.438,3.75,8.438,8.398v28.652c4.668,2.93,7.793,8.281,7.793,14.395C115.977,164.473,108.809,171.973,100,171.973
	L100,171.973z M132.637,87.109H68.848V60.195c0-16.465,13.066-29.824,29.16-29.824h5.469c16.094,0,29.16,13.359,29.16,29.824V87.109
	z"/>
</svg>
