<?xml version="1.0" encoding="utf-8"?>
<!-- Generator: Adobe Illustrator 16.0.0, SVG Export Plug-In . SVG Version: 6.00 Build 0)  -->
<!DOCTYPE svg PUBLIC "-//W3C//DTD SVG 1.1//EN" "http://www.w3.org/Graphics/SVG/1.1/DTD/svg11.dtd">
<svg version="1.1" id="图层_1" xmlns="http://www.w3.org/2000/svg" xmlns:xlink="http://www.w3.org/1999/xlink" x="0px" y="0px"
	 width="200px" height="200px" viewBox="0 0 200 200" enable-background="new 0 0 200 200" xml:space="preserve">
<g>
	<path fill="#9E9E9E" d="M50.641,12.5h98.718c9.871,0,17.948,8.077,17.948,17.949v139.102c0,9.873-8.077,17.949-17.948,17.949
		H50.641c-9.872,0-17.949-8.076-17.949-17.949V30.449C32.692,20.577,40.769,12.5,50.641,12.5z"/>
	<path fill="#FFFFFF" d="M82.276,156.988c-0.004,9.912,8.029,17.951,17.941,17.955c9.913,0.004,17.952-8.029,17.957-17.941
		c0-0.006,0-0.01,0-0.014c0.003-9.914-8.029-17.953-17.942-17.957s-17.952,8.029-17.956,17.941
		C82.276,156.978,82.276,156.982,82.276,156.988z"/>
</g>
</svg>
