<?xml version="1.0" encoding="utf-8"?>
<!-- Generator: Adobe Illustrator 16.0.0, SVG Export Plug-In . SVG Version: 6.00 Build 0)  -->
<!DOCTYPE svg PUBLIC "-//W3C//DTD SVG 1.1//EN" "http://www.w3.org/Graphics/SVG/1.1/DTD/svg11.dtd">
<svg version="1.1" id="图层_1" xmlns="http://www.w3.org/2000/svg" xmlns:xlink="http://www.w3.org/1999/xlink" x="0px" y="0px"
	 width="200px" height="200px" viewBox="0 0 200 200" enable-background="new 0 0 200 200" xml:space="preserve">
<path fill="#CCCCCC" d="M97.541,191.123c9.134,0,16.507-7.396,16.507-16.508v-32.971h33.233c9.199,0,16.595-7.395,16.595-16.551
	c0-9.111-7.396-16.551-16.595-16.551h-33.233v-16.55h33.233c9.199,0,16.595-7.373,16.595-16.53c0-9.132-7.396-16.527-16.595-16.527
	H122.3l22.823-22.869c6.451-6.449,6.451-16.925,0-23.417c-6.447-6.448-16.945-6.448-23.395,0.024L99.83,34.593L77.908,12.674
	C71.46,6.202,60.984,6.202,54.512,12.65c-6.47,6.493-6.47,16.969,0,23.417l22.846,22.869H48.02c-9.111,0-16.55,7.395-16.55,16.527
	c0,9.157,7.438,16.53,16.55,16.53h32.948v16.55H48.02c-9.111,0-16.55,7.439-16.55,16.551c0,9.156,7.438,16.551,16.55,16.551h32.948
	v32.971C80.99,183.729,88.407,191.123,97.541,191.123L97.541,191.123z"/>
</svg>
