<?xml version="1.0" encoding="utf-8"?>
<!-- Generator: Adobe Illustrator 16.0.0, SVG Export Plug-In . SVG Version: 6.00 Build 0)  -->
<!DOCTYPE svg PUBLIC "-//W3C//DTD SVG 1.1//EN" "http://www.w3.org/Graphics/SVG/1.1/DTD/svg11.dtd">
<svg version="1.1" id="图层_1" xmlns="http://www.w3.org/2000/svg" xmlns:xlink="http://www.w3.org/1999/xlink" x="0px" y="0px"
	 width="200px" height="200px" viewBox="0 0 200 200" enable-background="new 0 0 200 200" xml:space="preserve">
<path opacity="0.5" fill="#BBD5FF" d="M106.643,67.368c0.935,1.426,2.524,2.278,4.232,2.278h27.881c1.589,0,3.084-0.733,4.044-2
	l11.817-15.644c0.93-1.218,1.247-2.792,0.871-4.278c-0.367-1.495-1.387-2.732-2.782-3.376c-9.179-4.248-18.678-6.406-28.228-6.406
	c-15.797,0-26.263,5.94-26.703,6.198c-1.208,0.693-2.074,1.862-2.396,3.218c-0.321,1.356-0.069,2.782,0.698,3.95L106.643,67.368z
	 M142.543,51.171l-6.308,8.336h-22.628l-5.732-8.703C114.958,48.378,129.672,46.735,142.543,51.171z"/>
<path opacity="0.5" fill="#BBD5FF" d="M146.207,79.19l-1.04-0.515h-19.214c-0.068-0.01-0.128-0.04-0.197-0.04h-20.837l-1.039,0.515
	c-2.648,1.336-64.723,33.247-52.217,82.643c0.188,1.574,5.316,37.771,70.771,38.127c0.045,0,0.079,0.03,0.124,0.03
	c1.416,0.03,2.797,0.05,4.163,0.05c66.371,0,71.52-36.573,71.588-37.544C210.933,112.438,148.854,80.526,146.207,79.19z
	 M188.695,160.625c-0.178,1.217-5.068,29.276-61.523,29.485c-60.925,1.217-65.604-28.268-65.891-30.09
	c-9.911-39.286,38.436-67.445,46.025-71.583h16.826c0.069,0,0.129,0.04,0.198,0.04h18.455
	C150.37,92.605,198.735,120.724,188.695,160.625z"/>
<path opacity="0.5" fill="#BBD5FF" d="M142.944,107.091l-17.912,17.911l-17.91-17.911c-1.979-1.98-5.188-1.98-7.168,0
	c-1.98,1.979-1.98,5.188,0,7.168l16.154,16.158h-8.6c-2.802,0-5.068,2.258-5.068,5.069c0,2.792,2.267,5.068,5.068,5.068h12.634
	v8.061h-12.732c-3.024,0-5.476,2.454-5.476,5.483c0,3.021,2.451,5.467,5.476,5.467h12.732v10.989c0,2.812,2.268,5.069,5.069,5.069
	c2.803,0,5.069-2.258,5.069-5.069v-10.989h12.614c3.024,0,5.475-2.446,5.475-5.467c0-3.029-2.45-5.483-5.475-5.483H130.28v-8.061
	h12.713c2.803,0,5.069-2.276,5.069-5.068c0-2.812-2.267-5.069-5.069-5.069h-9.035l16.154-16.158c1.979-1.98,1.979-5.188,0-7.168
	C148.131,105.11,144.924,105.11,142.944,107.091z"/>
</svg>
