<?xml version="1.0" encoding="utf-8"?>
<!-- Generator: Adobe Illustrator 16.0.0, SVG Export Plug-In . SVG Version: 6.00 Build 0)  -->
<!DOCTYPE svg PUBLIC "-//W3C//DTD SVG 1.1//EN" "http://www.w3.org/Graphics/SVG/1.1/DTD/svg11.dtd">
<svg version="1.1" id="图层_1" xmlns="http://www.w3.org/2000/svg" xmlns:xlink="http://www.w3.org/1999/xlink" x="0px" y="0px"
	 width="200px" height="200px" viewBox="0 0 200 200" enable-background="new 0 0 200 200" xml:space="preserve">
<path fill="#9E9E9E" d="M98.242,104.688c25.801,0,46.777-20.664,46.777-46.094c0-25.41-20.978-46.094-46.777-46.094
	c-25.8,0-46.777,20.684-46.777,46.094C51.465,84.004,72.461,104.688,98.242,104.688z M117.52,109.121H82.48
	c-32.578,0-59.063,26.094-59.063,58.164v3.457c0,16.758,26.074,16.758,59.063,16.758h35.059c31.699,0,59.063,0,59.063-16.758v-3.457
	C176.582,135.215,150.098,109.121,117.52,109.121z"/>
</svg>
