<?xml version="1.0" standalone="no"?><!DOCTYPE svg PUBLIC "-//W3C//DTD SVG 1.1//EN" "http://www.w3.org/Graphics/SVG/1.1/DTD/svg11.dtd"><svg t="1550023215239" class="icon" style="" viewBox="0 0 1024 1024" version="1.1" xmlns="http://www.w3.org/2000/svg" p-id="8827" xmlns:xlink="http://www.w3.org/1999/xlink" width="200" height="200"><defs><style type="text/css"></style></defs><path d="M210.5088 777.17504v-195.15392H94.0544v195.15392H0V400.3072c0-28.57472 6.4-51.18976 19.19488-67.82464 12.79488-16.63488 30.49472-24.95488 53.10464-24.95488h159.31904c22.6048 0 40.0896 8.32 52.46464 24.95488 12.79488 16.63488 19.19488 39.24992 19.19488 67.82464v376.86784H210.5088z m0-357.03296H94.0544v78.05952h116.44928V420.14208zM570.22464 619.77088h-114.5344v157.39904H359.72096V307.52768h206.6688c33.26976 0 57.79456 7.26016 73.57952 21.75488 15.77472 14.50496 23.67488 37.96992 23.67488 70.37952v133.08416c0 58.02496-31.14496 87.02464-93.41952 87.02464z m0-199.6288H453.77536v106.8544h116.44928v-106.8544zM930.5856 619.77088h-114.5344v157.39904H720.0768V307.52768h206.6688c33.27488 0 57.79456 7.26016 73.58464 21.75488C1016.10496 343.79264 1024 367.2576 1024 399.6672v133.08416c0 58.01984-31.13984 87.01952-93.4144 87.01952z m0-199.6288H814.1312v106.8544h116.44928v-106.8544z" p-id="8828"></path></svg>