<?xml version="1.0" encoding="utf-8"?>
<!-- Generator: Adobe Illustrator 19.0.0, SVG Export Plug-In . SVG Version: 6.00 Build 0)  -->
<svg version="1.1" id="图层_1" xmlns="http://www.w3.org/2000/svg" xmlns:xlink="http://www.w3.org/1999/xlink" x="0px" y="0px"
	 viewBox="0 -60 200 200" style="enable-background:new 0 -60 200 200;" xml:space="preserve">
<style type="text/css">
	.st0{fill:#5D5D5D;}
</style>
<path class="st0" d="M113.9,40l73.3-73.3c3.7-3.7,3.7-9.8,0-13.5l-0.4-0.4c-3.7-3.7-9.8-3.7-13.5,0L100,26.2L26.7-47.2
	c-3.7-3.7-9.8-3.7-13.5,0l-0.4,0.4C9-43.1,9-37,12.8-33.3L86.1,40l-73.3,73.3c-3.7,3.7-3.7,9.8,0,13.5l0.4,0.4
	c3.7,3.7,9.8,3.7,13.5,0L100,53.9l73.3,73.3c3.7,3.7,9.8,3.7,13.5,0l0.4-0.4c3.7-3.7,3.7-9.8,0-13.5L113.9,40z"/>
</svg>
