<?xml version="1.0" encoding="utf-8"?>
<!-- Generator: Adobe Illustrator 19.0.0, SVG Export Plug-In . SVG Version: 6.00 Build 0)  -->
<svg version="1.1" id="图层_1" xmlns="http://www.w3.org/2000/svg" xmlns:xlink="http://www.w3.org/1999/xlink" x="0px" y="0px"
	 viewBox="0 -60 200 200" style="enable-background:new 0 -60 200 200;" xml:space="preserve">
<path d="M150,6.4v-37.4c0-5.5-4.5-10-10-10H60.2c-5.5,0-10,4.5-10,10V6.4H31.6v62.4h18.6v39.9c0,5.5,4.5,10,10,10H140
	c5.5,0,10-4.5,10-10V68.7h18.4V6.4L150,6.4L150,6.4z M140-28.6V6.4H60.2l0-34.9L140-28.6L140-28.6z M100.1,113.6c-2.8,0-5-2.2-5-5
	s2.2-5,5-5c2.8,0,5,2.2,5,5C105.1,111.4,102.8,113.6,100.1,113.6L100.1,113.6z M140,98.6H60.2l0-29.9H140L140,98.6L140,98.6
	L140,98.6z M46.7,64.5L37,12.1h8.4l6.1,36l7.4-36h9.7l7.1,36.6l6.2-36.6h8.2l-9.8,52.4h-8.7l-8.1-39.2l-8,39.2H46.7z M127.7,64.5
	h-8.9l-3.5-11.9H99.1l-3.3,11.9h-8.7l15.8-52.4h8.6L127.7,64.5z M112.6,43.7L107,24.3l-5.5,19.4H112.6z M132,64.5V12.1h13.1
	c5,0,8.2,0.3,9.7,0.8c2.3,0.8,4.3,2.5,5.8,5.1c1.6,2.6,2.3,6,2.3,10.2c0,3.2-0.5,5.9-1.4,8.1c-0.9,2.2-2,3.9-3.4,5.2
	c-1.4,1.3-2.8,2.1-4.2,2.5c-2,0.5-4.8,0.8-8.5,0.8h-5.3v19.8H132z M140.2,20.9v14.9h4.5c3.2,0,5.4-0.3,6.5-0.8
	c1.1-0.5,1.9-1.4,2.6-2.6c0.6-1.2,0.9-2.5,0.9-4.1c0-1.9-0.4-3.5-1.3-4.7c-0.9-1.2-2-2-3.3-2.3c-1-0.2-2.9-0.4-5.9-0.4H140.2z"/>
</svg>
