<?xml version="1.0" encoding="utf-8"?>
<!-- Generator: Adobe Illustrator 16.0.0, SVG Export Plug-In . SVG Version: 6.00 Build 0)  -->
<!DOCTYPE svg PUBLIC "-//W3C//DTD SVG 1.1//EN" "http://www.w3.org/Graphics/SVG/1.1/DTD/svg11.dtd">
<svg version="1.1" id="图层_1" xmlns="http://www.w3.org/2000/svg" xmlns:xlink="http://www.w3.org/1999/xlink" x="0px" y="0px"
	 width="200px" height="200px" viewBox="0 0 200 200" enable-background="new 0 0 200 200" xml:space="preserve">
<g>
	<path fill="#C6C6C6" d="M68.507,109.112c18.519,14.64,44.682,14.594,63.149-0.108c34.402,17.554,39.203,49.741,40.21,60.456
		c18.062-18.607,28.156-43.526,28.134-69.459C200.001,44.773,155.229,0,100,0C44.772,0,0,44.771,0,99.999c0,0.007,0,0.011,0,0.016
		c0,27.006,10.756,51.469,28.148,69.459C29.154,159.167,34.24,126.735,68.507,109.112z M100,29.631
		c21.675,0,39.299,17.623,39.299,39.285c0,21.662-17.624,39.271-39.299,39.271c-21.662,0-39.285-17.597-39.285-39.271
		C60.715,47.241,78.338,29.631,100,29.631z"/>
</g>
</svg>
